<svg xmlns="http://www.w3.org/2000/svg" viewBox="0 0 66.5 66.5" style="enable-background:new 0 0 66.5 66.5" xml:space="preserve"><path style="fill:#edc951" d="M66.5 35.5c0 16.568-13.431 30-30 30-16.568 0-30-13.432-30-30 0-16.569 13.432-30 30-30 16.569 0 30 13.431 30 30z"/><path style="fill:#fff" d="m38.676 42.331-10.768-6.255 10.576-6.256c1.169-.446 1.811.418 1.811 1.669v9.173c0 1.252-.449 2.115-1.619 1.669z"/><path d="M34.517 40.95c-.368 0-.747-.073-1.125-.217a1.66 1.66 0 0 1-.213-.101l-10.894-6.255a1.5 1.5 0 0 1-.006-2.598l10.763-6.256c.071-.041.145-.077.221-.106.378-.143.76-.216 1.135-.216 1.651 0 2.897 1.413 2.897 3.288v9.172c0 1.937-1.142 3.289-2.778 3.289zm-8.486-7.882 8.257 4.742c.005-.044.007-.094.007-.149v-9.172c0-.086-.009-.157-.019-.214l-8.245 4.793z"/><path d="M31.5 64C14.131 64 0 49.869 0 32.5S14.131 1 31.5 1 63 15.131 63 32.5 48.869 64 31.5 64zm0-60C15.785 4 3 16.785 3 32.5S15.785 61 31.5 61 60 48.215 60 32.5 47.215 4 31.5 4z"/></svg>