<svg width="64pt" height="64pt" viewBox="0 0 22.578 22.578" xmlns="http://www.w3.org/2000/svg"><g style="stroke-width:.820543"><g style="stroke-width:.820543"><path style="color:#000;fill:#f5f6e8;fill-opacity:1;stroke-width:.820543;stroke-linecap:round;stroke-linejoin:round;-inkscape-stroke:none" d="M36.582 91.508a1.867 1.867 0 0 0-1.865 1.865v8.113c-1.143.67-1.89 1.863-1.893 3.198a3.761 3.761 0 0 0 3.758 3.757 3.761 3.761 0 0 0 3.758-3.757c0-1.339-.746-2.536-1.893-3.207v-8.104a1.867 1.867 0 0 0-1.865-1.865z" transform="matrix(1.2187 0 0 1.2187 -36.204 -110.55)"/><path style="color:#000;fill:#2bb3cd;stroke-width:.217102;stroke-linecap:round;stroke-linejoin:round;-inkscape-stroke:none" d="M35.859 99.968v1.925a.193.193 0 0 1-.196.197h-.274a.712.712 0 0 0-.416.12c-.837.54-1.377 1.454-1.38 2.473a2.985 2.985 0 0 0 2.99 2.992 2.986 2.986 0 0 0 2.99-2.991c0-1.021-.539-1.938-1.378-2.481a.704.704 0 0 0-.417-.12l-.277.001a.19.19 0 0 1-.195-.194v-1.923a.728.728 0 0 0-.723-.723.728.728 0 0 0-.724.724z" transform="matrix(1.2187 0 0 1.2187 -36.204 -110.55)"/><path style="color:#000;fill:#2276bc;fill-opacity:1;stroke-width:.217102;stroke-linecap:round;stroke-linejoin:round;-inkscape-stroke:none" d="M36.583 99.244a.73.73 0 0 0-.703.55.728.728 0 0 1 .897.703v1.923c0 .11.084.194.194.193h.278c.152 0 .276.028.417.119.839.543 1.378 1.46 1.378 2.48a2.98 2.98 0 0 1-.627 1.836 2.984 2.984 0 0 0 1.156-2.364c0-1.021-.539-1.938-1.378-2.481a.704.704 0 0 0-.417-.12l-.277.001a.19.19 0 0 1-.195-.194v-1.922a.728.728 0 0 0-.723-.724z" transform="matrix(1.2187 0 0 1.2187 -36.204 -110.55)"/><path style="color:#000;fill:#dadcc6;fill-opacity:1;stroke-width:.820543;stroke-linecap:round;stroke-linejoin:round;-inkscape-stroke:none" d="M36.582 91.508c-.09 0-.178.006-.264.019.903.129 1.6.907 1.6 1.846v8.103c1.147.672 1.892 1.869 1.892 3.207a3.76 3.76 0 0 1-3.493 3.748 3.761 3.761 0 0 0 4.022-3.747c0-1.34-.745-2.536-1.892-3.208v-8.103a1.867 1.867 0 0 0-1.865-1.866z" transform="matrix(1.2187 0 0 1.2187 -36.204 -110.55)"/></g><path style="color:#000;fill:#000;stroke-width:.820543;stroke-linecap:round;stroke-linejoin:round;-inkscape-stroke:none" d="M10.418 276.107a1.868 1.868 0 0 0-1.866 1.865v8.114c-1.142.67-1.888 1.862-1.892 3.197a3.762 3.762 0 0 0 3.758 3.758 3.761 3.761 0 0 0 3.757-3.758c0-1.339-.746-2.536-1.892-3.207v-8.104a1.867 1.867 0 0 0-1.865-1.865zm0 .53c.745 0 1.338.59 1.338 1.335v1.838h-.88a.265.265 0 0 0 0 .53h.88v.594h-.417a.265.265 0 1 0 0 .529h.417v.593h-.88a.264.264 0 0 0 0 .53h.88v.593h-.417a.265.265 0 1 0 0 .53h.417v.593h-.664a.73.73 0 0 0-.674-.459.727.727 0 0 0-.723.723v1.498a.265.265 0 0 0 .53 0v-1.498c0-.112.08-.193.193-.193.112 0 .195.08.195.193v1.498c0 .145.118.263.264.264h.929a.264.264 0 0 0 .092.086 3.228 3.228 0 0 1-1.48 6.098 3.224 3.224 0 0 1-1.48-6.09.265.265 0 0 0 .144-.235v-8.215c0-.744.591-1.335 1.336-1.335zm4.889 1.666a1.147 1.147 0 0 0-.338.812.264.264 0 0 0 .529 0 .613.613 0 0 1 .182-.44.615.615 0 0 1 .439-.181.62.62 0 1 1 0 1.24H13.3a.264.264 0 0 0 0 .53h2.819c.632 0 1.152-.517 1.152-1.149s-.52-1.15-1.152-1.15c-.305 0-.615.151-.812.338zm2.415 1.431a.265.265 0 1 0 0 .53h.91a.265.265 0 0 0 0-.53zm-3.02 1.186a.265.265 0 0 0 0 .529h.77a.265.265 0 0 0 0-.53zm1.792 0a.265.265 0 1 0 0 .529h1.304c.347 0 .624.274.624.62 0 .345-.277.62-.624.62a.615.615 0 0 1-.439-.181.615.615 0 0 1-.182-.44.265.265 0 0 0-.529 0c0 .316.13.605.338.813a1.149 1.149 0 1 0 .812-1.961zm-2.736 1.769a.265.265 0 0 0 0 .53h1.373a.265.265 0 1 0 0-.53zm2.36.746a1.147 1.147 0 0 0-1.15 1.149.265.265 0 1 0 .53 0c0-.173.07-.326.182-.438a.615.615 0 0 1 .439-.182c.347 0 .623.275.623.62s-.276.619-.623.619H13.3a.265.265 0 0 0 0 .53h2.819c.632 0 1.152-.517 1.152-1.15 0-.63-.52-1.148-1.152-1.148zm-4.976 1.397h.614v.968h-.614zm6.58.371a.265.265 0 1 0 0 .53h.91a.265.265 0 0 0 0-.53zm-3.02 1.185a.265.265 0 0 0 0 .53h.77a.265.265 0 0 0 0-.53zm1.792 0a.265.265 0 1 0 0 .53h1.304a.62.62 0 1 1 0 1.24.614.614 0 0 1-.439-.182.612.612 0 0 1-.182-.437.265.265 0 1 0-.529 0 1.148 1.148 0 0 0 1.15 1.148c.633 0 1.153-.516 1.153-1.148 0-.632-.52-1.15-1.153-1.15zm-6.535.757a.265.265 0 0 0-.188.45l.383.383v.916l-.794-.459-.14-.521a.265.265 0 1 0-.512.136l.1.371-.37.1a.265.265 0 1 0 .136.512l.52-.14.795.459-.792.457-.523-.14a.265.265 0 1 0-.137.513l.371.099-.1.371a.265.265 0 1 0 .513.137l.14-.522.793-.458v.916l-.383.382a.265.265 0 1 0 .375.375l.272-.273.271.273a.265.265 0 0 0 .375 0 .265.265 0 0 0 0-.375l-.38-.38v-.917l.791.457.14.522a.265.265 0 1 0 .512-.137l-.1-.371.371-.1a.265.265 0 1 0-.137-.512l-.522.14-.791-.457.794-.458.52.139a.265.265 0 1 0 .136-.512l-.37-.1.099-.37a.265.265 0 1 0-.512-.137l-.14.521-.791.458v-.917l.38-.38a.265.265 0 0 0-.375-.373l-.271.27-.272-.27a.265.265 0 0 0-.187-.078z" transform="matrix(1.2187 0 0 1.2187 -4.317 -335.523)"/></g></svg>