<svg xmlns="http://www.w3.org/2000/svg" viewBox="0 0 22.578 22.578" height="64pt" width="64pt"><g style="display:inline"><path d="M-52.668 280.332a1.865 1.865 0 0 0-1.865 1.863v7.584c-1.144.67-1.89 1.862-1.893 3.198a3.763 3.763 0 0 0 3.758 3.76 3.763 3.763 0 0 0 3.758-3.76c0-1.339-.746-2.534-1.893-3.206v-7.576a1.865 1.865 0 0 0-1.865-1.863z" style="color:#000;font-style:normal;font-variant:normal;font-weight:400;font-stretch:normal;font-size:medium;line-height:normal;font-family:sans-serif;font-variant-ligatures:normal;font-variant-position:normal;font-variant-caps:normal;font-variant-numeric:normal;font-variant-alternates:normal;font-variant-east-asian:normal;font-feature-settings:normal;font-variation-settings:normal;text-indent:0;text-align:start;text-decoration:none;text-decoration-line:none;text-decoration-style:solid;text-decoration-color:#000;letter-spacing:normal;word-spacing:normal;text-transform:none;writing-mode:lr-tb;direction:ltr;text-orientation:mixed;dominant-baseline:auto;baseline-shift:baseline;text-anchor:start;white-space:normal;shape-padding:0;shape-margin:0;inline-size:0;clip-rule:nonzero;display:inline;overflow:visible;visibility:visible;isolation:auto;mix-blend-mode:normal;color-interpolation:sRGB;color-interpolation-filters:linearRGB;solid-color:#000;solid-opacity:1;vector-effect:none;fill:#f5f6e8;fill-opacity:1;fill-rule:nonzero;stroke:none;stroke-width:.529167;stroke-linecap:round;stroke-linejoin:round;stroke-miterlimit:4;stroke-dasharray:none;stroke-dashoffset:0;stroke-opacity:1;color-rendering:auto;image-rendering:auto;shape-rendering:auto;text-rendering:auto;enable-background:accumulate;stop-color:#000" transform="matrix(1.25805 0 0 1.25805 77.386 -351.7)"/><path d="M-52.662 281.654c-.417 0-.795.306-.795.725v8.758c-.771.33-1.322 1.04-1.322 1.894 0 1.166.951 2.117 2.117 2.117a2.122 2.122 0 0 0 2.117-2.117c0-.853-.553-1.565-1.324-1.894v-8.758c0-.418-.377-.725-.793-.725z" style="color:#000;font-style:normal;font-variant:normal;font-weight:400;font-stretch:normal;font-size:medium;line-height:normal;font-family:sans-serif;font-variant-ligatures:normal;font-variant-position:normal;font-variant-caps:normal;font-variant-numeric:normal;font-variant-alternates:normal;font-variant-east-asian:normal;font-feature-settings:normal;font-variation-settings:normal;text-indent:0;text-align:start;text-decoration:none;text-decoration-line:none;text-decoration-style:solid;text-decoration-color:#000;letter-spacing:normal;word-spacing:normal;text-transform:none;writing-mode:lr-tb;direction:ltr;text-orientation:mixed;dominant-baseline:auto;baseline-shift:baseline;text-anchor:start;white-space:normal;shape-padding:0;shape-margin:0;inline-size:0;clip-rule:nonzero;display:inline;overflow:visible;visibility:visible;isolation:auto;mix-blend-mode:normal;color-interpolation:sRGB;color-interpolation-filters:linearRGB;solid-color:#000;solid-opacity:1;vector-effect:none;fill:#dc1d4c;fill-opacity:1;fill-rule:nonzero;stroke:none;stroke-width:.529167;stroke-linecap:round;stroke-linejoin:round;stroke-miterlimit:4;stroke-dasharray:none;stroke-dashoffset:0;stroke-opacity:1;color-rendering:auto;image-rendering:auto;shape-rendering:auto;text-rendering:auto;enable-background:accumulate;stop-color:#000" transform="matrix(1.25805 0 0 1.25805 77.386 -351.7)"/><path d="M-52.668 280.332c-.65 0-1.223.334-1.557.838a1.865 1.865 0 0 1 2.893 1.554v7.577c1.147.67 1.892 1.866 1.893 3.205 0 .902-.32 1.73-.851 2.379a3.755 3.755 0 0 0 1.38-2.909c0-1.338-.746-2.533-1.893-3.205v-7.576a1.865 1.865 0 0 0-1.865-1.863z" style="color:#000;font-style:normal;font-variant:normal;font-weight:400;font-stretch:normal;font-size:medium;line-height:normal;font-family:sans-serif;font-variant-ligatures:normal;font-variant-position:normal;font-variant-caps:normal;font-variant-numeric:normal;font-variant-alternates:normal;font-variant-east-asian:normal;font-feature-settings:normal;font-variation-settings:normal;text-indent:0;text-align:start;text-decoration:none;text-decoration-line:none;text-decoration-style:solid;text-decoration-color:#000;letter-spacing:normal;word-spacing:normal;text-transform:none;writing-mode:lr-tb;direction:ltr;text-orientation:mixed;dominant-baseline:auto;baseline-shift:baseline;text-anchor:start;white-space:normal;shape-padding:0;shape-margin:0;inline-size:0;clip-rule:nonzero;display:inline;overflow:visible;visibility:visible;isolation:auto;mix-blend-mode:normal;color-interpolation:sRGB;color-interpolation-filters:linearRGB;solid-color:#000;solid-opacity:1;vector-effect:none;fill:#e5e5d8;fill-opacity:1;fill-rule:nonzero;stroke:none;stroke-width:.529167;stroke-linecap:round;stroke-linejoin:round;stroke-miterlimit:4;stroke-dasharray:none;stroke-dashoffset:0;stroke-opacity:1;color-rendering:auto;image-rendering:auto;shape-rendering:auto;text-rendering:auto;enable-background:accumulate;stop-color:#000" transform="matrix(1.25805 0 0 1.25805 77.386 -351.7)"/><path d="M-52.662 281.654v13.494a2.122 2.122 0 0 0 2.117-2.117c0-.853-.553-1.565-1.324-1.894v-8.758c0-.418-.376-.725-.793-.725z" style="fill:#bf1a42;fill-opacity:1;stroke:none;stroke-width:.264583px;stroke-linecap:butt;stroke-linejoin:miter;stroke-opacity:1" transform="matrix(1.25805 0 0 1.25805 77.386 -351.7)"/><path style="color:#000;font-style:normal;font-variant:normal;font-weight:400;font-stretch:normal;font-size:medium;line-height:normal;font-family:sans-serif;font-variant-ligatures:normal;font-variant-position:normal;font-variant-caps:normal;font-variant-numeric:normal;font-variant-alternates:normal;font-variant-east-asian:normal;font-feature-settings:normal;font-variation-settings:normal;text-indent:0;text-align:start;text-decoration:none;text-decoration-line:none;text-decoration-style:solid;text-decoration-color:#000;letter-spacing:normal;word-spacing:normal;text-transform:none;writing-mode:lr-tb;direction:ltr;text-orientation:mixed;dominant-baseline:auto;baseline-shift:baseline;text-anchor:start;white-space:normal;shape-padding:0;shape-margin:0;inline-size:0;clip-rule:nonzero;display:inline;overflow:visible;visibility:visible;opacity:1;isolation:auto;mix-blend-mode:normal;color-interpolation:sRGB;color-interpolation-filters:linearRGB;solid-color:#000;solid-opacity:1;vector-effect:none;fill:#000;fill-opacity:1;fill-rule:nonzero;stroke:none;stroke-width:.529167;stroke-linecap:round;stroke-linejoin:round;stroke-miterlimit:4;stroke-dasharray:none;stroke-dashoffset:0;stroke-opacity:1;color-rendering:auto;image-rendering:auto;shape-rendering:auto;text-rendering:auto;enable-background:accumulate;stop-color:#000;stop-opacity:1" d="M-52.668 280.332a1.865 1.865 0 0 0-1.865 1.863v7.584c-1.144.67-1.89 1.862-1.893 3.197a3.763 3.763 0 0 0 3.758 3.76 3.763 3.763 0 0 0 3.758-3.76c0-1.338-.746-2.533-1.893-3.205v-7.576a1.865 1.865 0 0 0-1.865-1.863zm0 .53c.745 0 1.336.589 1.336 1.333v7.678a.265.265 0 0 0 .144.234 3.227 3.227 0 0 1 1.749 2.87 3.226 3.226 0 0 1-3.23 3.23 3.226 3.226 0 0 1-3.227-3.23 3.226 3.226 0 0 1 1.75-2.86.265.265 0 0 0 .142-.236v-7.686c0-.744.59-1.334 1.336-1.334zm.006.792c-.416 0-.795.306-.795.725v8.758c-.772.33-1.322 1.04-1.322 1.894 0 1.166.951 2.117 2.117 2.117a2.122 2.122 0 0 0 2.117-2.117c0-.853-.553-1.565-1.324-1.894v-8.758c0-.418-.376-.725-.793-.725zm2.604 0a.265.265 0 0 0-.265.264.265.265 0 0 0 .265.266h.68a.265.265 0 0 0 .265-.266.265.265 0 0 0-.266-.264zm-2.604.53c.17 0 .264.103.264.195v8.877a.265.265 0 0 0 .189.254c.674.2 1.134.818 1.135 1.521 0 .88-.708 1.588-1.588 1.588-.88 0-1.588-.708-1.588-1.588 0-.703.461-1.32 1.135-1.521a.265.265 0 0 0 .187-.254v-8.877c0-.09.096-.195.266-.195zm2.604.793a.265.265 0 0 0-.265.265.265.265 0 0 0 .265.264h1.142a.265.265 0 0 0 .264-.264.265.265 0 0 0-.264-.265zm0 1.26a.265.265 0 0 0-.265.263.265.265 0 0 0 .265.264h.68a.265.265 0 0 0 .265-.264.265.265 0 0 0-.266-.264zm0 1.12a.265.265 0 0 0-.265.266.265.265 0 0 0 .265.264h1.142a.265.265 0 0 0 .264-.264.265.265 0 0 0-.264-.266zm0 1.325a.265.265 0 0 0-.265.263.265.265 0 0 0 .265.266h.68a.265.265 0 0 0 .265-.266.265.265 0 0 0-.266-.263zm0 1.322a.265.265 0 0 0-.265.266.265.265 0 0 0 .265.263h1.142a.265.265 0 0 0 .264-.263.265.265 0 0 0-.264-.266z" transform="matrix(1.25805 0 0 1.25805 77.386 -351.7)"/></g></svg>