<svg viewBox="0 0 340 340" xmlns="http://www.w3.org/2000/svg" xmlns:xlink="http://www.w3.org/1999/xlink"><defs><linearGradient gradientTransform="rotate(11.357 128.354 217.542)" gradientUnits="userSpaceOnUse" id="b" x1="165.168" x2="-.798" y1="182.513" y2="340.435"><stop offset="0" stop-color="#bddeff"/><stop offset="1" stop-color="#7aaeed"/></linearGradient><linearGradient id="l" x1="150.507" x2="-15.459" xlink:href="#b" y1="167.105" y2="325.028"/><linearGradient id="d" x1="99.784" x2="99.784" xlink:href="#a" y1="29.641" y2="94.639"/><linearGradient id="e" x1="85.726" x2="85.726" xlink:href="#a" y1="85.543" y2="157.017"/><linearGradient id="f" x1="88.655" x2="88.655" xlink:href="#a" y1="29.641" y2="94.639"/><linearGradient id="g" x1="17.938" x2="17.938" xlink:href="#a" y1="85.543" y2="157.017"/><linearGradient gradientUnits="userSpaceOnUse" id="a" x1="56.496" x2="56.496" y1="29.641" y2="94.639"><stop offset="0" stop-color="#c6bab9"/><stop offset="1" stop-color="#af9594"/></linearGradient><linearGradient gradientTransform="rotate(11.357 132.713 292.692)" id="h" x1="204.769" x2="38.803" xlink:href="#b" y1="224.131" y2="382.053"/><linearGradient gradientTransform="rotate(11.357 85.606 219.284)" id="i" x1="145.727" x2="-20.239" xlink:href="#b" y1="162.082" y2="320.004"/><linearGradient id="j" x1="176.03" x2="10.063" xlink:href="#b" y1="193.928" y2="351.85"/><linearGradient id="k" x1="185.75" x2="19.783" xlink:href="#b" y1="204.143" y2="362.065"/><radialGradient cx="146.591" cy="157.934" gradientUnits="userSpaceOnUse" id="c" r="97.863"><stop offset="0" stop-color="#f97d7d"/><stop offset="1" stop-color="#fcd0be"/></radialGradient></defs><path d="M181.456 326.517h142.291c-2.169-61.964-34.847-141.532-34.847-141.532V82.287A15.742 15.742 0 0 0 274.237 66.6c-89.9-6.275-118.128-31.966-118.128-31.966C154.184 66.8 176.8 77.52 176.8 77.52l-14.434 3.368c8.661 12.99 19.725 16.839 19.725 16.839.317 7.723.867 16.841 1.532 26.368l-21.595 29.978 24.29 4.464c1.809 21.293 3.472 38.3 3.472 38.3l32.855-3.755.774 27.465c-37.089 49.009-41.963 105.97-41.963 105.97Z" style="fill:url(#c)"/><path d="M52.011 67.148a23.347 23.347 0 0 0-9.47 6.97 16.092 16.092 0 0 0 .765 21.652q.357.356.746.711c5.156 4.7 11.987 4.627 17.07 3.619a16.114 16.114 0 0 0 12.961-13.317 19.9 19.9 0 0 0-1.574-10.731 16.109 16.109 0 0 0-20.498-8.904Z" style="fill:url(#a)"/><path d="M109.871 44.643a9.217 9.217 0 0 0-10.351-3.286c-4.578 1.535-10.5 4.709-12.558 11.11 0 0-1.918 4.859 3.468 10.336a9.9 9.9 0 0 0 9.382 2.636c4.409-1.053 10.42-3.457 12.453-8.879 1.729-4.609-.165-8.871-2.394-11.917Z" style="fill:url(#d)"/><path d="M86.69 120.6a22.863 22.863 0 0 0-12.29 5.364 12.611 12.611 0 0 0-3.137 14.692 15.452 15.452 0 0 0 2.4 3.642 12.293 12.293 0 0 0 8.831 4.019c3.991.13 9.905-.458 14.467-4.223a12.478 12.478 0 0 0 4.328-10.817 19.381 19.381 0 0 0-1.028-4.734A12.525 12.525 0 0 0 86.69 120.6Z" style="fill:url(#e)"/><circle cx="88.655" cy="18.221" r="4.737" style="fill:url(#f)"/><circle cx="27.081" cy="24.813" r="6.592" style="fill:#e8dada"/><circle cx="104.488" cy="90.884" r="5.212" style="fill:#e8dada"/><circle cx="132.958" cy="109.079" r="6.352" style="fill:#e8dada"/><circle cx="17.938" cy="69.306" r="5.183" style="fill:url(#g)"/><circle cx="33.673" cy="134.405" r="7.737" style="fill:#e8dada"/><path d="M200.426 130.006a2.986 2.986 0 0 1-1.372-5.254 135.3 135.3 0 0 1 24.179-15.224 2.986 2.986 0 1 1 2.591 5.381 123.769 123.769 0 0 0-14.5 8.336c1.778-.129 9.893-.708 11.69-.821a2.986 2.986 0 0 1 .374 5.961c-7.437.466-22.107 1.647-22.191 1.655a2.988 2.988 0 0 1-.771-.034Z" style="fill:#cc6262"/><path d="m223.416 220.549 32.969-24.2a3.785 3.785 0 0 0-2.722-6.767l-31.021 3.5Z" style="fill:#464965"/><ellipse cx="128.354" cy="217.543" rx="5.673" ry="5.524" style="fill:url(#b)" transform="rotate(-11.357 128.353 217.54)"/><ellipse cx="132.715" cy="292.693" rx="8.612" ry="8.386" style="fill:url(#h)" transform="rotate(-11.357 132.712 292.693)"/><ellipse cx="85.608" cy="219.287" rx="5.815" ry="5.662" style="fill:url(#i)" transform="rotate(-11.357 85.609 219.287)"/><path d="M54.245 308.13a303.814 303.814 0 0 1 56.331-70.954c2.342-2.161 5.833.83 3.909 3.352a406 406 0 0 0-5.5 7.379 244.076 244.076 0 0 0-26.566 46.807c-3.6 8.3-9.467 18.5-17.921 23.386-6.565 3.794-13.963-3.468-10.253-9.97Z" style="fill:url(#j)"/><path d="M165.077 203.888c-10.548 12.805-24.241 32.193-30.175 52.437a6.12 6.12 0 0 0 3.682 7.4 6.468 6.468 0 0 0 8.729-4.578c2.132-10.179 11.842-35.223 21.01-53.253a1.92 1.92 0 0 0-3.246-2.006Z" style="fill:url(#k)"/><path d="M108.562 195.156c6.555-4.012 23.722-14.032 40.924-19.991a1.842 1.842 0 0 1 1.49 3.365c-11.189 5.77-26.161 14.223-37.488 23.316a4.268 4.268 0 0 1-6.765-1.932 4.139 4.139 0 0 1 1.839-4.758Z" style="fill:url(#l)"/><path d="M292.4 82.287A19.306 19.306 0 0 0 274.481 63.1C187.3 57.018 158.732 32.28 158.464 32.04a3.5 3.5 0 0 0-5.849 2.38c-1.35 22.56 8.553 35.3 15.714 41.482l-6.761 1.577a3.5 3.5 0 0 0-2.117 5.35 49.577 49.577 0 0 0 19.234 17.238c.291 6.452.746 14.174 1.356 23.008l-20.856 28.952a3.5 3.5 0 0 0 2.207 5.488l21.663 3.982c1.7 19.831 3.234 35.52 3.249 35.683a3.5 3.5 0 0 0 3.881 3.137l29.066-3.323.632 22.43c-36.6 49.009-41.712 104.443-41.914 106.794-.008.1 0 .2 0 .3h7c.45-4.422 6.538-57.738 40.936-103.456l32.6-23.928a7.285 7.285 0 0 0-5.24-13.025l-31.02 3.5-29.315 3.351a3552.237 3552.237 0 0 1-3.128-34.716 3.5 3.5 0 0 0-2.854-3.146L168.1 151.63l18.362-25.489a3.5 3.5 0 0 0 .651-2.29c-.721-10.335-1.234-19.172-1.526-26.268a3.5 3.5 0 0 0-2.348-3.162c-.087-.03-7.677-2.75-14.87-11.34l9.225-2.152a3.5 3.5 0 0 0 .719-6.565c-.77-.373-17.472-8.766-18.742-32.942 12.26 7.75 45.407 23.847 114.424 28.665a12.282 12.282 0 0 1 11.406 12.2v102.7a3.489 3.489 0 0 0 .263 1.33c.324.789 32.421 79.583 34.582 140.2h6.993c0-.042.009-.081.008-.123-2.065-58.914-31.73-134.316-34.847-142.094Zm-38.347 110.777c.126-.014.215-.024.3.177s.009.256-.036.29l-27.585 20.246-.5-17.576Z" style="fill:#464965"/></svg>