<svg data-name="Layer 1" xmlns="http://www.w3.org/2000/svg" width="64" height="64"><path d="M32.89 58.77c-.8 0-1.62 0-2.42-.12-9.56-.95-14.28-3.27-19.47-9.55-4.6-5.67-6.51-14.36-6.63-18.5-.09-3.49 1.55-9.6 6.48-15.29 4.66-5.39 8.78-9 23.08-10 .94-.07 1.65-.09 2.32-.09 4.39 0 8.21 1.24 14.74 7.6 7.69 7.49 8.45 13 8.64 19.42A24.41 24.41 0 0 1 52.73 50c-3.36 3.27-10.4 8.77-19.84 8.77Z" style="fill:#fff"/><path d="M57.92 32.3c-.19-6.22-.87-11.19-8.12-18.25S39 6.68 34 7c-13.91 1-17.53 4.34-21.91 9.41S6 27.18 6.07 30.55 7.82 42.49 12.36 48s8.81 8 18.28 9 16.84-4.22 20.91-8.19a22.65 22.65 0 0 0 6.37-16.51ZM54 23c.18 0 .78 1.78 1.25 3.66a6.66 6.66 0 0 1 .25 2.81 5.66 5.66 0 0 1-1.91-2.84c-.45-1.77.17-3.63.41-3.63Zm.5 18.28c-1.71 3.43-6.5 9.52-10.8 11.15S31.82 57.49 24 53.86 13.86 46.8 11 41 7.89 29.36 9.29 25.15s5.91-9.75 9.57-12.25 8.53-3.34 11.72-3.66c4.19-.41 8.28-.53 11.88 1.31s8.94 8 9.81 9.06a7.8 7.8 0 0 1 1.28 2.19s-1.76 1.2-1.1 4.25 1.81 4.31 2.31 4.72a4.36 4.36 0 0 0 1.09.63s.32 6.43-1.37 9.87ZM49 18.58c.31.22.16-.37.22-.59a10.64 10.64 0 0 0-2.78-2.34.8.8 0 0 0-.25.69c.04.15 2.48 2.02 2.81 2.24Zm-2.66.28s-.31.56-.22.69 3.5 3.06 3.5 3.06a.86.86 0 0 0 .19-.59 25 25 0 0 0-3.49-3.16ZM49 24.71c.09 0 .19-.41.19-.69a24.4 24.4 0 0 0-3.34-2.78c-.19-.09-.44.63-.5.91s3.54 2.59 3.65 2.56Zm-7.22-4.44A2.47 2.47 0 0 0 38.29 18c-2.62 1-2.41 4.5-.84 5.28a3.27 3.27 0 0 0 4.31-3.01Zm-3.24-1.49a1.71 1.71 0 0 1 2.4 1.6 2.26 2.26 0 0 1-3 2.05c-1.08-.54-1.24-2.94.58-3.65Zm-24.9 8.74c.31 0 .09-.75.59-2.62a8.79 8.79 0 0 1 2.06-3.47c.09-.09-1-.67-1.09-.62-.34.13-1.28 2-1.81 3.19a11 11 0 0 0-.81 3.34c.06.18.74.21 1.06.18ZM32 26.4c-.63-5-4.86-6.34-7.44-5.69-7.56 1.9-5.74 8.29-1.7 10.72s9.78-.07 9.14-5.03Zm-8.23 3.43c-2.73-1.67-4-6 1.16-7.26a4.17 4.17 0 0 1 5 3.85c.47 3.37-3.42 5.08-6.15 3.41ZM17 35.43c-.06-2-1.61-2.3-2.16-2.06-2.94 1.28-2.16 4.53-.66 4.91s2.89-.82 2.82-2.85Zm-2.59 2.06c-1-.37-1.22-2.41.63-3 .63-.2 1.34.53 1.25 1.44s-.9 1.93-1.87 1.56ZM30 39.9a2.33 2.33 0 0 0 .72 4.47 2.49 2.49 0 0 0 2.41-3.25c-.31-1.51-1.71-1.96-3.13-1.22Zm.22 3.5c-1-.5-1.09-1.81.22-2.59a1.21 1.21 0 0 1 1.94 1.06 1.57 1.57 0 0 1-2.12 1.53Zm-8.75.44c-.78-.62-.62-1.19-.75-1.31a3 3 0 0 0-.78.09c-.22.09.25 1.13.75 1.59a4.07 4.07 0 0 0 1.5.94c.22 0 .28-.25.34-.47s-.24-.22-1.02-.85ZM20 44.9a6.47 6.47 0 0 1-1.41-2.12s-.69 0-.84.19.47 1.16 1.06 1.84a15 15 0 0 0 2.13 2c.22.09.5-.22.59-.44S21 45.9 20 44.9Zm-1.44 1a19.54 19.54 0 0 1-1.87-2.87 3.82 3.82 0 0 0-.91.34c-.19.16.31 1 1.28 2.09s2.31 2.38 2.63 2.34a.48.48 0 0 0 .47-.37c.1-.16-.46-.28-1.55-1.5Zm20.5 1.5c-2.62.16-1.78 2.78-.91 3.25s2.25.63 2.63-1-.23-2.31-1.67-2.22Zm.94 2.28a.87.87 0 0 1-1.53 0 1 1 0 0 1 .72-1.47 1 1 0 0 1 .81 1.47Zm4.84-14.16c-3.47.81-4.31 3.16-3.25 5.59s2 2.59 3.94 2.19 4.41-2.28 3.72-4.94-1.92-3.43-4.43-2.84Zm2.09 6.25c-1.59 1-2.34 1.25-3.87-.16s-1.87-4.09 1.5-5.16c.82-.26 2.63-.84 3.34 1.13s.61 3.19-.98 4.19ZM52.76 32c-.22 0-.5.47-.53.69a17.28 17.28 0 0 0 2.41 2.38c.13.06.28-.31.28-.56A10.64 10.64 0 0 0 52.76 32Zm-2 2.12a38.31 38.31 0 0 0 3.31 3.47c.13.06.19-.31.22-.59s-3-3.3-3-3.5-.43.5-.5.61Zm.38 2.28c-.12 0-.62.63-.62.72s2.88 2.94 3 3 .31-.47.31-.69a22.32 22.32 0 0 0-2.66-3.03Z" style="fill:#1d1d1b"/></svg>