<svg xmlns="http://www.w3.org/2000/svg" viewBox="0 0 22.578 22.578" height="64pt" width="64pt"><g style="display:inline"><path style="color:#000;font-style:normal;font-variant:normal;font-weight:400;font-stretch:normal;font-size:medium;line-height:normal;font-family:sans-serif;font-variant-ligatures:normal;font-variant-position:normal;font-variant-caps:normal;font-variant-numeric:normal;font-variant-alternates:normal;font-variant-east-asian:normal;font-feature-settings:normal;font-variation-settings:normal;text-indent:0;text-align:start;text-decoration:none;text-decoration-line:none;text-decoration-style:solid;text-decoration-color:#000;letter-spacing:normal;word-spacing:normal;text-transform:none;writing-mode:lr-tb;direction:ltr;text-orientation:mixed;dominant-baseline:auto;baseline-shift:baseline;text-anchor:start;white-space:normal;shape-padding:0;shape-margin:0;inline-size:0;clip-rule:nonzero;display:inline;overflow:visible;visibility:visible;isolation:auto;mix-blend-mode:normal;color-interpolation:sRGB;color-interpolation-filters:linearRGB;solid-color:#000;solid-opacity:1;vector-effect:none;fill:#7d8e9e;fill-opacity:1;fill-rule:nonzero;stroke:none;stroke-width:.529167;stroke-linecap:round;stroke-linejoin:round;stroke-miterlimit:4;stroke-dasharray:none;stroke-dashoffset:0;stroke-opacity:1;color-rendering:auto;image-rendering:auto;shape-rendering:auto;text-rendering:auto;enable-background:accumulate;stop-color:#000" d="M-21.783 250.12c-1.545.085-2.76.735-3.305 1.073-.447-.555-1.112-.949-1.898-.949a2.498 2.498 0 0 0-2.494 2.494c0 .637.285 1.187.697 1.627-.28.09-.57.15-.813.4-.347.36-.59.912-.633 1.688 0 .01-.09.64.25 1.285.344.651 1.146 1.287 2.72 1.301a66.99 66.99 0 0 0 2.01.04l10.01-.983a.258.258 0 0 0 .085-.022c.413-.188.676-.583.93-1.176.253-.593.316-1.346.107-1.902-.121-.007-.271-1.047-.735-1.463-.425-.382-1.108-.67-1.941-.531-1.45-2.334-3.36-2.973-4.99-2.883z" transform="translate(39.037 -313.53) scale(1.25884)"/><path style="color:#000;font-style:normal;font-variant:normal;font-weight:400;font-stretch:normal;font-size:medium;line-height:normal;font-family:sans-serif;font-variant-ligatures:normal;font-variant-position:normal;font-variant-caps:normal;font-variant-numeric:normal;font-variant-alternates:normal;font-variant-east-asian:normal;font-feature-settings:normal;font-variation-settings:normal;text-indent:0;text-align:start;text-decoration:none;text-decoration-line:none;text-decoration-style:solid;text-decoration-color:#000;letter-spacing:normal;word-spacing:normal;text-transform:none;writing-mode:lr-tb;direction:ltr;text-orientation:mixed;dominant-baseline:auto;baseline-shift:baseline;text-anchor:start;white-space:normal;shape-padding:0;shape-margin:0;inline-size:0;clip-rule:nonzero;display:inline;overflow:visible;visibility:visible;isolation:auto;mix-blend-mode:normal;color-interpolation:sRGB;color-interpolation-filters:linearRGB;solid-color:#000;solid-opacity:1;vector-effect:none;fill:#5b6571;fill-opacity:1;fill-rule:nonzero;stroke:none;stroke-width:.529167;stroke-linecap:round;stroke-linejoin:round;stroke-miterlimit:4;stroke-dasharray:none;stroke-dashoffset:0;stroke-opacity:1;color-rendering:auto;image-rendering:auto;shape-rendering:auto;text-rendering:auto;enable-background:accumulate;stop-color:#000" d="M-16.793 253.001c-1.49-1.601-2.636-2.808-4.636-2.89-1.303.008-2.254.515-3.659 1.082-.672-.653-1.402-.999-2.131-.915-1.595.606-2.454 1.52-2.198 2.965a2.502 2.502 0 0 1 1.89-1.88c.681-.14 2.011.177 2.58 1.56.08-.156.111-.659.251-.73 2.237-1.509 6.233-.99 6.478 1.82 1.385-.309 2.457.053 3.068 1.448.437.89.365 1.849.065 2.578 1.298-.786 1.236-1.657.894-2.926-.362-1.259-1.362-1.734-2.602-2.112z" transform="translate(39.037 -313.53) scale(1.25884)"/><path style="color:#000;font-style:normal;font-variant:normal;font-weight:400;font-stretch:normal;font-size:medium;line-height:normal;font-family:sans-serif;font-variant-ligatures:normal;font-variant-position:normal;font-variant-caps:normal;font-variant-numeric:normal;font-variant-alternates:normal;font-variant-east-asian:normal;font-feature-settings:normal;font-variation-settings:normal;text-indent:0;text-align:start;text-decoration:none;text-decoration-line:none;text-decoration-style:solid;text-decoration-color:#000;letter-spacing:normal;word-spacing:normal;text-transform:none;writing-mode:lr-tb;direction:ltr;text-orientation:mixed;dominant-baseline:auto;baseline-shift:baseline;text-anchor:start;white-space:normal;shape-padding:0;shape-margin:0;inline-size:0;clip-rule:nonzero;display:inline;overflow:visible;visibility:visible;isolation:auto;mix-blend-mode:normal;color-interpolation:sRGB;color-interpolation-filters:linearRGB;solid-color:#000;solid-opacity:1;vector-effect:none;fill:#5b6571;fill-opacity:1;fill-rule:nonzero;stroke:none;stroke-width:2;stroke-linecap:round;stroke-linejoin:round;stroke-miterlimit:4;stroke-dasharray:none;stroke-dashoffset:0;stroke-opacity:1;color-rendering:auto;image-rendering:auto;shape-rendering:auto;text-rendering:auto;enable-background:accumulate;stop-color:#000" d="M-73.361-97.686c-3.366 0-5.99 1.61-8.172 3.684-1.613-1.245-3.551-2.111-5.846-2.111-5.861 0-10.69 4.828-10.69 10.69 0 .436.22.5.282.884-.034.023-.048.005-.082.031-1.606 1.149-2.973 2.88-3.89 5.072a245.04 245.04 0 0 0 6.333.11l37.698-4.563a1 1 0 0 0 .318-.082c1.37-.623 3.054-.842 4.06-2.605-.476-.486-1.03-.98-1.675-1.432-1.992-1.397-4.631-1.655-7.39-1.328-1.984-4.579-5.626-8.35-10.946-8.35z" transform="matrix(.33307 0 0 .33307 39.037 39.03)"/><path style="color:#000;font-style:normal;font-variant:normal;font-weight:400;font-stretch:normal;font-size:medium;line-height:normal;font-family:sans-serif;font-variant-ligatures:normal;font-variant-position:normal;font-variant-caps:normal;font-variant-numeric:normal;font-variant-alternates:normal;font-variant-east-asian:normal;font-feature-settings:normal;font-variation-settings:normal;text-indent:0;text-align:start;text-decoration:none;text-decoration-line:none;text-decoration-style:solid;text-decoration-color:#000;letter-spacing:normal;word-spacing:normal;text-transform:none;writing-mode:lr-tb;direction:ltr;text-orientation:mixed;dominant-baseline:auto;baseline-shift:baseline;text-anchor:start;white-space:normal;shape-padding:0;shape-margin:0;inline-size:0;clip-rule:nonzero;display:inline;overflow:visible;visibility:visible;isolation:auto;mix-blend-mode:normal;color-interpolation:sRGB;color-interpolation-filters:linearRGB;solid-color:#000;solid-opacity:1;vector-effect:none;fill:#aabfd0;fill-opacity:1;fill-rule:nonzero;stroke:none;stroke-width:.529167;stroke-linecap:round;stroke-linejoin:round;stroke-miterlimit:4;stroke-dasharray:none;stroke-dashoffset:0;stroke-opacity:1;color-rendering:auto;image-rendering:auto;shape-rendering:auto;text-rendering:auto;enable-background:accumulate;stop-color:#000" d="M-19.41 255.213c-.993 0-1.756.644-2.156 1.486-.302-.602-.837-1.07-1.553-1.07a1.84 1.84 0 0 0-1.836 1.836c0 .308.154.563.293.82-.213.044-.425.064-.656.229-.34.242-.646.65-.817 1.275a.271.271 0 0 0-.008.033s-.069.479.192.96c.26.48.87.938 2.02.948.006 0 1.348.054 3.033.018 1.676-.036 3.674-.16 5.066-.525.01-.001.581-.038 1.062-.424a1.53 1.53 0 0 0 .545-.889c.084-.4.036-.895-.197-1.502a.268.268 0 0 0-.01-.023s-.293-.328-.768-.661c-.424-.298-1.036-.54-1.835-.234-.159-1.277-1.112-2.277-2.375-2.277z" transform="translate(39.037 -313.53) scale(1.25884)"/><path style="color:#000;font-style:normal;font-variant:normal;font-weight:400;font-stretch:normal;font-size:medium;line-height:normal;font-family:sans-serif;font-variant-ligatures:normal;font-variant-position:normal;font-variant-caps:normal;font-variant-numeric:normal;font-variant-alternates:normal;font-variant-east-asian:normal;font-feature-settings:normal;font-variation-settings:normal;text-indent:0;text-align:start;text-decoration:none;text-decoration-line:none;text-decoration-style:solid;text-decoration-color:#000;letter-spacing:normal;word-spacing:normal;text-transform:none;writing-mode:lr-tb;direction:ltr;text-orientation:mixed;dominant-baseline:auto;baseline-shift:baseline;text-anchor:start;white-space:normal;shape-padding:0;shape-margin:0;inline-size:0;clip-rule:nonzero;display:inline;overflow:visible;visibility:visible;isolation:auto;mix-blend-mode:normal;color-interpolation:sRGB;color-interpolation-filters:linearRGB;solid-color:#000;solid-opacity:1;vector-effect:none;fill:#000;fill-opacity:1;fill-rule:nonzero;stroke:none;stroke-width:.529167;stroke-linecap:round;stroke-linejoin:round;stroke-miterlimit:4;stroke-dasharray:none;stroke-dashoffset:0;stroke-opacity:1;color-rendering:auto;image-rendering:auto;shape-rendering:auto;text-rendering:auto;enable-background:accumulate;stop-color:#000" d="M-21.772 250.114c-1.474.08-2.714.686-3.304 1.024a2.489 2.489 0 0 0-1.91-.893 2.498 2.498 0 0 0-2.493 2.494c0 .6.213 1.149.567 1.58-.28.11-.557.285-.783.558-.297.358-.494.877-.533 1.575 0 .01-.09.64.251 1.286.343.651 1.143 1.286 2.717 1.3.006 0 .606.02 1.432.032-.146.26-.25.512-.314.752 0 0-.069.479.192.96.26.48.87.939 2.02.95.008 0 1.348.052 3.032.016 1.677-.036 3.679-.163 5.07-.528.016-.001.58-.038 1.059-.422.243-.195.461-.488.545-.888.084-.4.036-.895-.197-1.502a.266.266 0 0 0-.01-.024s-.12-.246-.373-.505c.308-.203.607-.5.79-.93.283-.995.19-1.761-.146-2.522 0 0-.32-.675-1.01-1.123-.558-.282-.957-.45-1.539-.355-1.11-1.781-2.607-2.946-5.063-2.835zm-5.483 8.396c-1.441-.013-1.997-.528-2.255-1.018-.17-.312-.206-.654-.194-1 .032-.62.2-1.015.416-1.276.217-.261.491-.399.778-.471.573-.146 1.158-.002 1.158-.002a.265.265 0 0 0 .132-.512s-.5-.134-1.103-.058a1.962 1.962 0 0 1 1.338-3.4c.88.031 1.3.412 1.639.882.205.31.324.682.324 1.084a.265.265 0 0 0 .53 0c0-.417-.104-.81-.285-1.155.548-.312 1.689-.869 3.033-.941.1-.006.203-.006.288-.008 1.38-.003 2.899.531 4.191 2.432-.326.1-.673.263-1.04.508a.265.265 0 0 0 .294.44c.42-.28.787-.439 1.112-.515l.22-.04c.511-.065.906.083 1.221.288.542.35.806.888.812.9.37.997.335 1.656.147 2.096-.167.39-.46.629-.757.785a1.754 1.754 0 0 0-.775-.228 2.196 2.196 0 0 0-.897.153 2.498 2.498 0 0 0-2.48-2.242c-.928 0-1.738.51-2.167 1.263a1.835 1.835 0 0 0-1.545-.847 1.84 1.84 0 0 0-1.836 1.836c0 .282.07.547.183.787-.228.059-.411.178-.589.299-1.128-.01-1.886-.04-1.886-.04h-.004zm3.33 2.69c-1.02-.008-1.389-.354-1.561-.672-.167-.308-.13-.59-.128-.611.176-.628.468-.92.758-1.068.293-.15.599-.153.753-.14a.265.265 0 0 0 .286-.242.265.265 0 0 0-.241-.284 2.162 2.162 0 0 0-.15-.006 1.29 1.29 0 0 1-.22-.713 1.304 1.304 0 0 1 2.581-.28 2.488 2.488 0 0 0-.056.521.265.265 0 1 0 .529 0 1.96 1.96 0 0 1 1.965-1.963c1.089 0 1.964.875 1.964 1.963a1.96 1.96 0 0 1-.711 1.514.265.265 0 0 0 .339.407c.47-.39.793-.953.878-1.588.52-.228 1.114-.258 1.534.02.328.233.487.549.492.557.2.528.227.915.17 1.187a.966.966 0 0 1-.357.584c-.239.196-.541.268-.832.322-1.295.346-3.307.476-4.978.512-1.672.036-3.008-.02-3.008-.02h-.004zm-.228 1.05a.265.265 0 0 0-.265.264v1.059a.265.265 0 1 0 .53 0v-1.06a.265.265 0 0 0-.265-.263zm2.116 0a.265.265 0 0 0-.264.264v1.059a.265.265 0 1 0 .53 0v-1.06a.265.265 0 0 0-.266-.263zm2.117 0a.265.265 0 0 0-.264.264v1.059a.265.265 0 1 0 .53 0v-1.06a.265.265 0 0 0-.266-.263zm2.117 0a.265.265 0 0 0-.265.264v1.059a.265.265 0 1 0 .529 0v-1.06a.265.265 0 0 0-.264-.263zm-7.408 2.117a.265.265 0 0 0-.265.264v1.059a.265.265 0 0 0 .529 0v-1.06a.265.265 0 0 0-.264-.263zm2.117 0a.265.265 0 0 0-.265.264v1.059a.265.265 0 0 0 .529 0v-1.06a.265.265 0 0 0-.264-.263zm2.115 0a.265.265 0 0 0-.263.264v1.059a.265.265 0 0 0 .529 0v-1.06a.265.265 0 0 0-.266-.263zm2.118 0a.265.265 0 0 0-.264.264v1.059a.265.265 0 0 0 .53 0v-1.06a.265.265 0 0 0-.266-.263z" transform="translate(39.037 -313.53) scale(1.25884)"/></g></svg>