<svg xmlns="http://www.w3.org/2000/svg" viewBox="0 0 22.578 22.578" height="64pt" width="64pt"><g style="display:inline"><path d="M8.794 249.971c-1.545.086-2.76.737-3.305 1.075-.447-.556-1.112-.95-1.898-.95a2.498 2.498 0 0 0-2.494 2.495c0 .637.285 1.187.697 1.626-.28.09-.57.15-.813.4-.347.36-.59.912-.632 1.688-.002.01-.09.64.25 1.286.343.65 1.145 1.286 2.718 1.3a66.99 66.99 0 0 0 2.012.04l10.01-.983a.258.258 0 0 0 .084-.021c.414-.189.676-.583.93-1.177.253-.593.316-1.346.107-1.902-.121-.007-.271-1.047-.735-1.463-.425-.382-1.108-.67-1.94-.53-1.452-2.335-3.361-2.974-4.991-2.884z" style="color:#000;font-style:normal;font-variant:normal;font-weight:400;font-stretch:normal;font-size:medium;line-height:normal;font-family:sans-serif;font-variant-ligatures:normal;font-variant-position:normal;font-variant-caps:normal;font-variant-numeric:normal;font-variant-alternates:normal;font-variant-east-asian:normal;font-feature-settings:normal;font-variation-settings:normal;text-indent:0;text-align:start;text-decoration:none;text-decoration-line:none;text-decoration-style:solid;text-decoration-color:#000;letter-spacing:normal;word-spacing:normal;text-transform:none;writing-mode:lr-tb;direction:ltr;text-orientation:mixed;dominant-baseline:auto;baseline-shift:baseline;text-anchor:start;white-space:normal;shape-padding:0;shape-margin:0;inline-size:0;clip-rule:nonzero;display:inline;overflow:visible;visibility:visible;isolation:auto;mix-blend-mode:normal;color-interpolation:sRGB;color-interpolation-filters:linearRGB;solid-color:#000;solid-opacity:1;vector-effect:none;fill:#aabfd0;fill-opacity:1;fill-rule:nonzero;stroke:none;stroke-width:.529167;stroke-linecap:round;stroke-linejoin:round;stroke-miterlimit:4;stroke-dasharray:none;stroke-dashoffset:0;stroke-opacity:1;color-rendering:auto;image-rendering:auto;shape-rendering:auto;text-rendering:auto;enable-background:accumulate;stop-color:#000" transform="translate(.64 -313.225) scale(1.25766)"/><path d="M13.784 252.853c-1.49-1.601-2.636-2.808-4.636-2.89-1.303.009-2.253.515-3.659 1.082-.672-.653-1.402-.999-2.131-.914-1.595.605-2.454 1.52-2.198 2.965a2.502 2.502 0 0 1 1.89-1.88c.681-.14 2.011.177 2.58 1.559.081-.156.111-.659.251-.73 2.237-1.508 6.233-.99 6.478 1.82 1.385-.309 2.457.054 3.068 1.448.437.89.365 1.85.065 2.579 1.298-.787 1.237-1.657.894-2.926-.362-1.26-1.361-1.735-2.602-2.113z" style="color:#000;font-style:normal;font-variant:normal;font-weight:400;font-stretch:normal;font-size:medium;line-height:normal;font-family:sans-serif;font-variant-ligatures:normal;font-variant-position:normal;font-variant-caps:normal;font-variant-numeric:normal;font-variant-alternates:normal;font-variant-east-asian:normal;font-feature-settings:normal;font-variation-settings:normal;text-indent:0;text-align:start;text-decoration:none;text-decoration-line:none;text-decoration-style:solid;text-decoration-color:#000;letter-spacing:normal;word-spacing:normal;text-transform:none;writing-mode:lr-tb;direction:ltr;text-orientation:mixed;dominant-baseline:auto;baseline-shift:baseline;text-anchor:start;white-space:normal;shape-padding:0;shape-margin:0;inline-size:0;clip-rule:nonzero;display:inline;overflow:visible;visibility:visible;isolation:auto;mix-blend-mode:normal;color-interpolation:sRGB;color-interpolation-filters:linearRGB;solid-color:#000;solid-opacity:1;vector-effect:none;fill:#82939b;fill-opacity:1;fill-rule:nonzero;stroke:none;stroke-width:.529167;stroke-linecap:round;stroke-linejoin:round;stroke-miterlimit:4;stroke-dasharray:none;stroke-dashoffset:0;stroke-opacity:1;color-rendering:auto;image-rendering:auto;shape-rendering:auto;text-rendering:auto;enable-background:accumulate;stop-color:#000" transform="translate(.64 -313.225) scale(1.25766)"/><path d="M11.167 254.073c-.89 0-1.585.426-2.162.975-.427-.33-.94-.559-1.547-.559a2.843 2.843 0 0 0-2.828 2.828c0 .116.058.133.074.234-.009.006-.012.001-.021.008-.425.304-.787.762-1.03 1.342a63.241 63.241 0 0 0 1.676.03l9.974-1.208a.281.281 0 0 0 .084-.022c.363-.165.808-.222 1.075-.689a3.163 3.163 0 0 0-.444-.379c-.527-.37-1.225-.438-1.955-.351-.525-1.212-1.488-2.21-2.896-2.21z" style="color:#000;font-style:normal;font-variant:normal;font-weight:400;font-stretch:normal;font-size:medium;line-height:normal;font-family:sans-serif;font-variant-ligatures:normal;font-variant-position:normal;font-variant-caps:normal;font-variant-numeric:normal;font-variant-alternates:normal;font-variant-east-asian:normal;font-feature-settings:normal;font-variation-settings:normal;text-indent:0;text-align:start;text-decoration:none;text-decoration-line:none;text-decoration-style:solid;text-decoration-color:#000;letter-spacing:normal;word-spacing:normal;text-transform:none;writing-mode:lr-tb;direction:ltr;text-orientation:mixed;dominant-baseline:auto;baseline-shift:baseline;text-anchor:start;white-space:normal;shape-padding:0;shape-margin:0;inline-size:0;clip-rule:nonzero;display:inline;overflow:visible;visibility:visible;isolation:auto;mix-blend-mode:normal;color-interpolation:sRGB;color-interpolation-filters:linearRGB;solid-color:#000;solid-opacity:1;vector-effect:none;fill:#82939b;fill-opacity:1;fill-rule:nonzero;stroke:none;stroke-width:.529167;stroke-linecap:round;stroke-linejoin:round;stroke-miterlimit:4;stroke-dasharray:none;stroke-dashoffset:0;stroke-opacity:1;color-rendering:auto;image-rendering:auto;shape-rendering:auto;text-rendering:auto;enable-background:accumulate;stop-color:#000" transform="translate(.64 -313.225) scale(1.25766)"/><path d="M11.167 255.065c-.993 0-1.756.645-2.156 1.486-.302-.602-.837-1.07-1.553-1.07a1.84 1.84 0 0 0-1.836 1.836c0 .309.154.563.293.82-.213.045-.425.064-.656.229-.34.242-.646.65-.817 1.275a.271.271 0 0 0-.007.034s-.07.478.19.959c.261.48.87.938 2.02.949.007 0 1.35.054 3.034.017 1.676-.036 3.674-.16 5.066-.525.01 0 .581-.038 1.063-.424a1.53 1.53 0 0 0 .544-.889c.084-.4.036-.895-.197-1.502a.268.268 0 0 0-.01-.023s-.293-.328-.768-.66c-.424-.298-1.036-.54-1.835-.234-.158-1.277-1.112-2.278-2.375-2.278z" style="color:#000;font-style:normal;font-variant:normal;font-weight:400;font-stretch:normal;font-size:medium;line-height:normal;font-family:sans-serif;font-variant-ligatures:normal;font-variant-position:normal;font-variant-caps:normal;font-variant-numeric:normal;font-variant-alternates:normal;font-variant-east-asian:normal;font-feature-settings:normal;font-variation-settings:normal;text-indent:0;text-align:start;text-decoration:none;text-decoration-line:none;text-decoration-style:solid;text-decoration-color:#000;letter-spacing:normal;word-spacing:normal;text-transform:none;writing-mode:lr-tb;direction:ltr;text-orientation:mixed;dominant-baseline:auto;baseline-shift:baseline;text-anchor:start;white-space:normal;shape-padding:0;shape-margin:0;inline-size:0;clip-rule:nonzero;display:inline;overflow:visible;visibility:visible;isolation:auto;mix-blend-mode:normal;color-interpolation:sRGB;color-interpolation-filters:linearRGB;solid-color:#000;solid-opacity:1;vector-effect:none;fill:#aabfd0;fill-opacity:1;fill-rule:nonzero;stroke:none;stroke-width:.529167;stroke-linecap:round;stroke-linejoin:round;stroke-miterlimit:4;stroke-dasharray:none;stroke-dashoffset:0;stroke-opacity:1;color-rendering:auto;image-rendering:auto;shape-rendering:auto;text-rendering:auto;enable-background:accumulate;stop-color:#000" transform="translate(.64 -313.225) scale(1.25766)"/><path style="color:#000;font-style:normal;font-variant:normal;font-weight:400;font-stretch:normal;font-size:medium;line-height:normal;font-family:sans-serif;font-variant-ligatures:normal;font-variant-position:normal;font-variant-caps:normal;font-variant-numeric:normal;font-variant-alternates:normal;font-variant-east-asian:normal;font-feature-settings:normal;font-variation-settings:normal;text-indent:0;text-align:start;text-decoration:none;text-decoration-line:none;text-decoration-style:solid;text-decoration-color:#000;letter-spacing:normal;word-spacing:normal;text-transform:none;writing-mode:lr-tb;direction:ltr;text-orientation:mixed;dominant-baseline:auto;baseline-shift:baseline;text-anchor:start;white-space:normal;shape-padding:0;shape-margin:0;inline-size:0;clip-rule:nonzero;display:inline;overflow:visible;visibility:visible;opacity:1;isolation:auto;mix-blend-mode:normal;color-interpolation:sRGB;color-interpolation-filters:linearRGB;solid-color:#000;solid-opacity:1;vector-effect:none;fill:#000;fill-opacity:1;fill-rule:nonzero;stroke:none;stroke-width:.529167;stroke-linecap:round;stroke-linejoin:round;stroke-miterlimit:4;stroke-dasharray:none;stroke-dashoffset:0;stroke-opacity:1;color-rendering:auto;image-rendering:auto;shape-rendering:auto;text-rendering:auto;enable-background:accumulate;stop-color:#000;stop-opacity:1" d="M9.048 249.96c-1.237.038-2.487.347-3.622 1.032a2.49 2.49 0 0 0-1.91-.895 2.498 2.498 0 0 0-2.494 2.495c0 .599.214 1.15.568 1.58-.28.111-.556.288-.781.56-.298.359-.497.876-.536 1.575-.001.01-.088.64.253 1.287.343.65 1.142 1.284 2.716 1.299.005 0 .606.02 1.432.032-.124.198-.23.435-.307.717a.263.263 0 0 0-.006.034s-.069.478.192.959c.26.479.868.936 2.011.949 0 0 1.353.054 3.042.018 1.676-.037 3.672-.161 5.064-.526.36-.11.678-.138 1.062-.422.243-.195.463-.49.547-.89.084-.401.036-.895-.197-1.502-.122-.268-.237-.377-.383-.529.308-.203.608-.5.791-.929.254-.593.271-1.41-.136-2.501-.25-.573-.566-.862-1.02-1.145-.479-.299-.923-.465-1.539-.354-1.4-2.165-3.18-2.84-4.747-2.844zm-3.892 1.548c.205.31.324.682.324 1.084a.265.265 0 0 0 .53 0c0-.416-.104-.808-.285-1.154 1.172-.53 2.177-.92 3.324-.948 1.38-.003 2.898.53 4.191 2.43a4.025 4.025 0 0 0-1.043.51.265.265 0 1 0 .293.44c.443-.28.85-.468 1.334-.557.511-.065.906.084 1.221.288.542.351.806.888.812.9.369.997.334 1.655.147 2.095-.167.39-.46.63-.758.787a1.784 1.784 0 0 0-.799-.229 2.167 2.167 0 0 0-.872.154 2.499 2.499 0 0 0-2.481-2.242c-.927 0-1.736.51-2.166 1.263a1.835 1.835 0 0 0-3.381.989c0 .282.07.548.184.788-.228.057-.411.176-.59.297-1.127-.01-1.89-.04-1.89-.04-1.444-.013-1.998-.527-2.257-1.018-.17-.313-.206-.652-.195-1 .032-.62.2-1.014.416-1.275.216-.261.49-.4.777-.473.573-.145 1.158 0 1.158 0a.265.265 0 0 0 .133-.511s-.502-.136-1.105-.06a1.96 1.96 0 0 1 1.337-3.4c.636-.013 1.304.413 1.64.882zm5.938 4.088a1.96 1.96 0 0 1 1.965 1.964c0 .61-.277 1.151-.711 1.512a.265.265 0 1 0 .338.407c.47-.39.793-.952.878-1.587.72-.365 1.177-.222 1.508.003.346.233.513.563.518.572.2.53.227.916.17 1.188a.97.97 0 0 1-.358.586c-.278.178-.528.227-.83.32-1.295.345-3.307.476-4.978.512-1.672.036-3.008-.016-3.008-.016h-.01c-1.02-.01-1.386-.356-1.558-.674-.167-.308-.132-.593-.13-.613.177-.626.47-.919.759-1.067.293-.15.6-.151.754-.138a.265.265 0 0 0 .044-.528 2.186 2.186 0 0 0-.152-.006 1.303 1.303 0 0 1 1.09-2.02c.627 0 1.144.44 1.274 1.024-.037.17-.058.345-.058.526a.265.265 0 0 0 .53 0 1.96 1.96 0 0 1 1.965-1.965zm-4.2 6.8a.265.265 0 0 0-.263.264v.07l-.062-.035a.264.264 0 1 0-.264.46l.06.035-.06.035a.265.265 0 1 0 .264.459l.062-.036v.07a.265.265 0 1 0 .53 0v-.07l.06.036a.265.265 0 0 0 .265-.46l-.06-.034.06-.036a.265.265 0 0 0 .096-.361.265.265 0 0 0-.361-.098l-.06.035v-.07a.265.265 0 0 0-.266-.264zm3.176 0a.265.265 0 0 0-.265.264v.07l-.06-.035a.264.264 0 0 0-.362.098.265.265 0 0 0 .098.362l.06.035-.06.035a.265.265 0 0 0 .263.459l.06-.035v.07a.265.265 0 1 0 .53 0v-.071l.062.036a.265.265 0 1 0 .264-.46l-.06-.034.06-.035a.265.265 0 1 0-.264-.46l-.062.036v-.07a.265.265 0 0 0-.264-.264zm3.703 0a.265.265 0 0 0-.263.264v.07l-.06-.035a.264.264 0 0 0-.362.098.265.265 0 0 0 .096.362l.06.035-.06.035a.265.265 0 0 0 .265.459l.06-.035v.07a.265.265 0 1 0 .53 0v-.07l.06.035a.265.265 0 0 0 .266-.46l-.061-.034.061-.035a.265.265 0 0 0 .096-.362.265.265 0 0 0-.362-.098l-.06.035v-.07a.265.265 0 0 0-.266-.264zm-5.29 2.115a.265.265 0 0 0-.264.266v.071l-.063-.036a.264.264 0 0 0-.361.098.265.265 0 0 0 .098.362l.06.035-.06.035a.265.265 0 0 0 .263.459l.063-.036v.07a.265.265 0 0 0 .53 0v-.07l.06.036a.265.265 0 0 0 .265-.46l-.06-.034.06-.036a.265.265 0 0 0 .096-.361.264.264 0 0 0-.361-.098l-.06.035v-.07a.265.265 0 0 0-.267-.266zm3.704 0a.265.265 0 0 0-.265.266v.07l-.06-.035a.264.264 0 0 0-.362.098.265.265 0 0 0 .096.362l.06.035-.06.035a.265.265 0 0 0 .265.459l.06-.035v.07a.265.265 0 0 0 .53 0v-.071l.062.036a.265.265 0 1 0 .265-.459l-.061-.035.06-.035a.265.265 0 1 0-.264-.46l-.062.037v-.072a.265.265 0 0 0-.264-.265z" transform="translate(.64 -313.225) scale(1.25766)"/></g></svg>