<svg viewBox="0 0 64 64" xmlns="http://www.w3.org/2000/svg"><g data-name="Day 9"><path data-name="&lt;Path&gt;" fill="#6e9abd" d="M47 47H4l7.02-14.04 3.93-7.87L22 11l7.27 10.47 4.84 6.96L47 47z"/><path d="M34.11 28.43 30 35s-6.75 3.25-9 4-8 0-8 0l-1-3a6.89 6.89 0 0 0-1-2c-.11-.13-.09-.5 0-1l4-7.91L21 32l8.27-10.53Z" data-name="&lt;Path&gt;" fill="#4a82b0"/><path data-name="&lt;Path&gt;" fill="none" stroke="#001c63" stroke-linecap="round" stroke-linejoin="round" stroke-width="2" d="m4 47 18-36 25 36H4z"/><path data-name="&lt;Path&gt;" fill="#b5cfe3" stroke="#001c63" stroke-linecap="round" stroke-linejoin="round" stroke-width="2" d="m33 47 18-23 10 28-28-5z"/><path data-name="&lt;Path&gt;" fill="#5e87a8" d="m61 52-43.43-4.3-7.03-.7 9.19-10.55 3.51-4.03 12.53-14.38 13.2 17.77L61 52z"/><path d="m61 52-43.43-4.3A16.37 16.37 0 0 1 17 43l2.73-6.55L22 31l1.24 1.42L29 39l4-4 7 6 8-6 1 .81Z" data-name="&lt;Path&gt;" fill="#4d6f8a"/><path data-name="&lt;Path&gt;" fill="none" stroke="#001c63" stroke-linecap="round" stroke-linejoin="round" stroke-width="2" d="m10.54 47 25.23-28.96L61 52l-50.46-5z"/><path data-name="&lt;Path&gt;" fill="#a5d2f2" stroke="#001c63" stroke-linecap="round" stroke-linejoin="round" stroke-width="2" d="M8.65 23 35 52H3l5.65-29z"/><path data-name="&lt;Path&gt;" fill="#7ec0f2" stroke="#001c63" stroke-linecap="round" stroke-linejoin="round" stroke-width="2" d="m3 52 11.29-12.96L25.58 52H3z"/><path data-name="&lt;Path&gt;" fill="#7ec0f2" stroke="#001c63" stroke-linecap="round" stroke-linejoin="round" stroke-width="2" d="m42.91 36.04-6.33 7.25-3.7-4.25L21.58 52H61L42.91 36.04z"/><circle cx="49.5" cy="12.5" data-name="&lt;Path&gt;" fill="#f7db5e" r="6.5"/><circle cx="49.5" cy="12.5" data-name="&lt;Path&gt;" fill="none" r="6.5" stroke="#001c63" stroke-linecap="round" stroke-linejoin="round" stroke-width="2"/><ellipse cx="22" cy="39.5" data-name="&lt;Path&gt;" fill="#49c98e" rx="3" ry="8.5" stroke="#001c63" stroke-linecap="round" stroke-linejoin="round" stroke-width="2"/><path data-name="&lt;Path&gt;" fill="none" stroke="#001c63" stroke-linecap="round" stroke-linejoin="round" stroke-width="2" d="M22 52v-8"/><ellipse cx="17.21" cy="44.56" data-name="&lt;Path&gt;" fill="#49c98e" rx="1.79" ry="5.06" stroke="#001c63" stroke-linecap="round" stroke-linejoin="round" stroke-width="2"/><path data-name="&lt;Path&gt;" fill="none" stroke="#001c63" stroke-linecap="round" stroke-linejoin="round" stroke-width="2" d="M17 50v2"/><path data-name="&lt;Path&gt;" fill="none" stroke="#fff" stroke-linecap="round" stroke-linejoin="round" stroke-width="2" d="m44 41 3 3M36 24l3 4"/><circle cx="41" cy="31" data-name="&lt;Path&gt;" fill="#fff" r="1"/></g></svg>