<svg xmlns="http://www.w3.org/2000/svg" viewBox="0 0 22.578 22.578" height="64pt" width="64pt"><g style="display:inline;stroke-width:.755224"><g style="stroke-width:.755224"><path style="color:#000;font-style:normal;font-variant:normal;font-weight:400;font-stretch:normal;font-size:medium;line-height:normal;font-family:sans-serif;font-variant-ligatures:normal;font-variant-position:normal;font-variant-caps:normal;font-variant-numeric:normal;font-variant-alternates:normal;font-variant-east-asian:normal;font-feature-settings:normal;font-variation-settings:normal;text-indent:0;text-align:start;text-decoration:none;text-decoration-line:none;text-decoration-style:solid;text-decoration-color:#000;letter-spacing:normal;word-spacing:normal;text-transform:none;writing-mode:lr-tb;direction:ltr;text-orientation:mixed;dominant-baseline:auto;baseline-shift:baseline;text-anchor:start;white-space:normal;shape-padding:0;shape-margin:0;inline-size:0;clip-rule:nonzero;display:inline;overflow:visible;visibility:visible;isolation:auto;mix-blend-mode:normal;color-interpolation:sRGB;color-interpolation-filters:linearRGB;solid-color:#000;solid-opacity:1;vector-effect:none;fill:#ec7523;fill-opacity:1;fill-rule:nonzero;stroke:none;stroke-width:.39964;stroke-linecap:round;stroke-linejoin:round;stroke-miterlimit:4;stroke-dasharray:none;stroke-dashoffset:0;stroke-opacity:1;color-rendering:auto;image-rendering:auto;shape-rendering:auto;text-rendering:auto;enable-background:accumulate;stop-color:#000" d="M-22.03 252.566a4.415 4.415 0 0 0-4.401 4.412.26.26 0 0 0 .26.26l8.302-.019a.26.26 0 0 0 .261-.26 4.415 4.415 0 0 0-4.421-4.393z" transform="matrix(1.32411 0 0 1.32411 40.493 -329.858)"/><path style="fill:#db6e23;fill-opacity:1;stroke:none;stroke-width:.399639;stroke-linecap:round;stroke-linejoin:round;stroke-opacity:1" d="M-22.006 252.594a4.335 4.335 0 0 0-2.83 1.057c2.06-.472 4.087-.72 4.914 1.761.194.58.237 1.2.44 1.783l1.585-.004a.257.257 0 0 0 .258-.258 4.362 4.362 0 0 0-4.367-4.34z" transform="matrix(1.32411 0 0 1.32411 40.493 -329.858)"/><path style="color:#000;font-style:normal;font-variant:normal;font-weight:400;font-stretch:normal;font-size:medium;line-height:normal;font-family:sans-serif;font-variant-ligatures:normal;font-variant-position:normal;font-variant-caps:normal;font-variant-numeric:normal;font-variant-alternates:normal;font-variant-east-asian:normal;font-feature-settings:normal;font-variation-settings:normal;text-indent:0;text-align:start;text-decoration:none;text-decoration-line:none;text-decoration-style:solid;text-decoration-color:#000;letter-spacing:normal;word-spacing:normal;text-transform:none;writing-mode:lr-tb;direction:ltr;text-orientation:mixed;dominant-baseline:auto;baseline-shift:baseline;text-anchor:start;white-space:normal;shape-padding:0;shape-margin:0;inline-size:0;clip-rule:nonzero;display:inline;overflow:visible;visibility:visible;isolation:auto;mix-blend-mode:normal;color-interpolation:sRGB;color-interpolation-filters:linearRGB;solid-color:#000;solid-opacity:1;vector-effect:none;fill:#87d1ee;fill-opacity:1;fill-rule:nonzero;stroke:none;stroke-width:.39964;stroke-linecap:round;stroke-linejoin:round;stroke-miterlimit:4;stroke-dasharray:none;stroke-dashoffset:0;stroke-opacity:1;color-rendering:auto;image-rendering:auto;shape-rendering:auto;text-rendering:auto;enable-background:accumulate;stop-color:#000" d="M-17.847 257.139c-2.878-.244-5.971-.186-8.848.02-.267.02-.484.066-.657.144-.174.078-.334.2-.369.407-.035.206.09.387.24.5.151.114.442.138.7.208.8.217 1.549.292 2.386.436.22.038.47.129.557.183.087.055.091.179.015.18 0 .002.006.028-.065.096a1.305 1.305 0 0 1-.42.237c-.214.081-.43.162-.643.244-.519.2-.852.564-.844.986.008.422.352.774.875.963.691.25 1.405.477 2.104.732.78.285 1.069 1.177.718 1.955-.087.192-.138.35-.137.514 0 .081.014.17.068.254a.4.4 0 0 0 .245.164c.183.037.324-.026.48-.113.155-.086.325-.214.517-.386.355-.317.723-.643 1.11-.928.425-.313.863-.762 1.107-1.229.122-.233.201-.478.166-.732-.036-.253-.22-.487-.493-.607a20.265 20.265 0 0 0-1.343-.518 1.321 1.321 0 0 1-.44-.239c-.083-.076-.098-.127-.1-.158 0-.031.01-.073.085-.144.076-.07.14-.263.35-.333 1.158-.384 2.052-.565 3.104-1.1.25-.128.513-.2.62-.399a.78.78 0 0 0 .051-.63c-.145-.402-.578-.66-1.139-.708z" transform="matrix(1.32411 0 0 1.32411 40.493 -329.858)"/><path style="fill:#2bb3cd;fill-opacity:1;stroke:none;stroke-width:.39964;stroke-linecap:round;stroke-linejoin:round;stroke-opacity:1" d="M-18.368 257.102c1.83 1.398-4.262 2.268-3.55 3.693.327.654 2.908 1.435 2.047 2.296-.422.422-1.983 1.217-2.327 2.033.01.025.016.05.031.074a.4.4 0 0 0 .245.164c.183.037.324-.026.48-.113.155-.086.326-.214.517-.386.355-.317.723-.643 1.11-.928.425-.312.863-.762 1.107-1.229.122-.234.201-.478.166-.731-.036-.254-.22-.488-.493-.608a20.26 20.26 0 0 0-1.343-.518 1.323 1.323 0 0 1-.44-.239c-.083-.076-.098-.127-.1-.158 0-.031.01-.073.085-.144.076-.07.17-.279.38-.348 1.158-.384 2.038-.55 3.09-1.085.25-.128.497-.2.603-.4a.78.78 0 0 0 .052-.63c-.145-.4-.578-.66-1.138-.706-.173-.015-.348-.025-.522-.037z" transform="matrix(1.32411 0 0 1.32411 40.493 -329.858)"/></g><path style="color:#000;display:inline;fill:#000;stroke-width:.755224;stroke-linecap:round;stroke-linejoin:round" d="M-22.304 250.113v1.588c0 .185.142.265.263.265.157 0 .266-.109.266-.265v-1.588a.264.264 0 0 0-.53 0zm-1.674.519a.265.265 0 0 0-.242.334l.205.767a.265.265 0 0 0 .511-.139l-.205-.766a.265.265 0 0 0-.27-.196zm3.599.194-.205.768a.265.265 0 1 0 .51.136l.207-.765a.265.265 0 0 0-.187-.325c-.17-.033-.292.061-.325.186zm-5.645.074a.264.264 0 0 0-.23.397l.793 1.375a.265.265 0 1 0 .459-.266l-.793-1.373a.265.265 0 0 0-.229-.133zm7.731.164-.795 1.375a.265.265 0 1 0 .46.264l.792-1.375a.265.265 0 0 0-.096-.362.277.277 0 0 0-.36.098zm.74 5.984v-.083a4.492 4.492 0 0 0-4.498-4.47 4.492 4.492 0 0 0-4.478 4.49v.037l-.286.02c-.281.02-.506.067-.686.151-.18.085-.349.228-.367.448 0 .231.138.402.287.5.15.103.34.182.584.248.817.222 1.693.363 2.549.51.22.038.38.097.47.152.123.071.072.17.023.199-.326.24-.717.346-1.076.482-.555.214-.858.62-.858 1.053 0 .43.384.76.887.942.707.255 1.438.485 2.152.745.798.291 1.093 1.206.735 2-.08.177-.13.325-.14.473a.443.443 0 0 0 .243.444c.202.097.367.025.535-.063.169-.088.352-.223.561-.41.363-.325.739-.66 1.135-.951.434-.32.881-.778 1.13-1.256.125-.239.207-.487.17-.746-.036-.26-.224-.501-.503-.624a20.718 20.718 0 0 0-1.373-.529c-.707-.268-.536-.607-.03-.781 1.185-.393 2.1-.593 3.174-1.14.452-.23.645-.572.645-.946 0-.538-.621-.819-.985-.895zm-9.746-4.491a.265.265 0 0 0-.187.45l.562.563a.265.265 0 0 0 .373-.375l-.56-.56a.265.265 0 0 0-.188-.078zm10.33.078-.56.56a.265.265 0 0 0 .373.375l.562-.562a.265.265 0 0 0 0-.373c-.11-.111-.306-.07-.375 0zm-9.03 4.35a3.958 3.958 0 0 1 3.95-3.962 3.956 3.956 0 0 1 3.967 3.944v.026c-2.582-.198-5.318-.164-7.918-.005zm-3.18-3.052a.265.265 0 0 0 .097.362l1.375.795a.265.265 0 1 0 .264-.46l-1.375-.792c-.174-.07-.306-.001-.361.095zm13.884-.04-1.375.793a.265.265 0 0 0 .266.459l1.375-.794a.265.265 0 0 0 .096-.363c-.08-.137-.278-.144-.362-.096zm-2.158 4.523c-1.013.515-1.892.71-3.102 1.111-.482.16-.858.478-.858.852 0 .469.455.779.88.932.462.163.93.337 1.336.515.302.162.177.447.078.639-.19.363-.6.799-.975 1.074-.422.31-.812.657-1.175.982-.172.154-.318.26-.425.32.014-.044.033-.095.06-.152.468-1.04.062-2.312-1.034-2.712-.729-.266-1.46-.498-2.152-.749-.385-.139-.543-.334-.543-.48 0-.146.096-.357.523-.522.215-.083.433-.164.652-.248.484-.168.831-.465.831-.827 0-.409-.573-.698-1.002-.774-.86-.147-1.72-.288-2.5-.5-.162-.034-.307-.117-.445-.192.182-.061.37-.102.527-.116a67.432 67.432 0 0 1 4.866-.184c1.512.004 2.827.053 4.098.16.455.039.708.252.708.398 0 .147-.022.307-.348.473z" transform="matrix(1.32411 0 0 1.32411 40.493 -329.858)"/></g></svg>