<svg id="Layer_1" data-name="Layer 1" xmlns="http://www.w3.org/2000/svg" viewBox="0 0 48 48"><defs><style>.cls-1{fill:#ffba55}.cls-2{fill:#c6c3d8}.cls-3{fill:#e79165}</style></defs><path class="cls-1" d="M18.6 32.34h3.33a10 10 0 0 1-10 10H8.6a10 10 0 0 1 10-10Z" transform="rotate(45 15.266 37.333)"/><path class="cls-2" d="M36.69 30.12c-4.62 0-7.8-2.75-10.9-5.43-2.86-2.48-5.56-4.81-9.4-5.2-9-.92-14.2 7.58-14.26 7.67l-1.72-1c.24-.4 5.87-9.68 16.18-8.64 4.47.45 7.54 3.11 10.51 5.68 3.9 3.37 7.26 6.29 13.38 4.28a8 8 0 0 0 5.11-10.1c-.94-2.86-4.51-4.64-7.63-3.81a4.89 4.89 0 0 0-3.37 2.76c-.69 1.66-.31 3.8 1.09 6.19l-1.73 1c-2.18-3.73-1.86-6.39-1.21-8a6.85 6.85 0 0 1 4.71-3.93 8.43 8.43 0 0 1 10 5.12 10 10 0 0 1-6.38 12.62 14.16 14.16 0 0 1-4.38.79Z"/><path class="cls-2" d="M38.34 48c-5.8 0-8.33-4.37-11.47-9.81a65.45 65.45 0 0 0-5.27-8.12c-2.75-3.5-5.68-5.2-8.71-5a7.36 7.36 0 0 0-3.78 1.31l-1.25-1.57a9.29 9.29 0 0 1 6.51-1.7c3.14.36 6.1 2.28 8.8 5.72a68.09 68.09 0 0 1 5.43 8.36c3.26 5.64 5.41 9.37 11 8.74a4.78 4.78 0 0 0 4.55-4.55A4.23 4.23 0 0 0 36.88 38a1.91 1.91 0 0 0-.63 1.66l-1.9.62a3.75 3.75 0 0 1 1.06-3.64 6.32 6.32 0 0 1 6.15-1.72 6.15 6.15 0 0 1 4.56 6.61 6.73 6.73 0 0 1-6.31 6.41 12.59 12.59 0 0 1-1.47.06ZM1.15 19.22 0 17.58a35.14 35.14 0 0 1 19.92-5.47c6.15.2 11.68-1.61 14.77-4.82a5.89 5.89 0 0 0 2-4.15l2-.14a7.7 7.7 0 0 1-2.51 5.68c-1.67 1.73-6.58 5.74-16.27 5.43a33.86 33.86 0 0 0-18.76 5.11Z"/><path class="cls-3" transform="rotate(-84.29 11.255 36.869)" d="M10.25 29.76h2v14.21h-2z"/><path class="cls-1" d="M18 0h3.33a10 10 0 0 1-10 10H8A10 10 0 0 1 18 0Z"/><path class="cls-3" transform="rotate(-39.29 11.503 7.501)" d="M4.39 6.5H18.6v2H4.39z"/></svg>