<svg width="296" height="677" fill="none" xmlns="http://www.w3.org/2000/svg"><path d="m46 420.5-4.705 1.692.091.253.118.242L46 420.5ZM228 633l-3.173 3.864.262.215.289.178L228 633ZM27.5 82l-4.311-2.533-.237.403-.158.44L27.5 82Zm-19 173-4.988.348.01.136.017.136L8.5 255Zm105 272.5-3.93 3.09.155.198.175.181 3.6-3.469ZM8.5 169l-4.973-.518-.009.085-.006.085L8.5 169ZM82.967 8.543a5 5 0 0 0-7.934-6.086l7.934 6.086ZM5.5 212l-4.988-.348-.024.348.024.348L5.5 212Zm8-91-4.706-1.689-.204.569-.063.602L13.5 121ZM51 42l-3.967-3.043-.188.244-.156.266L51 42ZM19 336l-4.956.665.045.335.09.326L19 336Zm-5.5-41-4.961.62.002.022.003.023L13.5 295ZM30 376l-4.821 1.326.05.185.066.181L30 376Zm43 100-4.496 2.187.234.482.332.422L73 476Zm93.5 106.5-3.6 3.469.202.21.225.185 3.173-3.864Zm121.378 93.257a4.999 4.999 0 0 0 6.879-1.635 4.999 4.999 0 0 0-1.635-6.879l-5.244 8.514ZM67.033 12.885a5 5 0 1 0 7.934 6.087l-7.934-6.087Zm-4.066 21.73a5 5 0 1 0-7.934-6.087l7.934 6.087Zm-22.992 16.28a5 5 0 0 0 8.622 5.066l-8.622-5.065Zm-1.45 22.21a5 5 0 1 0-8.622-5.066l8.622 5.065ZM18.794 91.453a5 5 0 1 0 9.412 3.378l-9.412-3.378Zm3.412 20.092a5 5 0 1 0-9.412-3.378l9.412 3.378Zm-15.108 22.65a5 5 0 1 0 9.947 1.036l-9.947-1.036Zm7.804 21.608a5 5 0 1 0-9.947-1.036l9.947 1.036ZM2.655 180.938a5.001 5.001 0 0 0 9.976.696l-9.976-.696Zm8.69 19.124a5.001 5.001 0 0 0-9.976-.696l9.976.696Zm-9.976 24.572a5 5 0 0 0 9.976-.696l-9.976.696Zm11.262 17.732a5 5 0 0 0-9.976.696l9.976-.696Zm-7.664 24.683a5 5 0 0 0 9.923-1.241l-9.923 1.241Zm12.066 15.902a5 5 0 1 0-9.923 1.24l9.923-1.24Zm-6.917 24.428a5 5 0 1 0 9.911-1.33l-9.911 1.33Zm12.268 16.242a5 5 0 0 0-9.911 1.329l9.911-1.329Zm-5.062 25.133a5 5 0 1 0 9.642-2.651l-9.642 2.651Zm14.356 14.492a5 5 0 1 0-9.642 2.651l9.642-2.651Zm-1.812 27.16a5 5 0 1 0 9.41-3.384l-9.41 3.384Zm16.268 15.688a5 5 0 1 0-9.41 3.383l9.41-3.383Zm-.773 24.522a5 5 0 1 0 8.992-4.375l-8.992 4.375Zm14.778 7.518a5 5 0 1 0-8.992 4.375l8.992-4.375Zm-1.278 20.232a5 5 0 1 0 8.992-4.375l-8.992 4.375Zm14.778 7.518a5 5 0 1 0-8.992 4.375l8.992-4.375Zm1.217 20.564a5 5 0 0 0 7.86-6.182l-7.86 6.182Zm16.539 4.854a5 5 0 1 0-7.86 6.181l7.86-6.181Zm3.71 20.896a5.001 5.001 0 0 0 7.861-6.182l-7.86 6.182Zm16.54 4.854a5 5 0 1 0-7.861 6.181l7.861-6.181Zm5.826 21.774a5 5 0 1 0 7.201-6.939l-7.201 6.939Zm18.558 4.847a5 5 0 1 0-7.201 6.939l7.201-6.939Zm7.942 22.653a5 5 0 1 0 7.201-6.939l-7.201 6.939Zm18.558 4.847a5 5 0 1 0-7.201 6.939l7.201-6.939Zm9.584 22.405a5 5 0 0 0 6.346-7.728l-6.346 7.728Zm19.524 3.093a5 5 0 0 0-6.346 7.728l6.346-7.728Zm11.226 22.157a5 5 0 0 0 6.346-7.728l-6.346 7.728Zm19.524 3.093a5 5 0 0 0-6.346 7.728l6.346-7.728Zm11.919 20.836a5 5 0 1 0 5.245-8.514l-5.245 8.514Zm18.638-.264a5 5 0 1 0-5.245 8.514l5.245-8.514Zm12.612 19.514a5 5 0 1 0 5.245-8.514l-5.245 8.514Zm18.638-.264a5 5 0 0 0-5.245 8.514l5.245-8.514ZM75.033 2.457l-8 10.428 7.934 6.087 8-10.429-7.934-6.086Zm-20 26.071-8 10.429 7.934 6.086 8-10.428-7.934-6.087Zm-8.344 10.94-6.714 11.428 8.622 5.065 6.714-11.428-8.622-5.066Zm-16.786 28.57-6.714 11.43 8.622 5.065 6.714-11.429-8.622-5.065Zm-7.109 12.273-4 11.142 9.412 3.38 4-11.144-9.412-3.378Zm-10 27.857-4 11.143 9.412 3.378 4-11.143-9.412-3.378Zm-4.267 12.314-1.429 13.714 9.947 1.036 1.428-13.714-9.946-1.036Zm-3.572 34.286-1.428 13.714 9.946 1.036 1.429-13.714-9.947-1.036Zm-1.443 13.884-.857 12.286 9.976.696.857-12.286-9.976-.696ZM1.37 199.366l-.857 12.286 9.976.696.857-12.286-9.976-.696Zm-.857 12.982.857 12.286 9.976-.696-.857-12.286-9.976.696Zm2.143 30.714.857 12.286 9.976-.696-.857-12.286-9.976.696Zm.884 12.558 1.428 11.429 9.923-1.241-1.429-11.428-9.922 1.24Zm3.571 28.571 1.429 11.429 9.922-1.24-1.428-11.429-9.923 1.24Zm1.434 11.474 1.572 11.714 9.911-1.33-1.572-11.714-9.91 1.33Zm3.929 29.285 1.571 11.715 9.912-1.33-1.572-11.714-9.911 1.329Zm1.706 12.376 3.143 11.428 9.642-2.651-3.143-11.429-9.642 2.652Zm7.857 28.571 3.143 11.429 9.642-2.652-3.143-11.428-9.642 2.651Zm3.259 11.795 4.571 12.714 9.41-3.384-4.57-12.714-9.411 3.384Zm11.428 31.785 4.572 12.715 9.41-3.384-4.571-12.714-9.41 3.383Zm4.78 13.21 3.858 7.929 8.992-4.375-3.857-7.928-8.992 4.374Zm9.644 19.822 7.714 15.857 8.992-4.375-7.714-15.857-8.992 4.375Zm13.5 27.75 3.857 7.928 8.992-4.374-3.857-7.929-8.992 4.375Zm4.423 8.832 5.786 7.357 7.86-6.182-5.786-7.357-7.86 6.182Zm14.464 18.392 11.572 14.715 7.86-6.182-11.571-14.714-7.86 6.181Zm20.25 25.75 5.786 7.357 7.86-6.181-5.785-7.357-7.861 6.181Zm6.116 7.736 7.571 7.857 7.201-6.939-7.571-7.857-7.201 6.939Zm18.928 19.643 15.143 15.714 7.201-6.939-15.143-15.714-7.201 6.939Zm26.5 27.5 7.572 7.857 7.201-6.939-7.572-7.857-7.201 6.939Zm7.999 8.252 8.786 7.214 6.346-7.728-8.786-7.215-6.346 7.729Zm21.964 18.035 17.572 14.429 6.346-7.728-17.572-14.429-6.346 7.728Zm30.75 25.25 8.786 7.215 6.346-7.729-8.786-7.214-6.346 7.728Zm9.337 7.608 8.928 5.5 5.245-8.514-8.928-5.501-5.245 8.515Zm22.321 13.75 17.857 11 5.245-8.514-17.857-11-5.245 8.514Zm31.25 19.25 8.929 5.5 5.244-8.514-8.928-5.5-5.245 8.514Z" fill="#000"/></svg>