<svg width="64pt" height="64pt" viewBox="0 0 22.578 22.578" xmlns="http://www.w3.org/2000/svg"><g style="stroke-width:.820523"><path style="color:#000;fill:#9a605c;stroke-width:.820523;stroke-linecap:round;stroke-linejoin:round;-inkscape-stroke:none" d="M94.834 351.664a1.066 1.066 0 0 0-.988.79l-.43 1.61c-.15.567.191 1.154.758 1.307l9.623 2.598a1.068 1.068 0 0 0 1.307-.752l.43-1.612a1.07 1.07 0 0 0 .025-.414.265.265 0 0 0-.17-.212l-5.323-1.952a.265.265 0 0 0-.023-.008l-4.89-1.318a1.068 1.068 0 0 0-.319-.037z" transform="matrix(1.21873 0 0 1.21873 -110.554 -414.707)"/><path style="color:#000;fill:#713832;fill-opacity:1;stroke-width:.820523;stroke-linecap:round;stroke-linejoin:round;-inkscape-stroke:none" d="M104.785 354.303a1.074 1.074 0 0 0-1.312.752l-.438 1.607a1.069 1.069 0 0 0 .754 1.307 1.075 1.075 0 0 0 1.315-.75l.437-1.61a1.07 1.07 0 0 0-.756-1.306z" transform="matrix(1.21873 0 0 1.21873 -110.554 -414.707)"/><path style="color:#000;fill:#361c16;fill-opacity:1;stroke-width:.820523;stroke-linecap:round;stroke-linejoin:round;-inkscape-stroke:none" d="m99.067 352.756-4.014 1.084c-.66.178-1.11.768-1.143 1.42.081.048.17.085.264.111l6.713 1.812 4.553-1.229.093-.348c.036-.135.044-.277.026-.415a.265.265 0 0 0-.17-.213l-5.323-1.95a.265.265 0 0 0-.023-.008z" transform="matrix(1.21873 0 0 1.21873 -110.554 -414.707)"/><path style="color:#000;fill:#915b57;fill-opacity:1;stroke-width:.820523;stroke-linecap:round;stroke-linejoin:round;-inkscape-stroke:none" d="m104.799 351.701-9.623 2.598c-.567.153-.909.74-.758 1.306l.428 1.612c.15.566.74.905 1.306.752l9.625-2.598c.567-.153.907-.74.756-1.307l-.428-1.61a1.068 1.068 0 0 0-1.306-.753z" transform="matrix(1.21873 0 0 1.21873 -110.554 -414.707)"/><path style="color:#000;fill:#552b26;fill-opacity:1;stroke-width:.820523;stroke-linecap:round;stroke-linejoin:round;-inkscape-stroke:none" d="M105.064 351.664c-.087.001-.177.013-.265.037l-9.623 2.598c-.52.14-.85.645-.785 1.165.078-.046.164-.082.255-.107l9.624-2.597a1.068 1.068 0 0 1 1.307.751l.427 1.612c.013.047.022.095.028.143.409-.236.627-.726.501-1.202l-.427-1.61a1.068 1.068 0 0 0-1.042-.79z" transform="matrix(1.21873 0 0 1.21873 -110.554 -414.707)"/><path style="color:#000;fill:#713832;fill-opacity:1;stroke-width:.820523;stroke-linecap:round;stroke-linejoin:round;-inkscape-stroke:none" d="M95.174 354.3a1.07 1.07 0 0 0-.756 1.307l.437 1.61c.154.566.746.903 1.315.75a1.07 1.07 0 0 0 .756-1.307l-.44-1.607a1.074 1.074 0 0 0-1.312-.752z" transform="matrix(1.21873 0 0 1.21873 -110.554 -414.707)"/><path style="color:#000;fill:#dc1d4b;stroke-width:.820523;stroke-linecap:round;stroke-linejoin:round;-inkscape-stroke:none" d="M99.541 341.098a.265.265 0 0 0-.353.345s.092.215.085.496c-.006.282-.09.599-.52.874-.533.342-1.22.95-1.786 1.751-.567.803-1.012 1.803-1.012 2.915 0 2.2 1.988 3.96 4.399 3.96 2.41 0 4.398-1.76 4.398-3.96 0-.126-.005-.247-.014-.368a.265.265 0 0 0-.47-.146c-.185.229-.496.386-.856.387-.303 0-.586-.106-.75-.266-.164-.16-.243-.358-.146-.691.39-1.348.307-2.4-.229-3.245-.536-.844-1.482-1.456-2.746-2.052z" transform="matrix(1.21873 0 0 1.21873 -110.554 -414.707)"/><path style="color:#000;fill:#b11e48;fill-opacity:1;stroke-width:.820523;stroke-linecap:round;stroke-linejoin:round;-inkscape-stroke:none" d="M102.287 343.15c-.547-.846-1.424-1.376-2.287-1.828-.148-.075-.3-.15-.459-.224-.06-.023-.084-.022-.114-.025a.265.265 0 0 0-.24.37l.063.221a.264.264 0 0 1 .291-.037c.837.46 1.709.8 2.217 1.523.537.845.619 1.897.229 3.245-.21.858.769 1.477 1.425 1.486.148 0 .288-.027.414-.074.244-.092.394-.045.355.215-.284 1.862-2.001 3.298-4.092 3.41.088.006.176.008.265.008 2.32 0 4.248-1.632 4.389-3.717.017-.207.005-.413-.005-.612a.262.262 0 0 0-.042-.124c-.112-.159-.298-.168-.429-.022a1.263 1.263 0 0 1-.855.386c-.578-.027-1.068-.34-.897-.957.26-.926.326-1.887.026-2.746-.074-.172-.165-.334-.254-.498zM94.793 348.543a.81.81 0 0 0-.807.807.81.81 0 0 0 .807.806.81.81 0 0 0 .807-.806.81.81 0 0 0-.807-.807zM104.752 344.193a.81.81 0 0 0-.807.807.81.81 0 0 0 .807.807.81.81 0 0 0 .807-.807.81.81 0 0 0-.807-.807z" transform="matrix(1.21873 0 0 1.21873 -110.554 -414.707)"/><path style="color:#000;fill:#552b26;fill-opacity:1;stroke-width:.820523;stroke-linecap:round;stroke-linejoin:round;-inkscape-stroke:none" d="M95.44 354.264a1.073 1.073 0 0 0-.961.626 1.074 1.074 0 0 1 1.478.692l.44 1.607c.067.248.039.5-.061.718a1.07 1.07 0 0 0 .59-1.247l-.44-1.607a1.075 1.075 0 0 0-1.046-.789z" transform="matrix(1.21873 0 0 1.21873 -110.554 -414.707)"/></g><path style="color:#000;fill:#000;stroke-width:1;stroke-linecap:round;stroke-linejoin:round;-inkscape-stroke:none" d="M10.61 275.392a.323.323 0 0 0-.28.452s.112.261.104.604c-.007.343-.111.73-.633 1.065-.65.417-1.487 1.157-2.178 2.135-.69.977-1.233 2.196-1.233 3.551 0 2.683 2.423 4.828 5.36 4.828 2.939 0 5.36-2.145 5.361-4.828 0-.153-.006-.3-.016-.448a.322.322 0 0 0-.574-.178c-.225.28-.604.47-1.042.471-.37 0-.715-.128-.915-.323-.2-.196-.296-.437-.178-.843.475-1.642.375-2.925-.279-3.954-.957-1.3-2.24-1.971-3.346-2.502a.322.322 0 0 0-.15-.03zm.465 1.047c1.067.574 2.048 1.138 2.487 1.83.543.855.65 1.894.205 3.43-.172.593-.008 1.139.345 1.483.352.345.853.507 1.364.507.398 0 .671-.26.98-.452-.024 2.274-2.094 4.145-4.705 4.145-2.627 0-4.715-1.89-4.716-4.183 0-1.181.48-2.28 1.116-3.18.637-.901 1.433-1.6 2-1.964.54-.367.976-.991.924-1.616zm6.01 2.757a.989.989 0 0 0-.957.983c0 .539.444.983.983.983.539 0 .983-.444.983-.983a.988.988 0 0 0-.983-.983h-.025zm.026.644c.19 0 .338.148.338.339 0 .19-.148.337-.338.337a.332.332 0 0 1-.338-.337c0-.19.147-.339.338-.339zm-8.488.834a.32.32 0 0 0-.238.13c-1.37 1.855-.264 4.104-.264 4.104a.322.322 0 0 0 .58-.283s-.917-1.922.203-3.437a.322.322 0 0 0-.28-.514zm3.128 1.761a.322.322 0 0 0-.245.112s-.454.53-.91 1.188c-.228.328-.458.69-.635 1.042-.178.353-.314.69-.314 1.03 0 .144.014.284.042.42a.322.322 0 1 0 .633-.13 1.415 1.415 0 0 1-.03-.29c0-.144.088-.431.245-.742.156-.31.37-.651.588-.964.312-.45.474-.63.626-.814.151.184.311.365.623.814.217.313.434.654.59.964.157.31.243.598.243.743 0 .1-.01.195-.028.288a.322.322 0 1 0 .63.133c.029-.136.043-.278.043-.421 0-.342-.134-.678-.311-1.03a8.93 8.93 0 0 0-.636-1.043c-.456-.657-.91-1.188-.91-1.188a.323.323 0 0 0-.244-.112zm-6.802 2.062a.989.989 0 0 0-.958.983c0 .539.444.983.983.983.54 0 .983-.444.983-.983a.988.988 0 0 0-.983-.983H4.95zm.025.644c.19 0 .338.148.338.339 0 .19-.147.337-.338.337a.333.333 0 0 1-.338-.337c0-.19.148-.339.338-.339zm.098 3.158h-.048c-.555.022-1.055.402-1.204.963l-.524 1.963a1.31 1.31 0 0 0 .923 1.593l.26.07c.007.072.019.144.038.216l.521 1.964c.184.69.902 1.102 1.592.916l.014-.004h.008l.045-.014 4.59-1.238 4.63 1.248a.048.048 0 0 1 .011.004h.001l.018.006c.69.186 1.41-.227 1.593-.917l.523-1.963c.019-.071.031-.143.037-.216l.261-.07a1.307 1.307 0 0 0 .92-1.593l-.52-1.964a1.302 1.302 0 0 0-1.593-.916l-5.874 1.586-5.882-1.586a1.313 1.313 0 0 0-.34-.046zm12.46.645c.28.01.529.2.605.484l.524 1.962a.657.657 0 0 1-.47.807l-10.619 2.866c.053-.194.062-.403.017-.61l3.2-.863a.323.323 0 0 0-.169-.625l-1.07.29a.738.738 0 0 1 .599-.834l2.708-.733a.322.322 0 1 0-.166-.622l-2.671.721a1.406 1.406 0 0 0-1.093 1.636l-1.507.407-.383-1.4a1.295 1.295 0 0 0-.347-.59l10.645-2.873a.665.665 0 0 1 .197-.023zm-12.436 0a.626.626 0 0 1 .147.023l4.812 1.298-1.877.507-2.633-.706a.323.323 0 1 0-.167.624l1.56.417-1.433.386-.065.016c-.012.004-.024.007-.035.012a1.31 1.31 0 0 0-.82.728l-.197-.052a.658.658 0 0 1-.469-.808l.522-1.96a.651.651 0 0 1 .607-.484h.048zm11.134 1.185a.34.34 0 0 0-.083.01l-1.795.481a.322.322 0 1 0 .167.624l1.795-.483a.322.322 0 0 0 .228-.395.322.322 0 0 0-.312-.238zm-10.46 1.98a.66.66 0 0 1 .646.49l.534 1.959a.644.644 0 0 1-.462.797l-.008.002-.016.005a.65.65 0 0 1-.802-.461l-.522-1.962a.656.656 0 0 1 .467-.807l.013-.004c.05-.012.101-.018.15-.019zm11.633.967-.485 1.825a.649.649 0 0 1-.801.461l-.009-.002a.645.645 0 0 1-.48-.802l.296-1.083zm-2.201.595-.195.718c-.062.228-.058.46.001.674l-2.482-.67z" transform="translate(0 -274.422)"/></svg>