<?xml version="1.0" encoding="UTF-8" standalone="no"?>
<svg
   inkscape:export-ydpi="576"
   inkscape:export-xdpi="576"
   inkscape:export-filename="/media/taufikramadhan/Data/Tr Design Studio/Project Design/TR Creative Design/Icon Design/Project Hiring/Icon Icons/008 - Weather And Season/Send/3 - Flat/26 - Spring.png"
   width="64pt"
   height="64pt"
   viewBox="0 0 22.577778 22.577778"
   version="1.1"
   id="svg831"
   inkscape:version="1.1.1 (1:1.1+202109281943+c3084ef5ed)"
   sodipodi:docname="26 - Spring.svg"
   xmlns:inkscape="http://www.inkscape.org/namespaces/inkscape"
   xmlns:sodipodi="http://sodipodi.sourceforge.net/DTD/sodipodi-0.dtd"
   xmlns="http://www.w3.org/2000/svg"
   xmlns:svg="http://www.w3.org/2000/svg"
   xmlns:rdf="http://www.w3.org/1999/02/22-rdf-syntax-ns#"
   xmlns:cc="http://creativecommons.org/ns#"
   xmlns:dc="http://purl.org/dc/elements/1.1/">
  <defs
     id="defs825">
    <pattern
       id="EMFhbasepattern"
       patternUnits="userSpaceOnUse"
       width="6"
       height="6"
       x="0"
       y="0" />
    <pattern
       id="EMFhbasepattern-9"
       patternUnits="userSpaceOnUse"
       width="6"
       height="6"
       x="0"
       y="0" />
    <pattern
       id="EMFhbasepattern-0"
       patternUnits="userSpaceOnUse"
       width="6"
       height="6"
       x="0"
       y="0" />
    <pattern
       id="EMFhbasepattern-7"
       patternUnits="userSpaceOnUse"
       width="6"
       height="6"
       x="0"
       y="0" />
    <pattern
       id="EMFhbasepattern-2"
       patternUnits="userSpaceOnUse"
       width="6"
       height="6"
       x="0"
       y="0" />
    <pattern
       id="EMFhbasepattern-98"
       patternUnits="userSpaceOnUse"
       width="6"
       height="6"
       x="0"
       y="0" />
    <pattern
       id="EMFhbasepattern-6"
       patternUnits="userSpaceOnUse"
       width="6"
       height="6"
       x="0"
       y="0" />
    <pattern
       id="EMFhbasepattern-01"
       patternUnits="userSpaceOnUse"
       width="6"
       height="6"
       x="0"
       y="0" />
    <pattern
       id="EMFhbasepattern-07"
       patternUnits="userSpaceOnUse"
       width="6"
       height="6"
       x="0"
       y="0" />
    <pattern
       id="EMFhbasepattern-8"
       patternUnits="userSpaceOnUse"
       width="6"
       height="6"
       x="0"
       y="0" />
    <pattern
       id="EMFhbasepattern-4"
       patternUnits="userSpaceOnUse"
       width="6"
       height="6"
       x="0"
       y="0" />
    <pattern
       id="EMFhbasepattern-40"
       patternUnits="userSpaceOnUse"
       width="6"
       height="6"
       x="0"
       y="0" />
    <pattern
       id="EMFhbasepattern-08"
       patternUnits="userSpaceOnUse"
       width="6"
       height="6"
       x="0"
       y="0" />
    <pattern
       id="EMFhbasepattern-04"
       patternUnits="userSpaceOnUse"
       width="6"
       height="6"
       x="0"
       y="0" />
    <pattern
       id="EMFhbasepattern-014"
       patternUnits="userSpaceOnUse"
       width="6"
       height="6"
       x="0"
       y="0" />
    <pattern
       id="EMFhbasepattern-27"
       patternUnits="userSpaceOnUse"
       width="6"
       height="6"
       x="0"
       y="0" />
    <pattern
       id="EMFhbasepattern-09"
       patternUnits="userSpaceOnUse"
       width="6"
       height="6"
       x="0"
       y="0" />
    <pattern
       id="EMFhbasepattern-5"
       patternUnits="userSpaceOnUse"
       width="6"
       height="6"
       x="0"
       y="0" />
    <pattern
       id="EMFhbasepattern-018"
       patternUnits="userSpaceOnUse"
       width="6"
       height="6"
       x="0"
       y="0" />
  </defs>
  <sodipodi:namedview
     id="base"
     pagecolor="#ffffff"
     bordercolor="#666666"
     borderopacity="1.0"
     inkscape:pageopacity="0.0"
     inkscape:pageshadow="2"
     inkscape:zoom="6.28125"
     inkscape:cx="42.348259"
     inkscape:cy="42.666667"
     inkscape:document-units="pt"
     inkscape:current-layer="layer1"
     showgrid="false"
     units="pt"
     inkscape:window-width="1366"
     inkscape:window-height="705"
     inkscape:window-x="0"
     inkscape:window-y="31"
     inkscape:window-maximized="1"
     inkscape:pagecheckerboard="true"
     inkscape:showpageshadow="false"
     inkscape:object-paths="true"
     inkscape:snap-intersection-paths="true"
     inkscape:snap-smooth-nodes="true"
     inkscape:snap-midpoints="true"
     showguides="false"
     inkscape:snap-bbox="true"
     inkscape:bbox-nodes="true"
     inkscape:snap-nodes="false"
     inkscape:snap-global="true"
     inkscape:document-rotation="0">
    <inkscape:grid
       type="xygrid"
       id="grid1378" />
    <sodipodi:guide
       position="0.97013831,21.607643"
       orientation="78.000048,0"
       id="guide1380"
       inkscape:locked="false" />
    <sodipodi:guide
       position="0.97013831,0.97013129"
       orientation="0,78.000005"
       id="guide1382"
       inkscape:locked="false" />
    <sodipodi:guide
       position="21.607639,0.97013129"
       orientation="-78.000048,0"
       id="guide1384"
       inkscape:locked="false" />
    <sodipodi:guide
       position="21.607639,21.607643"
       orientation="0,-78.000005"
       id="guide1386"
       inkscape:locked="false" />
  </sodipodi:namedview>
  <metadata
     id="metadata828">
    <rdf:RDF>
      <cc:Work
         rdf:about="">
        <dc:format>image/svg+xml</dc:format>
        <dc:type
           rdf:resource="http://purl.org/dc/dcmitype/StillImage" />
      </cc:Work>
    </rdf:RDF>
  </metadata>
  <g
     inkscape:label="Icon"
     inkscape:groupmode="layer"
     id="layer1"
     transform="translate(0,-274.42223)">
    <g
       id="g815624"
       style="display:inline;stroke-width:0.825352"
       transform="matrix(1.2116042,0,0,1.2116042,37.98796,-174.74462)">
      <path
         style="color:#000000;fill:#ee8eb4;stroke-width:0.825352;stroke-linecap:round;stroke-linejoin:round;-inkscape-stroke:none"
         d="m -28.445312,374.65234 c -0.378931,-3e-5 -0.759251,0.14401 -1.046875,0.43164 -0.575138,0.57524 -0.575151,1.51657 0,2.0918 0.111561,0.11156 0.275108,0.13291 0.414062,0.20313 -0.139379,0.0703 -0.302261,0.0931 -0.414062,0.20507 -0.575143,0.57525 -0.575241,1.51681 0,2.0918 0.575171,0.57525 1.516553,0.57494 2.091796,0 0.112292,-0.11227 0.134675,-0.27604 0.205079,-0.41601 0.07062,0.14141 0.09378,0.30667 0.207031,0.41992 0.575166,0.57492 1.516547,0.57526 2.091797,0 0.575139,-0.57524 0.575154,-1.51657 0,-2.0918 -0.113457,-0.11346 -0.278232,-0.13639 -0.419922,-0.20703 0.139916,-0.0704 0.303821,-0.0929 0.416015,-0.20508 0.575135,-0.57525 0.575158,-1.51657 0,-2.0918 -0.575169,-0.57525 -1.514631,-0.57524 -2.089843,0 -0.112103,0.11209 -0.134705,0.27624 -0.205078,0.41602 -0.07038,-0.13988 -0.09289,-0.30382 -0.205079,-0.41602 -0.287582,-0.28746 -0.665991,-0.4316 -1.044921,-0.43164 z"
         id="path770417" />
      <path
         style="color:#000000;fill:#2bb3cd;stroke-width:0.825352;stroke-linecap:round;stroke-linejoin:round;-inkscape-stroke:none"
         d="m -18.126953,374.65234 c -0.378931,-3e-5 -0.757297,0.14401 -1.044922,0.43164 -0.575138,0.57524 -0.575151,1.51657 0,2.0918 0.111768,0.11176 0.274812,0.13287 0.414063,0.20313 -0.139678,0.0704 -0.302055,0.0929 -0.414063,0.20507 -0.575143,0.57525 -0.575241,1.51681 0,2.0918 0.575171,0.57525 1.5146,0.57494 2.089844,0 0.112501,-0.11248 0.13658,-0.27574 0.207031,-0.41601 0.0706,0.14126 0.09388,0.30677 0.207031,0.41992 0.575166,0.57492 1.514594,0.57526 2.089844,0 0.575139,-0.57524 0.575154,-1.51657 0,-2.0918 -0.113033,-0.11303 -0.276893,-0.13648 -0.417969,-0.20703 0.139604,-0.0703 0.302085,-0.0931 0.414063,-0.20508 0.575135,-0.57525 0.575157,-1.51657 0,-2.0918 -0.575169,-0.57525 -1.514632,-0.57524 -2.089844,0 -0.112204,0.11219 -0.134682,0.27609 -0.205078,0.41602 -0.07038,-0.13988 -0.09289,-0.30382 -0.205078,-0.41602 -0.287583,-0.28746 -0.665991,-0.4316 -1.044922,-0.43164 z"
         id="path770423" />
      <path
         style="color:#000000;fill:#50b86b;stroke-width:0.825352;stroke-linecap:round;stroke-linejoin:round;-inkscape-stroke:none"
         d="m -29.90625,380.04883 a 0.26460996,0.26460996 0 0 0 -0.339844,0.2539 v 0.50391 c -3e-6,0.80906 0.531835,1.5249 1.306641,1.75781 l 1.667969,0.5 a 0.26460996,0.26460996 0 0 0 0.341797,-0.25195 v -0.50391 c 3e-6,-0.80905 -0.531834,-1.5249 -1.306641,-1.75781 z"
         id="path770429" />
      <path
         style="color:#000000;fill:#50b86b;stroke-width:0.825352;stroke-linecap:round;stroke-linejoin:round;-inkscape-stroke:none"
         d="m -24.484375,380.04883 -1.667969,0.50195 c -0.774806,0.23291 -1.306644,0.94876 -1.30664,1.75781 v 0.50391 a 0.26460996,0.26460996 0 0 0 0.339843,0.25195 l 1.669922,-0.5 c 0.774806,-0.23291 1.306645,-0.94875 1.306641,-1.75781 v -0.50391 a 0.26460996,0.26460996 0 0 0 -0.341797,-0.2539 z"
         id="path770435" />
      <path
         style="color:#000000;fill:#349951;fill-opacity:1;stroke-width:0.825352;stroke-linecap:round;stroke-linejoin:round;-inkscape-stroke:none"
         d="m -27.195312,378.5918 a 0.2645835,0.2645835 0 0 0 -0.263672,0.26367 v 3.95703 a 0.2645835,0.2645835 0 0 0 0.263672,0.26367 0.2645835,0.2645835 0 0 0 0.265625,-0.26367 v -3.95703 a 0.2645835,0.2645835 0 0 0 -0.265625,-0.26367 z"
         id="path37800" />
      <path
         style="color:#000000;fill:#fadb80;stroke-width:0.825352;stroke-linecap:round;stroke-linejoin:round;-inkscape-stroke:none"
         d="m -27.193359,375.70312 c -0.429914,0 -0.861009,0.16373 -1.1875,0.49024 -0.653017,0.65301 -0.652926,1.72005 0,2.37305 0.652956,0.65303 1.720066,0.65302 2.373047,0 0.653053,-0.65303 0.653029,-1.72026 0,-2.37305 -0.326478,-0.32652 -0.755634,-0.49023 -1.185547,-0.49024 z"
         id="path770445" />
      <path
         style="color:#000000;fill:#50b86b;stroke-width:0.825352;stroke-linecap:round;stroke-linejoin:round;-inkscape-stroke:none"
         d="m -19.587891,380.04883 a 0.26460996,0.26460996 0 0 0 -0.341796,0.2539 v 0.50391 c -4e-6,0.80906 0.531834,1.5249 1.30664,1.75781 l 1.669922,0.5 a 0.26460996,0.26460996 0 0 0 0.339844,-0.25195 v -0.50391 c 3e-6,-0.80905 -0.531833,-1.5249 -1.306641,-1.75781 z"
         id="path770451" />
      <path
         style="color:#000000;fill:#50b86b;stroke-width:0.825352;stroke-linecap:round;stroke-linejoin:round;-inkscape-stroke:none"
         d="m -14.166016,380.04883 -1.669922,0.50195 c -0.774806,0.23291 -1.306644,0.94876 -1.30664,1.75781 v 0.50391 a 0.26460996,0.26460996 0 0 0 0.341797,0.25195 l 1.667968,-0.5 c 0.774807,-0.23291 1.306645,-0.94875 1.306641,-1.75781 v -0.50391 a 0.26460996,0.26460996 0 0 0 -0.339844,-0.2539 z"
         id="path770457" />
      <path
         id="path786594"
         style="color:#000000;fill:#2276bc;fill-opacity:1;stroke-width:0.825352;stroke-linecap:round;stroke-linejoin:round;-inkscape-stroke:none"
         d="m -15.62664,374.65263 c -0.08857,0 -0.177176,0.008 -0.264584,0.0238 0.286272,0.0515 0.559999,0.18738 0.780315,0.40772 0.575159,0.57523 0.575135,1.51662 0,2.09187 -0.112194,0.11218 -0.27608,0.13423 -0.415994,0.20464 0.14169,0.0706 0.306155,0.0938 0.419611,0.20722 0.575154,0.57523 0.57514,1.51662 0,2.09186 -0.220073,0.22008 -0.493554,0.35556 -0.779796,0.40721 0.461216,0.0825 0.954445,-0.0527 1.308962,-0.40721 0.575141,-0.57524 0.575154,-1.51663 0,-2.09186 -0.113456,-0.11346 -0.277921,-0.13658 -0.41961,-0.20722 0.139914,-0.0704 0.3038,-0.0925 0.415994,-0.20464 0.575135,-0.57525 0.575159,-1.51664 0,-2.09187 -0.287584,-0.28762 -0.666235,-0.43149 -1.044898,-0.43149 z"
         sodipodi:nodetypes="ccsccccccsccscc" />
      <path
         style="color:#000000;fill:#349951;fill-opacity:1;stroke-width:0.825352;stroke-linecap:round;stroke-linejoin:round;-inkscape-stroke:none"
         d="m -16.876953,378.5293 a 0.2645835,0.2645835 0 0 0 -0.265625,0.26367 v 4.01953 a 0.2645835,0.2645835 0 0 0 0.265625,0.26367 0.2645835,0.2645835 0 0 0 0.263672,-0.26367 v -4.01953 a 0.2645835,0.2645835 0 0 0 -0.263672,-0.26367 z"
         id="path38906" />
      <path
         style="color:#000000;fill:#fadb80;stroke-width:0.825352;stroke-linecap:round;stroke-linejoin:round;-inkscape-stroke:none"
         d="m -16.876953,375.70312 c -0.429914,0 -0.859056,0.16373 -1.185547,0.49024 -0.653015,0.65301 -0.652926,1.72005 0,2.37305 0.652958,0.65303 1.718112,0.65302 2.371094,0 0.65305,-0.65303 0.653027,-1.72026 0,-2.37305 -0.326478,-0.32652 -0.755633,-0.49023 -1.185547,-0.49024 z"
         id="path770467" />
      <path
         style="color:#000000;fill:#febe40;stroke-width:0.825352;stroke-linecap:round;stroke-linejoin:round;-inkscape-stroke:none"
         d="m -22.037109,372.88867 c -0.648724,0 -1.179759,0.53097 -1.179688,1.17969 1.13e-4,0.64859 0.531092,1.17969 1.179688,1.17969 0.648595,0 1.181527,-0.5311 1.18164,-1.17969 7.1e-5,-0.64872 -0.532917,-1.17969 -1.18164,-1.17969 z"
         id="path770473" />
      <path
         style="color:#000000;fill:#e97525;stroke-width:0.825352;stroke-linecap:round;stroke-linejoin:round;-inkscape-stroke:none"
         d="m -22.037109,375.56055 a 0.2645835,0.2645835 0 0 0 -0.263672,0.26367 v 0.52539 a 0.2645835,0.2645835 0 0 0 0.263672,0.26562 0.2645835,0.2645835 0 0 0 0.265625,-0.26562 v -0.52539 a 0.2645835,0.2645835 0 0 0 -0.265625,-0.26367 z"
         id="path39375" />
      <path
         style="color:#000000;fill:#e97525;stroke-width:0.825352;stroke-linecap:round;stroke-linejoin:round;-inkscape-stroke:none"
         d="m -22.037109,371.52148 a 0.2645835,0.2645835 0 0 0 -0.263672,0.26368 v 0.52734 a 0.2645835,0.2645835 0 0 0 0.263672,0.26367 0.2645835,0.2645835 0 0 0 0.265625,-0.26367 v -0.52734 a 0.2645835,0.2645835 0 0 0 -0.265625,-0.26368 z"
         id="path39457" />
      <path
         style="color:#000000;fill:#e97525;stroke-width:0.825352;stroke-linecap:round;stroke-linejoin:round;-inkscape-stroke:none"
         d="m -24.318359,373.80273 a 0.2645835,0.2645835 0 0 0 -0.263672,0.26563 0.2645835,0.2645835 0 0 0 0.263672,0.26367 h 0.52539 a 0.2645835,0.2645835 0 0 0 0.265625,-0.26367 0.2645835,0.2645835 0 0 0 -0.265625,-0.26563 z"
         id="path39459" />
      <path
         style="color:#000000;fill:#e97525;stroke-width:0.825352;stroke-linecap:round;stroke-linejoin:round;-inkscape-stroke:none"
         d="m -20.279297,373.80273 a 0.2645835,0.2645835 0 0 0 -0.265625,0.26563 0.2645835,0.2645835 0 0 0 0.265625,0.26367 h 0.525391 a 0.2645835,0.2645835 0 0 0 0.263672,-0.26367 0.2645835,0.2645835 0 0 0 -0.263672,-0.26563 z"
         id="path39461" />
      <path
         style="color:#000000;fill:#e97525;stroke-width:0.825352;stroke-linecap:round;stroke-linejoin:round;-inkscape-stroke:none"
         d="m -23.277344,375.04492 a 0.2645835,0.2645835 0 0 0 -0.1875,0.0781 l -0.373047,0.37109 a 0.2645835,0.2645835 0 0 0 0.002,0.375 0.2645835,0.2645835 0 0 0 0.373046,0 l 0.371094,-0.37305 a 0.2645835,0.2645835 0 0 0 0,-0.37304 0.2645835,0.2645835 0 0 0 -0.185547,-0.0781 z"
         id="path39463" />
      <path
         style="color:#000000;fill:#e97525;stroke-width:0.825352;stroke-linecap:round;stroke-linejoin:round;-inkscape-stroke:none"
         d="m -20.609375,372.26758 -0.373047,0.37109 a 0.2645835,0.2645835 0 0 0 0,0.375 0.2645835,0.2645835 0 0 0 0.375,0 l 0.371094,-0.37305 a 0.2645835,0.2645835 0 0 0 0,-0.37304 0.2645835,0.2645835 0 0 0 -0.373047,0 z"
         id="path39465" />
      <path
         style="color:#000000;fill:#e97525;stroke-width:0.825352;stroke-linecap:round;stroke-linejoin:round;-inkscape-stroke:none"
         d="m -23.650391,372.18945 a 0.2645835,0.2645835 0 0 0 -0.185546,0.0781 0.2645835,0.2645835 0 0 0 0,0.37304 l 0.371093,0.37305 a 0.2645835,0.2645835 0 0 0 0.373047,0 0.2645835,0.2645835 0 0 0 0,-0.375 l -0.371094,-0.37109 a 0.2645835,0.2645835 0 0 0 -0.1875,-0.0781 z"
         id="path39467" />
      <path
         style="color:#000000;fill:#e97525;stroke-width:0.825352;stroke-linecap:round;stroke-linejoin:round;-inkscape-stroke:none"
         d="m -20.980469,375.12305 a 0.2645835,0.2645835 0 0 0 -0.002,0.37304 l 0.373047,0.37305 a 0.2645835,0.2645835 0 0 0 0.373047,0 0.2645835,0.2645835 0 0 0 0,-0.375 l -0.371094,-0.37109 a 0.2645835,0.2645835 0 0 0 -0.373047,0 z"
         id="path39469" />
      <path
         id="path790035"
         style="color:#000000;fill:#349951;fill-opacity:1;stroke-width:0.825352;stroke-linecap:round;stroke-linejoin:round;-inkscape-stroke:none"
         d="m -30.003039,380.03886 a 0.26460996,0.26460996 0 0 0 -0.242364,0.26406 v 0.33176 l 1.480532,0.44545 c 0.774806,0.23291 1.306899,0.94847 1.306896,1.75752 v 0.17053 l 0.187068,0.0563 a 0.26460996,0.26460996 0 0 0 0.342099,-0.25218 v -0.50385 c 2e-6,-0.80905 -0.532091,-1.5246 -1.306897,-1.75751 l -1.669666,-0.5023 a 0.26460996,0.26460996 0 0 0 -0.09767,-0.01 z" />
      <path
         id="path808148"
         style="color:#000000;fill:#349951;fill-opacity:1;stroke-width:0.825352;stroke-linecap:round;stroke-linejoin:round;-inkscape-stroke:none"
         d="m -19.686724,380.03886 a 0.26460996,0.26460996 0 0 0 -0.242364,0.26406 v 0.33176 l 1.480532,0.44545 c 0.774806,0.23291 1.306899,0.94847 1.306896,1.75752 v 0.17053 l 0.187068,0.0563 a 0.26460996,0.26460996 0 0 0 0.342099,-0.25218 v -0.50385 c 2e-6,-0.80905 -0.532091,-1.5246 -1.306897,-1.75751 l -1.669666,-0.5023 a 0.26460996,0.26460996 0 0 0 -0.09767,-0.01 z" />
      <path
         style="color:#000000;fill:#9a605c;stroke-width:0.825352;stroke-linecap:round;stroke-linejoin:round;-inkscape-stroke:none"
         d="m -29.982422,382.55469 a 0.25634062,0.25634062 0 0 0 -0.255859,0.25781 v 5.48437 a 0.25634062,0.25634062 0 0 0 0.255859,0.25782 h 15.892578 a 0.25634062,0.25634062 0 0 0 0.25586,-0.25782 v -5.48437 a 0.25634062,0.25634062 0 0 0 -0.25586,-0.25781 z"
         id="path770511" />
      <path
         id="path770517"
         style="color:#000000;fill:#311a12;stroke-width:3.11944;stroke-linecap:round;stroke-linejoin:round;-inkscape-stroke:none"
         d="m -114.28711,394.91602 v 14.14257 a 0.96884643,0.96884643 0 0 0 0.9668,0.97461 h 60.066404 a 0.96884643,0.96884643 0 0 0 0.96875,-0.97461 v -14.14257 z"
         transform="matrix(0.26458334,0,0,0.26458334,0,280.06666)" />
      <path
         id="path770523"
         style="color:#000000;fill:#66342d;stroke-width:3.11944;stroke-linecap:round;stroke-linejoin:round;-inkscape-stroke:none"
         d="m -114.28711,401.01367 v 8.04492 a 0.96884644,0.96884644 0 0 0 0.9668,0.97461 h 8.04687 v -0.97461 c 8.9e-4,-4.43191 -3.61494,-8.0445 -8.04687,-8.04492 z"
         transform="matrix(0.26458334,0,0,0.26458334,0,280.06666)" />
      <path
         id="path770529"
         style="color:#000000;fill:#66342d;stroke-width:3.11944;stroke-linecap:round;stroke-linejoin:round;-inkscape-stroke:none"
         d="m -85.3125,394.91602 v 0.96679 c -8.81e-4,4.43195 3.607132,8.04451 8.039062,8.04492 4.431931,-4.1e-4 8.047756,-3.61297 8.046876,-8.04492 v -0.96679 z"
         transform="matrix(0.26458334,0,0,0.26458334,0,280.06666)" />
      <path
         style="color:#000000;fill:#66342d;stroke-width:0.825352;stroke-linecap:round;stroke-linejoin:round;-inkscape-stroke:none"
         d="m -23.164062,385.90234 c -0.521749,0 -0.949248,0.42747 -0.949219,0.94922 -2.9e-5,0.52175 0.42747,0.95118 0.949219,0.95117 0.521745,0 0.9512,-0.42942 0.951171,-0.95117 2.9e-5,-0.52174 -0.429426,-0.94921 -0.951171,-0.94922 z"
         id="path770535" />
      <path
         id="path770541"
         style="color:#000000;fill:#66342d;stroke-width:3.11944;stroke-linecap:round;stroke-linejoin:round;-inkscape-stroke:none"
         d="m -53.253906,401.01367 c -4.431931,4.2e-4 -8.045803,3.61301 -8.044922,8.04492 v 0.97461 h 8.044922 a 0.96884644,0.96884644 0 0 0 0.96875,-0.97461 v -8.04492 z"
         transform="matrix(0.26458334,0,0,0.26458334,0,280.06666)" />
      <path
         id="path770547"
         style="color:#000000;fill:#66342d;stroke-width:3.11944;stroke-linecap:round;stroke-linejoin:round;-inkscape-stroke:none"
         d="m -101.38867,394.91602 c -0.37586,0.65948 -0.59184,1.41978 -0.5918,2.22851 -1.4e-4,2.49113 2.040146,4.5332 4.531251,4.5332 2.491098,0 4.533347,-2.04207 4.533203,-4.5332 4.7e-5,-0.80873 -0.215933,-1.56903 -0.591796,-2.22851 z"
         transform="matrix(0.26458334,0,0,0.26458334,0,280.06666)" />
      <path
         id="path775141"
         style="color:#000000;fill:#e97525;fill-opacity:1;stroke-width:0.825352;stroke-linecap:round;stroke-linejoin:round;-inkscape-stroke:none"
         d="m -22.037108,372.88867 c -0.447283,0.0114 -0.834786,0.27555 -1.024744,0.6537 0.1586,-0.0797 0.337381,-0.12454 0.526066,-0.12454 0.648723,0 1.181394,0.53054 1.181323,1.17926 -3.3e-5,0.18823 -0.04495,0.3667 -0.12454,0.52503 0.386381,-0.19456 0.653627,-0.59486 0.653707,-1.0542 7.1e-5,-0.64872 -0.5326,-1.17925 -1.181323,-1.17925 -0.01014,0 -0.02041,-2.6e-4 -0.03049,0 z" />
      <path
         id="path782986"
         style="color:#000000;fill:#dd527c;fill-opacity:1;stroke-width:0.825352;stroke-linecap:round;stroke-linejoin:round;-inkscape-stroke:none"
         d="m -25.944999,374.65263 c -0.08857,0 -0.177176,0.008 -0.264584,0.0238 0.286272,0.0515 0.559999,0.18738 0.780315,0.40772 0.575159,0.57523 0.575135,1.51662 0,2.09187 -0.112194,0.11218 -0.27608,0.13423 -0.415994,0.20464 0.14169,0.0706 0.306155,0.0938 0.419611,0.20722 0.575154,0.57523 0.57514,1.51662 0,2.09186 -0.220073,0.22008 -0.493554,0.35556 -0.779796,0.40721 0.461216,0.0825 0.954445,-0.0527 1.308962,-0.40721 0.575141,-0.57524 0.575154,-1.51663 0,-2.09186 -0.113456,-0.11346 -0.277921,-0.13658 -0.41961,-0.20722 0.139914,-0.0704 0.3038,-0.0925 0.415994,-0.20464 0.575135,-0.57525 0.575159,-1.51664 0,-2.09187 -0.287584,-0.28762 -0.666235,-0.43149 -1.044898,-0.43149 z"
         sodipodi:nodetypes="ccsccccccsccscc" />
      <path
         id="path778336"
         style="color:#000000;fill:#febe40;fill-opacity:1;stroke-width:0.825352;stroke-linecap:round;stroke-linejoin:round;-inkscape-stroke:none"
         d="m -27.193268,375.70295 c -0.429916,0 -0.861033,0.1639 -1.187524,0.49041 -0.09063,0.0906 -0.168624,0.18915 -0.234095,0.29352 0.271547,-0.16987 0.582485,-0.25476 0.892453,-0.25476 0.429911,10e-6 0.858978,0.16388 1.185455,0.4904 0.562388,0.56218 0.640366,1.43129 0.234095,2.07895 0.10496,-0.0657 0.203981,-0.14403 0.295072,-0.23513 0.653055,-0.65303 0.653031,-1.72019 0,-2.37298 -0.326478,-0.32652 -0.755545,-0.4904 -1.185456,-0.49041 z" />
      <path
         id="path790030"
         style="color:#000000;fill:#349951;fill-opacity:1;stroke-width:0.825352;stroke-linecap:round;stroke-linejoin:round;-inkscape-stroke:none"
         d="m -24.403249,380.03731 a 0.26460996,0.26460996 0 0 0 -0.08113,0.0114 l -1.668116,0.5023 c -0.423722,0.12737 -0.774478,0.39888 -1.005623,0.75137 0.144864,-0.095 0.304498,-0.17052 0.476456,-0.22221 l 1.668116,-0.50229 a 0.26460996,0.26460996 0 0 1 0.34158,0.25425 v 0.50384 c 2e-6,0.36661 -0.109236,0.71407 -0.300757,1.00614 0.507867,-0.33307 0.829926,-0.90581 0.829923,-1.53531 v -0.50384 a 0.26460996,0.26460996 0 0 0 -0.260447,-0.26562 z" />
      <path
         id="path808150"
         style="color:#000000;fill:#349951;fill-opacity:1;stroke:none;stroke-width:0.825352;stroke-linecap:round;stroke-linejoin:round;stroke-opacity:1;-inkscape-stroke:none"
         d="m -14.086934,380.03731 a 0.26460996,0.26460996 0 0 0 -0.08113,0.0114 l -1.668116,0.5023 c -0.423722,0.12737 -0.774478,0.39888 -1.005623,0.75137 0.144864,-0.095 0.304498,-0.17052 0.476456,-0.22221 l 1.668116,-0.50229 a 0.26460996,0.26460996 0 0 1 0.34158,0.25425 v 0.50384 c 2e-6,0.36661 -0.109236,0.71407 -0.300757,1.00614 0.507867,-0.33307 0.829926,-0.90581 0.829923,-1.53531 v -0.50384 a 0.26460996,0.26460996 0 0 0 -0.260447,-0.26562 z" />
      <path
         id="path808500"
         style="color:#000000;fill:#8b4137;fill-opacity:1;stroke-width:0.825352;stroke-linecap:round;stroke-linejoin:round;-inkscape-stroke:none"
         d="m -29.982353,382.55505 c -0.141957,2.7e-4 -0.256641,0.11591 -0.255797,0.25787 v 0.80047 h 13.389364 a 1.9564694,1.9564694 0 0 1 1.956469,1.95647 v 2.98483 h 0.802535 c 0.141755,-2.7e-4 0.256355,-0.1156 0.255798,-0.25735 v -5.48442 c 8.47e-4,-0.14196 -0.113839,-0.25757 -0.255798,-0.25787 z"
         sodipodi:nodetypes="cccccccccc" />
      <path
         id="path810843"
         style="color:#000000;fill:#461f1b;fill-opacity:1;stroke-width:3.11944;stroke-linecap:round;stroke-linejoin:round;-inkscape-stroke:none"
         d="m -57.359375,394.91602 a 7.3945299,7.3945299 0 0 1 1.074219,3.83593 v 11.28125 h 3.03125 a 0.96884644,0.96884644 0 0 0 0.002,0 0.96884644,0.96884644 0 0 0 0.214844,-0.0254 0.96884644,0.96884644 0 0 0 0.205078,-0.0723 0.96884644,0.96884644 0 0 0 0.177734,-0.11133 c 0.0018,-10e-4 0.004,-0.002 0.0059,-0.004 a 0.96884644,0.96884644 0 0 0 0.01172,-0.01 0.96884644,0.96884644 0 0 0 0.13086,-0.13282 c 0.0082,-0.01 0.0156,-0.0209 0.02344,-0.0312 a 0.96884644,0.96884644 0 0 0 0.09766,-0.15625 c 0.0035,-0.007 0.0064,-0.0142 0.0098,-0.0215 a 0.96884644,0.96884644 0 0 0 0.0625,-0.18359 c 7.87e-4,-0.003 0.0032,-0.006 0.0039,-0.01 a 0.96884644,0.96884644 0 0 0 0,-0.008 0.96884644,0.96884644 0 0 0 0.02344,-0.20703 v -0.002 -14.14257 z"
         transform="matrix(0.26458334,0,0,0.26458334,0,280.06666)" />
      <path
         id="path813008"
         style="color:#000000;fill:#febe40;fill-opacity:1;stroke-width:0.825352;stroke-linecap:round;stroke-linejoin:round;-inkscape-stroke:none"
         d="m -16.874976,375.70295 c -0.429916,0 -0.861033,0.1639 -1.187524,0.49041 -0.09063,0.0906 -0.168624,0.18915 -0.234095,0.29352 0.271547,-0.16987 0.582485,-0.25476 0.892453,-0.25476 0.429911,10e-6 0.858978,0.16388 1.185455,0.4904 0.562388,0.56218 0.640366,1.43129 0.234095,2.07895 0.10496,-0.0657 0.203981,-0.14403 0.295072,-0.23513 0.653055,-0.65303 0.653031,-1.72019 0,-2.37298 -0.326478,-0.32652 -0.755545,-0.4904 -1.185456,-0.49041 z" />
    </g>
  </g>
</svg>
