<svg width="64pt" height="64pt" viewBox="0 0 22.578 22.578" xmlns="http://www.w3.org/2000/svg"><g style="stroke-width:.825349"><g style="display:inline;stroke-width:.825349"><path style="color:#000;fill:#ee8eb4;stroke-width:.825349;stroke-linecap:round;stroke-linejoin:round;-inkscape-stroke:none" d="M-28.445 374.652a1.477 1.477 0 0 0-1.047 2.524c.111.111.275.133.414.203-.14.07-.302.093-.414.205a1.484 1.484 0 0 0 0 2.092 1.484 1.484 0 0 0 2.092 0c.112-.112.134-.276.205-.416.07.141.093.306.207.42a1.484 1.484 0 0 0 2.092 0 1.484 1.484 0 0 0 0-2.092c-.114-.114-.279-.137-.42-.207.14-.07.303-.093.416-.205a1.484 1.484 0 0 0 0-2.092 1.481 1.481 0 0 0-2.09 0c-.112.112-.135.276-.205.416-.07-.14-.093-.304-.205-.416a1.474 1.474 0 0 0-1.045-.432z" transform="matrix(1.2116 0 0 1.2116 37.988 -449.169)"/><path style="color:#000;fill:#2bb3cd;stroke-width:.825349;stroke-linecap:round;stroke-linejoin:round;-inkscape-stroke:none" d="M-18.127 374.652c-.379 0-.757.144-1.045.432a1.484 1.484 0 0 0 0 2.092c.112.112.275.133.414.203-.14.07-.302.093-.414.205a1.484 1.484 0 0 0 0 2.092 1.481 1.481 0 0 0 2.09 0c.112-.113.137-.276.207-.416.07.141.094.307.207.42a1.481 1.481 0 0 0 2.09 0 1.484 1.484 0 0 0 0-2.092c-.113-.113-.277-.137-.418-.207.14-.07.302-.093.414-.205a1.484 1.484 0 0 0 0-2.092 1.481 1.481 0 0 0-2.09 0c-.112.112-.135.276-.205.416-.07-.14-.093-.304-.205-.416a1.474 1.474 0 0 0-1.045-.432z" transform="matrix(1.2116 0 0 1.2116 37.988 -449.169)"/><path style="color:#000;fill:#50b86b;stroke-width:.825349;stroke-linecap:round;stroke-linejoin:round;-inkscape-stroke:none" d="M-29.906 380.049a.265.265 0 0 0-.34.254v.504c0 .809.532 1.525 1.307 1.757l1.668.5a.265.265 0 0 0 .341-.251v-.504c0-.81-.532-1.525-1.306-1.758z" transform="matrix(1.2116 0 0 1.2116 37.988 -449.169)"/><path style="color:#000;fill:#50b86b;stroke-width:.825349;stroke-linecap:round;stroke-linejoin:round;-inkscape-stroke:none" d="m-24.484 380.049-1.668.502a1.837 1.837 0 0 0-1.307 1.758v.504a.265.265 0 0 0 .34.251l1.67-.5a1.837 1.837 0 0 0 1.306-1.757v-.504a.265.265 0 0 0-.341-.254z" transform="matrix(1.2116 0 0 1.2116 37.988 -449.169)"/><path style="color:#000;fill:#fadb80;stroke-width:.825349;stroke-linecap:round;stroke-linejoin:round;-inkscape-stroke:none" d="M-27.193 375.703a1.676 1.676 0 0 0-1.188 2.863c.653.653 1.72.653 2.373 0a1.682 1.682 0 0 0 0-2.373 1.671 1.671 0 0 0-1.185-.49z" transform="matrix(1.2116 0 0 1.2116 37.988 -449.169)"/><path style="color:#000;fill:#50b86b;stroke-width:.825349;stroke-linecap:round;stroke-linejoin:round;-inkscape-stroke:none" d="M-19.588 380.049a.265.265 0 0 0-.342.254v.504c0 .809.532 1.525 1.307 1.757l1.67.5a.265.265 0 0 0 .34-.251v-.504c0-.81-.532-1.525-1.307-1.758z" transform="matrix(1.2116 0 0 1.2116 37.988 -449.169)"/><path style="color:#000;fill:#50b86b;stroke-width:.825349;stroke-linecap:round;stroke-linejoin:round;-inkscape-stroke:none" d="m-14.166 380.049-1.67.502a1.837 1.837 0 0 0-1.307 1.758v.504a.265.265 0 0 0 .342.251l1.668-.5a1.837 1.837 0 0 0 1.307-1.757v-.504a.265.265 0 0 0-.34-.254z" transform="matrix(1.2116 0 0 1.2116 37.988 -449.169)"/><path style="color:#000;fill:#2276bc;fill-opacity:1;stroke-width:.825349;stroke-linecap:round;stroke-linejoin:round;-inkscape-stroke:none" d="M-15.627 374.653c-.088 0-.177.008-.264.023.286.052.56.188.78.408a1.484 1.484 0 0 1 0 2.092c-.112.112-.276.134-.416.205.142.07.306.093.42.207a1.484 1.484 0 0 1 0 2.092c-.22.22-.494.355-.78.407a1.48 1.48 0 0 0 1.309-.407 1.484 1.484 0 0 0 0-2.092c-.114-.114-.278-.137-.42-.207.14-.07.304-.093.416-.205a1.484 1.484 0 0 0 0-2.092 1.473 1.473 0 0 0-1.045-.431z" transform="matrix(1.2116 0 0 1.2116 37.988 -449.169)"/><path style="color:#000;fill:#fadb80;stroke-width:.825349;stroke-linecap:round;stroke-linejoin:round;-inkscape-stroke:none" d="M-16.877 375.703c-.43 0-.859.164-1.186.49a1.682 1.682 0 0 0 0 2.373 1.68 1.68 0 0 0 2.372 0 1.682 1.682 0 0 0 0-2.373 1.671 1.671 0 0 0-1.186-.49z" transform="matrix(1.2116 0 0 1.2116 37.988 -449.169)"/><path style="color:#000;fill:#febe40;stroke-width:.825349;stroke-linecap:round;stroke-linejoin:round;-inkscape-stroke:none" d="M-22.06 372.983c-.609 0-1.108.5-1.108 1.108 0 .61.5 1.109 1.108 1.109.61 0 1.11-.5 1.11-1.109s-.5-1.108-1.11-1.108z" transform="matrix(1.2116 0 0 1.2116 37.988 -449.169)"/><path style="color:#000;fill:#349951;fill-opacity:1;stroke-width:.825349;stroke-linecap:round;stroke-linejoin:round;-inkscape-stroke:none" d="M-30.003 380.039a.265.265 0 0 0-.242.264v.332l1.48.445a1.837 1.837 0 0 1 1.307 1.758v.17l.187.056a.265.265 0 0 0 .342-.252v-.504c0-.809-.532-1.524-1.307-1.757l-1.67-.502a.265.265 0 0 0-.097-.01zM-19.687 380.039a.265.265 0 0 0-.242.264v.332l1.48.445a1.837 1.837 0 0 1 1.307 1.758v.17l.187.056a.265.265 0 0 0 .343-.252v-.504c0-.809-.533-1.524-1.307-1.757l-1.67-.502a.265.265 0 0 0-.098-.01z" transform="matrix(1.2116 0 0 1.2116 37.988 -449.169)"/><path style="color:#000;fill:#9a605c;stroke-width:.825349;stroke-linecap:round;stroke-linejoin:round;-inkscape-stroke:none" d="M-29.982 382.555a.256.256 0 0 0-.256.257v5.485a.256.256 0 0 0 .256.258h15.892a.256.256 0 0 0 .256-.258v-5.485a.256.256 0 0 0-.256-.257z" transform="matrix(1.2116 0 0 1.2116 37.988 -449.169)"/><path style="color:#000;fill:#311a12;stroke-width:3.11943;stroke-linecap:round;stroke-linejoin:round;-inkscape-stroke:none" d="M-114.287 394.916v14.143a.969.969 0 0 0 .967.974h60.066a.969.969 0 0 0 .969-.974v-14.143z" transform="translate(37.988 -109.837) scale(.32057)"/><path style="color:#000;fill:#66342d;stroke-width:3.11943;stroke-linecap:round;stroke-linejoin:round;-inkscape-stroke:none" d="M-114.287 401.014v8.045a.969.969 0 0 0 .967.974h8.047v-.974c0-4.432-3.615-8.045-8.047-8.045zM-85.313 394.916v.967c0 4.432 3.608 8.044 8.04 8.045 4.431 0 8.047-3.613 8.046-8.045v-.967z" transform="translate(37.988 -109.837) scale(.32057)"/><path style="color:#000;fill:#66342d;stroke-width:.825349;stroke-linecap:round;stroke-linejoin:round;-inkscape-stroke:none" d="M-23.164 385.902a.952.952 0 0 0-.95.95c0 .521.428.95.95.95s.951-.429.951-.95c0-.522-.43-.95-.951-.95z" transform="matrix(1.2116 0 0 1.2116 37.988 -449.169)"/><path style="color:#000;fill:#66342d;stroke-width:3.11943;stroke-linecap:round;stroke-linejoin:round;-inkscape-stroke:none" d="M-53.254 401.014c-4.432 0-8.046 3.613-8.045 8.045v.974h8.045a.969.969 0 0 0 .969-.974v-8.045zM-101.389 394.916a4.487 4.487 0 0 0-.591 2.229c0 2.49 2.04 4.533 4.53 4.533a4.55 4.55 0 0 0 4.534-4.533c0-.81-.216-1.57-.592-2.229z" transform="translate(37.988 -109.837) scale(.32057)"/><path style="color:#000;fill:#e97525;fill-opacity:1;stroke-width:.825349;stroke-linecap:round;stroke-linejoin:round;-inkscape-stroke:none" d="M-22.06 372.983c-.42.011-.784.26-.962.614a1.112 1.112 0 0 1 1.604.99c0 .178-.043.346-.117.494.363-.183.614-.559.614-.99 0-.61-.5-1.108-1.11-1.108h-.029z" transform="matrix(1.2116 0 0 1.2116 37.988 -449.169)"/><path style="color:#000;fill:#dd527c;fill-opacity:1;stroke-width:.825349;stroke-linecap:round;stroke-linejoin:round;-inkscape-stroke:none" d="M-25.945 374.653c-.089 0-.177.008-.265.023.287.052.56.188.78.408a1.484 1.484 0 0 1 0 2.092c-.111.112-.275.134-.415.205.141.07.306.093.42.207a1.484 1.484 0 0 1 0 2.092c-.22.22-.494.355-.78.407a1.48 1.48 0 0 0 1.309-.407 1.484 1.484 0 0 0 0-2.092c-.114-.114-.278-.137-.42-.207.14-.07.304-.093.416-.205a1.484 1.484 0 0 0 0-2.092 1.473 1.473 0 0 0-1.045-.431z" transform="matrix(1.2116 0 0 1.2116 37.988 -449.169)"/><path style="color:#000;fill:#febe40;fill-opacity:1;stroke-width:.825349;stroke-linecap:round;stroke-linejoin:round;-inkscape-stroke:none" d="M-27.193 375.703a1.676 1.676 0 0 0-1.422.784 1.684 1.684 0 0 1 2.078.236c.562.562.64 1.43.234 2.078a1.682 1.682 0 0 0 .295-2.608 1.671 1.671 0 0 0-1.185-.49z" transform="matrix(1.2116 0 0 1.2116 37.988 -449.169)"/><path style="color:#000;fill:#349951;fill-opacity:1;stroke-width:.825349;stroke-linecap:round;stroke-linejoin:round;-inkscape-stroke:none" d="M-24.403 380.037a.265.265 0 0 0-.081.012l-1.668.502a1.832 1.832 0 0 0-1.006.751c.145-.095.304-.17.476-.222l1.668-.502a.265.265 0 0 1 .342.254v.504c0 .367-.11.714-.3 1.006.507-.333.83-.906.83-1.535v-.504a.265.265 0 0 0-.261-.266z" transform="matrix(1.2116 0 0 1.2116 37.988 -449.169)"/><path style="color:#000;fill:#349951;fill-opacity:1;stroke:none;stroke-width:.825349;stroke-linecap:round;stroke-linejoin:round;stroke-opacity:1;-inkscape-stroke:none" d="M-14.087 380.037a.265.265 0 0 0-.081.012l-1.668.502a1.832 1.832 0 0 0-1.006.751c.145-.095.305-.17.477-.222l1.668-.502a.265.265 0 0 1 .341.254v.504c0 .367-.109.714-.3 1.006.507-.333.83-.906.83-1.535v-.504a.265.265 0 0 0-.26-.266z" transform="matrix(1.2116 0 0 1.2116 37.988 -449.169)"/><path style="color:#000;fill:#8b4137;fill-opacity:1;stroke-width:.825349;stroke-linecap:round;stroke-linejoin:round;-inkscape-stroke:none" d="M-29.982 382.555a.256.256 0 0 0-.256.258v.8h13.39a1.956 1.956 0 0 1 1.956 1.957v2.985h.802a.256.256 0 0 0 .256-.258v-5.484a.256.256 0 0 0-.256-.258z" transform="matrix(1.2116 0 0 1.2116 37.988 -449.169)"/><path style="color:#000;fill:#461f1b;fill-opacity:1;stroke-width:3.11943;stroke-linecap:round;stroke-linejoin:round;-inkscape-stroke:none" d="M-57.36 394.916a7.395 7.395 0 0 1 1.075 3.836v11.281h3.031a.969.969 0 0 0 .002 0 .969.969 0 0 0 .215-.025.969.969 0 0 0 .205-.072.969.969 0 0 0 .178-.112c.002 0 .004-.002.006-.004a.969.969 0 0 0 .011-.01.969.969 0 0 0 .131-.133l.024-.03a.969.969 0 0 0 .097-.157l.01-.022a.969.969 0 0 0 .063-.183c0-.003.003-.006.004-.01a.969.969 0 0 0 0-.008.969.969 0 0 0 .023-.207V394.915z" transform="translate(37.988 -109.837) scale(.32057)"/><path style="color:#000;fill:#febe40;fill-opacity:1;stroke-width:.825349;stroke-linecap:round;stroke-linejoin:round;-inkscape-stroke:none" d="M-16.875 375.703a1.676 1.676 0 0 0-1.422.784 1.684 1.684 0 0 1 2.078.236c.563.562.64 1.43.234 2.078a1.682 1.682 0 0 0 .295-2.608 1.671 1.671 0 0 0-1.185-.49z" transform="matrix(1.2116 0 0 1.2116 37.988 -449.169)"/></g><path style="color:#000;display:inline;fill:#000;stroke-width:.825349;stroke-linecap:round;stroke-linejoin:round;-inkscape-stroke:none" d="M15.29 276.352a.265.265 0 0 0-.264.264v.527a.265.265 0 0 0 .53 0v-.527a.265.265 0 0 0-.266-.264zm-1.614.668a.265.265 0 0 0-.185.45l.371.374a.265.265 0 0 0 .373-.375l-.371-.37a.264.264 0 0 0-.188-.08zm3.228.002a.265.265 0 0 0-.187.077l-.373.37a.265.265 0 1 0 .375.375l.371-.372a.265.265 0 0 0-.186-.45zm-2.794 1.877c0 .648.531 1.18 1.18 1.18.648 0 1.181-.532 1.181-1.18 0-.649-.524-1.18-1.181-1.171a1.182 1.182 0 0 0-1.18 1.17zm1.18-.65c.362 0 .652.287.652.65 0 .362-.29.65-.652.65a.646.646 0 0 1-.65-.65c0-.363.287-.65.65-.65zm-2.282.384a.265.265 0 0 0 0 .53h.526a.265.265 0 1 0 0-.53zm4.04 0a.265.265 0 1 0 0 .53h.525a.265.265 0 0 0 0-.53zm2.151.848a1.478 1.478 0 0 0-.791 2.727 1.483 1.483 0 0 0-.256 2.296 1.484 1.484 0 0 0 2.032.056v1.29a1.828 1.828 0 0 0-.777-.468l-1.668-.503a.265.265 0 0 0-.342.254v.504c0 .798.517 1.505 1.274 1.748h-6.76a1.837 1.837 0 0 0 1.273-1.748v-.504a.265.265 0 0 0-.342-.254l-1.668.503c-.301.09-.566.254-.777.468v-1.289a1.482 1.482 0 0 0 2.035-.05 1.484 1.484 0 0 0-.26-2.3 1.484 1.484 0 0 0 .257-2.297 1.478 1.478 0 0 0-2.296.256 1.47 1.47 0 0 0-1.25-.687 1.478 1.478 0 0 0-.79 2.727 1.483 1.483 0 0 0-.256 2.296 1.483 1.483 0 0 0 2.03.055v1.29a1.83 1.83 0 0 0-.777-.47l-1.67-.502a.265.265 0 0 0-.34.254v.504c0 .798.518 1.505 1.275 1.748H7.344a.256.256 0 0 0-.256.258v5.484c0 .142.114.258.256.258h15.893a.256.256 0 0 0 .256-.258v-5.484a.256.256 0 0 0-.256-.258h-1.01a1.837 1.837 0 0 0 1.274-1.748v-.504a.265.265 0 0 0-.34-.254l-1.67.503a1.83 1.83 0 0 0-.778.468v-1.288c.579.52 1.478.503 2.035-.054a1.484 1.484 0 0 0-.261-2.299 1.484 1.484 0 0 0 .257-2.296 1.478 1.478 0 0 0-2.296.256 1.47 1.47 0 0 0-1.249-.688zm-5.15.394a.265.265 0 0 0-.187.078l-.373.371a.265.265 0 0 0 .002.376c.103.102.27.102.373 0l.371-.373a.265.265 0 0 0-.185-.452zm2.484.001a.265.265 0 0 0-.19.45l.374.374a.265.265 0 0 0 .373-.376l-.37-.37a.265.265 0 0 0-.187-.078zm2.665.132a.945.945 0 0 1 .869.57 1.667 1.667 0 0 0-1.249 1.25.945.945 0 0 1-.29-1.54.945.945 0 0 1 .67-.28zm2.5 0c.242 0 .484.093.67.28a.945.945 0 0 1-.287 1.538 1.664 1.664 0 0 0-1.252-1.249.945.945 0 0 1 .869-.57zm-12.816.002a.945.945 0 0 1 .868.568 1.668 1.668 0 0 0-1.25 1.25.947.947 0 0 1-.288-1.539.945.945 0 0 1 .67-.28zm2.5 0c.242 0 .485.093.671.28a.945.945 0 0 1-.288 1.538 1.664 1.664 0 0 0-1.25-1.25.943.943 0 0 1 .867-.568zm3.908.381a.265.265 0 0 0-.264.264v.525a.265.265 0 1 0 .53 0v-.525a.265.265 0 0 0-.266-.264zm-5.157.67c.294 0 .587.112.813.338.45.45.449 1.172-.002 1.623-.451.45-1.173.45-1.623 0a1.143 1.143 0 0 1 0-1.623c.225-.226.52-.338.812-.338zm10.317 0c.293 0 .587.112.812.338.45.45.45 1.172 0 1.623-.45.45-1.174.45-1.625 0a1.143 1.143 0 0 1 0-1.623c.226-.226.52-.338.813-.338zm-1.632 1.528a1.666 1.666 0 0 0 1.247 1.254.948.948 0 1 1-1.247-1.254zm-10.318.004a1.666 1.666 0 0 0 1.25 1.25.949.949 0 1 1-1.25-1.25zm13.581 0a.95.95 0 1 1-1.249 1.25 1.664 1.664 0 0 0 1.25-1.25zm-10.317.002a.947.947 0 0 1 .293 1.54.944.944 0 0 1-1.54-.292 1.665 1.665 0 0 0 1.247-1.248zm.89 2.894v.148c0 .578-.376 1.084-.929 1.25l-1.328.399v-.147c0-.578.376-1.084.93-1.25zm5.272 0 1.328.4c.554.167.93.673.93 1.25v.147l-1.328-.398a1.303 1.303 0 0 1-.93-1.25zm-10.316.002 1.328.399c.554.166.93.672.93 1.25v.148l-1.328-.4a1.303 1.303 0 0 1-.93-1.25zm15.361 0v.147c0 .578-.376 1.084-.93 1.25l-1.328.4v-.148c0-.578.377-1.084.93-1.25zM7.601 287.9c5.805.013 9.957 0 15.378 0v1.487H7.6Zm0 1.998h2.791a1.159 1.159 0 0 0 1.15 1.246 1.162 1.162 0 0 0 1.154-1.246h2.074a2.132 2.132 0 0 0 2.111 1.873c1.086 0 1.987-.82 2.113-1.873h3.985v1.117a2.135 2.135 0 0 0-1.855 1.858H9.458a2.135 2.135 0 0 0-1.858-1.858zm3.324 0h1.238a.624.624 0 0 1-.62.717.622.622 0 0 1-.618-.717zm4.379 0h3.157a1.595 1.595 0 0 1-1.58 1.344c-.8 0-1.456-.58-1.577-1.344zm-1.166.836a.953.953 0 0 0-.925.95c0 .52.428.95.95.95.521 0 .95-.43.95-.95a.953.953 0 0 0-.95-.95h-.025zm.025.53c.235 0 .421.183.421.42a.418.418 0 0 1-.421.421.417.417 0 0 1-.42-.422c0-.236.184-.42.42-.42zm-6.563.285c.68.109 1.215.643 1.324 1.324H7.6Zm15.38 0v1.324h-1.323a1.595 1.595 0 0 1 1.322-1.324z" transform="matrix(1.2116 0 0 1.2116 -7.237 -333.86)"/></g></svg>