<svg xmlns="http://www.w3.org/2000/svg" viewBox="0 0 22.578 22.578" height="64pt" width="64pt"><g style="display:inline"><path d="M8.975 280.334a5.404 5.404 0 0 0-.31.012c-1.437.094-2.643.686-3.227 1.03a2.487 2.487 0 0 0-1.922-.907 2.497 2.497 0 0 0-1.925 4.083 1.91 1.91 0 0 0-.714.475c-.334.36-.562.902-.604 1.65-.001.01-.088.64.253 1.286.343.65 1.142 1.286 2.716 1.3.006 0 .793.032 1.987.04 1.752.012 3.735.007 5.55-.123s3.458-.375 4.569-.881c.414-.189.89-.53 1.142-1.123.254-.594.271-1.411-.136-2.502a.265.265 0 0 0-.01-.022s-.223-.464-.678-.874c-.422-.382-1.083-.721-1.92-.597a.265.265 0 0 0-.013-.023c-1.392-2.186-3.187-2.84-4.758-2.824z" style="color:#000;font-style:normal;font-variant:normal;font-weight:400;font-stretch:normal;font-size:medium;line-height:normal;font-family:sans-serif;font-variant-ligatures:normal;font-variant-position:normal;font-variant-caps:normal;font-variant-numeric:normal;font-variant-alternates:normal;font-variant-east-asian:normal;font-feature-settings:normal;font-variation-settings:normal;text-indent:0;text-align:start;text-decoration:none;text-decoration-line:none;text-decoration-style:solid;text-decoration-color:#000;letter-spacing:normal;word-spacing:normal;text-transform:none;writing-mode:lr-tb;direction:ltr;text-orientation:mixed;dominant-baseline:auto;baseline-shift:baseline;text-anchor:start;white-space:normal;shape-padding:0;shape-margin:0;inline-size:0;clip-rule:nonzero;display:inline;overflow:visible;visibility:visible;isolation:auto;mix-blend-mode:normal;color-interpolation:sRGB;color-interpolation-filters:linearRGB;solid-color:#000;solid-opacity:1;vector-effect:none;fill:#7d8e9e;fill-opacity:1;fill-rule:nonzero;stroke:none;stroke-width:.529167;stroke-linecap:round;stroke-linejoin:round;stroke-miterlimit:4;stroke-dasharray:none;stroke-dashoffset:0;stroke-opacity:1;color-rendering:auto;image-rendering:auto;shape-rendering:auto;text-rendering:auto;enable-background:accumulate;stop-color:#000" transform="translate(.64 -351.592) scale(1.25766)"/><path d="M3.596 289.857a.265.265 0 0 0-.254.194l-.809 2.91a.265.265 0 0 0 .254.334h2.024l-.954 3.098a.265.265 0 0 0 .465.234l3.705-5.025a.265.265 0 0 0-.213-.422h-2.01l.337-.973a.265.265 0 0 0-.25-.35zM9.947 289.857a.265.265 0 0 0-.256.194l-.808 2.91a.265.265 0 0 0 .254.334h2.023l-.953 3.098a.265.265 0 0 0 .467.234l3.703-5.025a.265.265 0 0 0-.213-.422h-2.01l.336-.971a.265.265 0 0 0-.25-.352z" style="color:#000;font-style:normal;font-variant:normal;font-weight:400;font-stretch:normal;font-size:medium;line-height:normal;font-family:sans-serif;font-variant-ligatures:normal;font-variant-position:normal;font-variant-caps:normal;font-variant-numeric:normal;font-variant-alternates:normal;font-variant-east-asian:normal;font-feature-settings:normal;font-variation-settings:normal;text-indent:0;text-align:start;text-decoration:none;text-decoration-line:none;text-decoration-style:solid;text-decoration-color:#000;letter-spacing:normal;word-spacing:normal;text-transform:none;writing-mode:lr-tb;direction:ltr;text-orientation:mixed;dominant-baseline:auto;baseline-shift:baseline;text-anchor:start;white-space:normal;shape-padding:0;shape-margin:0;inline-size:0;clip-rule:nonzero;display:inline;overflow:visible;visibility:visible;isolation:auto;mix-blend-mode:normal;color-interpolation:sRGB;color-interpolation-filters:linearRGB;solid-color:#000;solid-opacity:1;vector-effect:none;fill:#febe40;fill-opacity:1;fill-rule:nonzero;stroke:none;stroke-width:.529167;stroke-linecap:round;stroke-linejoin:round;stroke-miterlimit:4;stroke-dasharray:none;stroke-dashoffset:0;stroke-opacity:1;color-rendering:auto;image-rendering:auto;shape-rendering:auto;text-rendering:auto;enable-background:accumulate;stop-color:#000" transform="translate(.64 -351.592) scale(1.25766)"/><path d="M8.975 280.334a5.404 5.404 0 0 0-.31.012c-1.437.094-2.643.686-3.227 1.03a2.487 2.487 0 0 0-1.922-.907c-1.186 0-2.18.832-2.431 1.942a2.49 2.49 0 0 1 1.901-.884c.778 0 1.891-.044 2.626 1.626.132-.078.195-.624.195-.624.928-.356 1.463-.816 3.165-.968 1.203-.084 2.556.405 3.79 2.02.16.206-.378.585-.378.585s1.547-.286 2.753.67c.454.41.678.875.678.875a.253.253 0 0 1 .01.021c.31.831.372 1.503.273 2.039.154-.163.291-.358.392-.595.254-.594.271-1.411-.136-2.502a.31.31 0 0 0-.01-.022s-.223-.464-.678-.874c-.422-.382-1.083-.721-1.92-.597a.26.26 0 0 0-.014-.023c-1.391-2.186-3.186-2.84-4.757-2.824z" style="color:#000;font-style:normal;font-variant:normal;font-weight:400;font-stretch:normal;font-size:medium;line-height:normal;font-family:sans-serif;font-variant-ligatures:normal;font-variant-position:normal;font-variant-caps:normal;font-variant-numeric:normal;font-variant-alternates:normal;font-variant-east-asian:normal;font-feature-settings:normal;font-variation-settings:normal;text-indent:0;text-align:start;text-decoration:none;text-decoration-line:none;text-decoration-style:solid;text-decoration-color:#000;letter-spacing:normal;word-spacing:normal;text-transform:none;writing-mode:lr-tb;direction:ltr;text-orientation:mixed;dominant-baseline:auto;baseline-shift:baseline;text-anchor:start;white-space:normal;shape-padding:0;shape-margin:0;inline-size:0;clip-rule:nonzero;display:inline;overflow:visible;visibility:visible;isolation:auto;mix-blend-mode:normal;color-interpolation:sRGB;color-interpolation-filters:linearRGB;solid-color:#000;solid-opacity:1;vector-effect:none;fill:#5b6571;fill-opacity:1;fill-rule:nonzero;stroke:none;stroke-width:.529167;stroke-linecap:round;stroke-linejoin:round;stroke-miterlimit:4;stroke-dasharray:none;stroke-dashoffset:0;stroke-opacity:1;color-rendering:auto;image-rendering:auto;shape-rendering:auto;text-rendering:auto;enable-background:accumulate;stop-color:#000" transform="translate(.64 -351.592) scale(1.25766)"/><path d="M3.596 289.857a.265.265 0 0 0-.254.194l-.094.335h2.113c.182 0 .309.179.25.35l-.335.973h1.48c.217 0 .342.247.213.422l-2.863 4.6a.264.264 0 0 0 .216-.104l3.705-5.026a.265.265 0 0 0-.212-.421h-2.01l.336-.973a.265.265 0 0 0-.25-.35zM9.945 289.857a.265.265 0 0 0-.254.194l-.093.335h2.113c.181 0 .308.179.25.35l-.336.973h1.48c.218 0 .342.247.214.422l-2.863 4.6a.264.264 0 0 0 .216-.104l3.705-5.026a.265.265 0 0 0-.213-.421h-2.01l.336-.973a.265.265 0 0 0-.25-.35z" style="color:#000;font-style:normal;font-variant:normal;font-weight:400;font-stretch:normal;font-size:medium;line-height:normal;font-family:sans-serif;font-variant-ligatures:normal;font-variant-position:normal;font-variant-caps:normal;font-variant-numeric:normal;font-variant-alternates:normal;font-variant-east-asian:normal;font-feature-settings:normal;font-variation-settings:normal;text-indent:0;text-align:start;text-decoration:none;text-decoration-line:none;text-decoration-style:solid;text-decoration-color:#000;letter-spacing:normal;word-spacing:normal;text-transform:none;writing-mode:lr-tb;direction:ltr;text-orientation:mixed;dominant-baseline:auto;baseline-shift:baseline;text-anchor:start;white-space:normal;shape-padding:0;shape-margin:0;inline-size:0;clip-rule:nonzero;display:inline;overflow:visible;visibility:visible;isolation:auto;mix-blend-mode:normal;color-interpolation:sRGB;color-interpolation-filters:linearRGB;solid-color:#000;solid-opacity:1;vector-effect:none;fill:#ed7425;fill-opacity:1;fill-rule:nonzero;stroke:none;stroke-width:.529167;stroke-linecap:round;stroke-linejoin:round;stroke-miterlimit:4;stroke-dasharray:none;stroke-dashoffset:0;stroke-opacity:1;color-rendering:auto;image-rendering:auto;shape-rendering:auto;text-rendering:auto;enable-background:accumulate;stop-color:#000" transform="translate(.64 -351.592) scale(1.25766)"/><path style="color:#000;font-style:normal;font-variant:normal;font-weight:400;font-stretch:normal;font-size:medium;line-height:normal;font-family:sans-serif;font-variant-ligatures:normal;font-variant-position:normal;font-variant-caps:normal;font-variant-numeric:normal;font-variant-alternates:normal;font-variant-east-asian:normal;font-feature-settings:normal;font-variation-settings:normal;text-indent:0;text-align:start;text-decoration:none;text-decoration-line:none;text-decoration-style:solid;text-decoration-color:#000;letter-spacing:normal;word-spacing:normal;text-transform:none;writing-mode:lr-tb;direction:ltr;text-orientation:mixed;dominant-baseline:auto;baseline-shift:baseline;text-anchor:start;white-space:normal;shape-padding:0;shape-margin:0;inline-size:0;clip-rule:nonzero;display:inline;overflow:visible;visibility:visible;opacity:1;isolation:auto;mix-blend-mode:normal;color-interpolation:sRGB;color-interpolation-filters:linearRGB;solid-color:#000;solid-opacity:1;vector-effect:none;fill:#000;fill-opacity:1;fill-rule:nonzero;stroke:none;stroke-width:.529167;stroke-linecap:round;stroke-linejoin:round;stroke-miterlimit:4;stroke-dasharray:none;stroke-dashoffset:0;stroke-opacity:1;color-rendering:auto;image-rendering:auto;shape-rendering:auto;text-rendering:auto;enable-background:accumulate;stop-color:#000;stop-opacity:1" d="M9.048 280.332c-1.236.037-2.532.415-3.622 1.03a2.49 2.49 0 0 0-1.91-.893 2.497 2.497 0 0 0-2.494 2.492c0 .6.215 1.151.57 1.582-.28.111-.557.288-.783.56-.298.36-.497.876-.536 1.575-.001.01-.088.64.253 1.285.343.65 1.142 1.286 2.716 1.3.006 0 .793.032 1.987.04 1.752.012 3.735.007 5.55-.123s3.458-.375 4.569-.881c.414-.189.89-.53 1.142-1.123.254-.594.271-1.411-.136-2.502a.31.31 0 0 0-.01-.022s-.32-.675-1.01-1.123c-.502-.318-1.004-.395-1.54-.356-1.4-2.164-3.18-2.837-4.746-2.841zm-7.833 5.11c.216-.262.49-.4.777-.473.573-.146 1.158-.002 1.158-.002a.265.265 0 1 0 .133-.512s-.502-.134-1.105-.057a1.96 1.96 0 0 1 1.337-3.401c.669 0 1.256.33 1.61.837.211.363.351.778.355 1.127a.265.265 0 1 0 .53 0c0-.415-.104-.807-.285-1.152 1.24-.543 2.177-.922 3.324-.95 1.38-.003 2.899.53 4.192 2.432a4.048 4.048 0 0 0-1.044.51.265.265 0 0 0 .293.44c.424-.283.794-.442 1.121-.518l.21-.039a1.76 1.76 0 0 1 1.224.289c.542.35.806.888.812.9.369.996.334 1.655.147 2.094-.189.442-.54.697-.875.85-.987.45-2.598.707-4.387.835-1.79.128-3.761.133-5.51.122-1.19-.008-1.976-.04-1.976-.04a.25.25 0 0 0-.008 0c-1.441-.013-1.995-.527-2.254-1.017a1.826 1.826 0 0 1-.197-.979c.055-.454.154-.968.418-1.296zm2.38 4.415a.265.265 0 0 0-.253.194l-.809 2.91a.265.265 0 0 0 .254.334H4.81l-.953 3.098c-.082.281.287.467.464.234l3.705-5.026a.265.265 0 0 0-.212-.421h-2.01l.336-.973a.265.265 0 0 0-.25-.35zm6.352 0a.265.265 0 0 0-.256.194l-.808 2.91a.265.265 0 0 0 .254.334h2.023l-.953 3.098c-.088.285.29.476.467.234l3.703-5.026a.265.265 0 0 0-.213-.421h-2.01l.336-.97a.265.265 0 0 0-.25-.353zm-4.427.528-.336.972a.265.265 0 0 0 .25.352H7.29l-2.469 3.35.6-1.95a.265.265 0 0 0-.254-.341H3.137l.66-2.381zm4.627.002h1.722l-.336.97a.265.265 0 0 0 .25.352h1.858l-2.47 3.35.6-1.95a.265.265 0 0 0-.253-.341H9.486Zm-9.864 1.37a.265.265 0 0 0 .186.325l1.023.275a.265.265 0 1 0 .137-.511l-1.022-.274c-.156-.039-.287.036-.324.186zm16.043-.185-1.022.274a.265.265 0 0 0 .137.511l1.022-.275a.265.265 0 0 0 .187-.324c-.043-.158-.18-.217-.324-.186zm-1.209 1.381a.265.265 0 0 0 .187.324l1.022.276a.265.265 0 0 0 .137-.512l-1.022-.273a.267.267 0 0 0-.324.185zm-13.625-.185-1.023.273a.265.265 0 0 0 .138.512l1.022-.276a.265.265 0 0 0 .187-.324c-.038-.162-.182-.234-.324-.185z" transform="translate(.64 -351.592) scale(1.25766)"/></g></svg>