<svg width="318" height="516" fill="none" xmlns="http://www.w3.org/2000/svg"><path d="m268.007 261.125 4.656 1.822-.103.262-.131.25-4.422-2.334ZM72.083 472.57l3.022 3.984-.263.2-.288.163-2.471-4.347ZM309.078 95.844l4.984.401-.012.146-.02.144-4.952-.69ZM195.18 367.733l3.808 3.24-.164.193-.183.175-3.461-3.608Zm117.356-314.87h5v.2l-.017.2-4.983-.4Zm-15.158 123.919 4.945.739-.053.356-.104.344-4.788-1.439Zm6.12-40.967 4.952.691-.003.024-.003.023-4.946-.738Zm-18.118 80.903 4.788 1.439-.058.194-.074.189-4.656-1.822Zm-46.577 99.75 4.422 2.334-.258.487-.357.419-3.807-3.24ZM138.165 422.426l3.461 3.609-.209.2-.23.174-3.022-3.983ZM7.472 515.056a5 5 0 1 1-4.943-8.693l4.943 8.693ZM307.536 5.5a5 5 0 1 1 10 0h-10Zm10 13.532a5 5 0 0 1-10 0h10Zm-10 20.298a5 5 0 1 1 10 0h-10Zm8.996 26.214a5 5 0 0 1-9.968-.802l9.968.802Zm-11.45 17.619a5 5 0 1 1 9.968.802l-9.968-.802Zm7.354 24.793a5 5 0 0 1-9.904-1.383l9.904 1.383Zm-12.295 15.747a5 5 0 1 1 9.904 1.383l-9.904-1.383Zm6.554 24.555a5 5 0 0 1-9.89-1.477l9.89 1.477Zm-12.513 16.08a5 5 0 0 1 9.89 1.478l-9.89-1.478Zm4.556 25.293a4.999 4.999 0 0 1-6.227 3.35 5.001 5.001 0 0 1-3.35-6.227l9.577 2.877Zm-14.719 14.238a5 5 0 0 1 9.577 2.877l-9.577-2.877Zm1.053 27.358a5 5 0 1 1-9.313-3.643l9.313 3.643Zm-16.758 15.389a5 5 0 1 1 9.313 3.643l-9.313-3.643Zm-.057 24.749a5 5 0 0 1-8.845-4.667l8.845 4.667Zm-15.103 7.192a5.002 5.002 0 0 1 6.756-2.089 5.002 5.002 0 0 1 2.089 6.756l-8.845-4.667Zm.501 20.479a5 5 0 1 1-8.845-4.667l8.845 4.667Zm-15.103 7.193a5 5 0 1 1 8.845 4.667l-8.845-4.667Zm-2.173 20.803a5 5 0 1 1-7.616-6.481l7.616 6.481Zm-16.964 4.505a5 5 0 0 1 7.616 6.48l-7.616-6.48Zm-4.848 21.128a5 5 0 0 1-7.616-6.481l7.616 6.481Zm-16.963 4.504a5 5 0 1 1 7.615 6.481l-7.615-6.481Zm-7.108 21.986a5 5 0 0 1-6.923-7.217l6.923 7.217Zm-19.14 4.503a5 5 0 0 1 6.923 7.217l-6.923-7.217Zm-9.367 22.843a5 5 0 0 1-6.923-7.216l6.923 7.216Zm-19.141 4.504a5 5 0 0 1 6.923 7.216l-6.923-7.216Zm-11.101 22.568a5 5 0 0 1-6.045-7.966l6.045 7.966Zm-20.205 2.779a5 5 0 0 1 6.045 7.966l-6.045-7.966Zm-12.836 22.293a5 5 0 0 1-6.045-7.966l6.045 7.966Zm-20.205 2.779a5 5 0 0 1 6.045 7.966l-6.045-7.966Zm-13.53 20.942a5 5 0 0 1-4.943-8.694l4.943 8.694Zm-19.317-.521a5 5 0 0 1 4.942 8.693l-4.942-8.693Zm-14.224 19.59a5 5 0 0 1-4.943-8.693l4.943 8.693Zm-19.317-.52a5 5 0 1 1 4.942 8.693l-4.942-8.693ZM317.536 5.5v13.532h-10V5.5h10Zm0 33.83v13.532h-10V39.33h10Zm-.017 13.933-.987 12.28-9.968-.801.988-12.28 9.967.801Zm-2.469 30.702-.988 12.28-9.968-.802.988-12.28 9.968.802Zm-1.02 12.57-1.594 11.421-9.904-1.383 1.594-11.42 9.904 1.382Zm-3.985 28.551-1.595 11.42-9.904-1.383 1.595-11.42 9.904 1.383Zm-1.601 11.467-1.749 11.705-9.89-1.477 1.748-11.705 9.891 1.477Zm-4.372 29.263-1.749 11.705-9.89-1.478 1.749-11.705 9.89 1.478Zm-1.906 12.405-3.428 11.41-9.577-2.877 3.428-11.411 9.577 2.878Zm-8.57 28.525-3.428 11.411-9.577-2.878 3.428-11.41 9.577 2.877Zm-3.56 11.794-4.964 12.687-9.313-3.643 4.964-12.688 9.313 3.644Zm-12.409 31.719-4.964 12.688-9.313-3.644 4.964-12.687 9.313 3.643Zm-5.198 13.2-4.172 7.906-8.845-4.667 4.172-7.906 8.845 4.667Zm-10.43 19.765-8.344 15.812-8.845-4.667 8.344-15.812 8.845 4.667Zm-14.602 27.672-4.172 7.906-8.845-4.667 4.172-7.906 8.845 4.667Zm-4.787 8.812-6.231 7.324-7.616-6.481 6.232-7.323 7.615 6.48Zm-15.579 18.309-12.464 14.648-7.616-6.481 12.464-14.647 7.616 6.48Zm-21.812 25.633-6.231 7.323-7.616-6.48 6.232-7.324 7.615 6.481Zm-6.578 7.691-8.145 7.814-6.923-7.217 8.145-7.813 6.923 7.216Zm-20.362 19.534-16.29 15.626-6.923-7.216 16.29-15.627 6.923 7.217Zm-28.508 27.346-8.145 7.814-6.923-7.217 8.145-7.813 6.923 7.216Zm-8.584 8.188-9.44 7.164-6.045-7.966 9.44-7.164 6.045 7.966Zm-23.6 17.909-18.881 14.327-6.045-7.966 18.881-14.327 6.045 7.966ZM84.546 469.39l-9.44 7.164-6.046-7.967 9.44-7.163 6.046 7.966Zm-9.992 7.527-9.583 5.449-4.943-8.694 9.584-5.448 4.942 8.693Zm-23.958 13.621L31.43 501.435l-4.943-8.693 19.167-10.897 4.942 8.693Zm-33.541 19.07-9.583 5.448-4.943-8.693 9.584-5.448 4.942 8.693Z" fill="#000"/></svg>