<svg width="243" height="265" fill="none" xmlns="http://www.w3.org/2000/svg"><path d="m128 205-3.479 3.591.257.25.291.21L128 205ZM28.5 82l-4.617 1.919.155.375.215.344L28.5 82ZM9.908 4.044A5 5 0 0 0 .092 5.956l9.816-1.912ZM71 143l-3.932 3.089.02.025.02.025L71 143Zm165.716 120.832a5 5 0 1 0 2.567-9.664l-2.567 9.664ZM179.5 238l-2.481 4.341.17.098.178.083L179.5 238ZM12.5 43.5l-4.908.956.097.496.194.467L12.5 43.5Zm139 178.5-2.931 4.051.218.157.232.133L151.5 222Zm54.5 28.5-2.133 4.522.411.194.438.116L206 250.5ZM96 174l-3.892 3.139.193.239.22.213L96 174Zm-47-59-4.247 2.638.145.234.17.217L49 115ZM2.235 16.956a5 5 0 1 0 9.816-1.912l-9.816 1.912Zm13.03 14.588a5 5 0 0 0-9.816 1.912l9.816-1.912Zm-2.81 24.875a5 5 0 0 0 9.234-3.838l-9.235 3.838Zm16.09 12.662a5 5 0 1 0-9.234 3.838l9.235-3.838Zm1.565 24.986a5 5 0 1 0 8.494-5.277l-8.494 5.277Zm17.28 8.866a5 5 0 1 0-8.494 5.277l8.494-5.277Zm3.964 23.156a5 5 0 0 0 7.863-6.178l-7.863 6.178Zm17.292 5.822a5 5 0 0 0-7.863 6.178l7.863-6.178Zm5.605 23.085a5 5 0 0 0 7.784-6.278l-7.784 6.278Zm18.498 7.008a5 5 0 0 0-7.784 6.278l7.784-6.278Zm8.915 24.444a5 5 0 1 0 6.958-7.182l-6.958 7.182Zm20.672 6.104a5 5 0 1 0-6.958 7.182l6.958-7.182Zm9.447 21.356a5 5 0 1 0 5.862-8.102l-5.862 8.102Zm15.933-.816a5 5 0 1 0-5.861 8.102l5.861-8.102Zm9.303 17.821a5 5 0 0 0 4.962-8.683l-4.962 8.683Zm16.961-1.826a4.999 4.999 0 0 0-6.821 1.861 4.999 4.999 0 0 0 1.86 6.822l4.961-8.683Zm10.958 17.007a5 5 0 0 0 6.655-2.39 5 5 0 0 0-2.389-6.655l-4.266 9.045Zm15.624-3.688a5 5 0 0 0-4.267 9.045l4.267-9.045Zm13.297 15.355a5 5 0 1 0 2.567-9.665l-2.567 9.665Zm16.282-6.022a5 5 0 0 0-2.568 9.665l2.568-9.665ZM.092 5.956l2.143 11 9.816-1.912-2.143-11L.092 5.956Zm5.357 27.5 2.143 11 9.816-1.912-2.143-11-9.816 1.912ZM7.883 45.42l4.571 11 9.235-3.838-4.572-11-9.234 3.838Zm11.428 27.5 4.572 11 9.234-3.838-4.571-11-9.235 3.838Zm4.942 11.72 5.857 9.428 8.494-5.277-5.857-9.428-8.494 5.276Zm14.643 23.571 5.857 9.428 8.494-5.276-5.857-9.429-8.494 5.277Zm6.172 9.879 6.286 8 7.863-6.178-6.285-8-7.864 6.178Zm15.715 20 6.285 8 7.864-6.178-6.286-8-7.863 6.178Zm6.325 8.05 7.143 8.857 7.784-6.278-7.143-8.857-7.784 6.278Zm17.857 22.143 7.143 8.857 7.784-6.278-7.143-8.857-7.784 6.278Zm7.556 9.309 9.143 8.857 6.958-7.182-9.143-8.857-6.958 7.182Zm22.857 22.143 9.143 8.857 6.958-7.182-9.143-8.857-6.958 7.182Zm9.691 9.317 6.714 4.857 5.862-8.102-6.715-4.857-5.861 8.102Zm16.786 12.143 6.714 4.857 5.862-8.102-6.715-4.857-5.861 8.102Zm7.164 5.147 8 4.572 4.962-8.683-8-4.571-4.962 8.682Zm20 11.429 8 4.571 4.961-8.682-8-4.572-4.961 8.683Zm8.348 4.752 7.571 3.572 4.266-9.045-7.571-3.571-4.266 9.044Zm18.928 8.929 7.572 3.571 4.266-9.044-7.571-3.572-4.267 9.045Zm8.421 3.881 9.143 2.429 2.567-9.665-9.142-2.428-2.568 9.664Zm22.857 6.072 9.143 2.428 2.567-9.664-9.142-2.429-2.568 9.665Z" fill="#000"/></svg>