<svg width="64pt" height="64pt" viewBox="0 0 22.578 22.578" xmlns="http://www.w3.org/2000/svg"><g style="stroke-width:.820544"><g style="stroke-width:.820544"><path style="color:#000;fill:#d0e2ec;stroke-width:.820544;stroke-linecap:round;stroke-linejoin:round;-inkscape-stroke:none" d="M-51.805 372.213c-4.39 0-7.49.8-7.49.8a.265.265 0 0 0-.01.51c2.008.602 3.334 1.245 3.76 1.827.213.29.242.526.086.859-.156.333-.546.75-1.209 1.213-1.324.924-1.595 2.135-1.3 3.187.293 1.052 1.082 1.961 1.808 2.524a.265.265 0 0 0 .037.025l2.441 1.313a.265.265 0 0 0 .383-.174l.379-1.639a.265.265 0 0 0 .002-.008c.29-1.493 1.276-2.988 3.55-3.68 1.06-.321 1.813-.69 2.272-1.267.46-.578.575-1.334.432-2.303-.06-.399.04-.681.228-.924.189-.242.48-.436.791-.58a4.799 4.799 0 0 1 1.293-.363.265.265 0 0 0 .038-.52s-3.1-.8-7.49-.8z" transform="matrix(1.2187 0 0 1.2187 75.319 -451.87)"/><path style="fill:#aabfd2;fill-opacity:1;stroke-width:3.10127;stroke-linecap:round;stroke-linejoin:round" d="M-211.803 383.652c-.87.01-1.738.457-2.22 1.188-.515 1.065-.493 1.918-.477 2.695.737.754 1.497 1.43 2.24 2.006a1 1 0 0 0 .14.096l9.23 4.96a1 1 0 0 0 1.445-.656l1.433-6.193.008-.031c.168-.866.398-1.73.698-2.586a29.07 29.07 0 0 0-1.836-.97h-.014l-.252-.126a2.917 2.917 0 0 0-1.727-.244 2.914 2.914 0 0 0-1.564.768 2.774 2.774 0 0 0-.773 1.437 13.571 13.571 0 0 0-1.043-.603c-1.69-.88-3.418-1.382-4.688-1.676a2.52 2.52 0 0 0-.6-.065z" transform="matrix(.32245 0 0 .32245 75.319 -110.551)"/><path style="color:#000;fill:#dc1c4b;stroke-width:.820544;stroke-linecap:round;stroke-linejoin:round;-inkscape-stroke:none" d="M-55.98 382.02a.265.265 0 0 0-.274.414s.041.06.059.148c.017.089.024.168-.098.293-.21.215-.45.553-.621.973-.171.42-.271.924-.156 1.441.096.43.346.794.681 1.047.635.487 1.315.314 1.315.314a.265.265 0 0 0 .18-.171l.99-2.936a.265.265 0 0 0-.002-.172c-.159-.447-.541-.74-.938-.947a4.921 4.921 0 0 0-1.137-.404z" transform="matrix(1.2187 0 0 1.2187 75.319 -451.87)"/><path style="fill:#b11e48;fill-opacity:1;stroke-width:3.10127;stroke-linecap:round;stroke-linejoin:round" d="M-206.096 387.572c-.015.034-.03.069-.047.102-.448.927-1.974 2.304-3.28 4.178-1.314 1.881-2.423 4.329-2.423 7.16 0 1.302.262 2.537.733 3.67 1.634.49 2.959.154 2.959.154a1 1 0 0 0 .68-.649l3.742-11.095a1 1 0 0 0-.008-.65c-.437-1.234-1.325-2.157-2.356-2.87z" transform="matrix(.32245 0 0 .32245 75.319 -110.551)"/><path style="color:#000;fill:#dc1c4b;fill-opacity:1;stroke-width:.820544;stroke-linecap:round;stroke-linejoin:round;-inkscape-stroke:none" d="M-59.176 381.207a.82.82 0 0 0-.816.816c0 .448.368.819.816.819.448 0 .817-.37.817-.819a.82.82 0 0 0-.817-.816zM-46.783 378.736a.82.82 0 0 0-.817.817.82.82 0 0 0 .817.816.82.82 0 0 0 .816-.816.82.82 0 0 0-.816-.817zM-60.19 374.514a.82.82 0 0 0-.816.816.82.82 0 0 0 .817.816.82.82 0 0 0 .816-.816.82.82 0 0 0-.816-.816z" transform="matrix(1.2187 0 0 1.2187 75.319 -451.87)"/><path style="color:#000;fill:#dc1c4b;stroke-width:.820544;stroke-linecap:round;stroke-linejoin:round;-inkscape-stroke:none" d="M-50.846 381.498c-.313.073-.74.196-1.136.402-.397.207-.782.5-.94.948a.265.265 0 0 0-.014.088v3.033a.265.265 0 0 0 .288.263l1.697-.156a.265.265 0 0 0 .068-.014 1.71 1.71 0 0 0 .444-.248c.336-.253.587-.615.683-1.046.115-.518.013-1.022-.158-1.442a3.113 3.113 0 0 0-.621-.973c-.122-.124-.113-.206-.096-.294.018-.089.059-.149.059-.149a.265.265 0 0 0-.274-.412z" transform="matrix(1.2187 0 0 1.2187 75.319 -451.87)"/><path style="color:#000;fill:#b11e48;fill-opacity:1;stroke-width:3.10127;stroke-linecap:round;stroke-linejoin:round;-inkscape-stroke:none" d="M-198.176 385.98c-.808.653-1.482 1.462-1.844 2.483a1 1 0 0 0-.052.332v11.465a1 1 0 0 0 1.086.996l6.414-.59a1 1 0 0 0 .26-.053 6.464 6.464 0 0 0 1.675-.937c.286-.216.555-.452.805-.707a12.149 12.149 0 0 0-.037-.873v-.008c-.086-1.11-.902-2.123-1.965-2.45-.819-.25-1.677.018-2.377.508.488-2.54.403-4.95-.789-6.923-.8-1.324-1.894-2.36-3.176-3.243zm3.412 10.516h.002c0 .003.019.017.012.014-.023.026-.065.03-.088.058a.275.275 0 0 1 .074-.072z" transform="matrix(.32245 0 0 .32245 75.319 -110.551)"/><path style="color:#000;fill:#dc1c4b;stroke-width:.820544;stroke-linecap:round;stroke-linejoin:round;-inkscape-stroke:none" d="M-53.51 382.129a.265.265 0 0 0-.357.346s.038.09.035.21c-.003.122-.026.241-.217.366a3.71 3.71 0 0 0-.972.965c-.309.441-.555.998-.555 1.623 0 1.244 1.108 2.23 2.437 2.23 1.33 0 2.438-.986 2.438-2.23 0-.07-.003-.14-.008-.207a.265.265 0 0 0-.47-.145.45.45 0 0 1-.352.16.455.455 0 0 1-.305-.105c-.057-.057-.086-.106-.045-.248.207-.724.17-1.322-.119-1.801-.29-.48-.79-.814-1.44-1.13a.265.265 0 0 0-.001 0z" transform="matrix(1.2187 0 0 1.2187 75.319 -451.87)"/><path style="color:#000;fill:#aabfd2;fill-opacity:1;stroke-width:3.10127;stroke-linecap:round;stroke-linejoin:round;-inkscape-stroke:none" d="M-193.635 359.217a1 1 0 0 0-1.004 1.004 1 1 0 0 0 1.004.996c6.76 0 12.893.407 17.465 1.053a20.238 20.238 0 0 0-.197-1.954c-.005-.033-.007-.065-.012-.097-4.644-.624-10.657-1.002-17.256-1.002zm-8.281.205c-2.945.15-5.65.38-8.041.672l.023.031c.489.668.72 1.258.696 1.9a116.85 116.85 0 0 1 7.418-.601 1 1 0 0 0 .95-1.049 1 1 0 0 0-1.046-.951zM-203.143 370.008c-4.485.23-9.822.694-14.474 1.289a10.51 10.51 0 0 0-1.188 2.178c4.89-.678 10.86-1.216 15.766-1.467a1 1 0 0 0 .953-1.047 1 1 0 0 0-1.057-.953zm1.125 8.387a72.173 72.173 0 0 0-7.273.36 1 1 0 0 0-.893 1.1 1 1 0 0 0 1.1.895c4.15-.426 8.428-.427 12.207-.178a16.635 16.635 0 0 1 1.658-1.883 78.276 78.276 0 0 0-6.799-.294z" transform="matrix(.32245 0 0 .32245 75.319 -110.551)"/><path style="color:#000;fill:#b11e48;fill-opacity:1;stroke-width:.820544;stroke-linecap:round;stroke-linejoin:round;-inkscape-stroke:none" d="M-46.783 378.736a.821.821 0 0 0-.778.569.82.82 0 0 1 1.026 1.025.822.822 0 0 0 .568-.777.82.82 0 0 0-.816-.817zM-59.176 381.207a.821.821 0 0 0-.778.569.82.82 0 0 1 1.026 1.025.822.822 0 0 0 .569-.777.82.82 0 0 0-.817-.817zM-60.19 374.514a.821.821 0 0 0-.777.568.82.82 0 0 1 1.026 1.025.822.822 0 0 0 .568-.777.82.82 0 0 0-.817-.816z" transform="matrix(1.2187 0 0 1.2187 75.319 -451.87)"/></g><path style="color:#000;fill:#000;stroke-width:.820544;stroke-linecap:round;stroke-linejoin:round;-inkscape-stroke:none" d="M14.401 293.38c.335-.253.586-.616.682-1.047.116-.517.013-1.022-.158-1.441a3.113 3.113 0 0 0-.62-.973c-.112-.113-.111-.187-.1-.27.002-.076.044-.142.079-.203a.265.265 0 0 0 .026-.185.265.265 0 0 0-.316-.197c-.314.072-.74.195-1.137.402-.298.155-.59.36-.783.64a4.286 4.286 0 0 0-.114-.072 4.454 4.454 0 0 1 1.226-2.205c.236.02.462.045.676.072.605.079 1.114.181 1.453.287.145.045.237.088.309.125-.026.018-.036.03-.078.052-.164.082-.44.172-.793.253a.265.265 0 0 0 .12.516c.375-.087.68-.18.91-.295.115-.058.212-.12.294-.203a.503.503 0 0 0 .155-.346.404.404 0 0 0-.102-.26.693.693 0 0 0-.176-.144 2.18 2.18 0 0 0-.482-.202c-.388-.12-.916-.227-1.54-.308a55.45 55.45 0 0 0-.176-.021 5.92 5.92 0 0 1 1.716-.819c1.06-.322 1.812-.69 2.271-1.267.46-.578.575-1.335.432-2.303l-.003-.022c.092.013.183.026.27.04.614.094 1.109.207 1.428.324.16.058.277.117.334.16l.002.002c-.002 0-.002 0-.003.003a1.422 1.422 0 0 1-.335.162.265.265 0 1 0 .182.498 1.8 1.8 0 0 0 .47-.237c.127-.094.247-.236.247-.425s-.118-.33-.244-.424a1.794 1.794 0 0 0-.47-.236c-.379-.138-.894-.253-1.528-.35-.103-.016-.21-.03-.32-.046.043-.138.111-.26.199-.372.188-.242.48-.437.79-.58a4.799 4.799 0 0 1 1.293-.363c.295-.03.325-.448.037-.52 0 0-3.099-.8-7.49-.8-4.39 0-7.49.8-7.49.8-.26.066-.267.433-.01.51 1.48.443 2.59.91 3.242 1.357a13.72 13.72 0 0 0-.79.139c-.43.09-.775.19-1.035.31-.13.06-.24.125-.333.211a.51.51 0 0 0-.172.364c0 .14.072.261.155.345.082.084.18.146.295.203.23.116.534.211.91.298a.265.265 0 0 0 .12-.516 3.873 3.873 0 0 1-.794-.254c-.061-.03-.088-.055-.115-.076a.736.736 0 0 1 .156-.094c.195-.09.514-.188.922-.273.34-.072.743-.136 1.195-.193l.004.005c.213.291.242.527.086.86-.156.333-.546.75-1.209 1.213-.134.093-.256.19-.37.289-.39.044-.769.093-1.124.144-.675.098-1.264.205-1.7.323a2.845 2.845 0 0 0-.538.19.742.742 0 0 0-.196.134.398.398 0 0 0-.125.277c0 .14.072.262.155.346.082.084.18.145.295.203.23.115.533.21.91.297a.265.265 0 0 0 .119-.516 3.87 3.87 0 0 1-.793-.254c-.031-.015-.036-.025-.058-.04.089-.038.202-.08.37-.126.397-.107.974-.214 1.637-.31.163-.024.332-.047.505-.07a2.657 2.657 0 0 0-.388 2.3c.266.95.936 1.783 1.598 2.35-.19.215-.392.52-.543.889-.171.42-.272.924-.156 1.44.095.432.346.795.681 1.048.411.315.841.354 1.093.342.411.712 1.23 1.191 2.157 1.191 1.199 0 2.217-.801 2.406-1.871.105-.04.2-.11.295-.184zm-3.627-2.753c-.189-.274-.469-.475-.759-.628a4.856 4.856 0 0 0-1.127-.406l-.007-.001a.265.265 0 0 0-.239.036.265.265 0 0 0-.107.237c-.5-.498-.966-1.157-1.155-1.833-.212-.758-.126-1.525.644-2.249a53.966 53.966 0 0 1 3.094-.253.265.265 0 1 0-.027-.53c-.707.037-1.494.096-2.275.17.511-.397.858-.776 1.042-1.17.181-.384.177-.793.009-1.154a32.592 32.592 0 0 1 1.574-.116.265.265 0 1 0-.026-.53c-.692.035-1.336.087-1.914.152-.572-.554-1.61-.998-2.9-1.435.989-.212 3.162-.61 6.433-.61 3.272 0 5.192.355 6.278.579a2.58 2.58 0 0 0-1.326.832c-.14.18-.247.392-.306.631a37.644 37.644 0 0 0-4.074-.203.265.265 0 1 0 0 .529c1.51 0 2.903.076 4.029.203.003.054.008.108.017.164.132.892.027 1.46-.323 1.899-.35.439-.995.78-2.012 1.09-.958.29-1.717.728-2.306 1.251a20.195 20.195 0 0 0-3.547.034.265.265 0 1 0 .055.527 19.544 19.544 0 0 1 3.002-.062 5.031 5.031 0 0 0-1.04 1.99l-.17-.085a.265.265 0 0 0-.339.354s.038.09.035.211c-.003.121-.026.241-.217.365zM4.65 282.08a.82.82 0 0 0-.816.817.82.82 0 0 0 .816.816.82.82 0 0 0 .817-.816.82.82 0 0 0-.817-.817zm-.015.528h.015c.162 0 .288.127.288.289a.283.283 0 0 1-.288.287.283.283 0 0 1-.286-.287c0-.157.117-.282.271-.29zm13.422 3.695a.82.82 0 0 0-.817.816.82.82 0 0 0 .817.817.82.82 0 0 0 .816-.817.82.82 0 0 0-.816-.816zm.287.816c0 .162-.126.29-.287.29a.285.285 0 0 1-.288-.29c0-.157.122-.28.288-.283a.275.275 0 0 1 .287.283zm-12.7 1.655a.82.82 0 0 0-.796.816c0 .448.368.818.816.818.448 0 .817-.37.817-.818a.82.82 0 0 0-.817-.816h-.02zm.02.529c.162 0 .287.125.287.287 0 .162-.125.29-.287.29a.285.285 0 0 1-.287-.29c0-.162.126-.287.287-.287zm8.01.397a.875.875 0 0 0 .252.59c.153.156.367.455.51.804.142.349.215.744.13 1.125a1.257 1.257 0 0 1-.448.713.265.265 0 0 0-.458-.078.449.449 0 0 1-.351.16.456.456 0 0 1-.305-.106c-.057-.056-.086-.105-.045-.248.21-.733.168-1.336-.13-1.818a2.052 2.052 0 0 0-.334-.404c.124-.192.342-.364.607-.502.182-.095.381-.174.572-.236zm-4.496.523a3.8 3.8 0 0 1 .59.244c.258.136.47.305.591.493a3.93 3.93 0 0 0-.54.622c-.309.442-.555.999-.555 1.623 0 .178.023.35.065.515a1.13 1.13 0 0 1-.555-.237l-.002-.002a1.266 1.266 0 0 1-.487-.74c-.085-.381-.011-.777.131-1.125.153-.395.457-.72.677-1.044a.704.704 0 0 0 .085-.349zm2.346.17c.409.232.693.466.855.726.21.34.258.748.072 1.397a.78.78 0 0 0 .18.767c.181.18.429.26.678.26.093 0 .184-.012.27-.036-.158.789-.926 1.401-1.878 1.401-1.07 0-1.908-.774-1.908-1.703 0-.484.195-.94.46-1.32.263-.379.599-.675.827-.824a.991.991 0 0 0 .444-.668z" transform="matrix(1.2187 0 0 1.2187 -3.701 -339.22)"/></g></svg>