<svg xmlns="http://www.w3.org/2000/svg" viewBox="0 0 22.578 22.578" height="64pt" width="64pt"><g style="display:inline"><path d="M-58.08 262.354a.265.265 0 0 0-.238.195l-.403 1.5a.265.265 0 0 0 .188.322.265.265 0 0 0 .324-.185l.402-1.5a.265.265 0 0 0-.187-.325.265.265 0 0 0-.086-.008z" style="color:#000;font-style:normal;font-variant:normal;font-weight:400;font-stretch:normal;font-size:medium;line-height:normal;font-family:sans-serif;font-variant-ligatures:normal;font-variant-position:normal;font-variant-caps:normal;font-variant-numeric:normal;font-variant-alternates:normal;font-variant-east-asian:normal;font-feature-settings:normal;font-variation-settings:normal;text-indent:0;text-align:start;text-decoration:none;text-decoration-line:none;text-decoration-style:solid;text-decoration-color:#000;letter-spacing:normal;word-spacing:normal;text-transform:none;writing-mode:lr-tb;direction:ltr;text-orientation:mixed;dominant-baseline:auto;baseline-shift:baseline;text-anchor:start;white-space:normal;shape-padding:0;shape-margin:0;inline-size:0;clip-rule:nonzero;display:inline;overflow:visible;visibility:visible;opacity:1;isolation:auto;mix-blend-mode:normal;color-interpolation:sRGB;color-interpolation-filters:linearRGB;solid-color:#000;solid-opacity:1;vector-effect:none;fill:#66342d;fill-opacity:1;fill-rule:nonzero;stroke:none;stroke-width:.529167;stroke-linecap:round;stroke-linejoin:round;stroke-miterlimit:4;stroke-dasharray:none;stroke-dashoffset:0;stroke-opacity:1;color-rendering:auto;image-rendering:auto;shape-rendering:auto;text-rendering:auto;enable-background:accumulate;stop-color:#000;stop-opacity:1" transform="matrix(1.25805 0 0 1.25805 77.386 -313.327)"/><path transform="translate(77.386 39.012) scale(.33286)" d="M-219.58-78.346c-1.388-.08-2.708.825-3.08 2.215-.048.18-.078.364-.092.545-1.698.073-3.241 1.216-3.703 2.94-.55 2.054.634 4.177 2.635 4.828-.224 1.484.698 2.955 2.18 3.351.703.189 1.419.107 2.035-.183.507.39 1.138.627 1.818.627a3.006 3.006 0 0 0 2.557-1.405l.019.008a4.015 4.015 0 0 0 4.9-2.826c.48-1.79-.36-3.624-1.904-4.5.188-.468.295-.978.295-1.51 0-2.229-1.828-4.053-4.059-4.053-.746 0-1.433.211-2.029.541a2.877 2.877 0 0 0-1.572-.578z" style="color:#000;font-style:normal;font-variant:normal;font-weight:400;font-stretch:normal;font-size:medium;line-height:normal;font-family:sans-serif;font-variant-ligatures:normal;font-variant-position:normal;font-variant-caps:normal;font-variant-numeric:normal;font-variant-alternates:normal;font-variant-east-asian:normal;font-feature-settings:normal;font-variation-settings:normal;text-indent:0;text-align:start;text-decoration:none;text-decoration-line:none;text-decoration-style:solid;text-decoration-color:#000;letter-spacing:normal;word-spacing:normal;text-transform:none;writing-mode:lr-tb;direction:ltr;text-orientation:mixed;dominant-baseline:auto;baseline-shift:baseline;text-anchor:start;white-space:normal;shape-padding:0;shape-margin:0;inline-size:0;clip-rule:nonzero;display:inline;overflow:visible;visibility:visible;isolation:auto;mix-blend-mode:normal;color-interpolation:sRGB;color-interpolation-filters:linearRGB;solid-color:#000;solid-opacity:1;vector-effect:none;fill:#8fc23f;fill-opacity:1;fill-rule:nonzero;stroke:none;stroke-width:2;stroke-linecap:round;stroke-linejoin:round;stroke-miterlimit:4;stroke-dasharray:none;stroke-dashoffset:0;stroke-opacity:1;color-rendering:auto;image-rendering:auto;shape-rendering:auto;text-rendering:auto;enable-background:accumulate;stop-color:#000"/><path d="M-47.695 259.674c-.487 0-.873.175-1.16.328a3.866 3.866 0 0 1-.512.24v.004c-.006 0-.01-.006-.016-.006a.265.265 0 0 0-.035.53c.007 0 .01-.007.016-.007v.006c.264.01.425.073.527.167.102.093.169.235.186.482.02.31.05.567.1.775.048.208.098.388.284.512a.446.446 0 0 0 .332.059.631.631 0 0 0 .266-.145c.154-.13.299-.318.47-.586a7.281 7.281 0 0 0 .895-1.986.265.265 0 0 0-.246-.334l-1.098-.037a.265.265 0 0 0-.01-.002z" style="color:#000;font-style:normal;font-variant:normal;font-weight:400;font-stretch:normal;font-size:medium;line-height:normal;font-family:sans-serif;font-variant-ligatures:normal;font-variant-position:normal;font-variant-caps:normal;font-variant-numeric:normal;font-variant-alternates:normal;font-variant-east-asian:normal;font-feature-settings:normal;font-variation-settings:normal;text-indent:0;text-align:start;text-decoration:none;text-decoration-line:none;text-decoration-style:solid;text-decoration-color:#000;letter-spacing:normal;word-spacing:normal;text-transform:none;writing-mode:lr-tb;direction:ltr;text-orientation:mixed;dominant-baseline:auto;baseline-shift:baseline;text-anchor:start;white-space:normal;shape-padding:0;shape-margin:0;inline-size:0;clip-rule:nonzero;display:inline;overflow:visible;visibility:visible;isolation:auto;mix-blend-mode:normal;color-interpolation:sRGB;color-interpolation-filters:linearRGB;solid-color:#000;solid-opacity:1;vector-effect:none;fill:#91a1b2;fill-opacity:1;fill-rule:nonzero;stroke:none;stroke-width:.529167;stroke-linecap:round;stroke-linejoin:round;stroke-miterlimit:4;stroke-dasharray:none;stroke-dashoffset:0;stroke-opacity:1;color-rendering:auto;image-rendering:auto;shape-rendering:auto;text-rendering:auto;enable-background:accumulate;stop-color:#000" transform="matrix(1.25805 0 0 1.25805 77.386 -313.327)"/><path d="M-49.225 258.465a2.35 2.35 0 0 0-1.265.55.265.265 0 0 0-.057.065s-.237.36-.21.797a.857.857 0 0 0 .347.64c.228.166.555.246 1.002.249.329.027.542-.16.8-.297.263-.14.55-.266.913-.266l1.091.033a.265.265 0 0 0 .264-.195 6.59 6.59 0 0 0 .203-1.096.265.265 0 0 0-.234-.289l-1.736-.19a.265.265 0 0 0-.02-.001c-.306-.01-.688-.051-1.098 0z" style="color:#000;font-style:normal;font-variant:normal;font-weight:400;font-stretch:normal;font-size:medium;line-height:normal;font-family:sans-serif;font-variant-ligatures:normal;font-variant-position:normal;font-variant-caps:normal;font-variant-numeric:normal;font-variant-alternates:normal;font-variant-east-asian:normal;font-feature-settings:normal;font-variation-settings:normal;text-indent:0;text-align:start;text-decoration:none;text-decoration-line:none;text-decoration-style:solid;text-decoration-color:#000;letter-spacing:normal;word-spacing:normal;text-transform:none;writing-mode:lr-tb;direction:ltr;text-orientation:mixed;dominant-baseline:auto;baseline-shift:baseline;text-anchor:start;white-space:normal;shape-padding:0;shape-margin:0;inline-size:0;clip-rule:nonzero;display:inline;overflow:visible;visibility:visible;isolation:auto;mix-blend-mode:normal;color-interpolation:sRGB;color-interpolation-filters:linearRGB;solid-color:#000;solid-opacity:1;vector-effect:none;fill:#aabfd0;fill-opacity:1;fill-rule:nonzero;stroke:none;stroke-width:.529167;stroke-linecap:round;stroke-linejoin:round;stroke-miterlimit:4;stroke-dasharray:none;stroke-dashoffset:0;stroke-opacity:1;color-rendering:auto;image-rendering:auto;shape-rendering:auto;text-rendering:auto;enable-background:accumulate;stop-color:#000" transform="matrix(1.25805 0 0 1.25805 77.386 -313.327)"/><path d="M-47.166 255.611a.264.264 0 0 0-.219.145c-.37.738-1.668 1.407-2.888 1.824-1.22.417-2.167.66-2.167.66a.264.264 0 0 0-.154.087s-.213.231-.274.574a.901.901 0 0 0 .088.582c.106.199.365.223.645.361 0 0 .116.095.522.085.406-.01.956-.162 1.531-.662l.002-.002c.672-.568 1.266-.293 1.936-.27l1.726.144a.265.265 0 0 0 .285-.243c.105-1.191-.152-2.332-.806-3.183a.265.265 0 0 0-.227-.102z" style="color:#000;font-style:normal;font-variant:normal;font-weight:400;font-stretch:normal;font-size:medium;line-height:normal;font-family:sans-serif;font-variant-ligatures:normal;font-variant-position:normal;font-variant-caps:normal;font-variant-numeric:normal;font-variant-alternates:normal;font-variant-east-asian:normal;font-feature-settings:normal;font-variation-settings:normal;text-indent:0;text-align:start;text-decoration:none;text-decoration-line:none;text-decoration-style:solid;text-decoration-color:#000;letter-spacing:normal;word-spacing:normal;text-transform:none;writing-mode:lr-tb;direction:ltr;text-orientation:mixed;dominant-baseline:auto;baseline-shift:baseline;text-anchor:start;white-space:normal;shape-padding:0;shape-margin:0;inline-size:0;clip-rule:nonzero;display:inline;overflow:visible;visibility:visible;isolation:auto;mix-blend-mode:normal;color-interpolation:sRGB;color-interpolation-filters:linearRGB;solid-color:#000;solid-opacity:1;vector-effect:none;fill:#91a1b2;fill-opacity:1;fill-rule:nonzero;stroke:none;stroke-width:.529167;stroke-linecap:round;stroke-linejoin:round;stroke-miterlimit:4;stroke-dasharray:none;stroke-dashoffset:0;stroke-opacity:1;color-rendering:auto;image-rendering:auto;shape-rendering:auto;text-rendering:auto;enable-background:accumulate;stop-color:#000" transform="matrix(1.25805 0 0 1.25805 77.386 -313.327)"/><path d="M-47.848 254.906c-1.61-.284-3.726.144-5.465.63-1.738.484-3.091 1.038-3.091 1.038-.054.022.076.32.046.369 0 0-.36.091-.225.58.124.447.198.617 1.08.925l.002.002c.172.029 1.093.477 3.009.261.022-.004 1.138-.204 2.39-.63 1.266-.432 2.676-1.052 3.196-2.079a.265.265 0 0 0-.028-.283 3.719 3.719 0 0 0-.806-.768.264.264 0 0 0-.108-.045z" style="color:#000;font-style:normal;font-variant:normal;font-weight:400;font-stretch:normal;font-size:medium;line-height:normal;font-family:sans-serif;font-variant-ligatures:normal;font-variant-position:normal;font-variant-caps:normal;font-variant-numeric:normal;font-variant-alternates:normal;font-variant-east-asian:normal;font-feature-settings:normal;font-variation-settings:normal;text-indent:0;text-align:start;text-decoration:none;text-decoration-line:none;text-decoration-style:solid;text-decoration-color:#000;letter-spacing:normal;word-spacing:normal;text-transform:none;writing-mode:lr-tb;direction:ltr;text-orientation:mixed;dominant-baseline:auto;baseline-shift:baseline;text-anchor:start;white-space:normal;shape-padding:0;shape-margin:0;inline-size:0;clip-rule:nonzero;display:inline;overflow:visible;visibility:visible;isolation:auto;mix-blend-mode:normal;color-interpolation:sRGB;color-interpolation-filters:linearRGB;solid-color:#000;solid-opacity:1;vector-effect:none;fill:#aabfd0;fill-opacity:1;fill-rule:nonzero;stroke:none;stroke-width:.529167;stroke-linecap:round;stroke-linejoin:round;stroke-miterlimit:4;stroke-dasharray:none;stroke-dashoffset:0;stroke-opacity:1;color-rendering:auto;image-rendering:auto;shape-rendering:auto;text-rendering:auto;enable-background:accumulate;stop-color:#000" transform="matrix(1.25805 0 0 1.25805 77.386 -313.327)"/><path d="M-49.893 249.828a.265.265 0 0 0-.265.266.265.265 0 0 0 .265.263c.982 0 1.428-.002 2.39.239a.265.265 0 0 0 .321-.194.265.265 0 0 0-.193-.32c-1.002-.25-1.536-.254-2.518-.254z" style="color:#000;font-style:normal;font-variant:normal;font-weight:400;font-stretch:normal;font-size:medium;line-height:normal;font-family:sans-serif;font-variant-ligatures:normal;font-variant-position:normal;font-variant-caps:normal;font-variant-numeric:normal;font-variant-alternates:normal;font-variant-east-asian:normal;font-feature-settings:normal;font-variation-settings:normal;text-indent:0;text-align:start;text-decoration:none;text-decoration-line:none;text-decoration-style:solid;text-decoration-color:#000;letter-spacing:normal;word-spacing:normal;text-transform:none;writing-mode:lr-tb;direction:ltr;text-orientation:mixed;dominant-baseline:auto;baseline-shift:baseline;text-anchor:start;white-space:normal;shape-padding:0;shape-margin:0;inline-size:0;clip-rule:nonzero;display:inline;overflow:visible;visibility:visible;opacity:1;isolation:auto;mix-blend-mode:normal;color-interpolation:sRGB;color-interpolation-filters:linearRGB;solid-color:#000;solid-opacity:1;vector-effect:none;fill:#697480;fill-opacity:1;fill-rule:nonzero;stroke:none;stroke-width:.529167;stroke-linecap:round;stroke-linejoin:round;stroke-miterlimit:4;stroke-dasharray:none;stroke-dashoffset:0;stroke-opacity:1;color-rendering:auto;image-rendering:auto;shape-rendering:auto;text-rendering:auto;enable-background:accumulate;stop-color:#000;stop-opacity:1" transform="matrix(1.25805 0 0 1.25805 77.386 -313.327)"/><path d="M-50.59 250.645c-1.15.01-2.503.092-3.8.26-1.298.167-2.536.417-3.467.77-.466.178-.856.38-1.145.63-.289.25-.483.575-.465.94l.006.042c.121.568.515.734.909.91.394.175.813.194 1.14.175a.266.266 0 0 0 .072-.014s1.353-.295 3.104-.727c1.75-.433 3.873-.798 5.258-.586l1.216.219c.11.019.22-.033.276-.13.24-.413.494-.82.506-1.267a.888.888 0 0 0-.248-.642c-.175-.179-.426-.3-.76-.387-.526-.148-1.452-.203-2.602-.193z" style="color:#000;font-style:normal;font-variant:normal;font-weight:400;font-stretch:normal;font-size:medium;line-height:normal;font-family:sans-serif;font-variant-ligatures:normal;font-variant-position:normal;font-variant-caps:normal;font-variant-numeric:normal;font-variant-alternates:normal;font-variant-east-asian:normal;font-feature-settings:normal;font-variation-settings:normal;text-indent:0;text-align:start;text-decoration:none;text-decoration-line:none;text-decoration-style:solid;text-decoration-color:#000;letter-spacing:normal;word-spacing:normal;text-transform:none;writing-mode:lr-tb;direction:ltr;text-orientation:mixed;dominant-baseline:auto;baseline-shift:baseline;text-anchor:start;white-space:normal;shape-padding:0;shape-margin:0;inline-size:0;clip-rule:nonzero;display:inline;overflow:visible;visibility:visible;isolation:auto;mix-blend-mode:normal;color-interpolation:sRGB;color-interpolation-filters:linearRGB;solid-color:#000;solid-opacity:1;vector-effect:none;fill:#aabfd0;fill-opacity:1;fill-rule:nonzero;stroke:none;stroke-width:.529167;stroke-linecap:round;stroke-linejoin:round;stroke-miterlimit:4;stroke-dasharray:none;stroke-dashoffset:0;stroke-opacity:1;color-rendering:auto;image-rendering:auto;shape-rendering:auto;text-rendering:auto;enable-background:accumulate;stop-color:#000" transform="matrix(1.25805 0 0 1.25805 77.386 -313.327)"/><path d="M-48.898 252.521c-1.549-.236-3.688.157-5.465.596-1.778.44-3.01 1.084-3.01 1.084a.26.26 0 0 0-.049.024s-.473.28-.785.761c-.156.241-.351.42-.325.764.025.343.1.53.458.869a.245.245 0 0 0 .023.02s.174.126.469.214.732.152 1.31.078a.272.272 0 0 0 .067-.017s1.33-.391 3.031-.871c1.702-.48 3.782-.886 5.2-.647.281.046.426-.325.187-.482-.146-.094-.208-.183-.24-.28a.668.668 0 0 1 0-.365c.068-.3.287-.696.521-1.1a.265.265 0 0 0-.174-.392l-1.205-.254c-.004 0-.009 0-.013-.002z" style="color:#000;font-style:normal;font-variant:normal;font-weight:400;font-stretch:normal;font-size:medium;line-height:normal;font-family:sans-serif;font-variant-ligatures:normal;font-variant-position:normal;font-variant-caps:normal;font-variant-numeric:normal;font-variant-alternates:normal;font-variant-east-asian:normal;font-feature-settings:normal;font-variation-settings:normal;text-indent:0;text-align:start;text-decoration:none;text-decoration-line:none;text-decoration-style:solid;text-decoration-color:#000;letter-spacing:normal;word-spacing:normal;text-transform:none;writing-mode:lr-tb;direction:ltr;text-orientation:mixed;dominant-baseline:auto;baseline-shift:baseline;text-anchor:start;white-space:normal;shape-padding:0;shape-margin:0;inline-size:0;clip-rule:nonzero;display:inline;overflow:visible;visibility:visible;isolation:auto;mix-blend-mode:normal;color-interpolation:sRGB;color-interpolation-filters:linearRGB;solid-color:#000;solid-opacity:1;vector-effect:none;fill:#91a1b2;fill-opacity:1;fill-rule:nonzero;stroke:none;stroke-width:.529167;stroke-linecap:round;stroke-linejoin:round;stroke-miterlimit:4;stroke-dasharray:none;stroke-dashoffset:0;stroke-opacity:1;color-rendering:auto;image-rendering:auto;shape-rendering:auto;text-rendering:auto;enable-background:accumulate;stop-color:#000" transform="matrix(1.25805 0 0 1.25805 77.386 -313.327)"/><path transform="translate(77.386 39.012) scale(.33286)" d="M-177.799-76.986c-.02.566-.074 1.135-.19 1.71-.585 2.931-1.488 6.134-2.396 9.385.024-.019.051-.033.074-.052.583-.493 1.13-1.204 1.78-2.215a27.522 27.522 0 0 0 3.38-7.508 1 1 0 0 0-.93-1.262z" style="color:#000;font-style:normal;font-variant:normal;font-weight:400;font-stretch:normal;font-size:medium;line-height:normal;font-family:sans-serif;font-variant-ligatures:normal;font-variant-position:normal;font-variant-caps:normal;font-variant-numeric:normal;font-variant-alternates:normal;font-variant-east-asian:normal;font-feature-settings:normal;font-variation-settings:normal;text-indent:0;text-align:start;text-decoration:none;text-decoration-line:none;text-decoration-style:solid;text-decoration-color:#000;letter-spacing:normal;word-spacing:normal;text-transform:none;writing-mode:lr-tb;direction:ltr;text-orientation:mixed;dominant-baseline:auto;baseline-shift:baseline;text-anchor:start;white-space:normal;shape-padding:0;shape-margin:0;inline-size:0;clip-rule:nonzero;display:inline;overflow:visible;visibility:visible;isolation:auto;mix-blend-mode:normal;color-interpolation:sRGB;color-interpolation-filters:linearRGB;solid-color:#000;solid-opacity:1;vector-effect:none;fill:#697480;fill-opacity:1;fill-rule:nonzero;stroke:none;stroke-width:2;stroke-linecap:round;stroke-linejoin:round;stroke-miterlimit:4;stroke-dasharray:none;stroke-dashoffset:0;stroke-opacity:1;color-rendering:auto;image-rendering:auto;shape-rendering:auto;text-rendering:auto;enable-background:accumulate;stop-color:#000"/><path d="m-45.965 261.682-6.746 1.785c-.963.255-1.955.385-2.951.385h-3.756a.798.798 0 0 0-.795.793v.794c0 .436.36.793.795.793h13.494c.582 0 1.059-.477 1.059-1.058v-2.645a.883.883 0 0 0-1.1-.847z" style="color:#000;font-style:normal;font-variant:normal;font-weight:400;font-stretch:normal;font-size:medium;line-height:normal;font-family:sans-serif;font-variant-ligatures:normal;font-variant-position:normal;font-variant-caps:normal;font-variant-numeric:normal;font-variant-alternates:normal;font-variant-east-asian:normal;font-feature-settings:normal;font-variation-settings:normal;text-indent:0;text-align:start;text-decoration:none;text-decoration-line:none;text-decoration-style:solid;text-decoration-color:#000;letter-spacing:normal;word-spacing:normal;text-transform:none;writing-mode:lr-tb;direction:ltr;text-orientation:mixed;dominant-baseline:auto;baseline-shift:baseline;text-anchor:start;white-space:normal;shape-padding:0;shape-margin:0;inline-size:0;clip-rule:nonzero;display:inline;overflow:visible;visibility:visible;isolation:auto;mix-blend-mode:normal;color-interpolation:sRGB;color-interpolation-filters:linearRGB;solid-color:#000;solid-opacity:1;vector-effect:none;fill:#65342c;fill-opacity:1;fill-rule:nonzero;stroke:none;stroke-width:.529167;stroke-linecap:round;stroke-linejoin:round;stroke-miterlimit:4;stroke-dasharray:none;stroke-dashoffset:0;stroke-opacity:1;color-rendering:auto;image-rendering:auto;shape-rendering:auto;text-rendering:auto;enable-background:accumulate;stop-color:#000" transform="matrix(1.25805 0 0 1.25805 77.386 -313.327)"/><path transform="translate(77.386 39.012) scale(.33286)" d="M-182.027-110.627c-.013 1.203-.086 2.447-.69 3.05-1.812 1.813-2.833 3.587-3.299 5.337.307.031.61.067.9.111l4.6.826a1 1 0 0 0 1.04-.486c.906-1.563 1.868-3.104 1.912-4.791a3.36 3.36 0 0 0-.938-2.43c-.66-.673-1.607-1.129-2.871-1.46-.2-.057-.425-.108-.654-.157zM-178.408-81.266c.594 1.948.83 3.939.42 5.99-.018.088-.043.18-.06.268l1.91.059a1 1 0 0 0 .995-.739c.366-1.327.616-2.664.768-4.14a1 1 0 0 0-.887-1.094z" style="color:#000;font-style:normal;font-variant:normal;font-weight:400;font-stretch:normal;font-size:medium;line-height:normal;font-family:sans-serif;font-variant-ligatures:normal;font-variant-position:normal;font-variant-caps:normal;font-variant-numeric:normal;font-variant-alternates:normal;font-variant-east-asian:normal;font-feature-settings:normal;font-variation-settings:normal;text-indent:0;text-align:start;text-decoration:none;text-decoration-line:none;text-decoration-style:solid;text-decoration-color:#000;letter-spacing:normal;word-spacing:normal;text-transform:none;writing-mode:lr-tb;direction:ltr;text-orientation:mixed;dominant-baseline:auto;baseline-shift:baseline;text-anchor:start;white-space:normal;shape-padding:0;shape-margin:0;inline-size:0;clip-rule:nonzero;display:inline;overflow:visible;visibility:visible;isolation:auto;mix-blend-mode:normal;color-interpolation:sRGB;color-interpolation-filters:linearRGB;solid-color:#000;solid-opacity:1;vector-effect:none;fill:#91a1b2;fill-opacity:1;fill-rule:nonzero;stroke:none;stroke-width:2;stroke-linecap:round;stroke-linejoin:round;stroke-miterlimit:4;stroke-dasharray:none;stroke-dashoffset:0;stroke-opacity:1;color-rendering:auto;image-rendering:auto;shape-rendering:auto;text-rendering:auto;enable-background:accumulate;stop-color:#000"/><path transform="translate(77.386 39.012) scale(.33286)" d="M-178.213-92.432a1 1 0 0 0-.053.002 1 1 0 0 0-.826.547c-.536 1.07-1.595 2.1-2.95 3.055 1.789 3.097 3.561 6.239 4.095 9.52l2.51.21a1 1 0 0 0 1.078-.916c.396-4.504-.576-8.813-3.05-12.03a1 1 0 0 0-.804-.388z" style="color:#000;font-style:normal;font-variant:normal;font-weight:400;font-stretch:normal;font-size:medium;line-height:normal;font-family:sans-serif;font-variant-ligatures:normal;font-variant-position:normal;font-variant-caps:normal;font-variant-numeric:normal;font-variant-alternates:normal;font-variant-east-asian:normal;font-feature-settings:normal;font-variation-settings:normal;text-indent:0;text-align:start;text-decoration:none;text-decoration-line:none;text-decoration-style:solid;text-decoration-color:#000;letter-spacing:normal;word-spacing:normal;text-transform:none;writing-mode:lr-tb;direction:ltr;text-orientation:mixed;dominant-baseline:auto;baseline-shift:baseline;text-anchor:start;white-space:normal;shape-padding:0;shape-margin:0;inline-size:0;clip-rule:nonzero;display:inline;overflow:visible;visibility:visible;isolation:auto;mix-blend-mode:normal;color-interpolation:sRGB;color-interpolation-filters:linearRGB;solid-color:#000;solid-opacity:1;vector-effect:none;fill:#697480;fill-opacity:1;fill-rule:nonzero;stroke:none;stroke-width:2;stroke-linecap:round;stroke-linejoin:round;stroke-miterlimit:4;stroke-dasharray:none;stroke-dashoffset:0;stroke-opacity:1;color-rendering:auto;image-rendering:auto;shape-rendering:auto;text-rendering:auto;enable-background:accumulate;stop-color:#000"/><path transform="translate(77.386 39.012) scale(.33286)" d="M-185.432-95.434c1.05 2.802 2.833 5.595 4.42 8.44 1.61-1.112 2.944-2.408 3.729-3.96a1 1 0 0 0-.104-1.07c-.871-1.12-1.831-2.033-3.049-2.9a1 1 0 0 0-.406-.17c-1.437-.253-2.983-.354-4.59-.34z" style="color:#000;font-style:normal;font-variant:normal;font-weight:400;font-stretch:normal;font-size:medium;line-height:normal;font-family:sans-serif;font-variant-ligatures:normal;font-variant-position:normal;font-variant-caps:normal;font-variant-numeric:normal;font-variant-alternates:normal;font-variant-east-asian:normal;font-feature-settings:normal;font-variation-settings:normal;text-indent:0;text-align:start;text-decoration:none;text-decoration-line:none;text-decoration-style:solid;text-decoration-color:#000;letter-spacing:normal;word-spacing:normal;text-transform:none;writing-mode:lr-tb;direction:ltr;text-orientation:mixed;dominant-baseline:auto;baseline-shift:baseline;text-anchor:start;white-space:normal;shape-padding:0;shape-margin:0;inline-size:0;clip-rule:nonzero;display:inline;overflow:visible;visibility:visible;isolation:auto;mix-blend-mode:normal;color-interpolation:sRGB;color-interpolation-filters:linearRGB;solid-color:#000;solid-opacity:1;vector-effect:none;fill:#91a1b2;fill-opacity:1;fill-rule:nonzero;stroke:none;stroke-width:2;stroke-linecap:round;stroke-linejoin:round;stroke-miterlimit:4;stroke-dasharray:none;stroke-dashoffset:0;stroke-opacity:1;color-rendering:auto;image-rendering:auto;shape-rendering:auto;text-rendering:auto;enable-background:accumulate;stop-color:#000"/><path transform="translate(77.386 39.012) scale(.33286)" d="M-185.266-104.164c-1.865 3.64-1.015 6.462.676 9.986 1.153.013 2.264.07 3.268.24 1.063.17 1.607-.533.709-1.126-.55-.356-.785-.691-.908-1.057-.124-.366-.13-.813 0-1.381.258-1.136 1.087-2.632 1.972-4.156a1 1 0 0 0-.658-1.483l-4.555-.96-.05-.007c-.148-.022-.303-.037-.454-.056z" style="color:#000;font-style:normal;font-variant:normal;font-weight:400;font-stretch:normal;font-size:medium;line-height:normal;font-family:sans-serif;font-variant-ligatures:normal;font-variant-position:normal;font-variant-caps:normal;font-variant-numeric:normal;font-variant-alternates:normal;font-variant-east-asian:normal;font-feature-settings:normal;font-variation-settings:normal;text-indent:0;text-align:start;text-decoration:none;text-decoration-line:none;text-decoration-style:solid;text-decoration-color:#000;letter-spacing:normal;word-spacing:normal;text-transform:none;writing-mode:lr-tb;direction:ltr;text-orientation:mixed;dominant-baseline:auto;baseline-shift:baseline;text-anchor:start;white-space:normal;shape-padding:0;shape-margin:0;inline-size:0;clip-rule:nonzero;display:inline;overflow:visible;visibility:visible;isolation:auto;mix-blend-mode:normal;color-interpolation:sRGB;color-interpolation-filters:linearRGB;solid-color:#000;solid-opacity:1;vector-effect:none;fill:#697480;fill-opacity:1;fill-rule:nonzero;stroke:none;stroke-width:2;stroke-linecap:round;stroke-linejoin:round;stroke-miterlimit:4;stroke-dasharray:none;stroke-dashoffset:0;stroke-opacity:1;color-rendering:auto;image-rendering:auto;shape-rendering:auto;text-rendering:auto;enable-background:accumulate;stop-color:#000"/><path d="M-45.76 261.653a.851.851 0 0 0-.205.029l-6.746 1.785c-.963.254-1.955.385-2.951.385h-3.756a.798.798 0 0 0-.795.792v.266h3.492c.996 0 1.989-.13 2.952-.385l6.746-1.785a.882.882 0 0 1 1.1.848v2.644c.58 0 1.058-.477 1.058-1.058v-2.645a.885.885 0 0 0-.895-.876z" style="color:#000;font-style:normal;font-variant:normal;font-weight:400;font-stretch:normal;font-size:medium;line-height:normal;font-family:sans-serif;font-variant-ligatures:normal;font-variant-position:normal;font-variant-caps:normal;font-variant-numeric:normal;font-variant-alternates:normal;font-variant-east-asian:normal;font-feature-settings:normal;font-variation-settings:normal;text-indent:0;text-align:start;text-decoration:none;text-decoration-line:none;text-decoration-style:solid;text-decoration-color:#000;letter-spacing:normal;word-spacing:normal;text-transform:none;writing-mode:lr-tb;direction:ltr;text-orientation:mixed;dominant-baseline:auto;baseline-shift:baseline;text-anchor:start;white-space:normal;shape-padding:0;shape-margin:0;inline-size:0;clip-rule:nonzero;display:inline;overflow:visible;visibility:visible;isolation:auto;mix-blend-mode:normal;color-interpolation:sRGB;color-interpolation-filters:linearRGB;solid-color:#000;solid-opacity:1;vector-effect:none;fill:#311a12;fill-opacity:1;fill-rule:nonzero;stroke:none;stroke-width:.529167;stroke-linecap:round;stroke-linejoin:round;stroke-miterlimit:4;stroke-dasharray:none;stroke-dashoffset:0;stroke-opacity:1;color-rendering:auto;image-rendering:auto;shape-rendering:auto;text-rendering:auto;enable-background:accumulate;stop-color:#000" transform="matrix(1.25805 0 0 1.25805 77.386 -313.327)"/><path d="M-49.893 249.828a.265.265 0 1 0 0 .53c.982 0 1.427-.003 2.389.238a.265.265 0 1 0 .13-.514c-1.003-.25-1.537-.254-2.519-.254zm1.887 4.807c-.097-.561.3-1.12.545-1.543.235-.407.48-.81.48-1.25a.88.88 0 0 0-.257-.625c-.175-.173-.422-.293-.75-.379-.526-.148-1.452-.203-2.602-.193a32.88 32.88 0 0 0-3.8.26c-1.298.167-2.536.417-3.467.77-.466.178-.856.38-1.145.63-.289.25-.483.575-.465.939.083.656.482.959.88 1.145.199.088.378.063.573.088-.152.129-.222.132-.369.36-.156.24-.275.544-.25.888.026.343.2.705.559 1.044.172.163.328.184.494.235.217.065.592.063.963.056-.055.15-.119.195-.1.446.035.463.374 1.013 1.256 1.32l.001.001v.001c.009.003 1.059.252 2.464-.053-.1.203-.009.484.049.667.106.198.298.373.578.511 0 0 .283.137.69.127.26-.006 1.128-.23.982-.424-.031.056-.066.1-.059.221a.854.854 0 0 0 .346.64c.224.163.541.245.976.25.46 0 .715.275.745.651.016.336.07.647.146.946l-4.168 1.103c-.963.254-1.955.385-2.951.385h-2.457l.21-.784c.444.197.834.008.955-.315a1.086 1.086 0 0 0 1.31-.743 1.058 1.058 0 0 0-.457-1.161c.049-.093.082-.191.103-.292.215-.09.429-.139.594-.13a.264.264 0 0 0 .031-.527c-.221-.017-.456.048-.645.096-.064-.203-.185-.34-.297-.474a.846.846 0 0 1 .12-.032.265.265 0 0 0-.042-.526 2.4 2.4 0 0 0-.734.267c-.21-.068-.581.079-.77.219a.788.788 0 0 0-.199-.086.798.798 0 0 0-.996.704 1.06 1.06 0 0 0-.982.778c-.145.543.17 1.105.699 1.277-.069.58.295.855.77.909l-.219.82h-.75a.798.798 0 0 0-.795.792v.796c0 .435.36.792.795.792h13.494c.582 0 1.059-.477 1.059-1.058v-2.645a.882.882 0 0 0-1.1-.847l-1.261.334c.793-1.24 1.171-2.63 1.109-3.897-.043-.864-.295-1.676-.767-2.33a4.21 4.21 0 0 0-.819-.81c-.139-.087-.223-.228-.303-.344zm-.125-3.288a.28.28 0 0 0 .004 0c.276.072.435.165.515.245.08.08.102.144.102.25 0 .213-.177.585-.408.984-.39.66-.7 1.232-.601 1.934-1.474-.078-3.285.326-4.811.766a33.411 33.411 0 0 0-3.038 1.033c-.49.058-.84.003-1.062-.063-.213-.064-.276-.114-.285-.121-.279-.268-.376-.494-.39-.69a.91.91 0 0 1 .165-.562c.21-.324.545-.548.598-.582a37.582 37.582 0 0 1 3.105-.91c1.75-.432 3.874-.798 5.259-.586a.265.265 0 0 0 .08-.523c-1.549-.237-3.688.156-5.465.595a37.62 37.62 0 0 0-3.14.92c-.272.013-.603-.012-.868-.13-.266-.119-.462-.319-.555-.71 0-.162.065-.315.27-.492.213-.185.555-.371.986-.535.862-.327 2.073-.576 3.346-.74a32.349 32.349 0 0 1 3.738-.256c1.128-.01 2.065.064 2.455.173zm-7.156 6.981c-.754-.262-.882-.589-.902-.863a.855.855 0 0 1 .083-.44 32.955 32.955 0 0 1 2.922-.99c1.763-.369 3.402-.886 5.07-.705.23.172.497.392.673.6-.466.667-1.683 1.268-2.827 1.654-1.224.412-2.34.613-2.34.613-.92.267-1.785.373-2.673.133zm3.152 1.15c-.21-.102-.302-.204-.346-.287-.078-.192-.007-.322.078-.496.26-.05 1.214-.244 2.303-.611 1.109-.373 2.329-.888 2.975-1.687.274.587.45 1.212.48 1.747-.145 1.596-.423 2.96-1.388 4.053-.083-.219-.11-.58-.127-.814-.062-.41-.193-.679-.457-.909.31-.207.638-.267.922-.27a.265.265 0 1 0 0-.53c-.64.014-1.138.252-1.672.568-.26.014-.507-.066-.73-.152-.214-.212-.112-.437-.011-.7.66-.533 1.306-.418 1.964-.396a.265.265 0 1 0 .017-.53c-.306-.01-.688-.05-1.097 0a2.692 2.692 0 0 0-1.286.568c-.485.416-.895.511-1.184.519-.292.007-.439-.07-.439-.07m-6.08 2.912c-.082.099-.164.12-.293.105-.202-.074-.26-.182-.143-.415a.265.265 0 0 0-.216-.434c-.42.017-.606-.392-.541-.666a.525.525 0 0 1 .646-.374c.197.062.31.006.39-.134a.313.313 0 0 0-.011-.223.26.26 0 0 1-.02-.191.258.258 0 0 1 .323-.186c.084.015.131.075.167.124-.041.058-.079.117-.109.179a.265.265 0 0 0 .477.232c.198-.266.411-.451.648-.607a.557.557 0 0 1 .37.43c-.36.216-.68.513-.854.873a.265.265 0 1 0 .477.23c.035-.072.088-.146.148-.22.439.09.675.431.598.757-.16.361-.398.435-.684.362a.788.788 0 0 0-.055-.217c-.115-.156-.207-.185-.35-.137a.265.265 0 0 0-.136.347c.061.226-.077.337-.242.37a.26.26 0 0 1-.201-.096.265.265 0 0 0-.17-.14c-.079-.03-.164-.02-.22.03zm12.818.136v2.645c0 .295-.233.53-.529.53h-13.494a.26.26 0 0 1-.266-.264v-.796a.26.26 0 0 1 .266-.263h3.756c1.041 0 2.079-.136 3.086-.402 2.252-.593 4.498-1.19 6.746-1.786.257-.047.454.112.435.336z" style="color:#000;font-style:normal;font-variant:normal;font-weight:400;font-stretch:normal;font-size:medium;line-height:normal;font-family:sans-serif;font-variant-ligatures:normal;font-variant-position:normal;font-variant-caps:normal;font-variant-numeric:normal;font-variant-alternates:normal;font-variant-east-asian:normal;font-feature-settings:normal;font-variation-settings:normal;text-indent:0;text-align:start;text-decoration:none;text-decoration-line:none;text-decoration-style:solid;text-decoration-color:#000;letter-spacing:normal;word-spacing:normal;text-transform:none;writing-mode:lr-tb;direction:ltr;text-orientation:mixed;dominant-baseline:auto;baseline-shift:baseline;text-anchor:start;white-space:normal;shape-padding:0;shape-margin:0;inline-size:0;clip-rule:nonzero;display:inline;overflow:visible;visibility:visible;opacity:1;isolation:auto;mix-blend-mode:normal;color-interpolation:sRGB;color-interpolation-filters:linearRGB;solid-color:#000;solid-opacity:1;vector-effect:none;fill:#000;fill-opacity:1;fill-rule:nonzero;stroke:none;stroke-width:.529167;stroke-linecap:round;stroke-linejoin:round;stroke-miterlimit:4;stroke-dasharray:none;stroke-dashoffset:0;stroke-opacity:1;color-rendering:auto;image-rendering:auto;shape-rendering:auto;text-rendering:auto;enable-background:accumulate;stop-color:#000;stop-opacity:1" transform="matrix(1.25805 0 0 1.25805 77.386 -313.327)"/></g></svg>