<?xml version="1.0" encoding="UTF-8" standalone="no"?>
<svg
   xmlns:dc="http://purl.org/dc/elements/1.1/"
   xmlns:cc="http://creativecommons.org/ns#"
   xmlns:rdf="http://www.w3.org/1999/02/22-rdf-syntax-ns#"
   xmlns:svg="http://www.w3.org/2000/svg"
   xmlns="http://www.w3.org/2000/svg"
   xmlns:sodipodi="http://sodipodi.sourceforge.net/DTD/sodipodi-0.dtd"
   xmlns:inkscape="http://www.inkscape.org/namespaces/inkscape"
   inkscape:export-ydpi="576"
   inkscape:export-xdpi="576"
   inkscape:export-filename="E:\TR Design Studio Creative\Project Design\TR Creative Design\Icon Design\Project Hiring\Deemak\2 - Farming\Send\2 - Flat\1 - Wheat.png"
   sodipodi:docname="Template Export.svg"
   inkscape:version="1.0 (4035a4fb49, 2020-05-01)"
   id="svg831"
   version="1.1"
   viewBox="0 0 22.577778 22.577778"
   height="64pt"
   width="64pt">
  <defs
     id="defs825">
    <pattern
       y="0"
       x="0"
       height="6"
       width="6"
       patternUnits="userSpaceOnUse"
       id="EMFhbasepattern" />
    <pattern
       y="0"
       x="0"
       height="6"
       width="6"
       patternUnits="userSpaceOnUse"
       id="EMFhbasepattern-9" />
    <pattern
       y="0"
       x="0"
       height="6"
       width="6"
       patternUnits="userSpaceOnUse"
       id="EMFhbasepattern-0" />
    <pattern
       y="0"
       x="0"
       height="6"
       width="6"
       patternUnits="userSpaceOnUse"
       id="EMFhbasepattern-7" />
    <pattern
       y="0"
       x="0"
       height="6"
       width="6"
       patternUnits="userSpaceOnUse"
       id="EMFhbasepattern-2" />
    <pattern
       y="0"
       x="0"
       height="6"
       width="6"
       patternUnits="userSpaceOnUse"
       id="EMFhbasepattern-98" />
    <pattern
       y="0"
       x="0"
       height="6"
       width="6"
       patternUnits="userSpaceOnUse"
       id="EMFhbasepattern-6" />
    <pattern
       y="0"
       x="0"
       height="6"
       width="6"
       patternUnits="userSpaceOnUse"
       id="EMFhbasepattern-01" />
    <pattern
       y="0"
       x="0"
       height="6"
       width="6"
       patternUnits="userSpaceOnUse"
       id="EMFhbasepattern-07" />
    <pattern
       y="0"
       x="0"
       height="6"
       width="6"
       patternUnits="userSpaceOnUse"
       id="EMFhbasepattern-8" />
    <pattern
       y="0"
       x="0"
       height="6"
       width="6"
       patternUnits="userSpaceOnUse"
       id="EMFhbasepattern-4" />
    <pattern
       y="0"
       x="0"
       height="6"
       width="6"
       patternUnits="userSpaceOnUse"
       id="EMFhbasepattern-40" />
    <pattern
       y="0"
       x="0"
       height="6"
       width="6"
       patternUnits="userSpaceOnUse"
       id="EMFhbasepattern-08" />
    <pattern
       y="0"
       x="0"
       height="6"
       width="6"
       patternUnits="userSpaceOnUse"
       id="EMFhbasepattern-04" />
    <pattern
       y="0"
       x="0"
       height="6"
       width="6"
       patternUnits="userSpaceOnUse"
       id="EMFhbasepattern-014" />
    <pattern
       y="0"
       x="0"
       height="6"
       width="6"
       patternUnits="userSpaceOnUse"
       id="EMFhbasepattern-27" />
    <pattern
       y="0"
       x="0"
       height="6"
       width="6"
       patternUnits="userSpaceOnUse"
       id="EMFhbasepattern-09" />
    <pattern
       y="0"
       x="0"
       height="6"
       width="6"
       patternUnits="userSpaceOnUse"
       id="EMFhbasepattern-5" />
    <pattern
       y="0"
       x="0"
       height="6"
       width="6"
       patternUnits="userSpaceOnUse"
       id="EMFhbasepattern-018" />
  </defs>
  <sodipodi:namedview
     inkscape:document-rotation="0"
     inkscape:snap-global="true"
     inkscape:snap-nodes="false"
     inkscape:bbox-nodes="true"
     inkscape:snap-bbox="true"
     showguides="true"
     inkscape:snap-midpoints="true"
     inkscape:snap-smooth-nodes="true"
     inkscape:snap-intersection-paths="true"
     inkscape:object-paths="true"
     inkscape:showpageshadow="false"
     inkscape:pagecheckerboard="true"
     inkscape:window-maximized="1"
     inkscape:window-y="-8"
     inkscape:window-x="-8"
     inkscape:window-height="715"
     inkscape:window-width="1366"
     units="pt"
     showgrid="false"
     inkscape:current-layer="layer1"
     inkscape:document-units="pt"
     inkscape:cy="42.778201"
     inkscape:cx="34.109987"
     inkscape:zoom="4.4415145"
     inkscape:pageshadow="2"
     inkscape:pageopacity="0.0"
     borderopacity="1.0"
     bordercolor="#666666"
     pagecolor="#ffffff"
     id="base">
    <inkscape:grid
       id="grid1378"
       type="xygrid" />
    <sodipodi:guide
       inkscape:locked="false"
       id="guide1380"
       orientation="78.000048,0"
       position="0.97013831,21.607643" />
    <sodipodi:guide
       inkscape:locked="false"
       id="guide1382"
       orientation="0,78.000005"
       position="0.97013831,0.97013129" />
    <sodipodi:guide
       inkscape:locked="false"
       id="guide1384"
       orientation="-78.000048,0"
       position="21.607639,0.97013129" />
    <sodipodi:guide
       inkscape:locked="false"
       id="guide1386"
       orientation="0,-78.000005"
       position="21.607639,21.607643" />
  </sodipodi:namedview>
  <metadata
     id="metadata828">
    <rdf:RDF>
      <cc:Work
         rdf:about="">
        <dc:format>image/svg+xml</dc:format>
        <dc:type
           rdf:resource="http://purl.org/dc/dcmitype/StillImage" />
        <dc:title></dc:title>
      </cc:Work>
    </rdf:RDF>
  </metadata>
  <g
     transform="translate(0,-274.42223)"
     id="layer1"
     inkscape:groupmode="layer"
     inkscape:label="Icon">
    <g
       transform="matrix(1.2580549,0,0,1.2580549,77.385914,-38.905126)"
       style="display:inline"
       id="g682">
      <path
         id="path1888"
         d="m -58.080078,262.35352 a 0.2645835,0.2645835 0 0 0 -0.238281,0.19531 l -0.402344,1.5 a 0.2645835,0.2645835 0 0 0 0.1875,0.32226 0.2645835,0.2645835 0 0 0 0.324219,-0.18554 l 0.402343,-1.5 a 0.2645835,0.2645835 0 0 0 -0.1875,-0.32422 0.2645835,0.2645835 0 0 0 -0.08594,-0.008 z"
         style="color:#000000;font-style:normal;font-variant:normal;font-weight:normal;font-stretch:normal;font-size:medium;line-height:normal;font-family:sans-serif;font-variant-ligatures:normal;font-variant-position:normal;font-variant-caps:normal;font-variant-numeric:normal;font-variant-alternates:normal;font-variant-east-asian:normal;font-feature-settings:normal;font-variation-settings:normal;text-indent:0;text-align:start;text-decoration:none;text-decoration-line:none;text-decoration-style:solid;text-decoration-color:#000000;letter-spacing:normal;word-spacing:normal;text-transform:none;writing-mode:lr-tb;direction:ltr;text-orientation:mixed;dominant-baseline:auto;baseline-shift:baseline;text-anchor:start;white-space:normal;shape-padding:0;shape-margin:0;inline-size:0;clip-rule:nonzero;display:inline;overflow:visible;visibility:visible;opacity:1;isolation:auto;mix-blend-mode:normal;color-interpolation:sRGB;color-interpolation-filters:linearRGB;solid-color:#000000;solid-opacity:1;vector-effect:none;fill:#66342d;fill-opacity:1;fill-rule:nonzero;stroke:none;stroke-width:0.529167;stroke-linecap:round;stroke-linejoin:round;stroke-miterlimit:4;stroke-dasharray:none;stroke-dashoffset:0;stroke-opacity:1;color-rendering:auto;image-rendering:auto;shape-rendering:auto;text-rendering:auto;enable-background:accumulate;stop-color:#000000;stop-opacity:1" />
      <path
         id="path1812"
         transform="matrix(0.26458334,0,0,0.26458334,0,280.06666)"
         d="m -219.58008,-78.345703 c -1.38839,-0.08083 -2.70753,0.824511 -3.08008,2.214844 -0.0483,0.180461 -0.0774,0.363493 -0.0918,0.544921 -1.69851,0.07247 -3.24142,1.216296 -3.70313,2.939454 -0.55046,2.054319 0.63419,4.177403 2.63477,4.828125 -0.22369,1.484308 0.69873,2.954914 2.17969,3.351562 0.7039,0.1885 1.41916,0.106349 2.03515,-0.183594 0.50713,0.389543 1.13854,0.626953 1.81836,0.626953 1.08545,0 2.03477,-0.56574 2.55664,-1.404296 0.006,0.0017 0.0135,0.0062 0.0195,0.0078 2.12264,0.569613 4.3317,-0.70374 4.90039,-2.826172 0.47955,-1.789661 -0.35968,-3.623863 -1.90429,-4.5 0.18838,-0.468075 0.29492,-0.977831 0.29492,-1.509765 0,-2.228939 -1.82776,-4.052735 -4.0586,-4.052735 -0.74615,0 -1.43364,0.210831 -2.02929,0.541016 -0.29266,-0.219176 -0.62259,-0.385486 -0.97657,-0.480469 -0.19864,-0.05327 -0.39736,-0.08611 -0.5957,-0.09766 z"
         style="color:#000000;font-style:normal;font-variant:normal;font-weight:normal;font-stretch:normal;font-size:medium;line-height:normal;font-family:sans-serif;font-variant-ligatures:normal;font-variant-position:normal;font-variant-caps:normal;font-variant-numeric:normal;font-variant-alternates:normal;font-variant-east-asian:normal;font-feature-settings:normal;font-variation-settings:normal;text-indent:0;text-align:start;text-decoration:none;text-decoration-line:none;text-decoration-style:solid;text-decoration-color:#000000;letter-spacing:normal;word-spacing:normal;text-transform:none;writing-mode:lr-tb;direction:ltr;text-orientation:mixed;dominant-baseline:auto;baseline-shift:baseline;text-anchor:start;white-space:normal;shape-padding:0;shape-margin:0;inline-size:0;clip-rule:nonzero;display:inline;overflow:visible;visibility:visible;isolation:auto;mix-blend-mode:normal;color-interpolation:sRGB;color-interpolation-filters:linearRGB;solid-color:#000000;solid-opacity:1;vector-effect:none;fill:#8fc23f;fill-opacity:1;fill-rule:nonzero;stroke:none;stroke-width:2;stroke-linecap:round;stroke-linejoin:round;stroke-miterlimit:4;stroke-dasharray:none;stroke-dashoffset:0;stroke-opacity:1;color-rendering:auto;image-rendering:auto;shape-rendering:auto;text-rendering:auto;enable-background:accumulate;stop-color:#000000" />
      <path
         id="path1765"
         d="m -47.695312,259.67383 c -0.486831,0 -0.872669,0.17559 -1.160157,0.32812 -0.287487,0.15253 -0.498206,0.24155 -0.511719,0.24024 v 0.004 c -0.0062,-2.7e-4 -0.0094,-0.006 -0.01562,-0.006 a 0.26523325,0.26523325 0 0 0 -0.03516,0.5293 c 0.0065,6.3e-4 0.0092,-0.006 0.01563,-0.006 v 0.006 c 0.263907,0.009 0.425733,0.0725 0.527344,0.16602 0.101611,0.0935 0.16854,0.23509 0.185547,0.48242 0.02138,0.31091 0.0509,0.56722 0.09961,0.77539 0.04871,0.20817 0.09858,0.38731 0.285156,0.51172 0.09329,0.0622 0.225798,0.0838 0.332032,0.0586 0.106234,-0.0252 0.188526,-0.0794 0.265625,-0.14453 0.154198,-0.13028 0.298714,-0.31852 0.470703,-0.58594 0.406929,-0.6327 0.705708,-1.30599 0.894531,-1.98632 a 0.26460996,0.26460996 0 0 0 -0.246094,-0.33399 l -1.097656,-0.0371 a 0.26460996,0.26460996 0 0 0 -0.0098,-0.002 z"
         style="color:#000000;font-style:normal;font-variant:normal;font-weight:normal;font-stretch:normal;font-size:medium;line-height:normal;font-family:sans-serif;font-variant-ligatures:normal;font-variant-position:normal;font-variant-caps:normal;font-variant-numeric:normal;font-variant-alternates:normal;font-variant-east-asian:normal;font-feature-settings:normal;font-variation-settings:normal;text-indent:0;text-align:start;text-decoration:none;text-decoration-line:none;text-decoration-style:solid;text-decoration-color:#000000;letter-spacing:normal;word-spacing:normal;text-transform:none;writing-mode:lr-tb;direction:ltr;text-orientation:mixed;dominant-baseline:auto;baseline-shift:baseline;text-anchor:start;white-space:normal;shape-padding:0;shape-margin:0;inline-size:0;clip-rule:nonzero;display:inline;overflow:visible;visibility:visible;isolation:auto;mix-blend-mode:normal;color-interpolation:sRGB;color-interpolation-filters:linearRGB;solid-color:#000000;solid-opacity:1;vector-effect:none;fill:#91a1b2;fill-opacity:1;fill-rule:nonzero;stroke:none;stroke-width:0.529167;stroke-linecap:round;stroke-linejoin:round;stroke-miterlimit:4;stroke-dasharray:none;stroke-dashoffset:0;stroke-opacity:1;color-rendering:auto;image-rendering:auto;shape-rendering:auto;text-rendering:auto;enable-background:accumulate;stop-color:#000000" />
      <path
         id="path1751"
         d="m -49.224609,258.46484 c -0.409459,0.0514 -0.846753,0.19531 -1.265625,0.55078 a 0.26460996,0.26460996 0 0 0 -0.05664,0.0645 c 0,0 -0.237228,0.35916 -0.210937,0.79687 0.01315,0.21886 0.116299,0.47275 0.347656,0.64063 0.227802,0.1653 0.554953,0.24551 1.001953,0.24804 0.329114,0.0269 0.542042,-0.15959 0.800781,-0.29687 0.261925,-0.13897 0.549937,-0.26563 0.91211,-0.26563 l 1.091796,0.0332 a 0.26460996,0.26460996 0 0 0 0.263672,-0.19531 c 0.0968,-0.35119 0.162992,-0.70508 0.203125,-1.09571 a 0.26460996,0.26460996 0 0 0 -0.234375,-0.28906 l -1.736328,-0.18945 a 0.26460996,0.26460996 0 0 0 -0.01953,-0.002 c -0.306345,-0.0101 -0.688198,-0.0513 -1.097656,0 z"
         style="color:#000000;font-style:normal;font-variant:normal;font-weight:normal;font-stretch:normal;font-size:medium;line-height:normal;font-family:sans-serif;font-variant-ligatures:normal;font-variant-position:normal;font-variant-caps:normal;font-variant-numeric:normal;font-variant-alternates:normal;font-variant-east-asian:normal;font-feature-settings:normal;font-variation-settings:normal;text-indent:0;text-align:start;text-decoration:none;text-decoration-line:none;text-decoration-style:solid;text-decoration-color:#000000;letter-spacing:normal;word-spacing:normal;text-transform:none;writing-mode:lr-tb;direction:ltr;text-orientation:mixed;dominant-baseline:auto;baseline-shift:baseline;text-anchor:start;white-space:normal;shape-padding:0;shape-margin:0;inline-size:0;clip-rule:nonzero;display:inline;overflow:visible;visibility:visible;isolation:auto;mix-blend-mode:normal;color-interpolation:sRGB;color-interpolation-filters:linearRGB;solid-color:#000000;solid-opacity:1;vector-effect:none;fill:#aabfd0;fill-opacity:1;fill-rule:nonzero;stroke:none;stroke-width:0.529167;stroke-linecap:round;stroke-linejoin:round;stroke-miterlimit:4;stroke-dasharray:none;stroke-dashoffset:0;stroke-opacity:1;color-rendering:auto;image-rendering:auto;shape-rendering:auto;text-rendering:auto;enable-background:accumulate;stop-color:#000000" />
      <path
         id="path1736"
         d="m -47.166016,255.61133 a 0.26460996,0.26460996 0 0 0 -0.21875,0.14453 c -0.369509,0.73779 -1.668226,1.4072 -2.888672,1.82422 -1.220445,0.41701 -2.333984,0.61719 -2.333984,0.61719 a 0.26460996,0.26460996 0 0 0 -0.154297,0.0879 c 0,0 -0.212445,0.23133 -0.273437,0.57422 -0.0305,0.17144 -0.01855,0.38286 0.08789,0.58203 0.106066,0.19846 0.298062,0.37356 0.578125,0.51171 0,0 0.28316,0.13692 0.689453,0.12696 0.405669,-0.01 0.955974,-0.16203 1.53125,-0.66211 l 0.002,-0.002 c 0.671837,-0.56854 1.332116,-0.444 2.001953,-0.42188 l 1.726562,0.14453 a 0.26460996,0.26460996 0 0 0 0.285157,-0.24219 c 0.104907,-1.19184 -0.152266,-2.33224 -0.806641,-3.18359 a 0.26460996,0.26460996 0 0 0 -0.226563,-0.10156 z"
         style="color:#000000;font-style:normal;font-variant:normal;font-weight:normal;font-stretch:normal;font-size:medium;line-height:normal;font-family:sans-serif;font-variant-ligatures:normal;font-variant-position:normal;font-variant-caps:normal;font-variant-numeric:normal;font-variant-alternates:normal;font-variant-east-asian:normal;font-feature-settings:normal;font-variation-settings:normal;text-indent:0;text-align:start;text-decoration:none;text-decoration-line:none;text-decoration-style:solid;text-decoration-color:#000000;letter-spacing:normal;word-spacing:normal;text-transform:none;writing-mode:lr-tb;direction:ltr;text-orientation:mixed;dominant-baseline:auto;baseline-shift:baseline;text-anchor:start;white-space:normal;shape-padding:0;shape-margin:0;inline-size:0;clip-rule:nonzero;display:inline;overflow:visible;visibility:visible;isolation:auto;mix-blend-mode:normal;color-interpolation:sRGB;color-interpolation-filters:linearRGB;solid-color:#000000;solid-opacity:1;vector-effect:none;fill:#91a1b2;fill-opacity:1;fill-rule:nonzero;stroke:none;stroke-width:0.529167;stroke-linecap:round;stroke-linejoin:round;stroke-miterlimit:4;stroke-dasharray:none;stroke-dashoffset:0;stroke-opacity:1;color-rendering:auto;image-rendering:auto;shape-rendering:auto;text-rendering:auto;enable-background:accumulate;stop-color:#000000" />
      <path
         id="path1722"
         d="m -47.847656,254.90625 c -1.610238,-0.28419 -3.726766,0.14396 -5.464844,0.62891 -1.738078,0.48494 -3.091797,1.03906 -3.091797,1.03906 a 0.26460996,0.26460996 0 0 0 -0.128906,0.10937 c 0,0 -0.218963,0.35904 -0.183594,0.82227 0.03533,0.46268 0.373756,1.01285 1.255859,1.32031 0.0011,3.7e-4 8.92e-4,0.002 0.002,0.002 0.0089,0.003 1.251374,0.44952 2.966796,-0.11718 0.02191,-0.004 1.13772,-0.20398 2.390626,-0.63086 1.265146,-0.43106 2.675397,-1.05088 3.195312,-2.07813 a 0.26460996,0.26460996 0 0 0 -0.02734,-0.2832 c -0.230554,-0.2965 -0.484623,-0.5383 -0.80664,-0.76758 a 0.26460996,0.26460996 0 0 0 -0.107422,-0.0449 z"
         style="color:#000000;font-style:normal;font-variant:normal;font-weight:normal;font-stretch:normal;font-size:medium;line-height:normal;font-family:sans-serif;font-variant-ligatures:normal;font-variant-position:normal;font-variant-caps:normal;font-variant-numeric:normal;font-variant-alternates:normal;font-variant-east-asian:normal;font-feature-settings:normal;font-variation-settings:normal;text-indent:0;text-align:start;text-decoration:none;text-decoration-line:none;text-decoration-style:solid;text-decoration-color:#000000;letter-spacing:normal;word-spacing:normal;text-transform:none;writing-mode:lr-tb;direction:ltr;text-orientation:mixed;dominant-baseline:auto;baseline-shift:baseline;text-anchor:start;white-space:normal;shape-padding:0;shape-margin:0;inline-size:0;clip-rule:nonzero;display:inline;overflow:visible;visibility:visible;isolation:auto;mix-blend-mode:normal;color-interpolation:sRGB;color-interpolation-filters:linearRGB;solid-color:#000000;solid-opacity:1;vector-effect:none;fill:#aabfd0;fill-opacity:1;fill-rule:nonzero;stroke:none;stroke-width:0.529167;stroke-linecap:round;stroke-linejoin:round;stroke-miterlimit:4;stroke-dasharray:none;stroke-dashoffset:0;stroke-opacity:1;color-rendering:auto;image-rendering:auto;shape-rendering:auto;text-rendering:auto;enable-background:accumulate;stop-color:#000000" />
      <path
         id="path1780"
         d="m -56.421875,258.9668 a 0.2645835,0.2645835 0 0 0 -0.02539,0.004 c -0.23975,0.0358 -0.563154,0.1086 -0.86914,0.29492 -0.305987,0.18633 -0.591522,0.49715 -0.71875,0.95704 a 0.2645835,0.2645835 0 0 0 0.183594,0.32617 0.2645835,0.2645835 0 0 0 0.326171,-0.1836 c 0.09084,-0.32836 0.268748,-0.51518 0.484375,-0.64648 0.215628,-0.1313 0.471478,-0.19466 0.671875,-0.22461 a 0.2645835,0.2645835 0 0 0 0.222657,-0.30078 0.2645835,0.2645835 0 0 0 -0.275391,-0.22656 z"
         style="color:#000000;font-style:normal;font-variant:normal;font-weight:normal;font-stretch:normal;font-size:medium;line-height:normal;font-family:sans-serif;font-variant-ligatures:normal;font-variant-position:normal;font-variant-caps:normal;font-variant-numeric:normal;font-variant-alternates:normal;font-variant-east-asian:normal;font-feature-settings:normal;font-variation-settings:normal;text-indent:0;text-align:start;text-decoration:none;text-decoration-line:none;text-decoration-style:solid;text-decoration-color:#000000;letter-spacing:normal;word-spacing:normal;text-transform:none;writing-mode:lr-tb;direction:ltr;text-orientation:mixed;dominant-baseline:auto;baseline-shift:baseline;text-anchor:start;white-space:normal;shape-padding:0;shape-margin:0;inline-size:0;clip-rule:nonzero;display:inline;overflow:visible;visibility:visible;opacity:1;isolation:auto;mix-blend-mode:normal;color-interpolation:sRGB;color-interpolation-filters:linearRGB;solid-color:#000000;solid-opacity:1;vector-effect:none;fill:#697480;fill-opacity:1;fill-rule:nonzero;stroke:none;stroke-width:0.529167;stroke-linecap:round;stroke-linejoin:round;stroke-miterlimit:4;stroke-dasharray:none;stroke-dashoffset:0;stroke-opacity:1;color-rendering:auto;image-rendering:auto;shape-rendering:auto;text-rendering:auto;enable-background:accumulate;stop-color:#000000;stop-opacity:1" />
      <path
         id="path1784"
         d="m -55.302734,259.9043 c -0.812393,-0.21233 -1.699256,0.21574 -2.085938,1.2207 a 0.2645835,0.2645835 0 0 0 0.152344,0.3418 0.2645835,0.2645835 0 0 0 0.341797,-0.15039 c 0.313752,-0.81542 0.885614,-1.04974 1.457031,-0.90039 a 0.2645835,0.2645835 0 0 0 0.324219,-0.18946 0.2645835,0.2645835 0 0 0 -0.189453,-0.32226 z"
         style="color:#000000;font-style:normal;font-variant:normal;font-weight:normal;font-stretch:normal;font-size:medium;line-height:normal;font-family:sans-serif;font-variant-ligatures:normal;font-variant-position:normal;font-variant-caps:normal;font-variant-numeric:normal;font-variant-alternates:normal;font-variant-east-asian:normal;font-feature-settings:normal;font-variation-settings:normal;text-indent:0;text-align:start;text-decoration:none;text-decoration-line:none;text-decoration-style:solid;text-decoration-color:#000000;letter-spacing:normal;word-spacing:normal;text-transform:none;writing-mode:lr-tb;direction:ltr;text-orientation:mixed;dominant-baseline:auto;baseline-shift:baseline;text-anchor:start;white-space:normal;shape-padding:0;shape-margin:0;inline-size:0;clip-rule:nonzero;display:inline;overflow:visible;visibility:visible;opacity:1;isolation:auto;mix-blend-mode:normal;color-interpolation:sRGB;color-interpolation-filters:linearRGB;solid-color:#000000;solid-opacity:1;vector-effect:none;fill:#697480;fill-opacity:1;fill-rule:nonzero;stroke:none;stroke-width:0.529167;stroke-linecap:round;stroke-linejoin:round;stroke-miterlimit:4;stroke-dasharray:none;stroke-dashoffset:0;stroke-opacity:1;color-rendering:auto;image-rendering:auto;shape-rendering:auto;text-rendering:auto;enable-background:accumulate;stop-color:#000000;stop-opacity:1" />
      <path
         id="path1688"
         d="m -49.892578,249.82812 a 0.2645835,0.2645835 0 0 0 -0.265625,0.26563 0.2645835,0.2645835 0 0 0 0.265625,0.26367 c 0.981708,0 1.427094,-0.002 2.388672,0.23828 a 0.2645835,0.2645835 0 0 0 0.322265,-0.19336 0.2645835,0.2645835 0 0 0 -0.193359,-0.32031 c -1.001842,-0.25046 -1.53587,-0.25391 -2.517578,-0.25391 z"
         style="color:#000000;font-style:normal;font-variant:normal;font-weight:normal;font-stretch:normal;font-size:medium;line-height:normal;font-family:sans-serif;font-variant-ligatures:normal;font-variant-position:normal;font-variant-caps:normal;font-variant-numeric:normal;font-variant-alternates:normal;font-variant-east-asian:normal;font-feature-settings:normal;font-variation-settings:normal;text-indent:0;text-align:start;text-decoration:none;text-decoration-line:none;text-decoration-style:solid;text-decoration-color:#000000;letter-spacing:normal;word-spacing:normal;text-transform:none;writing-mode:lr-tb;direction:ltr;text-orientation:mixed;dominant-baseline:auto;baseline-shift:baseline;text-anchor:start;white-space:normal;shape-padding:0;shape-margin:0;inline-size:0;clip-rule:nonzero;display:inline;overflow:visible;visibility:visible;opacity:1;isolation:auto;mix-blend-mode:normal;color-interpolation:sRGB;color-interpolation-filters:linearRGB;solid-color:#000000;solid-opacity:1;vector-effect:none;fill:#697480;fill-opacity:1;fill-rule:nonzero;stroke:none;stroke-width:0.529167;stroke-linecap:round;stroke-linejoin:round;stroke-miterlimit:4;stroke-dasharray:none;stroke-dashoffset:0;stroke-opacity:1;color-rendering:auto;image-rendering:auto;shape-rendering:auto;text-rendering:auto;enable-background:accumulate;stop-color:#000000;stop-opacity:1" />
      <path
         id="path1694"
         d="m -50.589844,250.64453 c -1.149911,0.01 -2.503502,0.0923 -3.800781,0.25977 -1.297279,0.16748 -2.535284,0.41742 -3.466797,0.77148 -0.465756,0.17703 -0.855913,0.37864 -1.144531,0.62891 -0.288619,0.25026 -0.482956,0.57524 -0.464844,0.93945 a 0.26460996,0.26460996 0 0 0 0.0059,0.043 c 0.120905,0.56744 0.481063,0.92596 0.875,1.10156 0.393938,0.1756 0.813678,0.1942 1.140626,0.17578 a 0.26460996,0.26460996 0 0 0 0.07227,-0.0137 c 0,0 1.386311,-0.48754 3.136719,-0.91992 1.750407,-0.43238 3.873573,-0.79764 5.257812,-0.58594 l 1.216797,0.21875 a 0.26460996,0.26460996 0 0 0 0.275391,-0.1289 c 0.239931,-0.41357 0.494346,-0.82114 0.505859,-1.26758 0.0058,-0.22322 -0.07236,-0.46348 -0.248047,-0.64258 -0.174789,-0.17819 -0.42534,-0.29891 -0.759765,-0.38672 -0.525534,-0.14748 -1.451651,-0.20295 -2.601563,-0.19336 z"
         style="color:#000000;font-style:normal;font-variant:normal;font-weight:normal;font-stretch:normal;font-size:medium;line-height:normal;font-family:sans-serif;font-variant-ligatures:normal;font-variant-position:normal;font-variant-caps:normal;font-variant-numeric:normal;font-variant-alternates:normal;font-variant-east-asian:normal;font-feature-settings:normal;font-variation-settings:normal;text-indent:0;text-align:start;text-decoration:none;text-decoration-line:none;text-decoration-style:solid;text-decoration-color:#000000;letter-spacing:normal;word-spacing:normal;text-transform:none;writing-mode:lr-tb;direction:ltr;text-orientation:mixed;dominant-baseline:auto;baseline-shift:baseline;text-anchor:start;white-space:normal;shape-padding:0;shape-margin:0;inline-size:0;clip-rule:nonzero;display:inline;overflow:visible;visibility:visible;isolation:auto;mix-blend-mode:normal;color-interpolation:sRGB;color-interpolation-filters:linearRGB;solid-color:#000000;solid-opacity:1;vector-effect:none;fill:#aabfd0;fill-opacity:1;fill-rule:nonzero;stroke:none;stroke-width:0.529167;stroke-linecap:round;stroke-linejoin:round;stroke-miterlimit:4;stroke-dasharray:none;stroke-dashoffset:0;stroke-opacity:1;color-rendering:auto;image-rendering:auto;shape-rendering:auto;text-rendering:auto;enable-background:accumulate;stop-color:#000000" />
      <path
         id="path1708"
         d="m -48.898438,252.52148 c -1.54818,-0.23677 -3.687607,0.15677 -5.464843,0.59571 -1.777236,0.43893 -3.185547,0.93359 -3.185547,0.93359 a 0.26460996,0.26460996 0 0 0 -0.04883,0.0234 c 0,0 -0.473275,0.28025 -0.785156,0.76172 -0.155941,0.24073 -0.275648,0.54502 -0.25,0.88867 0.02565,0.34364 0.200115,0.70556 0.558593,1.04492 a 0.26460996,0.26460996 0 0 0 0.02344,0.0195 c 0,0 0.17366,0.12695 0.46875,0.21485 0.295089,0.0879 0.73253,0.15133 1.310547,0.0781 a 0.26460996,0.26460996 0 0 0 0.06641,-0.0176 c 0,0 1.329233,-0.54156 3.03125,-1.02148 1.702017,-0.47992 3.781852,-0.8858 5.199219,-0.64649 a 0.26460996,0.26460996 0 0 0 0.1875,-0.48242 c -0.14565,-0.0941 -0.207447,-0.18252 -0.240235,-0.27929 -0.03279,-0.0968 -0.03426,-0.21491 0,-0.36524 0.06852,-0.30065 0.287225,-0.69638 0.521485,-1.09961 a 0.26460996,0.26460996 0 0 0 -0.173829,-0.39258 l -1.205078,-0.2539 a 0.26460996,0.26460996 0 0 0 -0.01367,-0.002 z"
         style="color:#000000;font-style:normal;font-variant:normal;font-weight:normal;font-stretch:normal;font-size:medium;line-height:normal;font-family:sans-serif;font-variant-ligatures:normal;font-variant-position:normal;font-variant-caps:normal;font-variant-numeric:normal;font-variant-alternates:normal;font-variant-east-asian:normal;font-feature-settings:normal;font-variation-settings:normal;text-indent:0;text-align:start;text-decoration:none;text-decoration-line:none;text-decoration-style:solid;text-decoration-color:#000000;letter-spacing:normal;word-spacing:normal;text-transform:none;writing-mode:lr-tb;direction:ltr;text-orientation:mixed;dominant-baseline:auto;baseline-shift:baseline;text-anchor:start;white-space:normal;shape-padding:0;shape-margin:0;inline-size:0;clip-rule:nonzero;display:inline;overflow:visible;visibility:visible;isolation:auto;mix-blend-mode:normal;color-interpolation:sRGB;color-interpolation-filters:linearRGB;solid-color:#000000;solid-opacity:1;vector-effect:none;fill:#91a1b2;fill-opacity:1;fill-rule:nonzero;stroke:none;stroke-width:0.529167;stroke-linecap:round;stroke-linejoin:round;stroke-miterlimit:4;stroke-dasharray:none;stroke-dashoffset:0;stroke-opacity:1;color-rendering:auto;image-rendering:auto;shape-rendering:auto;text-rendering:auto;enable-background:accumulate;stop-color:#000000" />
      <path
         transform="matrix(0.26458334,0,0,0.26458334,0,280.06666)"
         d="m -177.79883,-76.986328 c -0.0205,0.566088 -0.0744,1.135579 -0.18945,1.710937 -0.5861,2.930513 -1.48892,6.133093 -2.39649,9.384766 0.0237,-0.0192 0.0508,-0.03297 0.0742,-0.05273 0.5828,-0.492397 1.12926,-1.204123 1.7793,-2.214844 1.538,-2.391307 2.6672,-4.936487 3.38086,-7.507813 a 1.0001006,1.0001006 0 0 0 -0.92969,-1.261718 z"
         style="color:#000000;font-style:normal;font-variant:normal;font-weight:normal;font-stretch:normal;font-size:medium;line-height:normal;font-family:sans-serif;font-variant-ligatures:normal;font-variant-position:normal;font-variant-caps:normal;font-variant-numeric:normal;font-variant-alternates:normal;font-variant-east-asian:normal;font-feature-settings:normal;font-variation-settings:normal;text-indent:0;text-align:start;text-decoration:none;text-decoration-line:none;text-decoration-style:solid;text-decoration-color:#000000;letter-spacing:normal;word-spacing:normal;text-transform:none;writing-mode:lr-tb;direction:ltr;text-orientation:mixed;dominant-baseline:auto;baseline-shift:baseline;text-anchor:start;white-space:normal;shape-padding:0;shape-margin:0;inline-size:0;clip-rule:nonzero;display:inline;overflow:visible;visibility:visible;isolation:auto;mix-blend-mode:normal;color-interpolation:sRGB;color-interpolation-filters:linearRGB;solid-color:#000000;solid-opacity:1;vector-effect:none;fill:#697480;fill-opacity:1;fill-rule:nonzero;stroke:none;stroke-width:2;stroke-linecap:round;stroke-linejoin:round;stroke-miterlimit:4;stroke-dasharray:none;stroke-dashoffset:0;stroke-opacity:1;color-rendering:auto;image-rendering:auto;shape-rendering:auto;text-rendering:auto;enable-background:accumulate;stop-color:#000000"
         id="path1932" />
      <path
         id="path1894"
         d="m -45.964844,261.68164 -6.746094,1.78516 c -0.962789,0.25485 -1.955222,0.38476 -2.951171,0.38476 h -3.75586 c -0.435243,0 -0.794923,0.35773 -0.794922,0.79297 v 0.79492 c -2e-6,0.43525 0.359678,0.79297 0.794922,0.79297 h 13.494141 c 0.581367,0 1.058594,-0.47722 1.058594,-1.05859 v -2.64453 c 5e-6,-0.56801 -0.550516,-0.99301 -1.09961,-0.84766 z"
         style="color:#000000;font-style:normal;font-variant:normal;font-weight:normal;font-stretch:normal;font-size:medium;line-height:normal;font-family:sans-serif;font-variant-ligatures:normal;font-variant-position:normal;font-variant-caps:normal;font-variant-numeric:normal;font-variant-alternates:normal;font-variant-east-asian:normal;font-feature-settings:normal;font-variation-settings:normal;text-indent:0;text-align:start;text-decoration:none;text-decoration-line:none;text-decoration-style:solid;text-decoration-color:#000000;letter-spacing:normal;word-spacing:normal;text-transform:none;writing-mode:lr-tb;direction:ltr;text-orientation:mixed;dominant-baseline:auto;baseline-shift:baseline;text-anchor:start;white-space:normal;shape-padding:0;shape-margin:0;inline-size:0;clip-rule:nonzero;display:inline;overflow:visible;visibility:visible;isolation:auto;mix-blend-mode:normal;color-interpolation:sRGB;color-interpolation-filters:linearRGB;solid-color:#000000;solid-opacity:1;vector-effect:none;fill:#65342c;fill-opacity:1;fill-rule:nonzero;stroke:none;stroke-width:0.529167;stroke-linecap:round;stroke-linejoin:round;stroke-miterlimit:4;stroke-dasharray:none;stroke-dashoffset:0;stroke-opacity:1;color-rendering:auto;image-rendering:auto;shape-rendering:auto;text-rendering:auto;enable-background:accumulate;stop-color:#000000" />
      <path
         transform="matrix(0.26458334,0,0,0.26458334,0,280.06666)"
         d="m -182.02734,-110.62695 c -0.0124,1.20316 -0.0861,2.44742 -0.68946,3.05078 -1.81261,1.81262 -2.83305,3.58577 -3.29882,5.33594 0.30695,0.0313 0.60993,0.0669 0.90039,0.11132 l 4.59961,0.82618 a 1.0001006,1.0001006 0 0 0 1.03906,-0.48633 c 0.90682,-1.5631 1.86859,-3.10369 1.91211,-4.79102 0.0219,-0.84366 -0.27349,-1.75277 -0.9375,-2.42969 -0.66062,-0.67347 -1.60713,-1.12905 -2.8711,-1.46093 -0.19952,-0.056 -0.42489,-0.10718 -0.65429,-0.15625 z"
         style="color:#000000;font-style:normal;font-variant:normal;font-weight:normal;font-stretch:normal;font-size:medium;line-height:normal;font-family:sans-serif;font-variant-ligatures:normal;font-variant-position:normal;font-variant-caps:normal;font-variant-numeric:normal;font-variant-alternates:normal;font-variant-east-asian:normal;font-feature-settings:normal;font-variation-settings:normal;text-indent:0;text-align:start;text-decoration:none;text-decoration-line:none;text-decoration-style:solid;text-decoration-color:#000000;letter-spacing:normal;word-spacing:normal;text-transform:none;writing-mode:lr-tb;direction:ltr;text-orientation:mixed;dominant-baseline:auto;baseline-shift:baseline;text-anchor:start;white-space:normal;shape-padding:0;shape-margin:0;inline-size:0;clip-rule:nonzero;display:inline;overflow:visible;visibility:visible;isolation:auto;mix-blend-mode:normal;color-interpolation:sRGB;color-interpolation-filters:linearRGB;solid-color:#000000;solid-opacity:1;vector-effect:none;fill:#91a1b2;fill-opacity:1;fill-rule:nonzero;stroke:none;stroke-width:2;stroke-linecap:round;stroke-linejoin:round;stroke-miterlimit:4;stroke-dasharray:none;stroke-dashoffset:0;stroke-opacity:1;color-rendering:auto;image-rendering:auto;shape-rendering:auto;text-rendering:auto;enable-background:accumulate;stop-color:#000000"
         id="path1906" />
      <path
         transform="matrix(0.26458334,0,0,0.26458334,0,280.06666)"
         d="m -178.4082,-81.265625 c 0.59448,1.947408 0.83026,3.938543 0.41992,5.990234 -0.0174,0.08709 -0.0426,0.180049 -0.0606,0.267579 l 1.91016,0.05859 a 1.0001006,1.0001006 0 0 0 0.99609,-0.738281 c 0.36586,-1.327332 0.6159,-2.664228 0.76758,-4.140625 a 1.0001006,1.0001006 0 0 0 -0.88672,-1.09375 z"
         style="color:#000000;font-style:normal;font-variant:normal;font-weight:normal;font-stretch:normal;font-size:medium;line-height:normal;font-family:sans-serif;font-variant-ligatures:normal;font-variant-position:normal;font-variant-caps:normal;font-variant-numeric:normal;font-variant-alternates:normal;font-variant-east-asian:normal;font-feature-settings:normal;font-variation-settings:normal;text-indent:0;text-align:start;text-decoration:none;text-decoration-line:none;text-decoration-style:solid;text-decoration-color:#000000;letter-spacing:normal;word-spacing:normal;text-transform:none;writing-mode:lr-tb;direction:ltr;text-orientation:mixed;dominant-baseline:auto;baseline-shift:baseline;text-anchor:start;white-space:normal;shape-padding:0;shape-margin:0;inline-size:0;clip-rule:nonzero;display:inline;overflow:visible;visibility:visible;isolation:auto;mix-blend-mode:normal;color-interpolation:sRGB;color-interpolation-filters:linearRGB;solid-color:#000000;solid-opacity:1;vector-effect:none;fill:#91a1b2;fill-opacity:1;fill-rule:nonzero;stroke:none;stroke-width:2;stroke-linecap:round;stroke-linejoin:round;stroke-miterlimit:4;stroke-dasharray:none;stroke-dashoffset:0;stroke-opacity:1;color-rendering:auto;image-rendering:auto;shape-rendering:auto;text-rendering:auto;enable-background:accumulate;stop-color:#000000"
         id="path1926" />
      <path
         transform="matrix(0.26458334,0,0,0.26458334,0,280.06666)"
         d="m -178.21289,-92.431641 a 1.0001006,1.0001006 0 0 0 -0.0527,0.002 1.0001006,1.0001006 0 0 0 -0.82618,0.546876 c -0.53609,1.070407 -1.59546,2.099783 -2.95117,3.054687 1.78972,3.097199 3.56219,6.239123 4.0957,9.519531 l 2.50977,0.210938 a 1.0001006,1.0001006 0 0 0 1.07812,-0.916016 c 0.3965,-4.504592 -0.57559,-8.813549 -3.04882,-12.03125 a 1.0001006,1.0001006 0 0 0 -0.80469,-0.386719 z"
         style="color:#000000;font-style:normal;font-variant:normal;font-weight:normal;font-stretch:normal;font-size:medium;line-height:normal;font-family:sans-serif;font-variant-ligatures:normal;font-variant-position:normal;font-variant-caps:normal;font-variant-numeric:normal;font-variant-alternates:normal;font-variant-east-asian:normal;font-feature-settings:normal;font-variation-settings:normal;text-indent:0;text-align:start;text-decoration:none;text-decoration-line:none;text-decoration-style:solid;text-decoration-color:#000000;letter-spacing:normal;word-spacing:normal;text-transform:none;writing-mode:lr-tb;direction:ltr;text-orientation:mixed;dominant-baseline:auto;baseline-shift:baseline;text-anchor:start;white-space:normal;shape-padding:0;shape-margin:0;inline-size:0;clip-rule:nonzero;display:inline;overflow:visible;visibility:visible;isolation:auto;mix-blend-mode:normal;color-interpolation:sRGB;color-interpolation-filters:linearRGB;solid-color:#000000;solid-opacity:1;vector-effect:none;fill:#697480;fill-opacity:1;fill-rule:nonzero;stroke:none;stroke-width:2;stroke-linecap:round;stroke-linejoin:round;stroke-miterlimit:4;stroke-dasharray:none;stroke-dashoffset:0;stroke-opacity:1;color-rendering:auto;image-rendering:auto;shape-rendering:auto;text-rendering:auto;enable-background:accumulate;stop-color:#000000"
         id="path1921" />
      <path
         transform="matrix(0.26458334,0,0,0.26458334,0,280.06666)"
         d="m -185.43164,-95.433594 c 1.04883,2.8017 2.83239,5.594221 4.41992,8.439453 1.60926,-1.112103 2.94362,-2.408184 3.72852,-3.958984 a 1.0001006,1.0001006 0 0 0 -0.10352,-1.070313 c -0.87138,-1.120629 -1.83175,-2.03382 -3.04883,-2.90039 a 1.0001006,1.0001006 0 0 0 -0.40625,-0.169922 c -1.43709,-0.253631 -2.98339,-0.35383 -4.58984,-0.339844 z"
         style="color:#000000;font-style:normal;font-variant:normal;font-weight:normal;font-stretch:normal;font-size:medium;line-height:normal;font-family:sans-serif;font-variant-ligatures:normal;font-variant-position:normal;font-variant-caps:normal;font-variant-numeric:normal;font-variant-alternates:normal;font-variant-east-asian:normal;font-feature-settings:normal;font-variation-settings:normal;text-indent:0;text-align:start;text-decoration:none;text-decoration-line:none;text-decoration-style:solid;text-decoration-color:#000000;letter-spacing:normal;word-spacing:normal;text-transform:none;writing-mode:lr-tb;direction:ltr;text-orientation:mixed;dominant-baseline:auto;baseline-shift:baseline;text-anchor:start;white-space:normal;shape-padding:0;shape-margin:0;inline-size:0;clip-rule:nonzero;display:inline;overflow:visible;visibility:visible;isolation:auto;mix-blend-mode:normal;color-interpolation:sRGB;color-interpolation-filters:linearRGB;solid-color:#000000;solid-opacity:1;vector-effect:none;fill:#91a1b2;fill-opacity:1;fill-rule:nonzero;stroke:none;stroke-width:2;stroke-linecap:round;stroke-linejoin:round;stroke-miterlimit:4;stroke-dasharray:none;stroke-dashoffset:0;stroke-opacity:1;color-rendering:auto;image-rendering:auto;shape-rendering:auto;text-rendering:auto;enable-background:accumulate;stop-color:#000000"
         id="path1916" />
      <path
         transform="matrix(0.26458334,0,0,0.26458334,0,280.06666)"
         d="m -185.26562,-104.16406 c -1.86495,3.64073 -1.01522,7.157761 0.67578,10.681638 1.15312,0.01251 2.26428,0.07084 3.26757,0.240234 a 1.0001006,1.0001006 0 0 0 0.70899,-1.822265 c -0.55049,-0.355654 -0.78428,-0.690896 -0.9082,-1.056641 -0.12394,-0.365858 -0.12949,-0.812683 0,-1.380859 0.25897,-1.136315 1.08726,-2.632227 1.97265,-4.156247 a 1.0001006,1.0001006 0 0 0 -0.6582,-1.48242 l -4.55469,-0.96094 a 1.0001006,1.0001006 0 0 0 -0.0508,-0.006 c -0.14755,-0.0226 -0.30279,-0.0371 -0.45312,-0.0566 z"
         style="color:#000000;font-style:normal;font-variant:normal;font-weight:normal;font-stretch:normal;font-size:medium;line-height:normal;font-family:sans-serif;font-variant-ligatures:normal;font-variant-position:normal;font-variant-caps:normal;font-variant-numeric:normal;font-variant-alternates:normal;font-variant-east-asian:normal;font-feature-settings:normal;font-variation-settings:normal;text-indent:0;text-align:start;text-decoration:none;text-decoration-line:none;text-decoration-style:solid;text-decoration-color:#000000;letter-spacing:normal;word-spacing:normal;text-transform:none;writing-mode:lr-tb;direction:ltr;text-orientation:mixed;dominant-baseline:auto;baseline-shift:baseline;text-anchor:start;white-space:normal;shape-padding:0;shape-margin:0;inline-size:0;clip-rule:nonzero;display:inline;overflow:visible;visibility:visible;isolation:auto;mix-blend-mode:normal;color-interpolation:sRGB;color-interpolation-filters:linearRGB;solid-color:#000000;solid-opacity:1;vector-effect:none;fill:#697480;fill-opacity:1;fill-rule:nonzero;stroke:none;stroke-width:2;stroke-linecap:round;stroke-linejoin:round;stroke-miterlimit:4;stroke-dasharray:none;stroke-dashoffset:0;stroke-opacity:1;color-rendering:auto;image-rendering:auto;shape-rendering:auto;text-rendering:auto;enable-background:accumulate;stop-color:#000000"
         id="path1911" />
      <path
         d="m -45.759998,261.6528 c -0.0676,10e-4 -0.136001,0.0108 -0.20464,0.0289 l -6.746359,1.7849 c -0.962787,0.25485 -1.955292,0.38499 -2.951239,0.38499 h -3.755845 c -0.435243,0 -0.794785,0.35748 -0.794782,0.79272 v 0.26561 h 3.492294 c 0.995947,0 1.988452,-0.13014 2.951239,-0.38499 l 6.746359,-1.7849 c 0.549095,-0.14535 1.099164,0.27948 1.099159,0.84749 v 2.6448 c 0.581366,0 1.058333,-0.47696 1.058333,-1.05833 v -2.6448 c 3e-6,-0.49701 -0.421296,-0.88469 -0.894519,-0.87643 z"
         style="color:#000000;font-style:normal;font-variant:normal;font-weight:normal;font-stretch:normal;font-size:medium;line-height:normal;font-family:sans-serif;font-variant-ligatures:normal;font-variant-position:normal;font-variant-caps:normal;font-variant-numeric:normal;font-variant-alternates:normal;font-variant-east-asian:normal;font-feature-settings:normal;font-variation-settings:normal;text-indent:0;text-align:start;text-decoration:none;text-decoration-line:none;text-decoration-style:solid;text-decoration-color:#000000;letter-spacing:normal;word-spacing:normal;text-transform:none;writing-mode:lr-tb;direction:ltr;text-orientation:mixed;dominant-baseline:auto;baseline-shift:baseline;text-anchor:start;white-space:normal;shape-padding:0;shape-margin:0;inline-size:0;clip-rule:nonzero;display:inline;overflow:visible;visibility:visible;isolation:auto;mix-blend-mode:normal;color-interpolation:sRGB;color-interpolation-filters:linearRGB;solid-color:#000000;solid-opacity:1;vector-effect:none;fill:#311a12;fill-opacity:1;fill-rule:nonzero;stroke:none;stroke-width:0.529167;stroke-linecap:round;stroke-linejoin:round;stroke-miterlimit:4;stroke-dasharray:none;stroke-dashoffset:0;stroke-opacity:1;color-rendering:auto;image-rendering:auto;shape-rendering:auto;text-rendering:auto;enable-background:accumulate;stop-color:#000000"
         id="path1942" />
    </g>
  </g>
</svg>
