<svg xmlns="http://www.w3.org/2000/svg" viewBox="0 0 22.578 22.578" height="64pt" width="64pt"><g style="display:inline"><path d="M-23.36 292.74a.265.265 0 0 0-.263.266.265.265 0 0 0 .264.264h.795a.265.265 0 0 0 .263-.264.265.265 0 0 0-.263-.266z" style="color:#000;font-style:normal;font-variant:normal;font-weight:400;font-stretch:normal;font-size:medium;line-height:normal;font-family:sans-serif;font-variant-ligatures:normal;font-variant-position:normal;font-variant-caps:normal;font-variant-numeric:normal;font-variant-alternates:normal;font-variant-east-asian:normal;font-feature-settings:normal;font-variation-settings:normal;text-indent:0;text-align:start;text-decoration:none;text-decoration-line:none;text-decoration-style:solid;text-decoration-color:#000;letter-spacing:normal;word-spacing:normal;text-transform:none;writing-mode:lr-tb;direction:ltr;text-orientation:mixed;dominant-baseline:auto;baseline-shift:baseline;text-anchor:start;white-space:normal;shape-padding:0;shape-margin:0;inline-size:0;clip-rule:nonzero;display:inline;overflow:visible;visibility:visible;opacity:1;isolation:auto;mix-blend-mode:normal;color-interpolation:sRGB;color-interpolation-filters:linearRGB;solid-color:#000;solid-opacity:1;vector-effect:none;fill:#5b6571;fill-opacity:1;fill-rule:evenodd;stroke:none;stroke-width:.529167;stroke-linecap:round;stroke-linejoin:round;stroke-miterlimit:4;stroke-dasharray:none;stroke-dashoffset:0;stroke-opacity:1;color-rendering:auto;image-rendering:auto;shape-rendering:auto;text-rendering:auto;enable-background:accumulate;stop-color:#000;stop-opacity:1" transform="matrix(1.25804 0 0 1.25804 39.011 -351.666)"/><path d="M-22.564 289.477a.265.265 0 0 0-.266.265v3.264a.265.265 0 0 0 .266.264h1.056a.265.265 0 0 0 .266-.264v-3.264a.265.265 0 0 0-.266-.265z" style="color:#000;font-style:normal;font-variant:normal;font-weight:400;font-stretch:normal;font-size:medium;line-height:normal;font-family:sans-serif;font-variant-ligatures:normal;font-variant-position:normal;font-variant-caps:normal;font-variant-numeric:normal;font-variant-alternates:normal;font-variant-east-asian:normal;font-feature-settings:normal;font-variation-settings:normal;text-indent:0;text-align:start;text-decoration:none;text-decoration-line:none;text-decoration-style:solid;text-decoration-color:#000;letter-spacing:normal;word-spacing:normal;text-transform:none;writing-mode:lr-tb;direction:ltr;text-orientation:mixed;dominant-baseline:auto;baseline-shift:baseline;text-anchor:start;white-space:normal;shape-padding:0;shape-margin:0;inline-size:0;clip-rule:nonzero;display:inline;overflow:visible;visibility:visible;isolation:auto;mix-blend-mode:normal;color-interpolation:sRGB;color-interpolation-filters:linearRGB;solid-color:#000;solid-opacity:1;vector-effect:none;fill:#3a4d5c;fill-opacity:1;fill-rule:nonzero;stroke:none;stroke-width:.529167;stroke-linecap:round;stroke-linejoin:round;stroke-miterlimit:4;stroke-dasharray:none;stroke-dashoffset:0;stroke-opacity:1;color-rendering:auto;image-rendering:auto;shape-rendering:auto;text-rendering:auto;enable-background:accumulate;stop-color:#000" transform="matrix(1.25804 0 0 1.25804 39.011 -351.666)"/><path d="M-22.564 292.74a.265.265 0 0 0-.266.266v1.777a.568.568 0 0 1-.53.381.569.569 0 0 1-.54-.39.265.265 0 0 0-.252-.182h-1.041a.265.265 0 0 0-.262.3 2.12 2.12 0 0 0 2.096 1.817 2.12 2.12 0 0 0 2.117-2.115v-1.588a.265.265 0 0 0-.266-.266z" style="color:#000;font-style:normal;font-variant:normal;font-weight:400;font-stretch:normal;font-size:medium;line-height:normal;font-family:sans-serif;font-variant-ligatures:normal;font-variant-position:normal;font-variant-caps:normal;font-variant-numeric:normal;font-variant-alternates:normal;font-variant-east-asian:normal;font-feature-settings:normal;font-variation-settings:normal;text-indent:0;text-align:start;text-decoration:none;text-decoration-line:none;text-decoration-style:solid;text-decoration-color:#000;letter-spacing:normal;word-spacing:normal;text-transform:none;writing-mode:lr-tb;direction:ltr;text-orientation:mixed;dominant-baseline:auto;baseline-shift:baseline;text-anchor:start;white-space:normal;shape-padding:0;shape-margin:0;inline-size:0;clip-rule:nonzero;display:inline;overflow:visible;visibility:visible;isolation:auto;mix-blend-mode:normal;color-interpolation:sRGB;color-interpolation-filters:linearRGB;solid-color:#000;solid-opacity:1;vector-effect:none;fill:#3a4d5c;fill-opacity:1;fill-rule:nonzero;stroke:none;stroke-width:.529167;stroke-linecap:round;stroke-linejoin:round;stroke-miterlimit:4;stroke-dasharray:none;stroke-dashoffset:0;stroke-opacity:1;color-rendering:auto;image-rendering:auto;shape-rendering:auto;text-rendering:auto;enable-background:accumulate;stop-color:#000" transform="matrix(1.25804 0 0 1.25804 39.011 -351.666)"/><path d="M-22.04 280.305c-.055 0-.109.019-.153.052-.633.471-1.092 1.117-1.254 1.954-3.695.669-6.508 3.88-6.508 7.775.001.266.351.364.49.137.3-.491.847-.827 1.475-.827.953 0 1.72.783 1.72 1.606 0 .217.2.129.375 0 1.02-.76 1.656-1.469 3.799-1.385l.05.213h.023c1.393-.069 2.693.093 3.826 1.174.169.16.394.23.394-.002 0-.822.766-1.605 1.72-1.605a1.73 1.73 0 0 1 1.476.826c.139.227.488.13.49-.137 0-3.894-2.813-7.106-6.508-7.775-.164-.836-.622-1.483-1.254-1.953a.264.264 0 0 0-.16-.053z" style="color:#000;font-style:normal;font-variant:normal;font-weight:400;font-stretch:normal;font-size:medium;line-height:normal;font-family:sans-serif;font-variant-ligatures:normal;font-variant-position:normal;font-variant-caps:normal;font-variant-numeric:normal;font-variant-alternates:normal;font-variant-east-asian:normal;font-feature-settings:normal;font-variation-settings:normal;text-indent:0;text-align:start;text-decoration:none;text-decoration-line:none;text-decoration-style:solid;text-decoration-color:#000;letter-spacing:normal;word-spacing:normal;text-transform:none;writing-mode:lr-tb;direction:ltr;text-orientation:mixed;dominant-baseline:auto;baseline-shift:baseline;text-anchor:start;white-space:normal;shape-padding:0;shape-margin:0;inline-size:0;clip-rule:nonzero;display:inline;overflow:visible;visibility:visible;isolation:auto;mix-blend-mode:normal;color-interpolation:sRGB;color-interpolation-filters:linearRGB;solid-color:#000;solid-opacity:1;vector-effect:none;fill:#fece41;fill-opacity:1;fill-rule:nonzero;stroke:none;stroke-width:.529167;stroke-linecap:round;stroke-linejoin:round;stroke-miterlimit:4;stroke-dasharray:none;stroke-dashoffset:0;stroke-opacity:1;color-rendering:auto;image-rendering:auto;shape-rendering:auto;text-rendering:auto;enable-background:accumulate;stop-color:#000" transform="matrix(1.25804 0 0 1.25804 39.011 -351.666)"/><path d="M-22.565 289.476a.265.265 0 0 0-.265.266v1.058a.265.265 0 0 1 .265-.265h1.057a.265.265 0 0 1 .266.265v-1.058a.265.265 0 0 0-.266-.266z" style="color:#000;font-style:normal;font-variant:normal;font-weight:400;font-stretch:normal;font-size:medium;line-height:normal;font-family:sans-serif;font-variant-ligatures:normal;font-variant-position:normal;font-variant-caps:normal;font-variant-numeric:normal;font-variant-alternates:normal;font-variant-east-asian:normal;font-feature-settings:normal;font-variation-settings:normal;text-indent:0;text-align:start;text-decoration:none;text-decoration-line:none;text-decoration-style:solid;text-decoration-color:#000;letter-spacing:normal;word-spacing:normal;text-transform:none;writing-mode:lr-tb;direction:ltr;text-orientation:mixed;dominant-baseline:auto;baseline-shift:baseline;text-anchor:start;white-space:normal;shape-padding:0;shape-margin:0;inline-size:0;clip-rule:nonzero;display:inline;overflow:visible;visibility:visible;isolation:auto;mix-blend-mode:normal;color-interpolation:sRGB;color-interpolation-filters:linearRGB;solid-color:#000;solid-opacity:1;vector-effect:none;fill:#2f414d;fill-opacity:1;fill-rule:nonzero;stroke:none;stroke-width:.529167;stroke-linecap:round;stroke-linejoin:round;stroke-miterlimit:4;stroke-dasharray:none;stroke-dashoffset:0;stroke-opacity:1;color-rendering:auto;image-rendering:auto;shape-rendering:auto;text-rendering:auto;enable-background:accumulate;stop-color:#000" transform="matrix(1.25804 0 0 1.25804 39.011 -351.666)"/><path d="M-22.04 282.156c-.055.001-.109.02-.153.053-2.678 1.995-4.423 4.753-4.075 8.816.02.205.177.128.343.006 1.021-.76 1.734-1.285 3.514-1.277 1.78.007 3.14-.08 4.273 1.002.16.151.313.49.333.27.35-4.064-1.396-6.822-4.074-8.817a.264.264 0 0 0-.16-.053z" style="color:#000;font-style:normal;font-variant:normal;font-weight:400;font-stretch:normal;font-size:medium;line-height:normal;font-family:sans-serif;font-variant-ligatures:normal;font-variant-position:normal;font-variant-caps:normal;font-variant-numeric:normal;font-variant-alternates:normal;font-variant-east-asian:normal;font-feature-settings:normal;font-variation-settings:normal;text-indent:0;text-align:start;text-decoration:none;text-decoration-line:none;text-decoration-style:solid;text-decoration-color:#000;letter-spacing:normal;word-spacing:normal;text-transform:none;writing-mode:lr-tb;direction:ltr;text-orientation:mixed;dominant-baseline:auto;baseline-shift:baseline;text-anchor:start;white-space:normal;shape-padding:0;shape-margin:0;inline-size:0;clip-rule:nonzero;display:inline;overflow:visible;visibility:visible;isolation:auto;mix-blend-mode:normal;color-interpolation:sRGB;color-interpolation-filters:linearRGB;solid-color:#000;solid-opacity:1;vector-effect:none;fill:#feb701;fill-opacity:1;fill-rule:nonzero;stroke:none;stroke-width:.529167;stroke-linecap:round;stroke-linejoin:round;stroke-miterlimit:4;stroke-dasharray:none;stroke-dashoffset:0;stroke-opacity:1;color-rendering:auto;image-rendering:auto;shape-rendering:auto;text-rendering:auto;enable-background:accumulate;stop-color:#000" transform="matrix(1.25804 0 0 1.25804 39.011 -351.666)"/><path transform="matrix(.33286 0 0 .33286 39.011 .67)" d="M-83.297 7.898a1 1 0 0 0-.584.2c-.138.103-.269.212-.406.316v26.47c.673.026 1.341.01 2.002.007V8.414c-.137-.104-.268-.213-.406-.316a1 1 0 0 0-.606-.2z" style="color:#000;font-style:normal;font-variant:normal;font-weight:400;font-stretch:normal;font-size:medium;line-height:normal;font-family:sans-serif;font-variant-ligatures:normal;font-variant-position:normal;font-variant-caps:normal;font-variant-numeric:normal;font-variant-alternates:normal;font-variant-east-asian:normal;font-feature-settings:normal;font-variation-settings:normal;text-indent:0;text-align:start;text-decoration:none;text-decoration-line:none;text-decoration-style:solid;text-decoration-color:#000;letter-spacing:normal;word-spacing:normal;text-transform:none;writing-mode:lr-tb;direction:ltr;text-orientation:mixed;dominant-baseline:auto;baseline-shift:baseline;text-anchor:start;white-space:normal;shape-padding:0;shape-margin:0;inline-size:0;clip-rule:nonzero;display:inline;overflow:visible;visibility:visible;opacity:1;isolation:auto;mix-blend-mode:normal;color-interpolation:sRGB;color-interpolation-filters:linearRGB;solid-color:#000;solid-opacity:1;vector-effect:none;fill:#fece41;fill-opacity:1;fill-rule:nonzero;stroke:none;stroke-width:2;stroke-linecap:round;stroke-linejoin:round;stroke-miterlimit:4;stroke-dasharray:none;stroke-dashoffset:0;stroke-opacity:1;color-rendering:auto;image-rendering:auto;shape-rendering:auto;text-rendering:auto;enable-background:accumulate;stop-color:#000;stop-opacity:1"/><path style="color:#000;font-style:normal;font-variant:normal;font-weight:400;font-stretch:normal;font-size:medium;line-height:normal;font-family:sans-serif;font-variant-ligatures:normal;font-variant-position:normal;font-variant-caps:normal;font-variant-numeric:normal;font-variant-alternates:normal;font-variant-east-asian:normal;font-feature-settings:normal;font-variation-settings:normal;text-indent:0;text-align:start;text-decoration:none;text-decoration-line:none;text-decoration-style:solid;text-decoration-color:#000;letter-spacing:normal;word-spacing:normal;text-transform:none;writing-mode:lr-tb;direction:ltr;text-orientation:mixed;dominant-baseline:auto;baseline-shift:baseline;text-anchor:start;white-space:normal;shape-padding:0;shape-margin:0;inline-size:0;clip-rule:nonzero;display:inline;overflow:visible;visibility:visible;isolation:auto;mix-blend-mode:normal;color-interpolation:sRGB;color-interpolation-filters:linearRGB;solid-color:#000;solid-opacity:1;vector-effect:none;fill:#feb701;fill-opacity:1;fill-rule:nonzero;stroke:none;stroke-width:.554565;stroke-linecap:round;stroke-linejoin:round;stroke-miterlimit:4;stroke-dasharray:none;stroke-dashoffset:0;stroke-opacity:1;color-rendering:auto;image-rendering:auto;shape-rendering:auto;text-rendering:auto;enable-background:accumulate;stop-color:#000" d="M-15.798 287.764c-.999 0-2.33.82-2.33 1.683a.277.277 0 0 1-.47.2c-1.186-1.133-1.965-1.5-3.425-1.429H-22.049c-2.245-.087-2.382.655-3.452 1.452a.277.277 0 0 1-.442-.223c0-.862-1.334-1.683-2.333-1.683-.658 0-1.23.351-1.549.886-.087.479-.13.952-.13 1.436.001.266.351.364.49.137.3-.491.847-.827 1.475-.827.953 0 1.72.783 1.72 1.606 0 .217.183.1.357-.03 1.021-.76 1.722-1.226 3.502-1.218 1.78.007 3.14.062 4.273 1.144.169.16.335.337.335.104 0-.823.766-1.606 1.72-1.606a1.73 1.73 0 0 1 1.476.827c.139.227.488.13.49-.137 0-.527-.052-1.04-.142-1.497a1.849 1.849 0 0 0-1.54-.825z" transform="matrix(1.25804 0 0 1.25804 39.011 -351.666)"/><path transform="matrix(.33286 0 0 .33286 39.011 .67)" d="M-97.859 41.509c3.858-2.874 6.428-4.925 13.157-4.897 6.73.028 11.78.706 16.06 4.792.517-.291.693-.106 1.353-.043.258-3.052.19-5.901-.142-8.58-.67.834-1.086 1.744-1.086 2.67 0 .922-1.105 1.394-1.772.758-4.487-4.282-7.427-5.672-12.945-5.399a1.047 1.047 0 0 1-.094 0h-.008c-.53-.02-1.029-.03-1.5-.027-7.064.046-7.756 2.689-11.547 5.512a1.047 1.047 0 0 1-1.67-.844c0-.926-.418-1.836-1.088-2.67-.333 2.68-.4 5.529-.142 8.582z" style="color:#000;font-style:normal;font-variant:normal;font-weight:400;font-stretch:normal;font-size:medium;line-height:normal;font-family:sans-serif;font-variant-ligatures:normal;font-variant-position:normal;font-variant-caps:normal;font-variant-numeric:normal;font-variant-alternates:normal;font-variant-east-asian:normal;font-feature-settings:normal;font-variation-settings:normal;text-indent:0;text-align:start;text-decoration:none;text-decoration-line:none;text-decoration-style:solid;text-decoration-color:#000;letter-spacing:normal;word-spacing:normal;text-transform:none;writing-mode:lr-tb;direction:ltr;text-orientation:mixed;dominant-baseline:auto;baseline-shift:baseline;text-anchor:start;white-space:normal;shape-padding:0;shape-margin:0;inline-size:0;clip-rule:nonzero;display:inline;overflow:visible;visibility:visible;isolation:auto;mix-blend-mode:normal;color-interpolation:sRGB;color-interpolation-filters:linearRGB;solid-color:#000;solid-opacity:1;vector-effect:none;fill:#e59e01;fill-opacity:1;fill-rule:nonzero;stroke:none;stroke-width:2.09599;stroke-linecap:round;stroke-linejoin:round;stroke-miterlimit:4;stroke-dasharray:none;stroke-dashoffset:0;stroke-opacity:1;color-rendering:auto;image-rendering:auto;shape-rendering:auto;text-rendering:auto;enable-background:accumulate;stop-color:#000"/><path style="color:#000;font-style:normal;font-variant:normal;font-weight:400;font-stretch:normal;font-size:medium;line-height:normal;font-family:sans-serif;font-variant-ligatures:normal;font-variant-position:normal;font-variant-caps:normal;font-variant-numeric:normal;font-variant-alternates:normal;font-variant-east-asian:normal;font-feature-settings:normal;font-variation-settings:normal;text-indent:0;text-align:start;text-decoration:none;text-decoration-line:none;text-decoration-style:solid;text-decoration-color:#000;letter-spacing:normal;word-spacing:normal;text-transform:none;writing-mode:lr-tb;direction:ltr;text-orientation:mixed;dominant-baseline:auto;baseline-shift:baseline;text-anchor:start;white-space:normal;shape-padding:0;shape-margin:0;inline-size:0;clip-rule:nonzero;display:inline;overflow:visible;visibility:visible;opacity:1;isolation:auto;mix-blend-mode:normal;color-interpolation:sRGB;color-interpolation-filters:linearRGB;solid-color:#000;solid-opacity:1;vector-effect:none;fill:#000;fill-opacity:1;fill-rule:nonzero;stroke:none;stroke-width:.529167;stroke-linecap:round;stroke-linejoin:round;stroke-miterlimit:4;stroke-dasharray:none;stroke-dashoffset:0;stroke-opacity:1;color-rendering:auto;image-rendering:auto;shape-rendering:auto;text-rendering:auto;enable-background:accumulate;stop-color:#000;stop-opacity:1" d="M-22.193 280.358c-.633.47-1.091 1.116-1.254 1.953-3.694.669-6.508 3.88-6.508 7.765v.001a.265.265 0 0 0 .49.153c.3-.5.847-.834 1.475-.834 1.027.222 1.697.953 1.72 1.743.016.353.546.33.53-.024-.012-.022-.003-.049-.006-.082.83-.542 1.45-1.101 2.916-1.195v2.902h-.53a.265.265 0 0 0 0 .53h.53v1.513a.568.568 0 0 1-.53.38.569.569 0 0 1-.54-.39.265.265 0 0 0-.253-.181h-1.04a.265.265 0 0 0-.262.3 2.12 2.12 0 0 0 2.096 1.817 2.12 2.12 0 0 0 2.117-2.115v-4.75c1.051.078 2.02.44 2.914 1.177 0 .043-.003.067-.004.094.006.331.492.353.527.024.204-1.008.94-1.72 1.721-1.743.628 0 1.176.334 1.477.834a.265.265 0 0 0 .49-.154c0-3.885-2.813-7.097-6.508-7.766-.164-.836-.622-1.482-1.254-1.953a.262.262 0 0 0-.314 0zm.156.675c.468.41.864.848.95 1.52a.265.265 0 0 0 .222.226 7.39 7.39 0 0 1 6.184 6.583 2.24 2.24 0 0 0-1.403-.495c-.79 0-1.368.478-1.77 1.096-.072-3.336-1.599-5.387-3.917-7.142v-.929a.265.265 0 0 0-.53 0v.93c-2.318 1.754-3.846 3.805-3.92 7.14-.401-.618-.98-1.095-1.769-1.095-.53 0-1.016.186-1.401.494a7.388 7.388 0 0 1 6.184-6.582.265.265 0 0 0 .22-.228c.087-.672.483-1.108.95-1.518zm.266 2.47c2.185 1.716 3.566 3.552 3.479 6.873-1.058-.758-2.241-1.05-3.48-1.04zm-.53.002v5.841c-1.75.006-2.664.559-3.478 1.084-.103-3.354 1.281-5.2 3.478-6.925zm4.047 1.11a.265.265 0 0 0 0 .376l.264.264a.265.265 0 0 0 .375-.374l-.266-.265c-.116-.107-.264-.105-.373 0zm1.053 1.065a.265.265 0 0 0 .01.373c.409.387.765.954.986 1.733a.265.265 0 1 0 .51-.145c-.244-.857-.648-1.511-1.133-1.97-.107-.11-.274-.087-.373.01zm-5.1 4.146c.179.007.354.003.53.002v2.913h-.53zm0 3.444h.53v1.324c0 .88-.708 1.586-1.588 1.586-.678 0-1.177-.464-1.406-1.058h.612c.2.28.426.572.794.572.483 0 .898-.315 1.045-.752.035-.545.013-1.118.013-1.672z" transform="matrix(1.25804 0 0 1.25804 39.011 -351.666)"/></g></svg>