<?xml version="1.0" encoding="UTF-8" standalone="no"?>
<svg
   xmlns:dc="http://purl.org/dc/elements/1.1/"
   xmlns:cc="http://creativecommons.org/ns#"
   xmlns:rdf="http://www.w3.org/1999/02/22-rdf-syntax-ns#"
   xmlns:svg="http://www.w3.org/2000/svg"
   xmlns="http://www.w3.org/2000/svg"
   xmlns:sodipodi="http://sodipodi.sourceforge.net/DTD/sodipodi-0.dtd"
   xmlns:inkscape="http://www.inkscape.org/namespaces/inkscape"
   width="64pt"
   height="64pt"
   viewBox="0 0 22.577778 22.577778"
   version="1.1"
   id="svg831"
   inkscape:version="1.0 (4035a4fb49, 2020-05-01)"
   sodipodi:docname="5 - Volcano.svg"
   inkscape:export-filename="C:\Users\RainBoyz\Desktop\DONE\Flat [Done!]\EX\5 - Volcano.png"
   inkscape:export-xdpi="576"
   inkscape:export-ydpi="576">
  <defs
     id="defs825">
    <pattern
       id="EMFhbasepattern"
       patternUnits="userSpaceOnUse"
       width="6"
       height="6"
       x="0"
       y="0" />
    <pattern
       id="EMFhbasepattern-9"
       patternUnits="userSpaceOnUse"
       width="6"
       height="6"
       x="0"
       y="0" />
    <pattern
       id="EMFhbasepattern-0"
       patternUnits="userSpaceOnUse"
       width="6"
       height="6"
       x="0"
       y="0" />
    <pattern
       id="EMFhbasepattern-7"
       patternUnits="userSpaceOnUse"
       width="6"
       height="6"
       x="0"
       y="0" />
    <pattern
       id="EMFhbasepattern-2"
       patternUnits="userSpaceOnUse"
       width="6"
       height="6"
       x="0"
       y="0" />
    <pattern
       id="EMFhbasepattern-98"
       patternUnits="userSpaceOnUse"
       width="6"
       height="6"
       x="0"
       y="0" />
    <pattern
       id="EMFhbasepattern-6"
       patternUnits="userSpaceOnUse"
       width="6"
       height="6"
       x="0"
       y="0" />
    <pattern
       id="EMFhbasepattern-01"
       patternUnits="userSpaceOnUse"
       width="6"
       height="6"
       x="0"
       y="0" />
    <pattern
       id="EMFhbasepattern-07"
       patternUnits="userSpaceOnUse"
       width="6"
       height="6"
       x="0"
       y="0" />
    <pattern
       id="EMFhbasepattern-8"
       patternUnits="userSpaceOnUse"
       width="6"
       height="6"
       x="0"
       y="0" />
    <pattern
       id="EMFhbasepattern-4"
       patternUnits="userSpaceOnUse"
       width="6"
       height="6"
       x="0"
       y="0" />
    <pattern
       id="EMFhbasepattern-40"
       patternUnits="userSpaceOnUse"
       width="6"
       height="6"
       x="0"
       y="0" />
    <pattern
       id="EMFhbasepattern-08"
       patternUnits="userSpaceOnUse"
       width="6"
       height="6"
       x="0"
       y="0" />
    <pattern
       id="EMFhbasepattern-04"
       patternUnits="userSpaceOnUse"
       width="6"
       height="6"
       x="0"
       y="0" />
    <pattern
       id="EMFhbasepattern-014"
       patternUnits="userSpaceOnUse"
       width="6"
       height="6"
       x="0"
       y="0" />
    <pattern
       id="EMFhbasepattern-27"
       patternUnits="userSpaceOnUse"
       width="6"
       height="6"
       x="0"
       y="0" />
    <pattern
       id="EMFhbasepattern-09"
       patternUnits="userSpaceOnUse"
       width="6"
       height="6"
       x="0"
       y="0" />
    <pattern
       id="EMFhbasepattern-5"
       patternUnits="userSpaceOnUse"
       width="6"
       height="6"
       x="0"
       y="0" />
    <pattern
       id="EMFhbasepattern-018"
       patternUnits="userSpaceOnUse"
       width="6"
       height="6"
       x="0"
       y="0" />
  </defs>
  <sodipodi:namedview
     id="base"
     pagecolor="#ffffff"
     bordercolor="#666666"
     borderopacity="1.0"
     inkscape:pageopacity="0.0"
     inkscape:pageshadow="2"
     inkscape:zoom="4.4415145"
     inkscape:cx="58.239976"
     inkscape:cy="42.631943"
     inkscape:document-units="pt"
     inkscape:current-layer="layer1"
     showgrid="false"
     units="pt"
     inkscape:window-width="1366"
     inkscape:window-height="715"
     inkscape:window-x="-8"
     inkscape:window-y="-8"
     inkscape:window-maximized="1"
     inkscape:pagecheckerboard="true"
     inkscape:showpageshadow="false"
     inkscape:object-paths="true"
     inkscape:snap-intersection-paths="true"
     inkscape:snap-smooth-nodes="true"
     inkscape:snap-midpoints="true"
     showguides="true"
     inkscape:snap-bbox="true"
     inkscape:bbox-nodes="true"
     inkscape:snap-nodes="false"
     inkscape:snap-global="true"
     inkscape:document-rotation="0">
    <inkscape:grid
       type="xygrid"
       id="grid1378" />
    <sodipodi:guide
       position="0.97013831,21.607643"
       orientation="78.000048,0"
       id="guide1380"
       inkscape:locked="false" />
    <sodipodi:guide
       position="0.97013831,0.97013129"
       orientation="0,78.000005"
       id="guide1382"
       inkscape:locked="false" />
    <sodipodi:guide
       position="21.607639,0.97013129"
       orientation="-78.000048,0"
       id="guide1384"
       inkscape:locked="false" />
    <sodipodi:guide
       position="21.607639,21.607643"
       orientation="0,-78.000005"
       id="guide1386"
       inkscape:locked="false" />
  </sodipodi:namedview>
  <metadata
     id="metadata828">
    <rdf:RDF>
      <cc:Work
         rdf:about="">
        <dc:format>image/svg+xml</dc:format>
        <dc:type
           rdf:resource="http://purl.org/dc/dcmitype/StillImage" />
        <dc:title />
      </cc:Work>
    </rdf:RDF>
  </metadata>
  <g
     inkscape:label="Icon"
     inkscape:groupmode="layer"
     id="layer1"
     transform="translate(0,-274.42223)">
    <g
       transform="matrix(1.1872029,0,0,1.1872029,-71.265923,-20.042063)"
       id="g717">
      <path
         id="path2085"
         d="m 67.244141,249.90822 c -0.381471,0.38771 -0.617188,0.92204 -0.617188,1.50782 0,0.46467 0.212838,0.85924 0.464844,1.21093 -0.413424,0.27209 -0.787462,0.62196 -0.9375,1.10547 -0.05631,0.18397 0.09631,0.36463 0.287109,0.33985 0.05669,-0.007 0.120006,-0.01 0.185547,-0.01 0.224437,0 0.437007,0.0451 0.630859,0.12695 0.0064,0.002 0.01295,0.004 0.01953,0.006 1.473112,0.49465 3.191794,0.44923 4.398437,-0.002 0.0039,-0.001 0.0078,-0.003 0.01172,-0.004 0.193796,-0.0819 0.406389,-0.1289 0.630859,-0.1289 0.05822,0 0.114175,0.005 0.179688,0.0117 0.188065,0.021 0.336783,-0.1564 0.283203,-0.33789 -0.141231,-0.48547 -0.516502,-0.8332 -0.929688,-1.10547 0.252907,-0.35205 0.466797,-0.74731 0.466797,-1.21289 0,-0.58608 -0.237329,-1.12006 -0.61914,-1.50782 0,0 -0.802059,-1.04757 -2.227538,-1.05821 -1.425479,-0.0106 -2.227539,1.05846 -2.227539,1.05846 z"
         style="color:#000000;font-style:normal;font-variant:normal;font-weight:normal;font-stretch:normal;font-size:medium;line-height:normal;font-family:sans-serif;font-variant-ligatures:normal;font-variant-position:normal;font-variant-caps:normal;font-variant-numeric:normal;font-variant-alternates:normal;font-variant-east-asian:normal;font-feature-settings:normal;font-variation-settings:normal;text-indent:0;text-align:start;text-decoration:none;text-decoration-line:none;text-decoration-style:solid;text-decoration-color:#000000;letter-spacing:normal;word-spacing:normal;text-transform:none;writing-mode:lr-tb;direction:ltr;text-orientation:mixed;dominant-baseline:auto;baseline-shift:baseline;text-anchor:start;white-space:normal;shape-padding:0;shape-margin:0;inline-size:0;clip-rule:nonzero;display:inline;overflow:visible;visibility:visible;isolation:auto;mix-blend-mode:normal;color-interpolation:sRGB;color-interpolation-filters:linearRGB;solid-color:#000000;solid-opacity:1;vector-effect:none;fill:#d0e2ed;fill-opacity:1;fill-rule:nonzero;stroke:none;stroke-width:0.529168;stroke-linecap:round;stroke-linejoin:round;stroke-miterlimit:4;stroke-dasharray:none;stroke-dashoffset:0;stroke-opacity:1;color-rendering:auto;image-rendering:auto;shape-rendering:auto;text-rendering:auto;enable-background:accumulate;stop-color:#000000"
         sodipodi:nodetypes="cscccsccccscccsczc" />
      <path
         id="path664"
         style="color:#000000;font-style:normal;font-variant:normal;font-weight:normal;font-stretch:normal;font-size:medium;line-height:normal;font-family:sans-serif;font-variant-ligatures:normal;font-variant-position:normal;font-variant-caps:normal;font-variant-numeric:normal;font-variant-alternates:normal;font-variant-east-asian:normal;font-feature-settings:normal;font-variation-settings:normal;text-indent:0;text-align:start;text-decoration:none;text-decoration-line:none;text-decoration-style:solid;text-decoration-color:#000000;letter-spacing:normal;word-spacing:normal;text-transform:none;writing-mode:lr-tb;direction:ltr;text-orientation:mixed;dominant-baseline:auto;baseline-shift:baseline;text-anchor:start;white-space:normal;shape-padding:0;shape-margin:0;inline-size:0;clip-rule:nonzero;display:inline;overflow:visible;visibility:visible;isolation:auto;mix-blend-mode:normal;color-interpolation:sRGB;color-interpolation-filters:linearRGB;solid-color:#000000;solid-opacity:1;vector-effect:none;fill:#aabfd0;fill-opacity:1;fill-rule:nonzero;stroke:none;stroke-width:2.00001;stroke-linecap:round;stroke-linejoin:round;stroke-miterlimit:4;stroke-dasharray:none;stroke-dashoffset:0;stroke-opacity:1;color-rendering:auto;image-rendering:auto;shape-rendering:auto;text-rendering:auto;enable-background:accumulate;stop-color:#000000"
         d="m 271.85938,-104.15039 c -0.58944,0.10861 -1.16047,0.27495 -1.69727,0.50195 l 0.0371,-0.0156 c -3.98849,1.49135 -10.17858,1.69129 -15.24219,0.004 -0.52818,-0.2207 -1.08907,-0.38157 -1.66797,-0.48632 0.097,0.14487 0.186,0.29639 0.28711,0.4375 -1.56255,1.02837 -2.97785,2.35029 -3.54492,4.17773 a 1.0001025,1.0001025 0 0 0 1.08594,1.285156 c 0.21426,-0.02646 0.45346,-0.03906 0.70117,-0.03906 0.84827,0 1.6521,0.171114 2.38476,0.480468 a 1.0001025,1.0001025 0 0 0 0.0742,0.02344 c 5.56767,1.869543 12.06251,1.697624 16.62305,-0.0078 a 1.0001025,1.0001025 0 0 0 0.0449,-0.01563 c 0.73246,-0.309543 1.53638,-0.486328 2.38477,-0.486328 0.22004,0 0.43012,0.01765 0.67773,0.04297 a 1.0001025,1.0001025 0 0 0 1.07031,-1.277344 c -0.53378,-1.834852 -1.95202,-3.148682 -3.51367,-4.177732 0.1038,-0.14449 0.19545,-0.29881 0.29493,-0.44727 z"
         transform="matrix(0.26458334,0,0,0.26458334,0,280.06666)" />
      <path
         id="path2042"
         d="m 66.923828,259.7207 a 0.26460996,0.26460996 0 0 0 -0.195312,0.0977 l -1.738282,2.12695 -1.363281,0.0332 a 0.26460996,0.26460996 0 0 0 -0.226562,0.13671 l -1.466797,2.6875 c -0.345555,0.63351 0.127985,1.42969 0.849609,1.42969 h 13.509766 c 0.721621,0 1.193207,-0.79618 0.847656,-1.42969 l -1.580078,-2.89648 a 0.26460996,0.26460996 0 0 0 -0.236328,-0.13867 l -7.851563,0.15039 -0.277344,-1.96875 a 0.26460996,0.26460996 0 0 0 -0.271484,-0.22852 z"
         style="color:#000000;font-style:normal;font-variant:normal;font-weight:normal;font-stretch:normal;font-size:medium;line-height:normal;font-family:sans-serif;font-variant-ligatures:normal;font-variant-position:normal;font-variant-caps:normal;font-variant-numeric:normal;font-variant-alternates:normal;font-variant-east-asian:normal;font-feature-settings:normal;font-variation-settings:normal;text-indent:0;text-align:start;text-decoration:none;text-decoration-line:none;text-decoration-style:solid;text-decoration-color:#000000;letter-spacing:normal;word-spacing:normal;text-transform:none;writing-mode:lr-tb;direction:ltr;text-orientation:mixed;dominant-baseline:auto;baseline-shift:baseline;text-anchor:start;white-space:normal;shape-padding:0;shape-margin:0;inline-size:0;clip-rule:nonzero;display:inline;overflow:visible;visibility:visible;isolation:auto;mix-blend-mode:normal;color-interpolation:sRGB;color-interpolation-filters:linearRGB;solid-color:#000000;solid-opacity:1;vector-effect:none;fill:#99605e;fill-opacity:1;fill-rule:nonzero;stroke:none;stroke-width:0.529167;stroke-linecap:round;stroke-linejoin:round;stroke-miterlimit:4;stroke-dasharray:none;stroke-dashoffset:0;stroke-opacity:1;color-rendering:auto;image-rendering:auto;shape-rendering:auto;text-rendering:auto;enable-background:accumulate;stop-color:#000000" />
      <path
         id="path2071"
         d="m 72.318359,253.53125 c -0.296067,0 -0.580555,0.0611 -0.83789,0.16992 l 0.0098,-0.004 c -1.058318,0.39572 -2.703054,0.44862 -4.044922,-0.002 l 0.01953,0.006 c -0.257279,-0.10871 -0.54179,-0.16797 -0.837891,-0.16797 -0.415739,0 -0.805288,0.11888 -1.134765,0.32422 a 0.26461046,0.26461046 0 0 0 -0.01172,0.006 c -0.696114,0.48403 -0.97528,1.10465 -0.976563,1.78516 a 0.26461046,0.26461046 0 0 0 0,0.0156 c 0.02896,0.50975 0.299555,1.00765 0.660156,1.44922 -0.201627,0.22449 -0.40039,0.46781 -0.40039,0.78516 0,0.33191 0.135685,0.63398 0.355469,0.84961 a 0.26461046,0.26461046 0 0 0 0.123047,0.0684 c 2.844681,0.68952 5.67451,0.74187 8.464843,0 a 0.26461046,0.26461046 0 0 0 0.117188,-0.0684 c 0.220636,-0.21585 0.357422,-0.5177 0.357422,-0.84961 0,-0.31295 -0.20637,-0.55144 -0.414063,-0.77149 0.365938,-0.43795 0.642336,-0.943 0.671875,-1.46289 a 0.26461046,0.26461046 0 0 0 0,-0.0254 c -0.03472,-0.97788 -0.506066,-1.50518 -0.992187,-1.78515 -0.328388,-0.20337 -0.715341,-0.32227 -1.128907,-0.32227 z"
         style="color:#000000;font-style:normal;font-variant:normal;font-weight:normal;font-stretch:normal;font-size:medium;line-height:normal;font-family:sans-serif;font-variant-ligatures:normal;font-variant-position:normal;font-variant-caps:normal;font-variant-numeric:normal;font-variant-alternates:normal;font-variant-east-asian:normal;font-feature-settings:normal;font-variation-settings:normal;text-indent:0;text-align:start;text-decoration:none;text-decoration-line:none;text-decoration-style:solid;text-decoration-color:#000000;letter-spacing:normal;word-spacing:normal;text-transform:none;writing-mode:lr-tb;direction:ltr;text-orientation:mixed;dominant-baseline:auto;baseline-shift:baseline;text-anchor:start;white-space:normal;shape-padding:0;shape-margin:0;inline-size:0;clip-rule:nonzero;display:inline;overflow:visible;visibility:visible;isolation:auto;mix-blend-mode:normal;color-interpolation:sRGB;color-interpolation-filters:linearRGB;solid-color:#000000;solid-opacity:1;vector-effect:none;fill:#d0e2ed;fill-opacity:1;fill-rule:nonzero;stroke:none;stroke-width:0.529168;stroke-linecap:round;stroke-linejoin:round;stroke-miterlimit:4;stroke-dasharray:none;stroke-dashoffset:0;stroke-opacity:1;color-rendering:auto;image-rendering:auto;shape-rendering:auto;text-rendering:auto;enable-background:accumulate;stop-color:#000000" />
      <path
         id="path2105"
         style="color:#000000;font-style:normal;font-variant:normal;font-weight:normal;font-stretch:normal;font-size:medium;line-height:normal;font-family:sans-serif;font-variant-ligatures:normal;font-variant-position:normal;font-variant-caps:normal;font-variant-numeric:normal;font-variant-alternates:normal;font-variant-east-asian:normal;font-feature-settings:normal;font-variation-settings:normal;text-indent:0;text-align:start;text-decoration:none;text-decoration-line:none;text-decoration-style:solid;text-decoration-color:#000000;letter-spacing:normal;word-spacing:normal;text-transform:none;writing-mode:lr-tb;direction:ltr;text-orientation:mixed;dominant-baseline:auto;baseline-shift:baseline;text-anchor:start;white-space:normal;shape-padding:0;shape-margin:0;inline-size:0;clip-rule:nonzero;display:inline;overflow:visible;visibility:visible;isolation:auto;mix-blend-mode:normal;color-interpolation:sRGB;color-interpolation-filters:linearRGB;solid-color:#000000;solid-opacity:1;vector-effect:none;fill:#aabfd0;fill-opacity:1;fill-rule:nonzero;stroke:none;stroke-width:2.06459;stroke-linecap:round;stroke-linejoin:round;stroke-miterlimit:4;stroke-dasharray:none;stroke-dashoffset:0;stroke-opacity:1;color-rendering:auto;image-rendering:auto;shape-rendering:auto;text-rendering:auto;enable-background:accumulate;stop-color:#000000"
         d="m 262.57031,-117.98438 c 3.82074,1.25871 7.40303,4.99371 7.10742,9.88868 0,1.81651 -0.70858,3.86476 -1.69531,5.23828 1.3351,0.87976 2.43185,1.46099 3.12891,2.882811 0.0494,0.100535 0.10264,0.198797 0.14648,0.302734 1.26943,0.284483 2.26653,0.752907 3.23633,1.357422 0.4538,-0.18416 0.73689,-0.693 0.58398,-1.210938 -0.57835,-1.860979 -1.98654,-3.086119 -3.51376,-4.177869 1.70117,-2.19218 2.16941,-4.13176 1.40429,-6.97461 -1.33389,-4.37721 -6.48071,-7.41756 -10.39844,-7.30665 l 5e-5,7e-5 z"
         transform="matrix(0.26458334,0,0,0.26458334,0,280.06666)"
         sodipodi:nodetypes="cccccccccccc" />
      <path
         id="path2065"
         d="m 75.228516,254.32617 c -2.724028,0 -4.973503,2.063 -5.261719,4.71289 a 0.2645835,0.2645835 0 0 0 0.234375,0.29102 0.2645835,0.2645835 0 0 0 0.292969,-0.23438 c 0.25947,-2.3856 2.277194,-4.24023 4.734375,-4.24023 a 0.2645835,0.2645835 0 0 0 0.263672,-0.26563 0.2645835,0.2645835 0 0 0 -0.263672,-0.26367 z m 1.023437,0.10156 a 0.2645835,0.2645835 0 0 0 -0.269531,0.21094 0.2645835,0.2645835 0 0 0 0.205078,0.3125 c 0.156853,0.0327 0.334602,0.0812 0.515625,0.14063 a 0.2645835,0.2645835 0 0 0 0.333984,-0.16797 0.2645835,0.2645835 0 0 0 -0.167968,-0.33399 c -0.197673,-0.0649 -0.393825,-0.11862 -0.574219,-0.15625 a 0.2645835,0.2645835 0 0 0 -0.04297,-0.006 z"
         style="color:#000000;font-style:normal;font-variant:normal;font-weight:normal;font-stretch:normal;font-size:medium;line-height:normal;font-family:sans-serif;font-variant-ligatures:normal;font-variant-position:normal;font-variant-caps:normal;font-variant-numeric:normal;font-variant-alternates:normal;font-variant-east-asian:normal;font-feature-settings:normal;font-variation-settings:normal;text-indent:0;text-align:start;text-decoration:none;text-decoration-line:none;text-decoration-style:solid;text-decoration-color:#000000;letter-spacing:normal;word-spacing:normal;text-transform:none;writing-mode:lr-tb;direction:ltr;text-orientation:mixed;dominant-baseline:auto;baseline-shift:baseline;text-anchor:start;white-space:normal;shape-padding:0;shape-margin:0;inline-size:0;clip-rule:nonzero;display:inline;overflow:visible;visibility:visible;opacity:1;isolation:auto;mix-blend-mode:normal;color-interpolation:sRGB;color-interpolation-filters:linearRGB;solid-color:#000000;solid-opacity:1;vector-effect:none;fill:#b41d48;fill-opacity:1;fill-rule:nonzero;stroke:none;stroke-width:0.529167;stroke-linecap:round;stroke-linejoin:round;stroke-miterlimit:4;stroke-dasharray:none;stroke-dashoffset:0;stroke-opacity:1;color-rendering:auto;image-rendering:auto;shape-rendering:auto;text-rendering:auto;enable-background:accumulate;stop-color:#000000;stop-opacity:1" />
      <path
         id="path2061"
         d="m 63.716797,254.32617 a 0.2645835,0.2645835 0 0 0 -0.263672,0.26563 0.2645835,0.2645835 0 0 0 0.263672,0.26367 c 2.457181,0 4.474905,1.85658 4.734375,4.24219 a 0.2645835,0.2645835 0 0 0 0.291016,0.23437 0.2645835,0.2645835 0 0 0 0.234374,-0.29297 c -0.288215,-2.64989 -2.535736,-4.71289 -5.259765,-4.71289 z m -1.041016,0.10352 a 0.2645835,0.2645835 0 0 0 -0.02539,0.004 c -0.180396,0.0376 -0.376546,0.0913 -0.574219,0.15625 a 0.2645835,0.2645835 0 0 0 -0.167969,0.33399 0.2645835,0.2645835 0 0 0 0.333985,0.16992 c 0.181023,-0.0595 0.35877,-0.10791 0.515624,-0.14063 a 0.2645835,0.2645835 0 0 0 0.205079,-0.31445 0.2645835,0.2645835 0 0 0 -0.28711,-0.20898 z"
         style="color:#000000;font-style:normal;font-variant:normal;font-weight:normal;font-stretch:normal;font-size:medium;line-height:normal;font-family:sans-serif;font-variant-ligatures:normal;font-variant-position:normal;font-variant-caps:normal;font-variant-numeric:normal;font-variant-alternates:normal;font-variant-east-asian:normal;font-feature-settings:normal;font-variation-settings:normal;text-indent:0;text-align:start;text-decoration:none;text-decoration-line:none;text-decoration-style:solid;text-decoration-color:#000000;letter-spacing:normal;word-spacing:normal;text-transform:none;writing-mode:lr-tb;direction:ltr;text-orientation:mixed;dominant-baseline:auto;baseline-shift:baseline;text-anchor:start;white-space:normal;shape-padding:0;shape-margin:0;inline-size:0;clip-rule:nonzero;display:inline;overflow:visible;visibility:visible;opacity:1;isolation:auto;mix-blend-mode:normal;color-interpolation:sRGB;color-interpolation-filters:linearRGB;solid-color:#000000;solid-opacity:1;vector-effect:none;fill:#b41d48;fill-opacity:1;fill-rule:nonzero;stroke:none;stroke-width:0.529167;stroke-linecap:round;stroke-linejoin:round;stroke-miterlimit:4;stroke-dasharray:none;stroke-dashoffset:0;stroke-opacity:1;color-rendering:auto;image-rendering:auto;shape-rendering:auto;text-rendering:auto;enable-background:accumulate;stop-color:#000000;stop-opacity:1" />
      <path
         transform="matrix(0.26458334,0,0,0.26458334,0,280.06666)"
         d="m 252.94141,-76.898438 c -0.28777,0.01101 -0.55682,0.145538 -0.73829,0.369141 l -6.57031,8.039063 -5.15234,0.125 c -0.35783,0.0067 -0.68481,0.204064 -0.85742,0.517578 l -1.87696,3.4375 c 0.41701,0.724781 0.95159,1.40401 1.65625,1.986328 0.0299,0.02646 0.77359,0.705496 1.84571,1.048828 1.14525,0.366614 2.55632,0.417012 4.05859,-0.04492 1.76542,-0.543231 3.29899,-1.796703 4.85156,-3.351562 0.66159,0.699439 1.22764,1.500826 2.16211,1.875 0.20436,0.113385 0.46979,0.288905 1.05664,0.458984 0.79599,0.230551 1.90651,0.370853 3.14453,0.0957 1.63674,-0.363968 2.39954,-1.257862 3.12891,-2.052734 0.0136,-0.01512 0.0235,-0.02899 0.0371,-0.04297 0.90489,0.505172 1.89859,0.9375 3.13086,0.9375 1.07984,0 1.89451,-0.463389 2.70898,-0.902344 0.005,0.0038 0.009,0.0081 0.0137,0.01563 0.69522,0.769399 1.40766,1.673697 3.07812,2.044922 1.23794,0.274772 2.34869,0.134848 3.14453,-0.0957 0.58675,-0.170079 0.85352,-0.344401 1.05664,-0.457031 0.93415,-0.374173 1.50052,-1.175599 2.16211,-1.875 1.55257,1.55486 3.08419,2.808331 4.84961,3.351562 1.50227,0.461972 2.91531,0.409583 4.06055,0.04297 0.53075,-0.169792 0.98078,-0.421797 1.30469,-0.636719 l 2.35742,4.322266 c 1.30602,2.394368 -0.47574,5.402344 -3.20313,5.402344 h 4 c 2.72739,0 4.50915,-3.007976 3.20313,-5.402344 l -3.91407,-7.177735 -0.34179,-0.626953 -1.71485,-3.142578 c -0.17693,-0.328179 -0.52173,-0.530691 -0.89453,-0.52539 l -24.4873,-3.634522 -6.23535,-3.238525 c -0.0699,-0.508124 -0.51279,-0.881032 -1.02539,-0.863282 z"
         style="color:#000000;font-style:normal;font-variant:normal;font-weight:normal;font-stretch:normal;font-size:medium;line-height:normal;font-family:sans-serif;font-variant-ligatures:normal;font-variant-position:normal;font-variant-caps:normal;font-variant-numeric:normal;font-variant-alternates:normal;font-variant-east-asian:normal;font-feature-settings:normal;font-variation-settings:normal;text-indent:0;text-align:start;text-decoration:none;text-decoration-line:none;text-decoration-style:solid;text-decoration-color:#000000;letter-spacing:normal;word-spacing:normal;text-transform:none;writing-mode:lr-tb;direction:ltr;text-orientation:mixed;dominant-baseline:auto;baseline-shift:baseline;text-anchor:start;white-space:normal;shape-padding:0;shape-margin:0;inline-size:0;clip-rule:nonzero;display:inline;overflow:visible;visibility:visible;isolation:auto;mix-blend-mode:normal;color-interpolation:sRGB;color-interpolation-filters:linearRGB;solid-color:#000000;solid-opacity:1;vector-effect:none;fill:#67342d;fill-opacity:1;fill-rule:nonzero;stroke:none;stroke-width:2;stroke-linecap:round;stroke-linejoin:round;stroke-miterlimit:4;stroke-dasharray:none;stroke-dashoffset:0;stroke-opacity:1;color-rendering:auto;image-rendering:auto;shape-rendering:auto;text-rendering:auto;enable-background:accumulate;stop-color:#000000"
         id="path2121"
         sodipodi:nodetypes="cccccccccccccccscccccccccccscccccccc" />
      <path
         id="path2028"
         d="m 73.654297,258.29492 a 0.26460996,0.26460996 0 0 0 -0.08398,0.01 c -2.698925,0.71757 -5.429777,0.67037 -8.203124,-0.002 a 0.26460996,0.26460996 0 0 0 -0.265626,0.0879 c 0,0 -0.674896,0.80682 -1.1875,1.76368 -0.256301,0.47843 -0.477515,0.99475 -0.546874,1.49414 -0.06885,0.4957 0.03821,1.00973 0.445312,1.34179 0.01312,0.0118 0.09942,0.091 0.242188,0.13672 0.153093,0.049 0.371362,0.0648 0.632812,-0.0156 0.415889,-0.12797 0.97966,-0.60817 1.650391,-1.42383 0.02009,0.19752 0.06141,0.40953 0.167968,0.60742 0.105163,0.1953 0.292499,0.36307 0.535157,0.45703 0.02551,0.0154 0.292563,0.18542 0.669922,0.10157 0.282935,-0.0629 0.600425,-0.49456 0.910156,-0.90625 0.01047,0.0225 0.0014,0.0222 0.01367,0.0449 0.137257,0.2534 0.442331,0.53711 0.902343,0.53711 0.442995,0 0.710987,-0.2915 0.820313,-0.54883 0.298422,0.38047 0.602713,0.81254 0.875,0.87305 0.377359,0.0838 0.644415,-0.0862 0.669922,-0.10157 0.242657,-0.094 0.429993,-0.26173 0.535156,-0.45703 0.106559,-0.19789 0.147874,-0.4099 0.167969,-0.60742 0.67073,0.81566 1.234502,1.29586 1.65039,1.42383 0.26145,0.0804 0.479719,0.0646 0.632813,0.0156 0.142771,-0.0457 0.229069,-0.12494 0.242187,-0.13672 0.407098,-0.33206 0.512208,-0.84609 0.44336,-1.34179 -0.06936,-0.49939 -0.28862,-1.01571 -0.544922,-1.49414 -0.512604,-0.95686 -1.1875,-1.76368 -1.1875,-1.76368 a 0.26460996,0.26460996 0 0 0 -0.1875,-0.0957 z"
         style="color:#000000;font-style:normal;font-variant:normal;font-weight:normal;font-stretch:normal;font-size:medium;line-height:normal;font-family:sans-serif;font-variant-ligatures:normal;font-variant-position:normal;font-variant-caps:normal;font-variant-numeric:normal;font-variant-alternates:normal;font-variant-east-asian:normal;font-feature-settings:normal;font-variation-settings:normal;text-indent:0;text-align:start;text-decoration:none;text-decoration-line:none;text-decoration-style:solid;text-decoration-color:#000000;letter-spacing:normal;word-spacing:normal;text-transform:none;writing-mode:lr-tb;direction:ltr;text-orientation:mixed;dominant-baseline:auto;baseline-shift:baseline;text-anchor:start;white-space:normal;shape-padding:0;shape-margin:0;inline-size:0;clip-rule:nonzero;display:inline;overflow:visible;visibility:visible;isolation:auto;mix-blend-mode:normal;color-interpolation:sRGB;color-interpolation-filters:linearRGB;solid-color:#000000;solid-opacity:1;vector-effect:none;fill:#dc1c4b;fill-opacity:1;fill-rule:nonzero;stroke:none;stroke-width:0.529167;stroke-linecap:round;stroke-linejoin:round;stroke-miterlimit:4;stroke-dasharray:none;stroke-dashoffset:0;stroke-opacity:1;color-rendering:auto;image-rendering:auto;shape-rendering:auto;text-rendering:auto;enable-background:accumulate;stop-color:#000000" />
      <path
         id="path657"
         style="color:#000000;font-style:normal;font-variant:normal;font-weight:normal;font-stretch:normal;font-size:medium;line-height:normal;font-family:sans-serif;font-variant-ligatures:normal;font-variant-position:normal;font-variant-caps:normal;font-variant-numeric:normal;font-variant-alternates:normal;font-variant-east-asian:normal;font-feature-settings:normal;font-variation-settings:normal;text-indent:0;text-align:start;text-decoration:none;text-decoration-line:none;text-decoration-style:solid;text-decoration-color:#000000;letter-spacing:normal;word-spacing:normal;text-transform:none;writing-mode:lr-tb;direction:ltr;text-orientation:mixed;dominant-baseline:auto;baseline-shift:baseline;text-anchor:start;white-space:normal;shape-padding:0;shape-margin:0;inline-size:0;clip-rule:nonzero;display:inline;overflow:visible;visibility:visible;isolation:auto;mix-blend-mode:normal;color-interpolation:sRGB;color-interpolation-filters:linearRGB;solid-color:#000000;solid-opacity:1;vector-effect:none;fill:#b31e48;fill-opacity:1;fill-rule:nonzero;stroke:none;stroke-width:0.529167;stroke-linecap:round;stroke-linejoin:round;stroke-miterlimit:4;stroke-dasharray:none;stroke-dashoffset:0;stroke-opacity:1;color-rendering:auto;image-rendering:auto;shape-rendering:auto;text-rendering:auto;enable-background:accumulate;stop-color:#000000"
         d="m 73.971195,261.2126 c 0.256302,0.47843 0.475311,0.99458 0.544671,1.49397 0.02108,0.15175 0.02347,0.30479 0.0083,0.45423 0.143002,0.0114 0.2677,-0.003 0.364318,-0.0341 0.142772,-0.0457 0.229243,-0.12516 0.242361,-0.13694 0.407098,-0.33206 0.512233,-0.84582 0.443386,-1.34152 -0.06936,-0.49939 -0.28837,-1.01553 -0.544671,-1.49396 -0.512604,-0.95686 -1.187525,-1.76372 -1.187525,-1.76372 -0.04652,-0.0566 -0.114446,-0.0914 -0.187584,-0.0961 -0.0074,-3.1e-4 -0.01482,-3.1e-4 -0.02222,0 l -3.1e-5,4e-4 c -0.02099,8.6e-4 -0.04181,0.004 -0.06201,0.01 -2.698924,0.71757 -5.429771,0.67082 -8.203118,-0.002 -0.09806,-0.0237 -0.201075,0.0104 -0.265618,0.0879 0,0 -0.340637,0.41282 -0.719336,0.98702 2.322623,0.37369 4.698401,0.50404 6.777969,0.27073 0.827286,-0.0928 2.013829,0.20479 2.443055,0.91294 0.1429,0.23576 0.265909,0.46371 0.368053,0.6512 z"
         sodipodi:nodetypes="cscccsscccccccccccc" />
    </g>
  </g>
</svg>
