<svg xmlns="http://www.w3.org/2000/svg" viewBox="0 0 22.578 22.578" height="64pt" width="64pt"><g style="display:inline"><path d="M67.244 249.908a2.147 2.147 0 0 0-.617 1.508c0 .465.213.86.465 1.211-.414.272-.788.622-.938 1.105a.265.265 0 0 0 .287.34 1.616 1.616 0 0 1 .836.123c1.473.495 3.192.45 4.399-.002.004 0 .008-.003.011-.004a1.616 1.616 0 0 1 .811-.117.265.265 0 0 0 .283-.338c-.141-.485-.516-.833-.93-1.105.253-.352.467-.748.467-1.213 0-.586-.237-1.12-.619-1.508 0 0-.802-1.048-2.227-1.058-1.426-.01-2.228 1.058-2.228 1.058z" style="color:#000;font-style:normal;font-variant:normal;font-weight:400;font-stretch:normal;font-size:medium;line-height:normal;font-family:sans-serif;font-variant-ligatures:normal;font-variant-position:normal;font-variant-caps:normal;font-variant-numeric:normal;font-variant-alternates:normal;font-variant-east-asian:normal;font-feature-settings:normal;font-variation-settings:normal;text-indent:0;text-align:start;text-decoration:none;text-decoration-line:none;text-decoration-style:solid;text-decoration-color:#000;letter-spacing:normal;word-spacing:normal;text-transform:none;writing-mode:lr-tb;direction:ltr;text-orientation:mixed;dominant-baseline:auto;baseline-shift:baseline;text-anchor:start;white-space:normal;shape-padding:0;shape-margin:0;inline-size:0;clip-rule:nonzero;display:inline;overflow:visible;visibility:visible;isolation:auto;mix-blend-mode:normal;color-interpolation:sRGB;color-interpolation-filters:linearRGB;solid-color:#000;solid-opacity:1;vector-effect:none;fill:#d0e2ed;fill-opacity:1;fill-rule:nonzero;stroke:none;stroke-width:.529168;stroke-linecap:round;stroke-linejoin:round;stroke-miterlimit:4;stroke-dasharray:none;stroke-dashoffset:0;stroke-opacity:1;color-rendering:auto;image-rendering:auto;shape-rendering:auto;text-rendering:auto;enable-background:accumulate;stop-color:#000" transform="matrix(1.18723 0 0 1.18723 -71.268 -294.471)"/><path style="color:#000;font-style:normal;font-variant:normal;font-weight:400;font-stretch:normal;font-size:medium;line-height:normal;font-family:sans-serif;font-variant-ligatures:normal;font-variant-position:normal;font-variant-caps:normal;font-variant-numeric:normal;font-variant-alternates:normal;font-variant-east-asian:normal;font-feature-settings:normal;font-variation-settings:normal;text-indent:0;text-align:start;text-decoration:none;text-decoration-line:none;text-decoration-style:solid;text-decoration-color:#000;letter-spacing:normal;word-spacing:normal;text-transform:none;writing-mode:lr-tb;direction:ltr;text-orientation:mixed;dominant-baseline:auto;baseline-shift:baseline;text-anchor:start;white-space:normal;shape-padding:0;shape-margin:0;inline-size:0;clip-rule:nonzero;display:inline;overflow:visible;visibility:visible;isolation:auto;mix-blend-mode:normal;color-interpolation:sRGB;color-interpolation-filters:linearRGB;solid-color:#000;solid-opacity:1;vector-effect:none;fill:#aabfd0;fill-opacity:1;fill-rule:nonzero;stroke:none;stroke-width:.529169;stroke-linecap:round;stroke-linejoin:round;stroke-miterlimit:4;stroke-dasharray:none;stroke-dashoffset:0;stroke-opacity:1;color-rendering:auto;image-rendering:auto;shape-rendering:auto;text-rendering:auto;enable-background:accumulate;stop-color:#000" d="M71.93 252.51a2.158 2.158 0 0 0-.45.133l.01-.004c-1.055.395-2.693.448-4.033.001a2.127 2.127 0 0 0-.441-.129c.026.039.05.079.076.116-.413.272-.788.622-.938 1.105a.265.265 0 0 0 .287.34 1.617 1.617 0 0 1 .816.117.265.265 0 0 0 .02.006c1.474.495 3.192.45 4.399-.002a.265.265 0 0 0 .012-.004 1.616 1.616 0 0 1 .81-.117.265.265 0 0 0 .283-.338c-.141-.485-.516-.833-.93-1.105.028-.038.052-.08.078-.119z" transform="matrix(1.18723 0 0 1.18723 -71.268 -294.471)"/><path d="M66.924 259.72a.265.265 0 0 0-.195.098l-1.739 2.127-1.363.034a.265.265 0 0 0-.227.136l-1.466 2.688c-.346.633.128 1.43.85 1.43h13.509c.722 0 1.193-.797.848-1.43l-1.58-2.897a.265.265 0 0 0-.237-.138l-7.851.15-.278-1.969a.265.265 0 0 0-.271-.228z" style="color:#000;font-style:normal;font-variant:normal;font-weight:400;font-stretch:normal;font-size:medium;line-height:normal;font-family:sans-serif;font-variant-ligatures:normal;font-variant-position:normal;font-variant-caps:normal;font-variant-numeric:normal;font-variant-alternates:normal;font-variant-east-asian:normal;font-feature-settings:normal;font-variation-settings:normal;text-indent:0;text-align:start;text-decoration:none;text-decoration-line:none;text-decoration-style:solid;text-decoration-color:#000;letter-spacing:normal;word-spacing:normal;text-transform:none;writing-mode:lr-tb;direction:ltr;text-orientation:mixed;dominant-baseline:auto;baseline-shift:baseline;text-anchor:start;white-space:normal;shape-padding:0;shape-margin:0;inline-size:0;clip-rule:nonzero;display:inline;overflow:visible;visibility:visible;isolation:auto;mix-blend-mode:normal;color-interpolation:sRGB;color-interpolation-filters:linearRGB;solid-color:#000;solid-opacity:1;vector-effect:none;fill:#99605e;fill-opacity:1;fill-rule:nonzero;stroke:none;stroke-width:.529167;stroke-linecap:round;stroke-linejoin:round;stroke-miterlimit:4;stroke-dasharray:none;stroke-dashoffset:0;stroke-opacity:1;color-rendering:auto;image-rendering:auto;shape-rendering:auto;text-rendering:auto;enable-background:accumulate;stop-color:#000" transform="matrix(1.18723 0 0 1.18723 -71.268 -294.471)"/><path d="M72.318 253.531c-.296 0-.58.061-.838.17l.01-.004c-1.058.396-2.703.449-4.045-.002l.02.006a2.152 2.152 0 0 0-1.973.156.265.265 0 0 0-.011.006c-.697.484-.976 1.105-.977 1.786a.265.265 0 0 0 0 .015c.029.51.3 1.008.66 1.45-.202.224-.4.467-.4.785 0 .331.135.634.355.85a.265.265 0 0 0 .123.068c2.845.69 5.675.741 8.465 0a.265.265 0 0 0 .117-.069c.22-.216.358-.518.358-.85 0-.312-.207-.55-.414-.77.366-.439.642-.944.671-1.464a.265.265 0 0 0 0-.025c-.034-.978-.506-1.505-.992-1.785a2.139 2.139 0 0 0-1.129-.323z" style="color:#000;font-style:normal;font-variant:normal;font-weight:400;font-stretch:normal;font-size:medium;line-height:normal;font-family:sans-serif;font-variant-ligatures:normal;font-variant-position:normal;font-variant-caps:normal;font-variant-numeric:normal;font-variant-alternates:normal;font-variant-east-asian:normal;font-feature-settings:normal;font-variation-settings:normal;text-indent:0;text-align:start;text-decoration:none;text-decoration-line:none;text-decoration-style:solid;text-decoration-color:#000;letter-spacing:normal;word-spacing:normal;text-transform:none;writing-mode:lr-tb;direction:ltr;text-orientation:mixed;dominant-baseline:auto;baseline-shift:baseline;text-anchor:start;white-space:normal;shape-padding:0;shape-margin:0;inline-size:0;clip-rule:nonzero;display:inline;overflow:visible;visibility:visible;isolation:auto;mix-blend-mode:normal;color-interpolation:sRGB;color-interpolation-filters:linearRGB;solid-color:#000;solid-opacity:1;vector-effect:none;fill:#d0e2ed;fill-opacity:1;fill-rule:nonzero;stroke:none;stroke-width:.529168;stroke-linecap:round;stroke-linejoin:round;stroke-miterlimit:4;stroke-dasharray:none;stroke-dashoffset:0;stroke-opacity:1;color-rendering:auto;image-rendering:auto;shape-rendering:auto;text-rendering:auto;enable-background:accumulate;stop-color:#000" transform="matrix(1.18723 0 0 1.18723 -71.268 -294.471)"/><path style="color:#000;font-style:normal;font-variant:normal;font-weight:400;font-stretch:normal;font-size:medium;line-height:normal;font-family:sans-serif;font-variant-ligatures:normal;font-variant-position:normal;font-variant-caps:normal;font-variant-numeric:normal;font-variant-alternates:normal;font-variant-east-asian:normal;font-feature-settings:normal;font-variation-settings:normal;text-indent:0;text-align:start;text-decoration:none;text-decoration-line:none;text-decoration-style:solid;text-decoration-color:#000;letter-spacing:normal;word-spacing:normal;text-transform:none;writing-mode:lr-tb;direction:ltr;text-orientation:mixed;dominant-baseline:auto;baseline-shift:baseline;text-anchor:start;white-space:normal;shape-padding:0;shape-margin:0;inline-size:0;clip-rule:nonzero;display:inline;overflow:visible;visibility:visible;isolation:auto;mix-blend-mode:normal;color-interpolation:sRGB;color-interpolation-filters:linearRGB;solid-color:#000;solid-opacity:1;vector-effect:none;fill:#aabfd0;fill-opacity:1;fill-rule:nonzero;stroke:none;stroke-width:.546256;stroke-linecap:round;stroke-linejoin:round;stroke-miterlimit:4;stroke-dasharray:none;stroke-dashoffset:0;stroke-opacity:1;color-rendering:auto;image-rendering:auto;shape-rendering:auto;text-rendering:auto;enable-background:accumulate;stop-color:#000" d="M69.472 248.85c1.01.333 1.958 1.321 1.88 2.616a2.54 2.54 0 0 1-.448 1.386c.353.233.643.387.828.763.013.027.027.053.038.08.269.052.522.15.747.289.037.02.073.046.11.07a.265.265 0 0 0 .154-.32 1.455 1.455 0 0 0-.057-.16l-.001-.001c-.014-.032-.03-.063-.045-.093-.011-.021-.02-.043-.032-.064-.016-.028-.034-.056-.052-.083l-.04-.06a1.834 1.834 0 0 0-.17-.206 2.58 2.58 0 0 0-.251-.232 3.593 3.593 0 0 0-.282-.207c.064-.088.125-.178.18-.272.084-.141.155-.289.206-.445a1.636 1.636 0 0 0 .081-.496 2.14 2.14 0 0 0-.62-1.508s-.8-1.047-2.226-1.057z" transform="matrix(1.18723 0 0 1.18723 -71.268 -294.471)"/><path d="M66.924 259.72a.265.265 0 0 0-.195.098l-1.739 2.127-1.363.033a.265.265 0 0 0-.227.137l-.496.91c.11.192.251.371.438.525.008.007.205.187.488.278.303.097.677.11 1.074-.012.467-.144.873-.475 1.284-.887.175.185.325.397.572.496.054.03.124.077.28.122.21.06.504.098.831.025.433-.096.635-.333.828-.543l.01-.011c.24.133.502.248.828.248.286 0 .502-.123.717-.24a.013.013 0 0 1 .004.005c.184.203.372.443.814.54.328.074.622.037.832-.024.155-.045.226-.091.28-.121.247-.1.397-.311.572-.496.41.411.816.743 1.283.886.397.123.771.109 1.074.012.14-.045.26-.112.345-.169l.624 1.144c.346.633-.126 1.43-.847 1.43h1.058c.722 0 1.193-.797.847-1.43l-1.035-1.9-.09-.165-.454-.832a.265.265 0 0 0-.237-.139l-6.479-.961-1.65-.857a.265.265 0 0 0-.271-.228z" style="color:#000;font-style:normal;font-variant:normal;font-weight:400;font-stretch:normal;font-size:medium;line-height:normal;font-family:sans-serif;font-variant-ligatures:normal;font-variant-position:normal;font-variant-caps:normal;font-variant-numeric:normal;font-variant-alternates:normal;font-variant-east-asian:normal;font-feature-settings:normal;font-variation-settings:normal;text-indent:0;text-align:start;text-decoration:none;text-decoration-line:none;text-decoration-style:solid;text-decoration-color:#000;letter-spacing:normal;word-spacing:normal;text-transform:none;writing-mode:lr-tb;direction:ltr;text-orientation:mixed;dominant-baseline:auto;baseline-shift:baseline;text-anchor:start;white-space:normal;shape-padding:0;shape-margin:0;inline-size:0;clip-rule:nonzero;display:inline;overflow:visible;visibility:visible;isolation:auto;mix-blend-mode:normal;color-interpolation:sRGB;color-interpolation-filters:linearRGB;solid-color:#000;solid-opacity:1;vector-effect:none;fill:#67342d;fill-opacity:1;fill-rule:nonzero;stroke:none;stroke-width:.529167;stroke-linecap:round;stroke-linejoin:round;stroke-miterlimit:4;stroke-dasharray:none;stroke-dashoffset:0;stroke-opacity:1;color-rendering:auto;image-rendering:auto;shape-rendering:auto;text-rendering:auto;enable-background:accumulate;stop-color:#000" transform="matrix(1.18723 0 0 1.18723 -71.268 -294.471)"/><path d="M73.654 258.295a.265.265 0 0 0-.084.01c-2.699.717-5.43.67-8.203-.002a.265.265 0 0 0-.265.088s-.675.807-1.188 1.763c-.256.479-.477.995-.547 1.495-.069.495.038.891.446 1.223.013.012.099.091.242.137.153.049.371.065.633-.016.415-.128.98-.49 1.65-1.305.02.197.061.41.168.607.105.195.292.363.535.457.026.016.293.186.67.102.283-.063.6-1.024.91-1.436.01.023.001.023.014.045.137.254.442.537.902.537.443 0 .711.238.82-.02.299.381.532.624.804.684.378.084.645-.086.67-.101.243-.094.43-.262.536-.457.106-.198.147-.41.167-.608.671.816 1.282 1.32 1.698 1.448.262.08.456.112.61.063.142-.046.228-.125.242-.137.407-.332.346-.728.277-1.223-.07-.5-.075-1.016-.332-1.495-.512-.956-1.187-1.763-1.187-1.763a.264.264 0 0 0-.188-.096z" style="color:#000;font-style:normal;font-variant:normal;font-weight:400;font-stretch:normal;font-size:medium;line-height:normal;font-family:sans-serif;font-variant-ligatures:normal;font-variant-position:normal;font-variant-caps:normal;font-variant-numeric:normal;font-variant-alternates:normal;font-variant-east-asian:normal;font-feature-settings:normal;font-variation-settings:normal;text-indent:0;text-align:start;text-decoration:none;text-decoration-line:none;text-decoration-style:solid;text-decoration-color:#000;letter-spacing:normal;word-spacing:normal;text-transform:none;writing-mode:lr-tb;direction:ltr;text-orientation:mixed;dominant-baseline:auto;baseline-shift:baseline;text-anchor:start;white-space:normal;shape-padding:0;shape-margin:0;inline-size:0;clip-rule:nonzero;display:inline;overflow:visible;visibility:visible;isolation:auto;mix-blend-mode:normal;color-interpolation:sRGB;color-interpolation-filters:linearRGB;solid-color:#000;solid-opacity:1;vector-effect:none;fill:#dc1c4b;fill-opacity:1;fill-rule:nonzero;stroke:none;stroke-width:.529167;stroke-linecap:round;stroke-linejoin:round;stroke-miterlimit:4;stroke-dasharray:none;stroke-dashoffset:0;stroke-opacity:1;color-rendering:auto;image-rendering:auto;shape-rendering:auto;text-rendering:auto;enable-background:accumulate;stop-color:#000" transform="matrix(1.18723 0 0 1.18723 -71.268 -294.471)"/><path style="color:#000;font-style:normal;font-variant:normal;font-weight:400;font-stretch:normal;font-size:medium;line-height:normal;font-family:sans-serif;font-variant-ligatures:normal;font-variant-position:normal;font-variant-caps:normal;font-variant-numeric:normal;font-variant-alternates:normal;font-variant-east-asian:normal;font-feature-settings:normal;font-variation-settings:normal;text-indent:0;text-align:start;text-decoration:none;text-decoration-line:none;text-decoration-style:solid;text-decoration-color:#000;letter-spacing:normal;word-spacing:normal;text-transform:none;writing-mode:lr-tb;direction:ltr;text-orientation:mixed;dominant-baseline:auto;baseline-shift:baseline;text-anchor:start;white-space:normal;shape-padding:0;shape-margin:0;inline-size:0;clip-rule:nonzero;display:inline;overflow:visible;visibility:visible;isolation:auto;mix-blend-mode:normal;color-interpolation:sRGB;color-interpolation-filters:linearRGB;solid-color:#000;solid-opacity:1;vector-effect:none;fill:#b31e48;fill-opacity:1;fill-rule:nonzero;stroke:none;stroke-width:.529167;stroke-linecap:round;stroke-linejoin:round;stroke-miterlimit:4;stroke-dasharray:none;stroke-dashoffset:0;stroke-opacity:1;color-rendering:auto;image-rendering:auto;shape-rendering:auto;text-rendering:auto;enable-background:accumulate;stop-color:#000" d="M73.971 261.213c.256.478.476.994.545 1.494.02.151.023.304.008.454a.959.959 0 0 0 .364-.034c.143-.046.23-.125.243-.137.407-.332.358-.822.29-1.318-.07-.5-.289-1.016-.545-1.494a33.998 33.998 0 0 0-1.034-1.787.265.265 0 0 0-.21-.097.254.254 0 0 0-.062.01c-2.699.718-5.43.672-8.203-.001a.265.265 0 0 0-.266.088s-.34.413-.719.987c2.323.373 4.699.504 6.778.27.827-.092 2.014.205 2.443.913.143.236.266.464.368.652z" transform="matrix(1.18723 0 0 1.18723 -71.268 -294.471)"/><path style="color:#000;font-style:normal;font-variant:normal;font-weight:400;font-stretch:normal;font-size:medium;line-height:normal;font-family:sans-serif;font-variant-ligatures:normal;font-variant-position:normal;font-variant-caps:normal;font-variant-numeric:normal;font-variant-alternates:normal;font-variant-east-asian:normal;font-feature-settings:normal;font-variation-settings:normal;text-indent:0;text-align:start;text-decoration:none;text-decoration-line:none;text-decoration-style:solid;text-decoration-color:#000;letter-spacing:normal;word-spacing:normal;text-transform:none;writing-mode:lr-tb;direction:ltr;text-orientation:mixed;dominant-baseline:auto;baseline-shift:baseline;text-anchor:start;white-space:normal;shape-padding:0;shape-margin:0;inline-size:0;clip-rule:nonzero;display:inline;overflow:visible;visibility:visible;opacity:1;isolation:auto;mix-blend-mode:normal;color-interpolation:sRGB;color-interpolation-filters:linearRGB;solid-color:#000;solid-opacity:1;vector-effect:none;fill:#000;fill-opacity:1;fill-rule:nonzero;stroke:none;stroke-width:.529167;stroke-linecap:round;stroke-linejoin:round;stroke-miterlimit:4;stroke-dasharray:none;stroke-dashoffset:0;stroke-opacity:1;color-rendering:auto;image-rendering:auto;shape-rendering:auto;text-rendering:auto;enable-background:accumulate;stop-color:#000;stop-opacity:1" d="M72.128 253.541c-.227.02-.446.075-.648.16a.265.265 0 0 0-.14.348.265.265 0 0 0 .348.14 1.616 1.616 0 0 1 1.486.116.265.265 0 0 0 .279-.45 2.14 2.14 0 0 0-.723-.28 2.146 2.146 0 0 0-.77-.975 2.14 2.14 0 0 0-.261-2.692.265.265 0 0 0-.195-.08.265.265 0 0 0-.182.451c.289.293.467.693.467 1.137a1.6 1.6 0 0 1-.302.933c-.236-.09-.49-.14-.756-.14a.265.265 0 1 0 0 .53c.252 0 .489.058.752.19.264.133.49.349.645.612zm-3.913-.803a.265.265 0 0 0 0-.53c-.266 0-.52.05-.757.14a1.6 1.6 0 0 1-.302-.932c0-.444.177-.844.465-1.137a.265.265 0 0 0-.377-.37 2.147 2.147 0 0 0-.26 2.692c-.344.24-.613.58-.769.977a2.14 2.14 0 0 0-.723.28.265.265 0 1 0 .28.448c.248-.154.54-.243.855-.243.224 0 .437.045.63.127a.265.265 0 1 0 .208-.489 2.136 2.136 0 0 0-.648-.158 1.58 1.58 0 0 1 .644-.613c.265-.134.502-.192.754-.192zm-4.498 1.588a.265.265 0 0 0 0 .53 4.759 4.759 0 0 1 4.685 3.926c-.98-.07-1.964-.225-2.954-.46a.656.656 0 0 1 .021-.872c.092.07.188.138.29.198a.265.265 0 0 0 .268-.456c-.613-.36-.962-.995-.994-1.557a.265.265 0 1 0-.529.029c.028.494.232 1 .585 1.416a1.192 1.192 0 0 0-.123 1.481 11.64 11.64 0 0 0-1.052 1.593c-.256.479-.477.995-.547 1.495a1.852 1.852 0 0 0 0 .527l-1.433 2.626c-.346.634.128 1.43.85 1.43h13.509c.722 0 1.193-.796.848-1.43l-1.55-2.84c-.009-.64-.298-1.312-.561-1.808a11.63 11.63 0 0 0-1.052-1.592 1.183 1.183 0 0 0-.123-1.482c.353-.416.556-.921.584-1.416a.265.265 0 0 0-.248-.279c-.164-.016-.272.12-.279.25-.032.562-.38 1.198-.994 1.557a.265.265 0 0 0-.096.36.265.265 0 0 0 .364.094 2.61 2.61 0 0 0 .289-.197.656.656 0 0 1 .018.875c-.98.255-1.963.41-2.952.471a4.757 4.757 0 0 1 4.687-3.94.265.265 0 0 0 0-.529 5.293 5.293 0 0 0-5.227 4.493c-.353.01-.706.007-1.06-.006a5.29 5.29 0 0 0-5.224-4.487zm12.265.313a.265.265 0 0 0 .206.312c.156.033.334.081.515.14a.265.265 0 0 0 .166-.501 5.416 5.416 0 0 0-.574-.156c-.158-.03-.283.043-.313.205zm-13.332-.205c-.18.037-.376.09-.574.156a.265.265 0 0 0 .166.504c.181-.06.36-.108.516-.141a.265.265 0 0 0 .205-.314c-.043-.169-.167-.226-.313-.205zm10.862 4.408c.078.095.603.728 1.05 1.562.24.448.434.923.489 1.316.005.672-.146.942-.639.886-.337-.104-.97-.519-1.879-1.817-.164-.235-.532-.078-.476.203a2.02 2.02 0 0 1-.086 1.051c-.192.27-.39.34-.623.293-.2-.045-.537-.233-.912-.984-.132-.259-.523-.149-.5.14-.014.315-.169.505-.399.508-.267 0-.358-.116-.435-.26a.895.895 0 0 1-.094-.293c-.024-.265-.38-.333-.5-.095-.376.751-.712.94-.912.984-.29.042-.462.007-.623-.293-.152-.342-.136-.676-.086-1.05.057-.283-.313-.44-.477-.204-.909 1.298-1.542 1.713-1.879 1.817-.575.158-.686-.514-.638-.886.054-.393.248-.868.488-1.316.448-.835.973-1.47 1.05-1.564 1.055.245 2.107.4 2.969.446.861.045 1.305.048 2.152.011.847-.037 1.906-.19 2.96-.455zm-7.174 2.845c.02.198.061.41.168.608.2.428.72.68 1.205.559.58-.212.7-.487.91-.907.239.33.59.575.916.582a.88.88 0 0 0 .82-.549c.299.38.603.813.875.874.514.091 1.036-.217 1.205-.559.107-.198.148-.41.168-.608.671.816 1.235 1.296 1.65 1.424.625.168.838-.038 1.134-.415l1.287 2.36a.429.429 0 0 1-.383.647h-13.51a.43.43 0 0 1-.385-.646l1.232-2.257c.266.35.653.454 1.058.311.415-.128.98-.608 1.65-1.424z" transform="matrix(1.18723 0 0 1.18723 -71.268 -294.471)"/></g></svg>