<svg data-name="Layer 1" xmlns="http://www.w3.org/2000/svg" xmlns:xlink="http://www.w3.org/1999/xlink" viewBox="0 0 48 48"><defs><linearGradient id="b" x1="1371" y1="463.23" x2="1371" y2="562.07" gradientTransform="rotate(180 697.5 248.985)" gradientUnits="userSpaceOnUse"><stop offset="0" stop-color="#fff"/><stop offset=".52" stop-color="#cce2e6"/><stop offset="1" stop-color="#8fa1bb"/></linearGradient><linearGradient id="a" x1="1371" y1="541.13" x2="1371" y2="445.61" gradientTransform="rotate(180 697.5 248.985)" gradientUnits="userSpaceOnUse"><stop offset="0" stop-color="#f3c57a"/><stop offset=".49" stop-color="#f39369"/><stop offset="1" stop-color="#e94867"/></linearGradient><linearGradient id="c" x1="1384.11" y1="575.98" x2="1384.11" y2="448.57" xlink:href="#a"/><linearGradient id="d" x1="1357.89" y1="575.98" x2="1357.89" y2="448.57" xlink:href="#a"/><linearGradient id="e" x1="1371" y1="575.98" x2="1371" y2="448.57" xlink:href="#a"/></defs><circle cx="24" cy="23.98" r="21.03" style="fill:url(#b)"/><path d="M25.19 45a21.2 21.2 0 0 0 19.87-20.66 20.92 20.92 0 0 0-4.15-12.9 6.52 6.52 0 0 0-11.75 3.91v7.95a.73.73 0 0 0 .73.73h2.63a1 1 0 0 1 .74 1.62L24.61 35.7a.81.81 0 0 1-1.23 0l-8.65-10.05a1 1 0 0 1 .74-1.65h2.63a.73.73 0 0 0 .73-.73v-7.91a6.52 6.52 0 0 0-11.74-3.91A21.05 21.05 0 0 0 25.19 45Z" style="fill:url(#a)"/><path d="M7.09 14.5a6.52 6.52 0 0 1 11.75 3.91v-3.05a6.52 6.52 0 0 0-11.75-3.91A20.91 20.91 0 0 0 2.94 24c0 .52 0 1 .06 1.54A20.89 20.89 0 0 1 7.09 14.5Z" style="fill:url(#c)"/><path d="M40.91 14.5A20.89 20.89 0 0 1 45 25.39c0-.35.06-.69.07-1a20.92 20.92 0 0 0-4.15-12.9 6.52 6.52 0 0 0-11.75 3.91v3.05a6.52 6.52 0 0 1 11.74-3.95Z" style="fill:url(#d)"/><path d="M15.47 27.08a1 1 0 0 0-.74 1.62l8.66 10.05a.81.81 0 0 0 1.23 0l8.65-10.05a1 1 0 0 0-.74-1.62H32l-7.39 8.62a.81.81 0 0 1-1.23 0L16 27.08Z" style="fill:url(#e)"/></svg>