<svg xmlns="http://www.w3.org/2000/svg" viewBox="0 0 1200 1200" xml:space="preserve"><path fill="#B3B8BD" d="M695.032 1035.588c0 27.771-11.257 52.914-29.456 71.113-18.199 18.199-43.342 29.456-71.113 29.456s-52.914-11.257-71.113-29.456c-18.199-18.199-29.456-43.342-29.456-71.113s11.257-52.914 29.456-71.113c18.199-18.199 43.342-29.456 71.113-29.456s52.914 11.257 71.113 29.456c18.2 18.199 29.456 43.341 29.456 71.113z"/><path fill="#2E4C59" d="M594.462 1150c-31.544 0-60.146-12.831-80.863-33.548-20.717-20.717-33.548-49.32-33.548-80.863 0-31.544 12.831-60.148 33.548-80.866 20.717-20.718 49.32-33.551 80.863-33.551 31.544 0 60.148 12.832 80.866 33.551 20.718 20.718 33.551 49.323 33.551 80.866 0 31.544-12.832 60.146-33.551 80.863-20.718 20.717-49.322 33.548-80.866 33.548zm0-201.138c-23.91 0-45.59 9.727-61.293 25.431-15.703 15.704-25.428 37.386-25.428 61.296 0 23.91 9.725 45.59 25.428 61.293 15.703 15.703 37.383 25.428 61.293 25.428 23.91 0 45.591-9.725 61.296-25.428 15.704-15.703 25.431-37.383 25.431-61.293 0-23.91-9.727-45.592-25.431-61.296-15.705-15.704-37.386-25.431-61.296-25.431z"/><g opacity=".35" fill="#2E4C59"><path d="M695.032 1035.588c0 27.771-11.257 52.914-29.456 71.113-18.199 18.199-43.342 29.456-71.113 29.456s-52.914-11.257-71.113-29.456c-18.199-18.199-29.456-43.342-29.456-71.113s11.257-52.914 29.456-71.113c18.199-18.199 43.342-29.456 71.113-29.456s52.914 11.257 71.113 29.456c18.2 18.199 29.456 43.341 29.456 71.113z"/><path d="M594.462 1150c-31.544 0-60.146-12.831-80.863-33.548-20.717-20.717-33.548-49.32-33.548-80.863 0-31.544 12.831-60.148 33.548-80.866 20.717-20.718 49.32-33.551 80.863-33.551 31.544 0 60.148 12.832 80.866 33.551 20.718 20.718 33.551 49.323 33.551 80.866 0 31.544-12.832 60.146-33.551 80.863-20.718 20.717-49.322 33.548-80.866 33.548zm0-201.138c-23.91 0-45.59 9.727-61.293 25.431-15.703 15.704-25.428 37.386-25.428 61.296 0 23.91 9.725 45.59 25.428 61.293 15.703 15.703 37.383 25.428 61.293 25.428 23.91 0 45.591-9.725 61.296-25.428 15.704-15.703 25.431-37.383 25.431-61.293 0-23.91-9.727-45.592-25.431-61.296-15.705-15.704-37.386-25.431-61.296-25.431z"/></g><path fill="#FDE9A4" d="M865.488 533.043c0-78.288-33.194-148.823-86.275-198.299s-126.05-77.893-205.601-71.944c-67.302 5.033-127.885 35.068-172.569 80.692s-73.471 106.837-77.182 174.225c-2.268 41.181 4.667 80.495 18.933 116.078s35.864 67.435 62.924 93.693c24.029 23.317 42.451 51.255 54.865 81.734s18.823 63.499 18.823 96.981v5.554h230.116v-5.57c0-34.288 7.153-67.633 20.355-98.481s32.453-59.196 56.648-83.491c24.398-24.499 44.139-53.637 57.78-85.977 13.641-32.343 21.183-67.886 21.183-105.195z"/><path fill="#2E4C59" d="M709.522 925.601H479.407c-3.824 0-7.285-1.549-9.79-4.055s-4.055-5.967-4.055-9.79v-5.554c0-32.206-6.332-63.689-18.183-92.476s-29.223-54.88-51.302-76.304a284.497 284.497 0 0 1-66.935-100.793c-14.675-37.603-21.379-78.353-19.105-119.674 3.913-71.078 34.087-135.417 81.014-183.313s110.606-79.347 181.53-84.65c40.156-3.012 79.378 2.163 115.901 14.904 36.523 12.74 70.348 33.046 99.709 60.293 28.961 26.876 51.746 59.345 67.291 94.967s23.849 74.398 23.849 113.889c0 37.917-7.369 74.716-21.427 108.754-14.059 34.037-34.807 65.313-61.568 92.184-23.529 23.623-41.771 50.724-54.13 79.894-12.36 29.17-18.838 60.409-18.838 92.31v5.57c0 3.824-1.549 7.285-4.055 9.79s-5.967 4.054-9.791 4.054zm-216.394-27.69h202.68c1.071-34.083 8.741-67.342 22.422-98.385 13.681-31.043 33.372-59.869 58.485-85.085 24.159-24.259 42.89-52.494 55.582-83.221 12.692-30.728 19.344-63.948 19.344-98.177 0-35.651-7.499-70.659-21.534-102.82s-34.607-61.475-60.753-85.739c-26.506-24.597-57.048-42.929-90.03-54.431-32.983-11.502-68.407-16.173-104.677-13.448-64.012 4.786-121.487 33.176-163.842 76.408s-69.589 101.307-73.121 165.465c-2.052 37.314 3.999 74.111 17.248 108.064a256.858 256.858 0 0 0 60.43 91.008c23.796 23.093 42.714 50.975 55.945 81.688 13.231 30.714 20.774 64.257 21.821 98.673z"/><path fill="#B3B8BD" d="M706.804 944.544H482.123a25.648 25.648 0 0 1-18.193-7.536 25.648 25.648 0 0 1-7.536-18.193v-4.292c0-7.105 2.88-13.537 7.536-18.193a25.648 25.648 0 0 1 18.193-7.536h224.682c7.105 0 13.537 2.88 18.193 7.536a25.648 25.648 0 0 1 7.536 18.193v4.292c0 7.105-2.88 13.537-7.536 18.193s-11.089 7.536-18.194 7.536z"/><path fill="#2E4C59" d="M704.66 958.391H484.269c-11.503 0-21.933-4.68-29.487-12.235-7.554-7.555-12.232-17.986-12.232-29.49s4.678-21.933 12.232-29.487c7.554-7.554 17.984-12.232 29.487-12.232H704.66c11.503 0 21.933 4.678 29.487 12.232 7.554 7.554 12.232 17.984 12.232 29.487s-4.678 21.935-12.232 29.49c-7.553 7.556-17.983 12.235-29.487 12.235zm-220.391-55.753c-3.867 0-7.374 1.574-9.915 4.114s-4.114 6.048-4.114 9.915c0 3.87 1.574 7.378 4.114 9.919a13.985 13.985 0 0 0 9.915 4.115H704.66c3.867 0 7.374-1.574 9.915-4.115a13.99 13.99 0 0 0 4.114-9.919c0-3.867-1.574-7.374-4.114-9.915s-6.048-4.114-9.915-4.114H484.269z"/><path fill="#B3B8BD" d="M706.804 1000.293H482.123a25.648 25.648 0 0 1-18.193-7.536 25.648 25.648 0 0 1-7.536-18.193v-4.292c0-7.105 2.88-13.537 7.536-18.193a25.648 25.648 0 0 1 18.193-7.536h224.682c7.105 0 13.537 2.88 18.193 7.536s7.536 11.088 7.536 18.193v4.292c0 7.105-2.88 13.537-7.536 18.193a25.652 25.652 0 0 1-18.194 7.536z"/><path fill="#2E4C59" d="M704.66 1014.139H484.269c-11.503 0-21.933-4.678-29.487-12.232-7.554-7.554-12.232-17.984-12.232-29.487 0-11.503 4.678-21.933 12.232-29.487 7.554-7.554 17.984-12.232 29.487-12.232H704.66c11.503 0 21.933 4.678 29.487 12.232 7.554 7.554 12.232 17.984 12.232 29.487 0 11.503-4.678 21.933-12.232 29.487-7.553 7.554-17.983 12.232-29.487 12.232zm-220.391-55.748c-3.867 0-7.374 1.574-9.915 4.114s-4.114 6.048-4.114 9.915c0 3.867 1.574 7.374 4.114 9.915s6.048 4.114 9.915 4.114H704.66c3.867 0 7.374-1.574 9.915-4.114s4.114-6.048 4.114-9.915c0-3.867-1.574-7.374-4.114-9.915s-6.048-4.114-9.915-4.114H484.269z"/><path fill="#B3B8BD" d="M706.804 1056.042H482.123a25.648 25.648 0 0 1-18.193-7.536 25.648 25.648 0 0 1-7.536-18.193v-4.292c0-7.105 2.88-13.537 7.536-18.193a25.648 25.648 0 0 1 18.193-7.536h224.682c7.105 0 13.537 2.88 18.193 7.536s7.536 11.088 7.536 18.193v4.292c0 7.105-2.88 13.537-7.536 18.193a25.652 25.652 0 0 1-18.194 7.536z"/><path fill="#2E4C59" d="M704.66 1069.888H484.269c-11.503 0-21.933-4.678-29.487-12.232-7.554-7.554-12.232-17.984-12.232-29.487 0-11.503 4.678-21.933 12.232-29.487 7.554-7.554 17.984-12.232 29.487-12.232H704.66c11.503 0 21.933 4.678 29.487 12.232 7.554 7.554 12.232 17.984 12.232 29.487 0 11.503-4.678 21.933-12.232 29.487-7.553 7.553-17.983 12.232-29.487 12.232zm-220.391-55.749c-3.867 0-7.374 1.574-9.915 4.114s-4.114 6.048-4.114 9.915c0 3.867 1.574 7.374 4.114 9.915s6.048 4.114 9.915 4.114H704.66c3.867 0 7.374-1.574 9.915-4.114s4.114-6.048 4.114-9.915c0-3.867-1.574-7.374-4.114-9.915s-6.048-4.114-9.915-4.114H484.269z"/><g opacity=".35" fill="#2E4C59"><path d="M543.327 773.451c-33.239-56.25-70.313-109.944-100.356-165.555-30.043-55.611-53.054-113.14-58.168-177.061a324.6 324.6 0 0 1-.393-36.385c.57-12.375 1.89-24.882 4.102-37.169-18.734 21.922-34.059 46.822-45.119 73.846a267.076 267.076 0 0 0-19.531 86.589c-2.268 41.181 4.667 80.495 18.933 116.078s35.864 67.435 62.924 93.693c22.005 21.353 39.291 46.583 51.567 74.092 12.276 27.508 19.543 57.295 21.51 87.761a27.867 27.867 0 0 0-15.99 9.549 27.744 27.744 0 0 0-6.411 17.781c0 7.697 3.12 14.666 8.164 19.71a27.788 27.788 0 0 0 19.71 8.164 27.788 27.788 0 0 0-19.71 8.164 27.788 27.788 0 0 0-8.164 19.711c0 7.697 3.12 14.666 8.164 19.71a27.788 27.788 0 0 0 19.71 8.164 27.788 27.788 0 0 0-19.71 8.164 27.788 27.788 0 0 0-8.164 19.71c0 7.697 3.12 14.666 8.164 19.711a27.788 27.788 0 0 0 19.71 8.164h105.808c.15-49.245 1.82-97.949-3.226-145.313s-16.809-93.39-43.524-137.278z"/><path d="M590.076 1069.888H484.269c-11.503 0-21.933-4.678-29.487-12.232-7.554-7.554-12.232-17.984-12.232-29.487 0-5.351 1.013-10.472 2.857-15.178s4.52-8.999 7.846-12.696c-3.326-3.697-6.002-7.989-7.846-12.696s-2.857-9.827-2.857-15.178a41.496 41.496 0 0 1 2.859-15.178 41.85 41.85 0 0 1 7.844-12.696 41.842 41.842 0 0 1-7.844-12.697 41.519 41.519 0 0 1-2.859-15.183c0-7.734 2.144-15.067 5.913-21.367s9.162-11.564 15.66-15.161c-2.904-27.593-10.342-53.981-21.841-78.117-11.499-24.136-27.058-46.019-46.206-64.602a284.497 284.497 0 0 1-66.935-100.793c-14.675-37.603-21.379-78.353-19.105-119.674 1.717-31.173 8.45-61.342 19.881-89.716 11.431-28.374 27.56-54.955 48.068-78.951a13.81 13.81 0 0 1 7.63-4.546c2.9-.62 5.999-.31 8.822 1.031a13.819 13.819 0 0 1 6.383 6.178 13.826 13.826 0 0 1 1.313 8.786c-1.955 10.873-3.238 22.377-3.831 34.182a309.517 309.517 0 0 0 .31 35.995c3.953 49.415 19.01 94.901 40.001 139.033 20.991 44.131 47.918 86.908 75.611 130.904 6.801 10.806 13.717 21.794 20.597 32.897 6.88 11.103 13.724 22.321 20.382 33.587 25.24 41.495 37.66 85.056 43.673 129.275 6.013 44.219 5.618 89.097 5.228 133.225-.038 4.532-.077 9.068-.11 13.61s-.06 9.089-.074 13.642c-.011 3.815-1.564 7.266-4.069 9.762s-5.96 4.041-9.775 4.041zm-105.807-55.749c-3.867 0-7.374 1.574-9.915 4.114s-4.114 6.048-4.114 9.915c0 3.867 1.574 7.374 4.114 9.915s6.048 4.114 9.915 4.114h92.038a5110.556 5110.556 0 0 1 .114-13.608c.387-44.142.763-87.061-4.761-128.477s-16.947-81.331-40.16-119.464c-.016-.024-.031-.05-.046-.076l-.046-.08c-6.566-11.109-13.342-22.213-20.167-33.224-6.825-11.011-13.697-21.929-20.455-32.664-27.363-43.477-55.194-87.693-77.242-134.266s-38.313-95.501-42.545-148.402a339.612 339.612 0 0 1-.752-24.673c-9.635 16.99-17.231 34.917-22.69 53.535s-8.783 37.927-9.873 57.68c-2.052 37.314 3.999 74.111 17.248 108.064a256.858 256.858 0 0 0 60.43 91.008c22.78 22.106 41.027 48.332 54.112 77.28s21.008 60.619 23.139 93.615a13.824 13.824 0 0 1-2.837 9.325 13.815 13.815 0 0 1-8.277 5.147 13.95 13.95 0 0 0-8.078 4.86 14.015 14.015 0 0 0-3.182 8.888c0 3.87 1.574 7.378 4.114 9.919a13.985 13.985 0 0 0 9.915 4.115c3.824 0 7.285 1.549 9.79 4.055s4.055 5.967 4.055 9.79-1.549 7.285-4.055 9.79-5.967 4.055-9.79 4.055c-3.867 0-7.374 1.574-9.915 4.114s-4.114 6.048-4.114 9.915c0 3.867 1.574 7.374 4.114 9.915s6.048 4.114 9.915 4.114c3.824 0 7.285 1.549 9.79 4.055s4.055 5.967 4.055 9.79c0 3.824-1.549 7.285-4.055 9.79s-5.966 4.057-9.789 4.057z"/></g><path fill="#FFF" d="M802.684 516c-16.474 19.047-43.437 25.869-73.714 21.501-30.277-4.367-63.867-19.924-93.594-45.636s-49.963-56.709-58.648-86.04c-8.685-29.331-5.821-56.996 10.653-76.043 16.474-19.047 43.437-25.869 73.714-21.501 30.277 4.367 63.867 19.924 93.594 45.636 29.727 25.711 49.963 56.709 58.648 86.04 8.685 29.331 5.82 56.996-10.653 76.043z"/><path fill="#2E4C59" d="M594.462 902.638c-3.824 0-7.285-1.549-9.79-4.055s-4.055-5.967-4.055-9.79V655.837c0-3.824 1.549-7.285 4.055-9.79s5.967-4.055 9.79-4.055c3.824 0 7.285 1.549 9.79 4.055s4.055 5.967 4.055 9.79v232.954c0 3.824-1.549 7.285-4.055 9.79s-5.966 4.057-9.79 4.057z"/><path fill="#2E4C59" d="M590.46 669.683c-24.348 0-44.192-10.825-58.11-21.88-13.917-11.055-21.908-22.341-22.549-23.263a13.808 13.808 0 0 1-2.259-10.353 13.818 13.818 0 0 1 5.72-8.922 13.846 13.846 0 0 1 10.355-2.257 13.794 13.794 0 0 1 8.92 5.718c.103.149 6.068 8.465 16.265 16.745s24.626 16.522 41.657 16.522c16.99 0 31.275-8.218 41.34-16.477s15.912-16.559 16.025-16.724a13.855 13.855 0 0 1 8.901-5.747 13.78 13.78 0 0 1 10.341 2.199 13.825 13.825 0 0 1 5.773 8.855 13.762 13.762 0 0 1-2.165 10.339c-.633.925-8.492 12.236-22.291 23.316s-33.535 21.929-57.923 21.929z"/><g fill="#2E4C59"><path d="M924.5 861.091a13.81 13.81 0 0 1-9.789-4.056l-25.73-25.727-25.73-25.727a13.79 13.79 0 0 1-4.056-9.787c0-3.543 1.352-7.087 4.056-9.791a13.801 13.801 0 0 1 9.789-4.056c3.542 0 7.085 1.352 9.789 4.056l25.73 25.727 25.73 25.727c2.704 2.701 4.056 6.244 4.056 9.787s-1.352 7.087-4.056 9.791a13.81 13.81 0 0 1-9.789 4.056zM326.959 263.556a13.81 13.81 0 0 1-9.789-4.056l-25.727-25.727-25.727-25.727c-2.704-2.704-4.056-6.247-4.056-9.789s1.352-7.085 4.056-9.789a13.801 13.801 0 0 1 9.789-4.056c3.542 0 7.085 1.352 9.789 4.056l25.727 25.727 25.727 25.727c2.704 2.704 4.056 6.247 4.056 9.789s-1.352 7.085-4.056 9.789a13.81 13.81 0 0 1-9.789 4.056z"/></g><g fill="#2E4C59"><path d="M1058.906 536.596h-72.768c-3.824 0-7.285-1.549-9.79-4.055s-4.055-5.967-4.055-9.79c0-3.824 1.549-7.285 4.055-9.79s5.967-4.055 9.79-4.055h72.768c3.824 0 7.285 1.549 9.79 4.055s4.055 5.967 4.055 9.79c0 3.824-1.549 7.285-4.055 9.79s-5.966 4.055-9.79 4.055zM213.862 536.596h-72.768c-3.824 0-7.285-1.549-9.79-4.055s-4.055-5.967-4.055-9.79c0-3.824 1.549-7.285 4.055-9.79s5.967-4.055 9.79-4.055h72.768c3.824 0 7.285 1.549 9.79 4.055s4.055 5.967 4.055 9.79c0 3.824-1.549 7.285-4.055 9.79s-5.967 4.055-9.79 4.055z"/></g><g fill="#2E4C59"><path d="M873.041 263.556a13.81 13.81 0 0 1-9.789-4.056 13.804 13.804 0 0 1-4.056-9.791c0-3.543 1.352-7.085 4.056-9.787l25.73-25.727 25.73-25.727a13.801 13.801 0 0 1 9.789-4.056c3.542 0 7.085 1.352 9.789 4.056 2.704 2.704 4.056 6.248 4.056 9.791s-1.352 7.085-4.056 9.787l-25.73 25.727-25.73 25.727a13.81 13.81 0 0 1-9.789 4.056zM275.505 861.091a13.8 13.8 0 0 1-9.789-4.056c-2.704-2.704-4.056-6.247-4.056-9.789s1.352-7.085 4.056-9.789l25.727-25.727 25.727-25.727a13.801 13.801 0 0 1 9.789-4.056c3.542 0 7.085 1.352 9.789 4.056a13.801 13.801 0 0 1 4.056 9.789c0 3.542-1.352 7.085-4.056 9.789l-25.727 25.727-25.727 25.727a13.81 13.81 0 0 1-9.789 4.056z"/></g><path fill="#2E4C59" d="M600 150.458c-3.824 0-7.285-1.549-9.79-4.055s-4.055-5.967-4.055-9.79V63.845c0-3.824 1.549-7.285 4.055-9.79S596.176 50 600 50s7.285 1.549 9.79 4.055 4.055 5.967 4.055 9.79v72.768c0 3.824-1.549 7.285-4.055 9.79s-5.966 4.055-9.79 4.055zM462.831 180.739c-2.78 0-5.48-.842-7.75-2.372a13.776 13.776 0 0 1-5.17-6.493l-6.952-18.026-6.952-18.026a13.809 13.809 0 0 1 .264-10.593 13.81 13.81 0 0 1 7.675-7.308 13.859 13.859 0 0 1 10.599.266 13.79 13.79 0 0 1 7.302 7.673l6.947 18.02 6.947 18.02a13.805 13.805 0 0 1-.257 10.593 13.794 13.794 0 0 1-7.672 7.308c-.819.316-1.651.55-2.484.705-.834.157-1.67.233-2.497.233z"/><g fill="#2E4C59"><path d="M983.942 706.897a13.737 13.737 0 0 1-5.608-1.195l-13.594-6.028-13.594-6.027c-3.494-1.549-6.029-4.369-7.303-7.674s-1.288-7.098.262-10.595a13.792 13.792 0 0 1 7.674-7.301 13.822 13.822 0 0 1 10.595.26l13.594 6.027 13.594 6.028a13.796 13.796 0 0 1 7.303 7.674 13.809 13.809 0 0 1-.262 10.595 13.772 13.772 0 0 1-5.199 6.055 13.9 13.9 0 0 1-7.462 2.181zM244.862 379.087a13.756 13.756 0 0 1-5.608-1.195l-14.405-6.39-14.405-6.39c-3.494-1.549-6.029-4.369-7.303-7.674s-1.288-7.098.262-10.595c1.549-3.494 4.37-6.029 7.676-7.303s7.099-1.288 10.593.262l14.405 6.39 14.405 6.39c3.496 1.549 6.032 4.37 7.305 7.676s1.286 7.099-.264 10.593a13.795 13.795 0 0 1-5.201 6.055 13.89 13.89 0 0 1-7.46 2.181z"/></g><g fill="#2E4C59"><path d="M960.844 397.507a13.9 13.9 0 0 1-7.753-2.374 13.796 13.796 0 0 1-5.173-6.495 13.813 13.813 0 0 1 .264-10.595 13.81 13.81 0 0 1 7.675-7.306l15.535-5.99 15.535-5.99a13.864 13.864 0 0 1 10.599.272 13.781 13.781 0 0 1 7.302 7.667c1.374 3.569 1.172 7.357-.264 10.595s-4.108 5.929-7.675 7.306l-15.535 5.99-15.535 5.99c-.819.314-1.65.546-2.482.7-.832.154-1.666.23-2.493.23zM208.102 687.676c-2.78 0-5.48-.842-7.75-2.372a13.782 13.782 0 0 1-5.17-6.497 13.8 13.8 0 0 1 .26-10.593 13.793 13.793 0 0 1 7.674-7.303l14.705-5.671 14.705-5.671a13.809 13.809 0 0 1 10.597.267 13.8 13.8 0 0 1 7.299 7.678 13.804 13.804 0 0 1-.265 10.593 13.791 13.791 0 0 1-7.68 7.303l-14.7 5.665-14.7 5.665c-.819.316-1.65.55-2.482.705-.831.155-1.665.231-2.493.231z"/></g><path fill="#2E4C59" d="M759.376 177.267a13.756 13.756 0 0 1-5.608-1.195 13.79 13.79 0 0 1-7.305-7.676 13.804 13.804 0 0 1 .264-10.593l5.457-12.306 5.457-12.306a13.826 13.826 0 0 1 7.688-7.305 13.773 13.773 0 0 1 10.581.264 13.79 13.79 0 0 1 7.305 7.676 13.804 13.804 0 0 1-.264 10.593l-5.457 12.306-5.457 12.306a13.795 13.795 0 0 1-5.201 6.055 13.896 13.896 0 0 1-7.46 2.181z"/></svg>