<svg xmlns="http://www.w3.org/2000/svg" width="64" height="64" xml:space="preserve"><circle fill="#CFEDFA" cx="24" cy="24" r="21"/><path fill="#ACC4E1" d="M24 1C11.298 1 1 11.298 1 24s10.298 23 23 23 23-10.298 23-23S36.702 1 24 1zm0 42C13.507 43 5 34.493 5 24S13.507 5 24 5s19 8.507 19 19-8.507 19-19 19zm17 5 3 3 7-7-3-3-7 7zm16.5 4a5.5 5.5 0 1 0 0 11 5.5 5.5 0 0 0 0-11z"/><path fill="#BBD2EE" d="m39 42 3-3 4 4-3 3z"/><path fill="#BC9E85" d="m50.906 43.097-7.81 7.81 9.685 9.685.033-.034 7.743-7.742.033-.033-9.684-9.686z"/><path fill="#2B3139" d="M62.801 54.435c-.037-.059-.063-.123-.115-.175l-.16-.16a5.948 5.948 0 0 0-.625-.625l-1.186-1.186-.002-.003-.003-.002-8.993-8.993-.004-.005-.005-.003-2.991-2.991-.004-.006a.98.98 0 0 0-.329-.218 1.006 1.006 0 0 0-1.101.215c-.025.025-.034.058-.057.085l-1.25 1.251-2.971-2.972A23.876 23.876 0 0 0 48 24C48 10.745 37.255 0 24 0S0 10.745 0 24s10.745 24 24 24a23.878 23.878 0 0 0 14.646-4.996l2.973 2.973-1.249 1.249c-.027.022-.062.032-.087.058a1.007 1.007 0 0 0 0 1.425l.002.002.002.003.003.002 2.995 2.996.002.002.002.002 8.995 8.995.002.003.003.002 1.186 1.186c.193.224.401.432.625.625l.16.16c.052.052.116.078.175.115A5.948 5.948 0 0 0 58 64a6 6 0 0 0 6-6 5.943 5.943 0 0 0-1.199-3.565zM37.364 41.463c-.123.003-.182.027-.134.105A21.876 21.876 0 0 1 24 46C11.85 46 2 36.15 2 24S11.85 2 24 2s22 9.85 22 22c0 4.968-1.648 9.551-4.426 13.233-.085-.055-.109.009-.111.141a22.165 22.165 0 0 1-4.099 4.089zm2.764.307a24.238 24.238 0 0 0 1.644-1.641l2.848 2.848-1.643 1.643-2.849-2.85zm2.287 6.219 1.225-1.225c.023-.02.053-.027.075-.05s.03-.052.051-.076l2.873-2.873c.024-.021.054-.028.076-.051s.03-.052.05-.075l1.225-1.225 1.594 1.597-5.572 5.573a880.739 880.739 0 0 1-1.597-1.595zM53.01 58.584l-7.595-7.595 5.572-5.572a9352.14 9352.14 0 0 0 7.594 7.597l-5.571 5.57zM58 62a3.962 3.962 0 0 1-2.358-.784l-.857-.857-.369-.369 5.572-5.572.371.367.857.857c.487.662.784 1.472.784 2.358a4 4 0 0 1-4 4zM24 4C12.954 4 4 12.954 4 24s8.954 20 20 20 20-8.954 20-20S35.046 4 24 4zm0 38c-9.941 0-18-8.059-18-18S14.059 6 24 6s18 8.059 18 18-8.059 18-18 18zm0-34a1 1 0 1 0 0 2c7.732 0 14 6.268 14 14a1 1 0 1 0 2 0c0-8.837-7.163-16-16-16z"/></svg>