<?xml version="1.0" encoding="UTF-8" standalone="no"?>
<svg
   xmlns:dc="http://purl.org/dc/elements/1.1/"
   xmlns:cc="http://creativecommons.org/ns#"
   xmlns:rdf="http://www.w3.org/1999/02/22-rdf-syntax-ns#"
   xmlns:svg="http://www.w3.org/2000/svg"
   xmlns="http://www.w3.org/2000/svg"
   xmlns:sodipodi="http://sodipodi.sourceforge.net/DTD/sodipodi-0.dtd"
   xmlns:inkscape="http://www.inkscape.org/namespaces/inkscape"
   inkscape:export-ydpi="576"
   inkscape:export-xdpi="576"
   inkscape:export-filename="C:\Users\RainBoyz\Desktop\DONE\Flat [Done!]\EX\6 - Eclipse.png"
   sodipodi:docname="Template Export.svg"
   inkscape:version="1.0 (4035a4fb49, 2020-05-01)"
   id="svg831"
   version="1.1"
   viewBox="0 0 22.577778 22.577778"
   height="64pt"
   width="64pt">
  <defs
     id="defs825">
    <pattern
       y="0"
       x="0"
       height="6"
       width="6"
       patternUnits="userSpaceOnUse"
       id="EMFhbasepattern" />
    <pattern
       y="0"
       x="0"
       height="6"
       width="6"
       patternUnits="userSpaceOnUse"
       id="EMFhbasepattern-9" />
    <pattern
       y="0"
       x="0"
       height="6"
       width="6"
       patternUnits="userSpaceOnUse"
       id="EMFhbasepattern-0" />
    <pattern
       y="0"
       x="0"
       height="6"
       width="6"
       patternUnits="userSpaceOnUse"
       id="EMFhbasepattern-7" />
    <pattern
       y="0"
       x="0"
       height="6"
       width="6"
       patternUnits="userSpaceOnUse"
       id="EMFhbasepattern-2" />
    <pattern
       y="0"
       x="0"
       height="6"
       width="6"
       patternUnits="userSpaceOnUse"
       id="EMFhbasepattern-98" />
    <pattern
       y="0"
       x="0"
       height="6"
       width="6"
       patternUnits="userSpaceOnUse"
       id="EMFhbasepattern-6" />
    <pattern
       y="0"
       x="0"
       height="6"
       width="6"
       patternUnits="userSpaceOnUse"
       id="EMFhbasepattern-01" />
    <pattern
       y="0"
       x="0"
       height="6"
       width="6"
       patternUnits="userSpaceOnUse"
       id="EMFhbasepattern-07" />
    <pattern
       y="0"
       x="0"
       height="6"
       width="6"
       patternUnits="userSpaceOnUse"
       id="EMFhbasepattern-8" />
    <pattern
       y="0"
       x="0"
       height="6"
       width="6"
       patternUnits="userSpaceOnUse"
       id="EMFhbasepattern-4" />
    <pattern
       y="0"
       x="0"
       height="6"
       width="6"
       patternUnits="userSpaceOnUse"
       id="EMFhbasepattern-40" />
    <pattern
       y="0"
       x="0"
       height="6"
       width="6"
       patternUnits="userSpaceOnUse"
       id="EMFhbasepattern-08" />
    <pattern
       y="0"
       x="0"
       height="6"
       width="6"
       patternUnits="userSpaceOnUse"
       id="EMFhbasepattern-04" />
    <pattern
       y="0"
       x="0"
       height="6"
       width="6"
       patternUnits="userSpaceOnUse"
       id="EMFhbasepattern-014" />
    <pattern
       y="0"
       x="0"
       height="6"
       width="6"
       patternUnits="userSpaceOnUse"
       id="EMFhbasepattern-27" />
    <pattern
       y="0"
       x="0"
       height="6"
       width="6"
       patternUnits="userSpaceOnUse"
       id="EMFhbasepattern-09" />
    <pattern
       y="0"
       x="0"
       height="6"
       width="6"
       patternUnits="userSpaceOnUse"
       id="EMFhbasepattern-5" />
    <pattern
       y="0"
       x="0"
       height="6"
       width="6"
       patternUnits="userSpaceOnUse"
       id="EMFhbasepattern-018" />
  </defs>
  <sodipodi:namedview
     inkscape:document-rotation="0"
     inkscape:snap-global="true"
     inkscape:snap-nodes="false"
     inkscape:bbox-nodes="true"
     inkscape:snap-bbox="true"
     showguides="true"
     inkscape:snap-midpoints="true"
     inkscape:snap-smooth-nodes="true"
     inkscape:snap-intersection-paths="true"
     inkscape:object-paths="true"
     inkscape:showpageshadow="false"
     inkscape:pagecheckerboard="true"
     inkscape:window-maximized="1"
     inkscape:window-y="-8"
     inkscape:window-x="-8"
     inkscape:window-height="715"
     inkscape:window-width="1366"
     units="pt"
     showgrid="false"
     inkscape:current-layer="layer1"
     inkscape:document-units="pt"
     inkscape:cy="42.778201"
     inkscape:cx="-4.2778197"
     inkscape:zoom="4.4415145"
     inkscape:pageshadow="2"
     inkscape:pageopacity="0.0"
     borderopacity="1.0"
     bordercolor="#666666"
     pagecolor="#ffffff"
     id="base">
    <inkscape:grid
       id="grid1378"
       type="xygrid" />
    <sodipodi:guide
       inkscape:locked="false"
       id="guide1380"
       orientation="78.000048,0"
       position="0.97013831,21.607643" />
    <sodipodi:guide
       inkscape:locked="false"
       id="guide1382"
       orientation="0,78.000005"
       position="0.97013831,0.97013129" />
    <sodipodi:guide
       inkscape:locked="false"
       id="guide1384"
       orientation="-78.000048,0"
       position="21.607639,0.97013129" />
    <sodipodi:guide
       inkscape:locked="false"
       id="guide1386"
       orientation="0,-78.000005"
       position="21.607639,21.607643" />
  </sodipodi:namedview>
  <metadata
     id="metadata828">
    <rdf:RDF>
      <cc:Work
         rdf:about="">
        <dc:format>image/svg+xml</dc:format>
        <dc:type
           rdf:resource="http://purl.org/dc/dcmitype/StillImage" />
        <dc:title></dc:title>
      </cc:Work>
    </rdf:RDF>
  </metadata>
  <g
     transform="translate(0,-274.42223)"
     id="layer1"
     inkscape:groupmode="layer"
     inkscape:label="Icon">
    <g
       transform="matrix(1.2704927,0,0,1.2704927,-115.7298,-42.114975)"
       id="g738">
      <path
         style="color:#000000;font-style:normal;font-variant:normal;font-weight:normal;font-stretch:normal;font-size:medium;line-height:normal;font-family:sans-serif;font-variant-ligatures:normal;font-variant-position:normal;font-variant-caps:normal;font-variant-numeric:normal;font-variant-alternates:normal;font-variant-east-asian:normal;font-feature-settings:normal;font-variation-settings:normal;text-indent:0;text-align:start;text-decoration:none;text-decoration-line:none;text-decoration-style:solid;text-decoration-color:#000000;letter-spacing:normal;word-spacing:normal;text-transform:none;writing-mode:lr-tb;direction:ltr;text-orientation:mixed;dominant-baseline:auto;baseline-shift:baseline;text-anchor:start;white-space:normal;shape-padding:0;shape-margin:0;inline-size:0;clip-rule:nonzero;display:inline;overflow:visible;visibility:visible;isolation:auto;mix-blend-mode:normal;color-interpolation:sRGB;color-interpolation-filters:linearRGB;solid-color:#000000;solid-opacity:1;vector-effect:none;fill:#aabfd0;fill-opacity:1;fill-rule:nonzero;stroke:none;stroke-width:0.529166;stroke-linecap:round;stroke-linejoin:round;stroke-miterlimit:4;stroke-dasharray:none;stroke-dashoffset:0;stroke-opacity:1;color-rendering:auto;image-rendering:auto;shape-rendering:auto;text-rendering:auto;enable-background:accumulate;stop-color:#000000"
         d="m 102.99023,254.16211 a 0.26460945,0.26460945 0 0 0 -0.21093,0.4082 c 0.49365,0.7492 0.78125,1.64559 0.78125,2.61133 0,2.62294 -2.12121,4.74414 -4.744144,4.74414 -0.738987,0 -1.436761,-0.16809 -2.060547,-0.46875 a 0.26460945,0.26460945 0 0 0 -0.335937,0.38281 c 0.942799,1.42635 2.564135,2.36719 4.400388,2.36719 2.90891,0 5.27344,-2.36256 5.27344,-5.27148 0,-2.03558 -1.17971,-3.77643 -2.87305,-4.6543 -0.0426,-0.0221 -0.0622,-0.0728 -0.10547,-0.0937 a 0.26460945,0.26460945 0 0 0 -0.125,-0.0254 z"
         id="path1778" />
      <path
         style="color:#000000;font-style:normal;font-variant:normal;font-weight:normal;font-stretch:normal;font-size:medium;line-height:normal;font-family:sans-serif;font-variant-ligatures:normal;font-variant-position:normal;font-variant-caps:normal;font-variant-numeric:normal;font-variant-alternates:normal;font-variant-east-asian:normal;font-feature-settings:normal;font-variation-settings:normal;text-indent:0;text-align:start;text-decoration:none;text-decoration-line:none;text-decoration-style:solid;text-decoration-color:#000000;letter-spacing:normal;word-spacing:normal;text-transform:none;writing-mode:lr-tb;direction:ltr;text-orientation:mixed;dominant-baseline:auto;baseline-shift:baseline;text-anchor:start;white-space:normal;shape-padding:0;shape-margin:0;inline-size:0;clip-rule:nonzero;display:inline;overflow:visible;visibility:visible;isolation:auto;mix-blend-mode:normal;color-interpolation:sRGB;color-interpolation-filters:linearRGB;solid-color:#000000;solid-opacity:1;vector-effect:none;fill:#5b6571;fill-opacity:1;fill-rule:nonzero;stroke:none;stroke-width:0.529167;stroke-linecap:round;stroke-linejoin:round;stroke-miterlimit:4;stroke-dasharray:none;stroke-dashoffset:0;stroke-opacity:1;color-rendering:auto;image-rendering:auto;shape-rendering:auto;text-rendering:auto;enable-background:accumulate;stop-color:#000000"
         d="m 102.1582,260.14453 a 0.26460996,0.26460996 0 0 0 -0.16797,0.0684 l -0.9082,0.82031 a 0.26460996,0.26460996 0 0 0 -0.0606,0.31055 l 0.11719,0.24414 c 0.15525,0.36335 0.51649,0.61719 0.9336,0.61719 0.55787,0 1.01562,-0.45774 1.01562,-1.01563 0,-0.34257 -0.1715,-0.65042 -0.43359,-0.83398 a 0.26460996,0.26460996 0 0 0 -0.0352,-0.0195 l -0.33398,-0.16602 a 0.26460996,0.26460996 0 0 0 -0.12696,-0.0254 z"
         id="path1793" />
      <path
         style="color:#000000;font-style:normal;font-variant:normal;font-weight:normal;font-stretch:normal;font-size:medium;line-height:normal;font-family:sans-serif;font-variant-ligatures:normal;font-variant-position:normal;font-variant-caps:normal;font-variant-numeric:normal;font-variant-alternates:normal;font-variant-east-asian:normal;font-feature-settings:normal;font-variation-settings:normal;text-indent:0;text-align:start;text-decoration:none;text-decoration-line:none;text-decoration-style:solid;text-decoration-color:#000000;letter-spacing:normal;word-spacing:normal;text-transform:none;writing-mode:lr-tb;direction:ltr;text-orientation:mixed;dominant-baseline:auto;baseline-shift:baseline;text-anchor:start;white-space:normal;shape-padding:0;shape-margin:0;inline-size:0;clip-rule:nonzero;display:inline;overflow:visible;visibility:visible;isolation:auto;mix-blend-mode:normal;color-interpolation:sRGB;color-interpolation-filters:linearRGB;solid-color:#000000;solid-opacity:1;vector-effect:none;fill:#febe40;fill-opacity:1;fill-rule:nonzero;stroke:none;stroke-width:0.529166;stroke-linecap:round;stroke-linejoin:round;stroke-miterlimit:4;stroke-dasharray:none;stroke-dashoffset:0;stroke-opacity:1;color-rendering:auto;image-rendering:auto;shape-rendering:auto;text-rendering:auto;enable-background:accumulate;stop-color:#000000"
         d="m 100.82031,253.66211 c -2.908922,0 -5.273435,2.36452 -5.273435,5.27344 -10e-7,1.0737 0.323031,2.07377 0.875,2.90625 a 0.26460945,0.26460945 0 0 0 0.105469,0.0918 c 0.692861,0.33288 1.469503,0.52149 2.289062,0.52149 2.908914,0 5.273434,-2.36452 5.273434,-5.27344 0,-1.07104 -0.32107,-2.06982 -0.86914,-2.90234 a 0.26460945,0.26460945 0 0 0 -0.10547,-0.0918 c -0.69388,-0.3365 -1.47292,-0.52539 -2.29492,-0.52539 z"
         id="path1761" />
      <path
         id="path1805"
         style="color:#000000;font-style:normal;font-variant:normal;font-weight:normal;font-stretch:normal;font-size:medium;line-height:normal;font-family:sans-serif;font-variant-ligatures:normal;font-variant-position:normal;font-variant-caps:normal;font-variant-numeric:normal;font-variant-alternates:normal;font-variant-east-asian:normal;font-feature-settings:normal;font-variation-settings:normal;text-indent:0;text-align:start;text-decoration:none;text-decoration-line:none;text-decoration-style:solid;text-decoration-color:#000000;letter-spacing:normal;word-spacing:normal;text-transform:none;writing-mode:lr-tb;direction:ltr;text-orientation:mixed;dominant-baseline:auto;baseline-shift:baseline;text-anchor:start;white-space:normal;shape-padding:0;shape-margin:0;inline-size:0;clip-rule:nonzero;display:inline;overflow:visible;visibility:visible;opacity:1;isolation:auto;mix-blend-mode:normal;color-interpolation:sRGB;color-interpolation-filters:linearRGB;solid-color:#000000;solid-opacity:1;vector-effect:none;fill:#5b6571;fill-opacity:1;fill-rule:nonzero;stroke:none;stroke-width:2;stroke-linecap:round;stroke-linejoin:round;stroke-miterlimit:4;stroke-dasharray:none;stroke-dashoffset:0;stroke-opacity:1;color-rendering:auto;image-rendering:auto;shape-rendering:auto;text-rendering:auto;enable-background:accumulate;stop-color:#000000;stop-opacity:1"
         d="m 399.4043,-87.533203 -0.68555,0.04883 a 1.0001006,1.0001006 0 0 0 -0.0156,0.0078 c -1.96259,0.167433 -3.50585,1.826398 -3.50585,3.824218 0,2.108561 1.72936,3.837891 3.83789,3.837891 0.42293,0 0.83425,-0.07071 1.21875,-0.199219 l 0.0215,-0.0059 0.69531,-0.21875 c -0.049,-2.591724 -0.6027,-5.049788 -1.5664,-7.294922 z"
         transform="matrix(0.26458334,0,0,0.26458334,0,280.06666)" />
      <path
         id="path1813"
         style="color:#000000;font-style:normal;font-variant:normal;font-weight:normal;font-stretch:normal;font-size:medium;line-height:normal;font-family:sans-serif;font-variant-ligatures:normal;font-variant-position:normal;font-variant-caps:normal;font-variant-numeric:normal;font-variant-alternates:normal;font-variant-east-asian:normal;font-feature-settings:normal;font-variation-settings:normal;text-indent:0;text-align:start;text-decoration:none;text-decoration-line:none;text-decoration-style:solid;text-decoration-color:#000000;letter-spacing:normal;word-spacing:normal;text-transform:none;writing-mode:lr-tb;direction:ltr;text-orientation:mixed;dominant-baseline:auto;baseline-shift:baseline;text-anchor:start;white-space:normal;shape-padding:0;shape-margin:0;inline-size:0;clip-rule:nonzero;display:inline;overflow:visible;visibility:visible;opacity:1;isolation:auto;mix-blend-mode:normal;color-interpolation:sRGB;color-interpolation-filters:linearRGB;solid-color:#000000;solid-opacity:1;vector-effect:none;fill:#5b6571;fill-opacity:1;fill-rule:nonzero;stroke:none;stroke-width:2;stroke-linecap:round;stroke-linejoin:round;stroke-miterlimit:4;stroke-dasharray:none;stroke-dashoffset:0;stroke-opacity:1;color-rendering:auto;image-rendering:auto;shape-rendering:auto;text-rendering:auto;enable-background:accumulate;stop-color:#000000;stop-opacity:1"
         d="m 386.73047,-65.722656 c -1.58585,0 -2.89453,1.300867 -2.89453,2.886718 0,0.827112 0.35366,1.592502 0.91601,2.119141 l 0.30664,0.371094 c 1.55747,-0.318435 3.03671,-0.838909 4.43946,-1.498047 l 0.082,-0.482422 v -0.0078 c 0.0265,-0.154583 0.043,-0.3239 0.043,-0.501954 0,-1.585851 -1.30677,-2.886718 -2.89258,-2.886718 z"
         transform="matrix(0.26458334,0,0,0.26458334,0,280.06666)" />
      <path
         transform="matrix(0.26458334,0,0,0.26458334,0,280.06666)"
         d="m 381.05273,-96.009766 c -2.59309,0 -5.03075,0.687489 -7.13085,1.896485 a 0.99999869,0.99999869 0 0 0 -0.36915,1.367187 0.99999869,0.99999869 0 0 0 1.36524,0.369141 c 1.80641,-1.039899 3.89668,-1.632813 6.13476,-1.632813 1.92556,0 3.73879,0.441517 5.35938,1.226563 a 0.99999869,0.99999869 0 0 0 1.33594,-0.464844 0.99999869,0.99999869 0 0 0 -0.46485,-1.337891 c -1.885,-0.913133 -3.99949,-1.423828 -6.23047,-1.423828 z m -10.64453,4.5625 a 0.99999869,0.99999869 0 0 0 -0.67968,0.28711 c -1.20601,1.206009 -2.18036,2.642149 -2.85547,4.238281 a 0.99999869,0.99999869 0 0 0 0.53125,1.3125 0.99999869,0.99999869 0 0 0 1.31445,-0.53125 c 0.57327,-1.355376 1.40153,-2.575345 2.42773,-3.601563 a 0.99999869,0.99999869 0 0 0 0,-1.417968 0.99999869,0.99999869 0 0 0 -0.73828,-0.28711 z"
         style="color:#000000;font-style:normal;font-variant:normal;font-weight:normal;font-stretch:normal;font-size:medium;line-height:normal;font-family:sans-serif;font-variant-ligatures:normal;font-variant-position:normal;font-variant-caps:normal;font-variant-numeric:normal;font-variant-alternates:normal;font-variant-east-asian:normal;font-feature-settings:normal;font-variation-settings:normal;text-indent:0;text-align:start;text-decoration:none;text-decoration-line:none;text-decoration-style:solid;text-decoration-color:#000000;letter-spacing:normal;word-spacing:normal;text-transform:none;writing-mode:lr-tb;direction:ltr;text-orientation:mixed;dominant-baseline:auto;baseline-shift:baseline;text-anchor:start;white-space:normal;shape-padding:0;shape-margin:0;inline-size:0;clip-rule:nonzero;display:inline;overflow:visible;visibility:visible;opacity:1;isolation:auto;mix-blend-mode:normal;color-interpolation:sRGB;color-interpolation-filters:linearRGB;solid-color:#000000;solid-opacity:1;vector-effect:none;fill:#ed7425;fill-opacity:1;fill-rule:nonzero;stroke:none;stroke-width:2;stroke-linecap:round;stroke-linejoin:round;stroke-miterlimit:4;stroke-dasharray:none;stroke-dashoffset:0;stroke-opacity:1;color-rendering:auto;image-rendering:auto;shape-rendering:auto;text-rendering:auto;enable-background:accumulate;stop-color:#000000;stop-opacity:1"
         id="path1622" />
      <path
         transform="matrix(0.26458334,0,0,0.26458334,0,280.06666)"
         d="m 368.81445,-112.73828 a 1.0000006,1.0000006 0 0 0 -0.0371,0.002 1.0000006,1.0000006 0 0 0 -0.0957,0.006 1.0000006,1.0000006 0 0 0 -0.82812,1.15235 l 1.80273,11.05078 a 1.0000006,1.0000006 0 0 0 1.14258,0.826168 1.0000006,1.0000006 0 0 0 0.82812,-1.150388 l -1.80078,-11.05078 a 1.0000006,1.0000006 0 0 0 -1.01172,-0.83594 z m 26.38867,1.58398 a 1.0000006,1.0000006 0 0 0 -0.0645,0.004 1.0000006,1.0000006 0 0 0 -0.74609,0.48047 l -5.67774,9.46289 a 1.0000006,1.0000006 0 0 0 0.33985,1.373046 1.0000006,1.0000006 0 0 0 1.37304,-0.339846 l 5.67774,-9.46289 a 1.0000006,1.0000006 0 0 0 -0.33985,-1.37305 1.0000006,1.0000006 0 0 0 -0.5625,-0.14453 z m -13.20507,1.84961 a 1.0000006,1.0000006 0 0 0 -0.9961,0.9961 v 5.72851 a 1.0000006,1.0000006 0 0 0 0.9961,0.9961 1.0000006,1.0000006 0 0 0 1.0039,-0.9961 v -5.72851 a 1.0000006,1.0000006 0 0 0 -1.0039,-0.9961 z m -21.93164,8.42969 a 1.0000006,1.0000006 0 0 0 -0.67188,0.29492 1.0000006,1.0000006 0 0 0 0,1.410158 l 4.04492,4.052734 a 1.0000006,1.0000006 0 0 0 1.41797,0 1.0000006,1.0000006 0 0 0 0,-1.416015 l -4.05273,-4.046877 a 1.0000006,1.0000006 0 0 0 -0.73828,-0.29492 z m -11.90625,10.541016 a 0.99999869,0.99999869 0 0 0 -0.98243,0.841796 0.99999869,0.99999869 0 0 0 0.81836,1.144532 l 11.05079,1.800781 a 0.99999869,0.99999869 0 0 0 1.15234,-0.826172 0.99999869,0.99999869 0 0 0 -0.82617,-1.144531 l -11.05078,-1.800781 a 0.99999869,0.99999869 0 0 0 -0.16211,-0.01563 z m 4.40625,13.251953 a 0.99999869,0.99999869 0 0 0 -0.9961,1.003906 0.99999869,0.99999869 0 0 0 0.9961,0.996094 h 5.72851 a 0.99999869,0.99999869 0 0 0 0.9961,-0.996094 0.99999869,0.99999869 0 0 0 -0.9961,-1.003906 z m 8.57421,7.572265 a 0.99999869,0.99999869 0 0 0 -0.47656,0.140625 l -9.46289,5.677735 a 0.99999869,0.99999869 0 0 0 -0.34765,1.373047 0.99999869,0.99999869 0 0 0 1.37304,0.345703 l 9.46485,-5.683594 a 0.99999869,0.99999869 0 0 0 0.3457,-1.373047 0.99999869,0.99999869 0 0 0 -0.8125,-0.480469 0.99999869,0.99999869 0 0 0 -0.084,0 z"
         style="color:#000000;font-style:normal;font-variant:normal;font-weight:normal;font-stretch:normal;font-size:medium;line-height:normal;font-family:sans-serif;font-variant-ligatures:normal;font-variant-position:normal;font-variant-caps:normal;font-variant-numeric:normal;font-variant-alternates:normal;font-variant-east-asian:normal;font-feature-settings:normal;font-variation-settings:normal;text-indent:0;text-align:start;text-decoration:none;text-decoration-line:none;text-decoration-style:solid;text-decoration-color:#000000;letter-spacing:normal;word-spacing:normal;text-transform:none;writing-mode:lr-tb;direction:ltr;text-orientation:mixed;dominant-baseline:auto;baseline-shift:baseline;text-anchor:start;white-space:normal;shape-padding:0;shape-margin:0;inline-size:0;clip-rule:nonzero;display:inline;overflow:visible;visibility:visible;opacity:1;isolation:auto;mix-blend-mode:normal;color-interpolation:sRGB;color-interpolation-filters:linearRGB;solid-color:#000000;solid-opacity:1;vector-effect:none;fill:#ed7425;fill-opacity:1;fill-rule:nonzero;stroke:none;stroke-width:2;stroke-linecap:round;stroke-linejoin:round;stroke-miterlimit:4;stroke-dasharray:none;stroke-dashoffset:0;stroke-opacity:1;color-rendering:auto;image-rendering:auto;shape-rendering:auto;text-rendering:auto;enable-background:accumulate;stop-color:#000000;stop-opacity:1"
         id="path1616" />
      <path
         id="path1834"
         style="color:#000000;font-style:normal;font-variant:normal;font-weight:normal;font-stretch:normal;font-size:medium;line-height:normal;font-family:sans-serif;font-variant-ligatures:normal;font-variant-position:normal;font-variant-caps:normal;font-variant-numeric:normal;font-variant-alternates:normal;font-variant-east-asian:normal;font-feature-settings:normal;font-variation-settings:normal;text-indent:0;text-align:start;text-decoration:none;text-decoration-line:none;text-decoration-style:solid;text-decoration-color:#000000;letter-spacing:normal;word-spacing:normal;text-transform:none;writing-mode:lr-tb;direction:ltr;text-orientation:mixed;dominant-baseline:auto;baseline-shift:baseline;text-anchor:start;white-space:normal;shape-padding:0;shape-margin:0;inline-size:0;clip-rule:nonzero;display:inline;overflow:visible;visibility:visible;opacity:1;isolation:auto;mix-blend-mode:normal;color-interpolation:sRGB;color-interpolation-filters:linearRGB;solid-color:#000000;solid-opacity:1;vector-effect:none;fill:#fef79c;fill-opacity:1;fill-rule:nonzero;stroke:none;stroke-width:2;stroke-linecap:round;stroke-linejoin:round;stroke-miterlimit:4;stroke-dasharray:none;stroke-dashoffset:0;stroke-opacity:1;color-rendering:auto;image-rendering:auto;shape-rendering:auto;text-rendering:auto;enable-background:accumulate;stop-color:#000000;stop-opacity:1"
         d="m 405.57031,-75.763672 a 1.0000006,1.0000006 0 0 0 -0.0762,0.002 1.0000006,1.0000006 0 0 0 -0.0176,0.002 1.0000006,1.0000006 0 0 0 -0.18164,0.02734 1.0000006,1.0000006 0 0 0 -0.71289,0.75586 l -0.30859,1.142578 h -0.71289 a 1.0000006,1.0000006 0 0 0 -1.00391,1.003906 1.0000006,1.0000006 0 0 0 1.00391,0.996094 h 0.17383 l -0.18165,0.671875 a 1.0000006,1.0000006 0 0 0 0.70899,1.224609 1.0000006,1.0000006 0 0 0 1.22461,-0.701172 l 0.0703,-0.263672 0.0703,0.263672 a 1.0000006,1.0000006 0 0 0 1.22657,0.701172 1.0000006,1.0000006 0 0 0 0.70703,-1.224609 l -0.18164,-0.671875 h 0.17578 a 1.0000006,1.0000006 0 0 0 1.0039,-0.996094 1.0000006,1.0000006 0 0 0 -1.0039,-1.003906 h -0.71289 l -0.31446,-1.171875 a 1.0000006,1.0000006 0 0 0 -0.70703,-0.726563 1.0000006,1.0000006 0 0 0 -0.25,-0.03125 z"
         transform="matrix(0.26458334,0,0,0.26458334,0,280.06666)" />
      <path
         id="path1328"
         d="m 104.39411,260.53274 a 0.2645835,0.2645835 0 0 0 -0.26563,0.26367 0.2645835,0.2645835 0 0 0 0.26563,0.26563 0.2645835,0.2645835 0 0 0 0.26367,-0.26563 0.2645835,0.2645835 0 0 0 -0.26367,-0.26367 z"
         style="color:#000000;font-style:normal;font-variant:normal;font-weight:normal;font-stretch:normal;font-size:medium;line-height:normal;font-family:sans-serif;font-variant-ligatures:normal;font-variant-position:normal;font-variant-caps:normal;font-variant-numeric:normal;font-variant-alternates:normal;font-variant-east-asian:normal;font-feature-settings:normal;font-variation-settings:normal;text-indent:0;text-align:start;text-decoration:none;text-decoration-line:none;text-decoration-style:solid;text-decoration-color:#000000;letter-spacing:normal;word-spacing:normal;text-transform:none;writing-mode:lr-tb;direction:ltr;text-orientation:mixed;dominant-baseline:auto;baseline-shift:baseline;text-anchor:start;white-space:normal;shape-padding:0;shape-margin:0;inline-size:0;clip-rule:nonzero;display:inline;overflow:visible;visibility:visible;isolation:auto;mix-blend-mode:normal;color-interpolation:sRGB;color-interpolation-filters:linearRGB;solid-color:#000000;solid-opacity:1;vector-effect:none;fill:#5b6571;fill-opacity:1;fill-rule:nonzero;stroke:none;stroke-width:0.529167;stroke-linecap:round;stroke-linejoin:round;stroke-miterlimit:4;stroke-dasharray:none;stroke-dashoffset:0;stroke-opacity:1;color-rendering:auto;image-rendering:auto;shape-rendering:auto;text-rendering:auto;enable-background:accumulate;stop-color:#000000" />
      <path
         id="path1821"
         style="color:#000000;font-style:normal;font-variant:normal;font-weight:normal;font-stretch:normal;font-size:medium;line-height:normal;font-family:sans-serif;font-variant-ligatures:normal;font-variant-position:normal;font-variant-caps:normal;font-variant-numeric:normal;font-variant-alternates:normal;font-variant-east-asian:normal;font-feature-settings:normal;font-variation-settings:normal;text-indent:0;text-align:start;text-decoration:none;text-decoration-line:none;text-decoration-style:solid;text-decoration-color:#000000;letter-spacing:normal;word-spacing:normal;text-transform:none;writing-mode:lr-tb;direction:ltr;text-orientation:mixed;dominant-baseline:auto;baseline-shift:baseline;text-anchor:start;white-space:normal;shape-padding:0;shape-margin:0;inline-size:0;clip-rule:nonzero;display:inline;overflow:visible;visibility:visible;opacity:1;isolation:auto;mix-blend-mode:normal;color-interpolation:sRGB;color-interpolation-filters:linearRGB;solid-color:#000000;solid-opacity:1;vector-effect:none;fill:#fef79c;fill-opacity:1;fill-rule:nonzero;stroke:none;stroke-width:2;stroke-linecap:round;stroke-linejoin:round;stroke-miterlimit:4;stroke-dasharray:none;stroke-dashoffset:0;stroke-opacity:1;color-rendering:auto;image-rendering:auto;shape-rendering:auto;text-rendering:auto;enable-background:accumulate;stop-color:#000000;stop-opacity:1"
         d="m 396.52539,-59.699219 a 1.0000006,1.0000006 0 0 0 -0.26562,0.03711 1.0000006,1.0000006 0 0 0 -0.71289,0.755859 l -0.3086,1.142578 h -0.71289 a 1.0000006,1.0000006 0 0 0 -1.00391,0.996094 1.0000006,1.0000006 0 0 0 1.00391,1.003906 h 0.17383 l -0.18164,0.671875 a 1.0000006,1.0000006 0 0 0 0.70898,1.224609 1.0000006,1.0000006 0 0 0 1.22461,-0.708984 l 0.0703,-0.261719 0.0703,0.261719 a 1.0000006,1.0000006 0 0 0 1.22656,0.708984 1.0000006,1.0000006 0 0 0 0.70703,-1.224609 l -0.18164,-0.671875 h 0.17578 a 1.0000006,1.0000006 0 0 0 1.00391,-1.003906 1.0000006,1.0000006 0 0 0 -1.00391,-0.996094 h -0.71484 l -0.31446,-1.171875 a 1.0000006,1.0000006 0 0 0 -0.006,-0.01758 1.0000006,1.0000006 0 0 0 -0.0215,-0.07031 1.0000006,1.0000006 0 0 0 -0.002,-0.0098 1.0000006,1.0000006 0 0 0 -0.0274,-0.07031 1.0000006,1.0000006 0 0 0 -0.004,-0.0078 1.0000006,1.0000006 0 0 0 -0.01,-0.01953 1.0000006,1.0000006 0 0 0 -0.0293,-0.05469 1.0000006,1.0000006 0 0 0 -0.0351,-0.06055 1.0000006,1.0000006 0 0 0 -0.008,-0.01172 1.0000006,1.0000006 0 0 0 -0.0391,-0.05469 1.0000006,1.0000006 0 0 0 -0.0117,-0.01367 1.0000006,1.0000006 0 0 0 -0.043,-0.04883 1.0000006,1.0000006 0 0 0 -0.0117,-0.01367 1.0000006,1.0000006 0 0 0 -0.11133,-0.09961 1.0000006,1.0000006 0 0 0 -0.0156,-0.01172 1.0000006,1.0000006 0 0 0 -0.0527,-0.03711 1.0000006,1.0000006 0 0 0 -0.0156,-0.0098 1.0000006,1.0000006 0 0 0 -0.0117,-0.0059 1.0000006,1.0000006 0 0 0 -0.0625,-0.03516 1.0000006,1.0000006 0 0 0 -0.0586,-0.02734 1.0000006,1.0000006 0 0 0 -0.0176,-0.0078 1.0000006,1.0000006 0 0 0 -0.0605,-0.02344 1.0000006,1.0000006 0 0 0 -0.0176,-0.0059 1.0000006,1.0000006 0 0 0 -0.0352,-0.0098 1.0000006,1.0000006 0 0 0 -0.0117,-0.002 1.0000006,1.0000006 0 0 0 -0.24609,-0.03516 z"
         transform="matrix(0.26458334,0,0,0.26458334,0,280.06666)" />
      <path
         style="color:#000000;font-style:normal;font-variant:normal;font-weight:normal;font-stretch:normal;font-size:medium;line-height:normal;font-family:sans-serif;font-variant-ligatures:normal;font-variant-position:normal;font-variant-caps:normal;font-variant-numeric:normal;font-variant-alternates:normal;font-variant-east-asian:normal;font-feature-settings:normal;font-variation-settings:normal;text-indent:0;text-align:start;text-decoration:none;text-decoration-line:none;text-decoration-style:solid;text-decoration-color:#000000;letter-spacing:normal;word-spacing:normal;text-transform:none;writing-mode:lr-tb;direction:ltr;text-orientation:mixed;dominant-baseline:auto;baseline-shift:baseline;text-anchor:start;white-space:normal;shape-padding:0;shape-margin:0;inline-size:0;clip-rule:nonzero;display:inline;overflow:visible;visibility:visible;isolation:auto;mix-blend-mode:normal;color-interpolation:sRGB;color-interpolation-filters:linearRGB;solid-color:#000000;solid-opacity:1;vector-effect:none;fill:#5b6571;fill-opacity:1;fill-rule:nonzero;stroke:none;stroke-width:0.529167;stroke-linecap:round;stroke-linejoin:round;stroke-miterlimit:4;stroke-dasharray:none;stroke-dashoffset:0;stroke-opacity:1;color-rendering:auto;image-rendering:auto;shape-rendering:auto;text-rendering:auto;enable-background:accumulate;stop-color:#000000"
         d="m 106.5109,263.17857 a 0.2645835,0.2645835 0 0 0 -0.26562,0.26367 0.2645835,0.2645835 0 0 0 0.26562,0.26563 0.2645835,0.2645835 0 0 0 0.26368,-0.26563 0.2645835,0.2645835 0 0 0 -0.26368,-0.26367 z"
         id="path1410" />
      <path
         id="path1412"
         d="m 99.89528,264.76516 a 0.2645835,0.2645835 0 0 0 -0.265625,0.26367 0.2645835,0.2645835 0 0 0 0.265625,0.26563 0.2645835,0.2645835 0 0 0 0.26367,-0.26563 0.2645835,0.2645835 0 0 0 -0.26367,-0.26367 z"
         style="color:#000000;font-style:normal;font-variant:normal;font-weight:normal;font-stretch:normal;font-size:medium;line-height:normal;font-family:sans-serif;font-variant-ligatures:normal;font-variant-position:normal;font-variant-caps:normal;font-variant-numeric:normal;font-variant-alternates:normal;font-variant-east-asian:normal;font-feature-settings:normal;font-variation-settings:normal;text-indent:0;text-align:start;text-decoration:none;text-decoration-line:none;text-decoration-style:solid;text-decoration-color:#000000;letter-spacing:normal;word-spacing:normal;text-transform:none;writing-mode:lr-tb;direction:ltr;text-orientation:mixed;dominant-baseline:auto;baseline-shift:baseline;text-anchor:start;white-space:normal;shape-padding:0;shape-margin:0;inline-size:0;clip-rule:nonzero;display:inline;overflow:visible;visibility:visible;isolation:auto;mix-blend-mode:normal;color-interpolation:sRGB;color-interpolation-filters:linearRGB;solid-color:#000000;solid-opacity:1;vector-effect:none;fill:#5b6571;fill-opacity:1;fill-rule:nonzero;stroke:none;stroke-width:0.529167;stroke-linecap:round;stroke-linejoin:round;stroke-miterlimit:4;stroke-dasharray:none;stroke-dashoffset:0;stroke-opacity:1;color-rendering:auto;image-rendering:auto;shape-rendering:auto;text-rendering:auto;enable-background:accumulate;stop-color:#000000" />
      <path
         style="color:#000000;font-style:normal;font-variant:normal;font-weight:normal;font-stretch:normal;font-size:medium;line-height:normal;font-family:sans-serif;font-variant-ligatures:normal;font-variant-position:normal;font-variant-caps:normal;font-variant-numeric:normal;font-variant-alternates:normal;font-variant-east-asian:normal;font-feature-settings:normal;font-variation-settings:normal;text-indent:0;text-align:start;text-decoration:none;text-decoration-line:none;text-decoration-style:solid;text-decoration-color:#000000;letter-spacing:normal;word-spacing:normal;text-transform:none;writing-mode:lr-tb;direction:ltr;text-orientation:mixed;dominant-baseline:auto;baseline-shift:baseline;text-anchor:start;white-space:normal;shape-padding:0;shape-margin:0;inline-size:0;clip-rule:nonzero;display:inline;overflow:visible;visibility:visible;isolation:auto;mix-blend-mode:normal;color-interpolation:sRGB;color-interpolation-filters:linearRGB;solid-color:#000000;solid-opacity:1;vector-effect:none;fill:#5b6571;fill-opacity:1;fill-rule:nonzero;stroke:none;stroke-width:0.529167;stroke-linecap:round;stroke-linejoin:round;stroke-miterlimit:4;stroke-dasharray:none;stroke-dashoffset:0;stroke-opacity:1;color-rendering:auto;image-rendering:auto;shape-rendering:auto;text-rendering:auto;enable-background:accumulate;stop-color:#000000"
         d="m 100.42445,262.64849 a 0.2645835,0.2645835 0 0 0 -0.26563,0.26367 0.2645835,0.2645835 0 0 0 0.26563,0.26563 0.2645835,0.2645835 0 0 0 0.26367,-0.26563 0.2645835,0.2645835 0 0 0 -0.26367,-0.26367 z"
         id="path1414" />
      <path
         id="path1416"
         d="m 106.77445,255.76932 a 0.2645835,0.2645835 0 0 0 -0.26563,0.26367 0.2645835,0.2645835 0 0 0 0.26563,0.26563 0.2645835,0.2645835 0 0 0 0.26367,-0.26563 0.2645835,0.2645835 0 0 0 -0.26367,-0.26367 z"
         style="color:#000000;font-style:normal;font-variant:normal;font-weight:normal;font-stretch:normal;font-size:medium;line-height:normal;font-family:sans-serif;font-variant-ligatures:normal;font-variant-position:normal;font-variant-caps:normal;font-variant-numeric:normal;font-variant-alternates:normal;font-variant-east-asian:normal;font-feature-settings:normal;font-variation-settings:normal;text-indent:0;text-align:start;text-decoration:none;text-decoration-line:none;text-decoration-style:solid;text-decoration-color:#000000;letter-spacing:normal;word-spacing:normal;text-transform:none;writing-mode:lr-tb;direction:ltr;text-orientation:mixed;dominant-baseline:auto;baseline-shift:baseline;text-anchor:start;white-space:normal;shape-padding:0;shape-margin:0;inline-size:0;clip-rule:nonzero;display:inline;overflow:visible;visibility:visible;isolation:auto;mix-blend-mode:normal;color-interpolation:sRGB;color-interpolation-filters:linearRGB;solid-color:#000000;solid-opacity:1;vector-effect:none;fill:#5b6571;fill-opacity:1;fill-rule:nonzero;stroke:none;stroke-width:0.529167;stroke-linecap:round;stroke-linejoin:round;stroke-miterlimit:4;stroke-dasharray:none;stroke-dashoffset:0;stroke-opacity:1;color-rendering:auto;image-rendering:auto;shape-rendering:auto;text-rendering:auto;enable-background:accumulate;stop-color:#000000" />
      <path
         d="m 103.11499,254.18743 a 0.26460945,0.26460945 0 0 0 -0.12487,-0.0256 0.26460945,0.26460945 0 0 0 -0.0184,0.002 c 1.32719,0.95265 2.20548,2.48737 2.20548,4.24256 0,2.90892 -2.36477,5.27095 -5.27369,5.27096 -0.77259,0 -1.50596,-0.16779 -2.16793,-0.46699 0.86779,0.62683 1.93383,0.99615 3.08448,0.99616 2.90892,-1e-5 5.27368,-2.36204 5.27369,-5.27097 -1e-5,-2.03557 -1.18012,-3.77659 -2.87346,-4.65446 -0.0425,-0.0222 -0.0621,-0.0727 -0.10529,-0.0936 z"
         style="color:#000000;font-style:normal;font-variant:normal;font-weight:normal;font-stretch:normal;font-size:medium;line-height:normal;font-family:sans-serif;font-variant-ligatures:normal;font-variant-position:normal;font-variant-caps:normal;font-variant-numeric:normal;font-variant-alternates:normal;font-variant-east-asian:normal;font-feature-settings:normal;font-variation-settings:normal;text-indent:0;text-align:start;text-decoration:none;text-decoration-line:none;text-decoration-style:solid;text-decoration-color:#000000;letter-spacing:normal;word-spacing:normal;text-transform:none;writing-mode:lr-tb;direction:ltr;text-orientation:mixed;dominant-baseline:auto;baseline-shift:baseline;text-anchor:start;white-space:normal;shape-padding:0;shape-margin:0;inline-size:0;clip-rule:nonzero;display:inline;overflow:visible;visibility:visible;isolation:auto;mix-blend-mode:normal;color-interpolation:sRGB;color-interpolation-filters:linearRGB;solid-color:#000000;solid-opacity:1;vector-effect:none;fill:#7d8e9e;fill-opacity:1;fill-rule:nonzero;stroke:none;stroke-width:0.529167;stroke-linecap:round;stroke-linejoin:round;stroke-miterlimit:4;stroke-dasharray:none;stroke-dashoffset:0;stroke-opacity:1;color-rendering:auto;image-rendering:auto;shape-rendering:auto;text-rendering:auto;enable-background:accumulate;stop-color:#000000"
         id="path668" />
      <path
         d="m 102.76944,262.82585 c -0.37334,0.24257 -0.77891,0.43869 -1.20923,0.58136 -5.3e-4,0.0115 -0.004,0.0224 -0.004,0.0341 0,0.21884 0.0936,0.42135 0.24236,0.56069 l 0.0806,0.0977 c 0.14472,-0.0296 0.28617,-0.0684 0.42633,-0.10956 0.051,-0.0154 0.10212,-0.0301 0.15244,-0.047 0.0658,-0.0215 0.12969,-0.0468 0.19431,-0.0708 0.13573,-0.0515 0.2698,-0.10658 0.40049,-0.16795 4.9e-4,-2.3e-4 0.001,-2.9e-4 0.002,-5.2e-4 l 0.0217,-0.12764 v -0.002 c 0.007,-0.0409 0.0114,-0.0857 0.0114,-0.13281 0,-0.2527 -0.12691,-0.47618 -0.31832,-0.61547 z"
         style="color:#000000;font-style:normal;font-variant:normal;font-weight:normal;font-stretch:normal;font-size:medium;line-height:normal;font-family:sans-serif;font-variant-ligatures:normal;font-variant-position:normal;font-variant-caps:normal;font-variant-numeric:normal;font-variant-alternates:normal;font-variant-east-asian:normal;font-feature-settings:normal;font-variation-settings:normal;text-indent:0;text-align:start;text-decoration:none;text-decoration-line:none;text-decoration-style:solid;text-decoration-color:#000000;letter-spacing:normal;word-spacing:normal;text-transform:none;writing-mode:lr-tb;direction:ltr;text-orientation:mixed;dominant-baseline:auto;baseline-shift:baseline;text-anchor:start;white-space:normal;shape-padding:0;shape-margin:0;inline-size:0;clip-rule:nonzero;display:inline;overflow:visible;visibility:visible;isolation:auto;mix-blend-mode:normal;color-interpolation:sRGB;color-interpolation-filters:linearRGB;solid-color:#000000;solid-opacity:1;vector-effect:none;fill:#3a4d5c;fill-opacity:1;fill-rule:nonzero;stroke:none;stroke-width:0.529167;stroke-linecap:round;stroke-linejoin:round;stroke-miterlimit:4;stroke-dasharray:none;stroke-dashoffset:0;stroke-opacity:1;color-rendering:auto;image-rendering:auto;shape-rendering:auto;text-rendering:auto;enable-background:accumulate;stop-color:#000000"
         id="path675" />
      <path
         transform="matrix(0.26458334,0,0,0.26458334,0,280.06666)"
         d="m 395.49609,-73.171875 c -0.21786,0.446771 -0.44771,0.885153 -0.69726,1.3125 a 1.0000006,1.0000006 0 0 0 0.75781,-0.972656 1.0000006,1.0000006 0 0 0 -0.0606,-0.339844 z"
         style="color:#000000;font-style:normal;font-variant:normal;font-weight:normal;font-stretch:normal;font-size:medium;line-height:normal;font-family:sans-serif;font-variant-ligatures:normal;font-variant-position:normal;font-variant-caps:normal;font-variant-numeric:normal;font-variant-alternates:normal;font-variant-east-asian:normal;font-feature-settings:normal;font-variation-settings:normal;text-indent:0;text-align:start;text-decoration:none;text-decoration-line:none;text-decoration-style:solid;text-decoration-color:#000000;letter-spacing:normal;word-spacing:normal;text-transform:none;writing-mode:lr-tb;direction:ltr;text-orientation:mixed;dominant-baseline:auto;baseline-shift:baseline;text-anchor:start;white-space:normal;shape-padding:0;shape-margin:0;inline-size:0;clip-rule:nonzero;display:inline;overflow:visible;visibility:visible;isolation:auto;mix-blend-mode:normal;color-interpolation:sRGB;color-interpolation-filters:linearRGB;solid-color:#000000;solid-opacity:1;vector-effect:none;fill:#3a4d5c;fill-opacity:1;fill-rule:nonzero;stroke:none;stroke-width:2;stroke-linecap:round;stroke-linejoin:round;stroke-miterlimit:4;stroke-dasharray:none;stroke-dashoffset:0;stroke-opacity:1;color-rendering:auto;image-rendering:auto;shape-rendering:auto;text-rendering:auto;enable-background:accumulate;stop-color:#000000"
         id="path680" />
      <path
         transform="matrix(0.26458334,0,0,0.26458334,0,280.06666)"
         d="m 399.4043,-87.533203 -0.68555,0.04883 a 1.0001006,1.0001006 0 0 0 -0.0156,0.0078 c -0.67408,0.05751 -1.29265,0.299399 -1.82226,0.662109 0.41492,1.578651 0.63867,3.235848 0.63867,4.949219 0,0.570423 -0.029,1.133069 -0.0762,1.691406 0.48724,0.225333 1.0228,0.359375 1.5918,0.359375 0.42293,0 0.83425,-0.07071 1.21875,-0.199219 l 0.0215,-0.0059 0.69531,-0.21875 c -10e-6,-6.57e-4 2e-5,-0.0013 0,-0.002 -0.012,-0.630093 -0.0567,-1.252085 -0.12695,-1.865235 -0.003,-0.02864 -0.006,-0.05734 -0.01,-0.08594 -0.14774,-1.240433 -0.4097,-2.443293 -0.77929,-3.59961 -0.002,-0.0065 -0.004,-0.01306 -0.006,-0.01953 -0.004,-0.01123 -0.008,-0.02198 -0.0117,-0.0332 -0.18408,-0.570243 -0.39299,-1.129566 -0.62695,-1.675781 -0.002,-0.0046 -0.004,-0.0091 -0.006,-0.01367 z"
         style="color:#000000;font-style:normal;font-variant:normal;font-weight:normal;font-stretch:normal;font-size:medium;line-height:normal;font-family:sans-serif;font-variant-ligatures:normal;font-variant-position:normal;font-variant-caps:normal;font-variant-numeric:normal;font-variant-alternates:normal;font-variant-east-asian:normal;font-feature-settings:normal;font-variation-settings:normal;text-indent:0;text-align:start;text-decoration:none;text-decoration-line:none;text-decoration-style:solid;text-decoration-color:#000000;letter-spacing:normal;word-spacing:normal;text-transform:none;writing-mode:lr-tb;direction:ltr;text-orientation:mixed;dominant-baseline:auto;baseline-shift:baseline;text-anchor:start;white-space:normal;shape-padding:0;shape-margin:0;inline-size:0;clip-rule:nonzero;display:inline;overflow:visible;visibility:visible;isolation:auto;mix-blend-mode:normal;color-interpolation:sRGB;color-interpolation-filters:linearRGB;solid-color:#000000;solid-opacity:1;vector-effect:none;fill:#3a4d5c;fill-opacity:1;fill-rule:nonzero;stroke:none;stroke-width:2;stroke-linecap:round;stroke-linejoin:round;stroke-miterlimit:4;stroke-dasharray:none;stroke-dashoffset:0;stroke-opacity:1;color-rendering:auto;image-rendering:auto;shape-rendering:auto;text-rendering:auto;enable-background:accumulate;stop-color:#000000"
         id="path685" />
      <path
         d="m 103.14163,254.20203 a 0.26460945,0.26460945 0 0 0 -0.0262,-0.0145 c -0.22982,-0.11146 -0.46998,-0.20509 -0.71695,-0.28266 0.48879,0.80074 0.77482,1.7414 0.77481,2.74765 0,2.90893 -2.36446,5.27353 -5.273372,5.27353 -0.548399,0 -1.076903,-0.0864 -1.574628,-0.24199 0.03231,0.0526 0.06272,0.10653 0.09679,0.15792 a 0.26460945,0.26460945 0 0 0 0.10516,0.0917 c 0.692886,0.33283 1.469663,0.5215 2.289222,0.5215 2.908918,-10e-6 5.273378,-2.36461 5.273378,-5.27353 0,-1.07104 -0.32118,-2.0699 -0.86925,-2.90242 a 0.26460945,0.26460945 0 0 0 -0.079,-0.0772 z"
         style="color:#000000;font-style:normal;font-variant:normal;font-weight:normal;font-stretch:normal;font-size:medium;line-height:normal;font-family:sans-serif;font-variant-ligatures:normal;font-variant-position:normal;font-variant-caps:normal;font-variant-numeric:normal;font-variant-alternates:normal;font-variant-east-asian:normal;font-feature-settings:normal;font-variation-settings:normal;text-indent:0;text-align:start;text-decoration:none;text-decoration-line:none;text-decoration-style:solid;text-decoration-color:#000000;letter-spacing:normal;word-spacing:normal;text-transform:none;writing-mode:lr-tb;direction:ltr;text-orientation:mixed;dominant-baseline:auto;baseline-shift:baseline;text-anchor:start;white-space:normal;shape-padding:0;shape-margin:0;inline-size:0;clip-rule:nonzero;display:inline;overflow:visible;visibility:visible;isolation:auto;mix-blend-mode:normal;color-interpolation:sRGB;color-interpolation-filters:linearRGB;solid-color:#000000;solid-opacity:1;vector-effect:none;fill:#ed7425;fill-opacity:1;fill-rule:nonzero;stroke:none;stroke-width:0.529167;stroke-linecap:round;stroke-linejoin:round;stroke-miterlimit:4;stroke-dasharray:none;stroke-dashoffset:0;stroke-opacity:1;color-rendering:auto;image-rendering:auto;shape-rendering:auto;text-rendering:auto;enable-background:accumulate;stop-color:#000000"
         id="path695" />
    </g>
  </g>
</svg>
