<svg xmlns="http://www.w3.org/2000/svg" viewBox="0 0 22.578 22.578" height="64pt" width="64pt"><g style="display:inline"><path style="color:#000;font-style:normal;font-variant:normal;font-weight:400;font-stretch:normal;font-size:medium;line-height:normal;font-family:sans-serif;font-variant-ligatures:normal;font-variant-position:normal;font-variant-caps:normal;font-variant-numeric:normal;font-variant-alternates:normal;font-variant-east-asian:normal;font-feature-settings:normal;font-variation-settings:normal;text-indent:0;text-align:start;text-decoration:none;text-decoration-line:none;text-decoration-style:solid;text-decoration-color:#000;letter-spacing:normal;word-spacing:normal;text-transform:none;writing-mode:lr-tb;direction:ltr;text-orientation:mixed;dominant-baseline:auto;baseline-shift:baseline;text-anchor:start;white-space:normal;shape-padding:0;shape-margin:0;inline-size:0;clip-rule:nonzero;display:inline;overflow:visible;visibility:visible;isolation:auto;mix-blend-mode:normal;color-interpolation:sRGB;color-interpolation-filters:linearRGB;solid-color:#000;solid-opacity:1;vector-effect:none;fill:#aabfd0;fill-opacity:1;fill-rule:nonzero;stroke:none;stroke-width:.529166;stroke-linecap:round;stroke-linejoin:round;stroke-miterlimit:4;stroke-dasharray:none;stroke-dashoffset:0;stroke-opacity:1;color-rendering:auto;image-rendering:auto;shape-rendering:auto;text-rendering:auto;enable-background:accumulate;stop-color:#000" d="M102.99 254.162a.265.265 0 0 0-.21.408c.493.75.78 1.646.78 2.612a4.74 4.74 0 0 1-4.744 4.744 4.729 4.729 0 0 1-2.06-.469c-.241-.115-.481.159-.336.383a5.27 5.27 0 0 0 4.4 2.367 5.276 5.276 0 0 0 5.274-5.271c0-2.036-1.375-3.345-2.873-4.655-.036-.031-.063-.073-.106-.093a.266.266 0 0 0-.125-.026z" transform="matrix(1.27049 0 0 1.27049 -115.73 -316.536)"/><path style="color:#000;font-style:normal;font-variant:normal;font-weight:400;font-stretch:normal;font-size:medium;line-height:normal;font-family:sans-serif;font-variant-ligatures:normal;font-variant-position:normal;font-variant-caps:normal;font-variant-numeric:normal;font-variant-alternates:normal;font-variant-east-asian:normal;font-feature-settings:normal;font-variation-settings:normal;text-indent:0;text-align:start;text-decoration:none;text-decoration-line:none;text-decoration-style:solid;text-decoration-color:#000;letter-spacing:normal;word-spacing:normal;text-transform:none;writing-mode:lr-tb;direction:ltr;text-orientation:mixed;dominant-baseline:auto;baseline-shift:baseline;text-anchor:start;white-space:normal;shape-padding:0;shape-margin:0;inline-size:0;clip-rule:nonzero;display:inline;overflow:visible;visibility:visible;isolation:auto;mix-blend-mode:normal;color-interpolation:sRGB;color-interpolation-filters:linearRGB;solid-color:#000;solid-opacity:1;vector-effect:none;fill:#5b6571;fill-opacity:1;fill-rule:nonzero;stroke:none;stroke-width:.529167;stroke-linecap:round;stroke-linejoin:round;stroke-miterlimit:4;stroke-dasharray:none;stroke-dashoffset:0;stroke-opacity:1;color-rendering:auto;image-rendering:auto;shape-rendering:auto;text-rendering:auto;enable-background:accumulate;stop-color:#000" d="M102.158 260.145a.265.265 0 0 0-.168.068l-.908.82a.265.265 0 0 0-.06.31l.117.245c.155.363.516.617.933.617a1.02 1.02 0 0 0 1.016-1.016c0-.342-.172-.65-.434-.833a.265.265 0 0 0-.035-.02l-.334-.166a.265.265 0 0 0-.127-.025z" transform="matrix(1.27049 0 0 1.27049 -115.73 -316.536)"/><path style="color:#000;font-style:normal;font-variant:normal;font-weight:400;font-stretch:normal;font-size:medium;line-height:normal;font-family:sans-serif;font-variant-ligatures:normal;font-variant-position:normal;font-variant-caps:normal;font-variant-numeric:normal;font-variant-alternates:normal;font-variant-east-asian:normal;font-feature-settings:normal;font-variation-settings:normal;text-indent:0;text-align:start;text-decoration:none;text-decoration-line:none;text-decoration-style:solid;text-decoration-color:#000;letter-spacing:normal;word-spacing:normal;text-transform:none;writing-mode:lr-tb;direction:ltr;text-orientation:mixed;dominant-baseline:auto;baseline-shift:baseline;text-anchor:start;white-space:normal;shape-padding:0;shape-margin:0;inline-size:0;clip-rule:nonzero;display:inline;overflow:visible;visibility:visible;isolation:auto;mix-blend-mode:normal;color-interpolation:sRGB;color-interpolation-filters:linearRGB;solid-color:#000;solid-opacity:1;vector-effect:none;fill:#febe40;fill-opacity:1;fill-rule:nonzero;stroke:none;stroke-width:.529166;stroke-linecap:round;stroke-linejoin:round;stroke-miterlimit:4;stroke-dasharray:none;stroke-dashoffset:0;stroke-opacity:1;color-rendering:auto;image-rendering:auto;shape-rendering:auto;text-rendering:auto;enable-background:accumulate;stop-color:#000" d="M100.82 253.662c-2.909 0-5.084 2.365-5.084 5.274 0 1.073.347 2.073.686 2.906.026.04.063.071.105.092.693.332 1.503.136 2.323.136 2.909 0 5.08-1.988 5.08-4.897 0-1.07-.462-2.011-.71-2.894a.265.265 0 0 0-.105-.091 5.247 5.247 0 0 0-2.295-.526z" transform="matrix(1.27049 0 0 1.27049 -115.73 -316.536)"/><path style="color:#000;font-style:normal;font-variant:normal;font-weight:400;font-stretch:normal;font-size:medium;line-height:normal;font-family:sans-serif;font-variant-ligatures:normal;font-variant-position:normal;font-variant-caps:normal;font-variant-numeric:normal;font-variant-alternates:normal;font-variant-east-asian:normal;font-feature-settings:normal;font-variation-settings:normal;text-indent:0;text-align:start;text-decoration:none;text-decoration-line:none;text-decoration-style:solid;text-decoration-color:#000;letter-spacing:normal;word-spacing:normal;text-transform:none;writing-mode:lr-tb;direction:ltr;text-orientation:mixed;dominant-baseline:auto;baseline-shift:baseline;text-anchor:start;white-space:normal;shape-padding:0;shape-margin:0;inline-size:0;clip-rule:nonzero;display:inline;overflow:visible;visibility:visible;opacity:1;isolation:auto;mix-blend-mode:normal;color-interpolation:sRGB;color-interpolation-filters:linearRGB;solid-color:#000;solid-opacity:1;vector-effect:none;fill:#5b6571;fill-opacity:1;fill-rule:nonzero;stroke:none;stroke-width:2;stroke-linecap:round;stroke-linejoin:round;stroke-miterlimit:4;stroke-dasharray:none;stroke-dashoffset:0;stroke-opacity:1;color-rendering:auto;image-rendering:auto;shape-rendering:auto;text-rendering:auto;enable-background:accumulate;stop-color:#000;stop-opacity:1" d="m399.23-87.272-.511-.212-.016.007a3.846 3.846 0 0 0-3.506 3.825 3.852 3.852 0 0 0 3.838 3.838c.423 0 .834-.071 1.219-.2l.021-.006.696-.218c-.05-2.592-.777-4.79-1.74-7.034zM386.73-65.723c-1.585 0-2.894 1.301-2.894 2.887 0 .827.354 1.593.916 2.12l.307.37a19.725 19.725 0 0 0 4.44-1.498l.081-.482v-.008a2.903 2.903 0 0 0-2.85-3.389z" transform="translate(-115.73 39.285) scale(.33615)"/><path transform="translate(-115.73 39.285) scale(.33615)" d="M381.053-96.01c-2.593 0-5.031.688-7.131 1.897a1 1 0 0 0-.37 1.367 1 1 0 0 0 1.366.369 12.244 12.244 0 0 1 6.135-1.633c1.925 0 3.739.442 5.36 1.227a1 1 0 0 0 1.335-.465 1 1 0 0 0-.465-1.338c-1.885-.913-4-1.424-6.23-1.424zm-10.645 4.563a1 1 0 0 0-.68.287 13.348 13.348 0 0 0-2.855 4.238 1 1 0 0 0 .531 1.313 1 1 0 0 0 1.315-.532 11.343 11.343 0 0 1 2.427-3.601 1 1 0 0 0 0-1.418 1 1 0 0 0-.738-.287z" style="color:#000;font-style:normal;font-variant:normal;font-weight:400;font-stretch:normal;font-size:medium;line-height:normal;font-family:sans-serif;font-variant-ligatures:normal;font-variant-position:normal;font-variant-caps:normal;font-variant-numeric:normal;font-variant-alternates:normal;font-variant-east-asian:normal;font-feature-settings:normal;font-variation-settings:normal;text-indent:0;text-align:start;text-decoration:none;text-decoration-line:none;text-decoration-style:solid;text-decoration-color:#000;letter-spacing:normal;word-spacing:normal;text-transform:none;writing-mode:lr-tb;direction:ltr;text-orientation:mixed;dominant-baseline:auto;baseline-shift:baseline;text-anchor:start;white-space:normal;shape-padding:0;shape-margin:0;inline-size:0;clip-rule:nonzero;display:inline;overflow:visible;visibility:visible;opacity:1;isolation:auto;mix-blend-mode:normal;color-interpolation:sRGB;color-interpolation-filters:linearRGB;solid-color:#000;solid-opacity:1;vector-effect:none;fill:#ed7425;fill-opacity:1;fill-rule:nonzero;stroke:none;stroke-width:2;stroke-linecap:round;stroke-linejoin:round;stroke-miterlimit:4;stroke-dasharray:none;stroke-dashoffset:0;stroke-opacity:1;color-rendering:auto;image-rendering:auto;shape-rendering:auto;text-rendering:auto;enable-background:accumulate;stop-color:#000;stop-opacity:1"/><path style="color:#000;font-style:normal;font-variant:normal;font-weight:400;font-stretch:normal;font-size:medium;line-height:normal;font-family:sans-serif;font-variant-ligatures:normal;font-variant-position:normal;font-variant-caps:normal;font-variant-numeric:normal;font-variant-alternates:normal;font-variant-east-asian:normal;font-feature-settings:normal;font-variation-settings:normal;text-indent:0;text-align:start;text-decoration:none;text-decoration-line:none;text-decoration-style:solid;text-decoration-color:#000;letter-spacing:normal;word-spacing:normal;text-transform:none;writing-mode:lr-tb;direction:ltr;text-orientation:mixed;dominant-baseline:auto;baseline-shift:baseline;text-anchor:start;white-space:normal;shape-padding:0;shape-margin:0;inline-size:0;clip-rule:nonzero;display:inline;overflow:visible;visibility:visible;opacity:1;isolation:auto;mix-blend-mode:normal;color-interpolation:sRGB;color-interpolation-filters:linearRGB;solid-color:#000;solid-opacity:1;vector-effect:none;fill:#fef79c;fill-opacity:1;fill-rule:nonzero;stroke:none;stroke-width:2;stroke-linecap:round;stroke-linejoin:round;stroke-miterlimit:4;stroke-dasharray:none;stroke-dashoffset:0;stroke-opacity:1;color-rendering:auto;image-rendering:auto;shape-rendering:auto;text-rendering:auto;enable-background:accumulate;stop-color:#000;stop-opacity:1" d="M405.57-75.764a1 1 0 0 0-.076.002 1 1 0 0 0-.017.002 1 1 0 0 0-.182.028 1 1 0 0 0-.713.756l-.309 1.142h-.713a1 1 0 0 0-1.003 1.004 1 1 0 0 0 1.003.996h.174l-.181.672a1 1 0 0 0 .709 1.225 1 1 0 0 0 1.224-.702l.07-.263.07.263a1 1 0 0 0 1.227.702 1 1 0 0 0 .707-1.225l-.181-.672h.176a1 1 0 0 0 1.004-.996 1 1 0 0 0-1.004-1.004h-.713l-.315-1.172a1 1 0 0 0-.707-.726 1 1 0 0 0-.25-.032z" transform="translate(-115.73 39.285) scale(.33615)"/><path d="M104.394 260.533a.265.265 0 0 0-.266.263.265.265 0 0 0 .266.266.265.265 0 0 0 .264-.266.265.265 0 0 0-.264-.263z" style="color:#000;font-style:normal;font-variant:normal;font-weight:400;font-stretch:normal;font-size:medium;line-height:normal;font-family:sans-serif;font-variant-ligatures:normal;font-variant-position:normal;font-variant-caps:normal;font-variant-numeric:normal;font-variant-alternates:normal;font-variant-east-asian:normal;font-feature-settings:normal;font-variation-settings:normal;text-indent:0;text-align:start;text-decoration:none;text-decoration-line:none;text-decoration-style:solid;text-decoration-color:#000;letter-spacing:normal;word-spacing:normal;text-transform:none;writing-mode:lr-tb;direction:ltr;text-orientation:mixed;dominant-baseline:auto;baseline-shift:baseline;text-anchor:start;white-space:normal;shape-padding:0;shape-margin:0;inline-size:0;clip-rule:nonzero;display:inline;overflow:visible;visibility:visible;isolation:auto;mix-blend-mode:normal;color-interpolation:sRGB;color-interpolation-filters:linearRGB;solid-color:#000;solid-opacity:1;vector-effect:none;fill:#5b6571;fill-opacity:1;fill-rule:nonzero;stroke:none;stroke-width:.529167;stroke-linecap:round;stroke-linejoin:round;stroke-miterlimit:4;stroke-dasharray:none;stroke-dashoffset:0;stroke-opacity:1;color-rendering:auto;image-rendering:auto;shape-rendering:auto;text-rendering:auto;enable-background:accumulate;stop-color:#000" transform="matrix(1.27049 0 0 1.27049 -115.73 -316.536)"/><path style="color:#000;font-style:normal;font-variant:normal;font-weight:400;font-stretch:normal;font-size:medium;line-height:normal;font-family:sans-serif;font-variant-ligatures:normal;font-variant-position:normal;font-variant-caps:normal;font-variant-numeric:normal;font-variant-alternates:normal;font-variant-east-asian:normal;font-feature-settings:normal;font-variation-settings:normal;text-indent:0;text-align:start;text-decoration:none;text-decoration-line:none;text-decoration-style:solid;text-decoration-color:#000;letter-spacing:normal;word-spacing:normal;text-transform:none;writing-mode:lr-tb;direction:ltr;text-orientation:mixed;dominant-baseline:auto;baseline-shift:baseline;text-anchor:start;white-space:normal;shape-padding:0;shape-margin:0;inline-size:0;clip-rule:nonzero;display:inline;overflow:visible;visibility:visible;opacity:1;isolation:auto;mix-blend-mode:normal;color-interpolation:sRGB;color-interpolation-filters:linearRGB;solid-color:#000;solid-opacity:1;vector-effect:none;fill:#fef79c;fill-opacity:1;fill-rule:nonzero;stroke:none;stroke-width:2;stroke-linecap:round;stroke-linejoin:round;stroke-miterlimit:4;stroke-dasharray:none;stroke-dashoffset:0;stroke-opacity:1;color-rendering:auto;image-rendering:auto;shape-rendering:auto;text-rendering:auto;enable-background:accumulate;stop-color:#000;stop-opacity:1" d="M396.525-59.7a1 1 0 0 0-.265.038 1 1 0 0 0-.713.756l-.309 1.142h-.713a1 1 0 0 0-1.004.996 1 1 0 0 0 1.004 1.004h.174l-.181.672a1 1 0 0 0 .709 1.225 1 1 0 0 0 1.224-.71l.07-.26.07.26a1 1 0 0 0 1.227.71 1 1 0 0 0 .707-1.225l-.181-.672h.175a1 1 0 0 0 1.004-1.004 1 1 0 0 0-1.004-.996h-.714l-.315-1.172a1 1 0 0 0-.006-.017 1 1 0 0 0-.021-.07 1 1 0 0 0-.002-.01 1 1 0 0 0-.028-.07 1 1 0 0 0-.004-.008 1 1 0 0 0-.01-.02 1 1 0 0 0-.029-.055 1 1 0 0 0-.035-.06 1 1 0 0 0-.008-.012 1 1 0 0 0-.04-.055 1 1 0 0 0-.01-.013 1 1 0 0 0-.044-.049 1 1 0 0 0-.012-.014 1 1 0 0 0-.11-.1 1 1 0 0 0-.017-.011 1 1 0 0 0-.052-.037 1 1 0 0 0-.016-.01 1 1 0 0 0-.012-.006 1 1 0 0 0-.062-.035 1 1 0 0 0-.059-.027 1 1 0 0 0-.017-.008 1 1 0 0 0-.06-.024 1 1 0 0 0-.018-.005 1 1 0 0 0-.036-.01 1 1 0 0 0-.011-.002 1 1 0 0 0-.246-.035z" transform="translate(-115.73 39.285) scale(.33615)"/><path style="color:#000;font-style:normal;font-variant:normal;font-weight:400;font-stretch:normal;font-size:medium;line-height:normal;font-family:sans-serif;font-variant-ligatures:normal;font-variant-position:normal;font-variant-caps:normal;font-variant-numeric:normal;font-variant-alternates:normal;font-variant-east-asian:normal;font-feature-settings:normal;font-variation-settings:normal;text-indent:0;text-align:start;text-decoration:none;text-decoration-line:none;text-decoration-style:solid;text-decoration-color:#000;letter-spacing:normal;word-spacing:normal;text-transform:none;writing-mode:lr-tb;direction:ltr;text-orientation:mixed;dominant-baseline:auto;baseline-shift:baseline;text-anchor:start;white-space:normal;shape-padding:0;shape-margin:0;inline-size:0;clip-rule:nonzero;display:inline;overflow:visible;visibility:visible;isolation:auto;mix-blend-mode:normal;color-interpolation:sRGB;color-interpolation-filters:linearRGB;solid-color:#000;solid-opacity:1;vector-effect:none;fill:#5b6571;fill-opacity:1;fill-rule:nonzero;stroke:none;stroke-width:.529167;stroke-linecap:round;stroke-linejoin:round;stroke-miterlimit:4;stroke-dasharray:none;stroke-dashoffset:0;stroke-opacity:1;color-rendering:auto;image-rendering:auto;shape-rendering:auto;text-rendering:auto;enable-background:accumulate;stop-color:#000" d="M106.51 263.179a.265.265 0 0 0-.265.263.265.265 0 0 0 .266.266.265.265 0 0 0 .264-.266.265.265 0 0 0-.264-.263zM99.895 264.765a.265.265 0 0 0-.265.264.265.265 0 0 0 .265.265.265.265 0 0 0 .264-.265.265.265 0 0 0-.264-.264zM100.424 262.648a.265.265 0 0 0-.265.264.265.265 0 0 0 .265.266.265.265 0 0 0 .264-.266.265.265 0 0 0-.264-.264zM106.774 255.77a.265.265 0 0 0-.265.263.265.265 0 0 0 .265.266.265.265 0 0 0 .264-.266.265.265 0 0 0-.264-.264z" transform="matrix(1.27049 0 0 1.27049 -115.73 -316.536)"/><path d="M105.177 258.406a5.276 5.276 0 0 1-7.441 4.804 5.276 5.276 0 0 0 8.358-4.275c0-2.035-1.547-3.51-2.874-4.654-.042-.022-.062-.073-.105-.094-.039-.018-.082-.027.551.451.633.478 1.511 2.013 1.511 3.768z" style="color:#000;font-style:normal;font-variant:normal;font-weight:400;font-stretch:normal;font-size:medium;line-height:normal;font-family:sans-serif;font-variant-ligatures:normal;font-variant-position:normal;font-variant-caps:normal;font-variant-numeric:normal;font-variant-alternates:normal;font-variant-east-asian:normal;font-feature-settings:normal;font-variation-settings:normal;text-indent:0;text-align:start;text-decoration:none;text-decoration-line:none;text-decoration-style:solid;text-decoration-color:#000;letter-spacing:normal;word-spacing:normal;text-transform:none;writing-mode:lr-tb;direction:ltr;text-orientation:mixed;dominant-baseline:auto;baseline-shift:baseline;text-anchor:start;white-space:normal;shape-padding:0;shape-margin:0;inline-size:0;clip-rule:nonzero;display:inline;overflow:visible;visibility:visible;isolation:auto;mix-blend-mode:normal;color-interpolation:sRGB;color-interpolation-filters:linearRGB;solid-color:#000;solid-opacity:1;vector-effect:none;fill:#7d8e9e;fill-opacity:1;fill-rule:nonzero;stroke:none;stroke-width:.529167;stroke-linecap:round;stroke-linejoin:round;stroke-miterlimit:4;stroke-dasharray:none;stroke-dashoffset:0;stroke-opacity:1;color-rendering:auto;image-rendering:auto;shape-rendering:auto;text-rendering:auto;enable-background:accumulate;stop-color:#000" transform="matrix(1.27049 0 0 1.27049 -115.73 -316.536)"/><path d="M102.77 262.826a5.252 5.252 0 0 1-1.21.581c0 .012-.004.023-.004.034 0 .22.094.422.243.561l.08.098a5.24 5.24 0 0 0 .426-.11c.051-.015.103-.03.153-.047.066-.021.13-.047.194-.07a5.69 5.69 0 0 0 .4-.169h.003l.021-.128v-.002a.762.762 0 0 0-.307-.748z" style="color:#000;font-style:normal;font-variant:normal;font-weight:400;font-stretch:normal;font-size:medium;line-height:normal;font-family:sans-serif;font-variant-ligatures:normal;font-variant-position:normal;font-variant-caps:normal;font-variant-numeric:normal;font-variant-alternates:normal;font-variant-east-asian:normal;font-feature-settings:normal;font-variation-settings:normal;text-indent:0;text-align:start;text-decoration:none;text-decoration-line:none;text-decoration-style:solid;text-decoration-color:#000;letter-spacing:normal;word-spacing:normal;text-transform:none;writing-mode:lr-tb;direction:ltr;text-orientation:mixed;dominant-baseline:auto;baseline-shift:baseline;text-anchor:start;white-space:normal;shape-padding:0;shape-margin:0;inline-size:0;clip-rule:nonzero;display:inline;overflow:visible;visibility:visible;isolation:auto;mix-blend-mode:normal;color-interpolation:sRGB;color-interpolation-filters:linearRGB;solid-color:#000;solid-opacity:1;vector-effect:none;fill:#3a4d5c;fill-opacity:1;fill-rule:nonzero;stroke:none;stroke-width:.529167;stroke-linecap:round;stroke-linejoin:round;stroke-miterlimit:4;stroke-dasharray:none;stroke-dashoffset:0;stroke-opacity:1;color-rendering:auto;image-rendering:auto;shape-rendering:auto;text-rendering:auto;enable-background:accumulate;stop-color:#000" transform="matrix(1.27049 0 0 1.27049 -115.73 -316.536)"/><path transform="translate(-115.73 39.285) scale(.33615)" d="M395.496-73.172c-.218.447-.448.885-.697 1.313a1 1 0 0 0 .758-.973 1 1 0 0 0-.061-.34zM398.374-87.452c-.345.033-.964.275-1.493.638a19.438 19.438 0 0 1 .562 6.64c.488.226 1.023.36 1.592.36.423 0 .834-.071 1.219-.2l.021-.006.696-.218v-.002a19.669 19.669 0 0 0-.127-1.866l-.01-.085a19.314 19.314 0 0 0-.78-3.6l-.006-.02-.011-.033c-.184-.57-.599-1.082-.719-1.362z" style="color:#000;font-style:normal;font-variant:normal;font-weight:400;font-stretch:normal;font-size:medium;line-height:normal;font-family:sans-serif;font-variant-ligatures:normal;font-variant-position:normal;font-variant-caps:normal;font-variant-numeric:normal;font-variant-alternates:normal;font-variant-east-asian:normal;font-feature-settings:normal;font-variation-settings:normal;text-indent:0;text-align:start;text-decoration:none;text-decoration-line:none;text-decoration-style:solid;text-decoration-color:#000;letter-spacing:normal;word-spacing:normal;text-transform:none;writing-mode:lr-tb;direction:ltr;text-orientation:mixed;dominant-baseline:auto;baseline-shift:baseline;text-anchor:start;white-space:normal;shape-padding:0;shape-margin:0;inline-size:0;clip-rule:nonzero;display:inline;overflow:visible;visibility:visible;isolation:auto;mix-blend-mode:normal;color-interpolation:sRGB;color-interpolation-filters:linearRGB;solid-color:#000;solid-opacity:1;vector-effect:none;fill:#3a4d5c;fill-opacity:1;fill-rule:nonzero;stroke:none;stroke-width:2;stroke-linecap:round;stroke-linejoin:round;stroke-miterlimit:4;stroke-dasharray:none;stroke-dashoffset:0;stroke-opacity:1;color-rendering:auto;image-rendering:auto;shape-rendering:auto;text-rendering:auto;enable-background:accumulate;stop-color:#000"/><path d="M103.142 254.202a5.242 5.242 0 0 0-.743-.297c.488.8.774 1.741.774 2.748a5.278 5.278 0 0 1-5.273 5.273 5.268 5.268 0 0 1-1.575-.242c.033.053.063.107.097.158.026.04.063.071.105.092.827.199.85.304 1.67.304 2.91 0 5.759-2.147 5.759-5.056 0-1.071-.438-2.054-.735-2.903a.264.264 0 0 0-.08-.077z" style="color:#000;font-style:normal;font-variant:normal;font-weight:400;font-stretch:normal;font-size:medium;line-height:normal;font-family:sans-serif;font-variant-ligatures:normal;font-variant-position:normal;font-variant-caps:normal;font-variant-numeric:normal;font-variant-alternates:normal;font-variant-east-asian:normal;font-feature-settings:normal;font-variation-settings:normal;text-indent:0;text-align:start;text-decoration:none;text-decoration-line:none;text-decoration-style:solid;text-decoration-color:#000;letter-spacing:normal;word-spacing:normal;text-transform:none;writing-mode:lr-tb;direction:ltr;text-orientation:mixed;dominant-baseline:auto;baseline-shift:baseline;text-anchor:start;white-space:normal;shape-padding:0;shape-margin:0;inline-size:0;clip-rule:nonzero;display:inline;overflow:visible;visibility:visible;isolation:auto;mix-blend-mode:normal;color-interpolation:sRGB;color-interpolation-filters:linearRGB;solid-color:#000;solid-opacity:1;vector-effect:none;fill:#ed7425;fill-opacity:1;fill-rule:nonzero;stroke:none;stroke-width:.529167;stroke-linecap:round;stroke-linejoin:round;stroke-miterlimit:4;stroke-dasharray:none;stroke-dashoffset:0;stroke-opacity:1;color-rendering:auto;image-rendering:auto;shape-rendering:auto;text-rendering:auto;enable-background:accumulate;stop-color:#000" transform="matrix(1.27049 0 0 1.27049 -115.73 -316.536)"/><path style="color:#000;font-style:normal;font-variant:normal;font-weight:400;font-stretch:normal;font-size:medium;line-height:normal;font-family:sans-serif;font-variant-ligatures:normal;font-variant-position:normal;font-variant-caps:normal;font-variant-numeric:normal;font-variant-alternates:normal;font-variant-east-asian:normal;font-feature-settings:normal;font-variation-settings:normal;text-indent:0;text-align:start;text-decoration:none;text-decoration-line:none;text-decoration-style:solid;text-decoration-color:#000;letter-spacing:normal;word-spacing:normal;text-transform:none;writing-mode:lr-tb;direction:ltr;text-orientation:mixed;dominant-baseline:auto;baseline-shift:baseline;text-anchor:start;white-space:normal;shape-padding:0;shape-margin:0;inline-size:0;clip-rule:nonzero;display:inline;overflow:visible;visibility:visible;opacity:1;isolation:auto;mix-blend-mode:normal;color-interpolation:sRGB;color-interpolation-filters:linearRGB;solid-color:#000;solid-opacity:1;vector-effect:none;fill:#000;fill-opacity:1;fill-rule:nonzero;stroke:none;stroke-width:.529167;stroke-linecap:round;stroke-linejoin:round;stroke-miterlimit:4;stroke-dasharray:none;stroke-dashoffset:0;stroke-opacity:1;color-rendering:auto;image-rendering:auto;shape-rendering:auto;text-rendering:auto;enable-background:accumulate;stop-color:#000;stop-opacity:1" d="M97.582 250.238h-.01a.265.265 0 0 0-.244.307l.477 2.924a.265.265 0 1 0 .521-.085l-.476-2.924a.265.265 0 0 0-.268-.221zm6.982.42a.264.264 0 0 0-.215.128l-1.502 2.503a.265.265 0 1 0 .454.273l1.502-2.503a.265.265 0 0 0-.239-.402zm-3.494.489a.265.265 0 0 0-.263.263v1.516a.265.265 0 0 0 .529 0v-1.516a.265.265 0 0 0-.266-.263zm-5.802 2.23a.265.265 0 0 0-.178.451l1.07 1.072a.265.265 0 1 0 .375-.374l-1.072-1.071a.265.265 0 0 0-.195-.078zm10.456 3.647c-.657-1.259-1.24-2.065-2.63-2.845a5.25 5.25 0 0 0-2.274-.517 5.278 5.278 0 0 0-5.273 5.274c.09 1.08.387 2.154.89 2.928a5.268 5.268 0 0 0 4.383 2.343 5.56 5.56 0 0 0 2.151-.463 5.273 5.273 0 0 0 3.123-4.808 4.91 4.91 0 0 0-.012-.328c-.057-.592-.044-.833-.358-1.584zm-4.904-2.833c.715 0 1.39.16 1.998.443a4.74 4.74 0 0 1-5.993 6.854 4.74 4.74 0 0 1 3.996-7.297zm0 .473c-.686 0-1.33.182-1.887.502a.265.265 0 1 0 .264.46 3.24 3.24 0 0 1 1.623-.433c.51 0 .99.117 1.418.325a.264.264 0 1 0 .23-.477 3.771 3.771 0 0 0-1.648-.377zm2.732.367c.72.649 1.192 1.249 1.555 2.006-.323.17-.544.508-.544.897 0 .553.45 1.006 1.001 1.014a4.733 4.733 0 0 1-2.542 4.187.77.77 0 0 0-.7-.457.768.768 0 0 0-.745.934c-.247.04-.733.082-.991.082-1.328 0-2.494-.657-3.354-1.535.428.112 1.122.296 1.584.296.894 0 1.736-.225 2.474-.619a1.014 1.014 0 0 0 1.575-1.28 5.248 5.248 0 0 0 1.225-3.374c-.028-1.235-.538-2.15-.538-2.15zm3.222.738a.265.265 0 1 0-.002.53.265.265 0 0 0 .002-.53zm-8.77.102a.262.262 0 0 0-.18.076c-.32.32-.577.7-.756 1.122a.265.265 0 1 0 .489.206c.152-.358.37-.681.642-.953a.265.265 0 0 0-.195-.45zm-5.887.295a.265.265 0 0 0-.043.525l2.924.477a.265.265 0 1 0 .086-.522l-2.924-.476a.206.206 0 0 0-.043-.004zm13.2 1.358c.103.283.175.58.214.891a.48.48 0 0 1-.44-.481c0-.175.091-.325.227-.41zm-12.034 2.148a.265.265 0 0 0 0 .53H94.8a.265.265 0 0 0 0-.53zm13.763.557-.082.302h-.189a.265.265 0 1 0 0 .53h.046l-.048.177a.265.265 0 0 0 .512.139l.019-.07.018.07a.265.265 0 0 0 .512-.139l-.048-.177h.046a.265.265 0 1 0 0-.53h-.188l-.084-.31c-.014-.093-.073-.209-.253-.2a.247.247 0 0 0-.261.208zm-2.652.304a.265.265 0 1 0-.002.53.265.265 0 0 0 .002-.53zm-1.897.42a.487.487 0 0 1-.425.723.475.475 0 0 1-.312-.12c.264-.179.51-.382.737-.604zm-6.945.723a.27.27 0 0 0-.126.037l-2.504 1.502a.265.265 0 1 0 .271.455l2.505-1.504a.265.265 0 0 0-.146-.49zm4.872.973a.265.265 0 1 0-.002.529.265.265 0 0 0 .002-.53zm6.087.53a.265.265 0 1 0-.002.529.265.265 0 0 0 .002-.53zm-4.189.026c.102 0 .185.06.219.147a4.718 4.718 0 0 1-.443.147c-.005-.019-.012-.037-.012-.058 0-.133.103-.236.236-.236zm2.592 1.066c-.146.001-.232.08-.259.21l-.081.302h-.19a.265.265 0 1 0 0 .53h.047l-.048.177a.265.265 0 1 0 .511.137l.019-.07.019.07a.265.265 0 1 0 .511-.137l-.048-.177h.047a.265.265 0 1 0 0-.53h-.19l-.083-.31c-.058-.163-.147-.205-.255-.202zm-5.019.494a.265.265 0 1 0-.002.53.265.265 0 0 0 .002-.53z" transform="matrix(1.27049 0 0 1.27049 -115.73 -316.536)"/></g></svg>